<!-- Generator: Adobe Illustrator 18.0.0, SVG Export Plug-In  -->
<svg version="1.1"
	 xmlns="http://www.w3.org/2000/svg" xmlns:xlink="http://www.w3.org/1999/xlink" xmlns:a="http://ns.adobe.com/AdobeSVGViewerExtensions/3.0/"
	 x="0px" y="0px" width="56.2px" height="26.5px" viewBox="0 0 56.2 26.5" enable-background="new 0 0 56.2 26.5"
	 xml:space="preserve">
<defs>
</defs>
<g>
	
		<rect x="0.2" y="0.2" fill-rule="evenodd" clip-rule="evenodd" fill="#FEBF4E" stroke="#000000" stroke-width="0.3871" stroke-linecap="round" width="55.8" height="26.1"/>
</g>
<g>
	<path d="M9.9,11.6c-0.4-0.3-0.7-0.5-1.1-0.7c-0.4-0.2-0.8-0.2-1.3-0.2c-0.9,0-1.6,0.3-2.1,0.8c-0.5,0.6-0.8,1.3-0.8,2.1
		c0,0.8,0.3,1.5,0.8,2.1c0.5,0.6,1.2,0.8,2,0.8c0.5,0,0.9-0.1,1.3-0.2s0.8-0.4,1.2-0.7v1.4c-0.3,0.2-0.7,0.4-1.1,0.6
		c-0.4,0.1-0.8,0.2-1.3,0.2c-0.6,0-1.2-0.1-1.7-0.3c-0.5-0.2-1-0.5-1.3-0.9c-0.4-0.4-0.7-0.8-0.9-1.3c-0.2-0.5-0.3-1.1-0.3-1.6
		c0-0.6,0.1-1.1,0.3-1.6s0.5-1,0.9-1.3c0.4-0.4,0.8-0.7,1.3-0.9c0.5-0.2,1.1-0.3,1.6-0.3c0.5,0,0.9,0.1,1.3,0.2
		c0.4,0.1,0.8,0.3,1.2,0.6L9.9,11.6z"/>
	<path d="M16.7,17.6l-0.9-2h-3.1l-0.9,2h-1.3l3.8-8.2l3.8,8.2H16.7z M13.1,14.5h2.2l-0.8-1.8c0-0.1-0.1-0.2-0.1-0.4
		c-0.1-0.1-0.1-0.3-0.2-0.5c0,0.2-0.1,0.3-0.1,0.5c0,0.1-0.1,0.3-0.1,0.4L13.1,14.5z"/>
	<path d="M18.5,9.7h1.3v4.8c0,0.7,0.2,1.2,0.5,1.6c0.3,0.4,0.8,0.5,1.5,0.5c0.6,0,1.1-0.2,1.5-0.5c0.3-0.4,0.5-0.9,0.5-1.6V9.7H25
		v4.9c0,1.1-0.3,1.9-0.8,2.4s-1.3,0.8-2.4,0.8c-1.1,0-1.9-0.3-2.4-0.8c-0.5-0.5-0.8-1.3-0.8-2.4V9.7z"/>
	<path d="M29.3,10.8v6.8H28v-6.8h-2.1V9.7h5.4v1.1H29.3z"/>
	<path d="M32.4,17.6V9.7h1.3v7.9H32.4z"/>
	<path d="M43.5,13.7c0,0.6-0.1,1.1-0.3,1.6c-0.2,0.5-0.5,0.9-0.9,1.3c-0.4,0.4-0.9,0.7-1.4,0.9c-0.5,0.2-1,0.3-1.6,0.3
		c-0.6,0-1.1-0.1-1.6-0.3c-0.5-0.2-1-0.5-1.4-0.9c-0.4-0.4-0.7-0.8-0.9-1.3c-0.2-0.5-0.3-1-0.3-1.6c0-0.6,0.1-1.1,0.3-1.6
		c0.2-0.5,0.5-0.9,0.9-1.3c0.4-0.4,0.9-0.7,1.4-0.9c0.5-0.2,1-0.3,1.6-0.3c0.6,0,1.1,0.1,1.6,0.3c0.5,0.2,1,0.5,1.4,0.9
		c0.4,0.4,0.7,0.8,0.9,1.3C43.4,12.6,43.5,13.1,43.5,13.7z M42.2,13.7c0-0.4-0.1-0.8-0.2-1.1c-0.1-0.4-0.4-0.7-0.6-1
		c-0.3-0.3-0.6-0.5-0.9-0.6c-0.3-0.1-0.7-0.2-1.1-0.2s-0.8,0.1-1.1,0.2c-0.3,0.1-0.7,0.4-0.9,0.6c-0.3,0.3-0.5,0.6-0.6,1
		c-0.1,0.4-0.2,0.7-0.2,1.1c0,0.4,0.1,0.8,0.2,1.1c0.1,0.4,0.4,0.7,0.6,1c0.3,0.3,0.6,0.5,0.9,0.6c0.3,0.1,0.7,0.2,1.1,0.2
		c0.4,0,0.7-0.1,1.1-0.2c0.3-0.1,0.7-0.4,0.9-0.6c0.3-0.3,0.5-0.6,0.6-1C42.1,14.4,42.2,14.1,42.2,13.7z"/>
	<path d="M45,17.6V9.4l5,4.8c0.1,0.1,0.3,0.3,0.4,0.4s0.3,0.3,0.4,0.5V9.7H52v8.2L46.9,13c-0.1-0.1-0.3-0.3-0.4-0.4
		c-0.1-0.1-0.2-0.3-0.4-0.5v5.5H45z"/>
</g>
</svg>
