<!-- Generator: Adobe Illustrator 18.0.0, SVG Export Plug-In  -->
<svg version="1.1"
	 xmlns="http://www.w3.org/2000/svg" xmlns:xlink="http://www.w3.org/1999/xlink" xmlns:a="http://ns.adobe.com/AdobeSVGViewerExtensions/3.0/"
	 x="0px" y="0px" width="164.5px" height="118.2px" viewBox="0 0 164.5 118.2" enable-background="new 0 0 164.5 118.2"
	 xml:space="preserve">
<defs>
</defs>
<g id="Bottle_1_Discharge_copy">
	<g>
		<polygon stroke="#000000" stroke-width="0.72" stroke-miterlimit="2.4142" points="106,56.4 102.5,59.9 105.2,62.7 108.7,59.1 		
			"/>
		<polygon stroke="#000000" stroke-width="0.72" stroke-miterlimit="2.4142" points="113,63.4 110.2,60.6 106.7,64.2 109.5,66.9 		
			"/>
	</g>
	<g>
		
			<rect x="111" y="66.3" transform="matrix(0.7071 -0.7071 0.7071 0.7071 -14.4205 100.029)" stroke="#000000" stroke-width="0.72" stroke-miterlimit="2.4142" width="5" height="2.2"/>
	</g>
	<polygon stroke="#000000" stroke-width="0.72" stroke-miterlimit="2.4142" points="122.6,72.9 119.3,69.7 115.8,73.2 119,76.4 
		120.7,74.8 	"/>
	<g>
		<g>
			<path fill="#06CAFF" stroke="#000000" stroke-width="0.72" stroke-miterlimit="2.4142" d="M67.3,17.9l-2.5-2.6
				c-1.5-1-2.8-0.8-4.3-0.8c-19.2,0-5.7,0-24.7,0c0.4,1.6,1.2,3.2,1.6,4.8h22.2c1,0.2,2-0.1,2.8,0.6c1,0.6,1.6,1.6,2.3,2.3L99.5,57
				l3.5-3.5L67.3,17.9z"/>
			<path fill="#06CAFF" stroke="#000000" stroke-width="0.72" stroke-miterlimit="2.4142" d="M17.9,14.4L4,0.5L0.5,4l12.9,12.9
				L0.5,29.8L4,33.3l14-14h14.2c-0.5-1.7-1.2-3.3-1.6-4.9H17.9z"/>
		</g>
		<g>
			<path fill="#06CAFF" stroke="#000000" stroke-width="0.72" stroke-miterlimit="2.4142" d="M128.6,82.7l-1.7,1.7l33.2,33.2
				c0.3-0.8,0.7-1.6,1.3-2.1c0.6-0.6,1.5-1.1,2.4-1.4l-31.3-31.2c-1.2-0.2-2.3-0.4-3.5-0.6L128.6,82.7z"/>
		</g>
	</g>
</g>
</svg>
