<!-- Generator: Adobe Illustrator 18.0.0, SVG Export Plug-In  -->
<svg version="1.1"
	 xmlns="http://www.w3.org/2000/svg" xmlns:xlink="http://www.w3.org/1999/xlink" xmlns:a="http://ns.adobe.com/AdobeSVGViewerExtensions/3.0/"
	 x="0px" y="0px" width="265.7px" height="119.3px" viewBox="0 0 265.7 119.3" enable-background="new 0 0 265.7 119.3"
	 xml:space="preserve">
<defs>
</defs>
<g id="Bottle_2_Discharge_copy">
	<path fill="#FF0000" stroke="#000000" stroke-width="0.72" stroke-miterlimit="2.4142" d="M67.3,17.9l-2.5-2.6
		c-1.5-1-2.8-0.8-4.3-0.8c-19.7,0-5,0-24.6,0l1.5,4.8h22.2c1,0.2,2-0.1,2.8,0.6c1,0.6,1.6,1.6,2.3,2.3L99.5,57l3.5-3.5L67.3,17.9z"
		/>
	<g>
		<polygon stroke="#000000" stroke-width="0.72" stroke-miterlimit="2.4142" points="106,56.4 102.5,59.9 105.3,62.7 108.8,59.2 		
			"/>
	</g>
	
		<rect x="111" y="66.3" transform="matrix(0.7072 -0.707 0.707 0.7072 -14.4255 100.011)" stroke="#000000" stroke-width="0.72" stroke-miterlimit="2.4142" width="5" height="2.2"/>
	<polygon stroke="#000000" stroke-width="0.72" stroke-miterlimit="2.4142" points="122.6,72.9 119.3,69.7 115.8,73.2 119,76.4 
		120.7,74.8 	"/>
	
		<polygon fill-rule="evenodd" clip-rule="evenodd" fill="#FF0000" stroke="#000000" stroke-width="0.72" stroke-miterlimit="2.4142" points="
		30.6,14.4 32,19.3 17.9,19.3 4,33.3 0.5,29.8 13.4,16.9 0.5,4 4,0.5 17.9,14.4 30.6,14.4 	"/>
	<path fill-rule="evenodd" clip-rule="evenodd" fill="none" stroke="#000000" stroke-width="0.72" stroke-miterlimit="2.4142" d="
		M30.4,14.1c0,0.1,0,0.2,0.1,0.3c0.4,1.6,1.1,3.2,1.6,4.8c0,0.1,0.1,0.3,0.1,0.4"/>
	<path fill-rule="evenodd" clip-rule="evenodd" fill="none" stroke="#000000" stroke-width="0.72" stroke-miterlimit="2.4142" d="
		M35.8,14.2c0.4,1.8,1.3,3.6,1.8,5.4"/>
	<path stroke="#000000" stroke-width="0.72" stroke-miterlimit="2.4142" d="M129,82.3c1.2,0.2,2.4,0.4,3.5,0.6l-2-2L129,82.3z"/>
	<g>
		<path fill="#FF0000" stroke="#000000" stroke-width="0.72" stroke-miterlimit="2.4142" d="M237,101.3c5.7,3.8,14.3,11,24.2,17.7
			c3.3,0.3,5.3-2.2,3.4-4.5c-6.9-5.1-14.3-11-20.5-15.3c-1.6,0.4-3.2,0.7-4.7,1.1C238.6,100.3,237.8,100.7,237,101.3z"/>
		<path fill="#FF0000" stroke="#000000" stroke-width="0.72" stroke-miterlimit="2.4142" d="M132.5,82.8
			c36.1,5.7,69.3,9.7,97.6,15.5c1.8-1.8,3.7-3.2,5.7-3.9c0.2-0.1,0.4-0.1,0.6-0.2c-1-0.5-1.9-0.9-2.6-1.2
			c-6.6-2.2-73.1-11.8-109.3-17.6c-3,0.4-4,3.9-0.7,6c1.7,0.3,3.5,0.6,5.2,0.8"/>
	</g>
</g>
</svg>
