<!-- Generator: Adobe Illustrator 18.0.0, SVG Export Plug-In  -->
<svg version="1.1"
	 xmlns="http://www.w3.org/2000/svg" xmlns:xlink="http://www.w3.org/1999/xlink" xmlns:a="http://ns.adobe.com/AdobeSVGViewerExtensions/3.0/"
	 x="0px" y="0px" width="57.4px" height="25.3px" viewBox="0 0 57.4 25.3" enable-background="new 0 0 57.4 25.3"
	 xml:space="preserve">
<defs>
</defs>
<g>
	<rect x="0.7" y="0.7" stroke="#FF0000" stroke-width="1.5" width="55.9" height="23.8"/>
	<g>
		<g>
			<path fill="none" stroke="#000000" stroke-width="2.25" stroke-linecap="round" stroke-linejoin="round" d="M8.2,20.2V5.1h8.1
				v1.5H9.9v5.1h4.7v1.4H9.9v7.1H8.2z"/>
			<path fill="none" stroke="#000000" stroke-width="2.25" stroke-linecap="round" stroke-linejoin="round" d="M23.5,18.7h1.9v1.5
				h-5.6v-1.5h1.9V6.6h-1.9V5.1h5.6v1.5h-1.9V18.7z"/>
			<path fill="none" stroke="#000000" stroke-width="2.25" stroke-linecap="round" stroke-linejoin="round" d="M30.2,20.2V5.1h3.4
				c1.6,0,2.8,0.4,3.5,1.1c0.8,0.7,1.1,1.8,1.1,3.2c0,1-0.2,1.8-0.7,2.6c-0.4,0.7-1.1,1.3-1.9,1.6l3.6,6.6h-1.9L34,14h-2.2v6.1H30.2
				z M31.9,12.7h1.7c0.9,0,1.6-0.3,2.1-0.9c0.5-0.6,0.8-1.4,0.8-2.5c0-1.9-1-2.8-2.9-2.8h-1.7V12.7z"/>
			<path fill="none" stroke="#000000" stroke-width="2.25" stroke-linecap="round" stroke-linejoin="round" d="M41.8,20.2V5.1h7.7
				v1.5h-6v5.1h4.4v1.4h-4.4v5.6h6.2v1.5H41.8z"/>
		</g>
		<g>
			<path fill="none" stroke="#FF0000" stroke-width="0.25" stroke-linecap="round" stroke-linejoin="round" d="M8.2,20.2V5.1h8.1
				v1.5H9.9v5.1h4.7v1.4H9.9v7.1H8.2z"/>
			<path fill="none" stroke="#FF0000" stroke-width="0.25" stroke-linecap="round" stroke-linejoin="round" d="M23.5,18.7h1.9v1.5
				h-5.6v-1.5h1.9V6.6h-1.9V5.1h5.6v1.5h-1.9V18.7z"/>
			<path fill="none" stroke="#FF0000" stroke-width="0.25" stroke-linecap="round" stroke-linejoin="round" d="M30.2,20.2V5.1h3.4
				c1.6,0,2.8,0.4,3.5,1.1c0.8,0.7,1.1,1.8,1.1,3.2c0,1-0.2,1.8-0.7,2.6c-0.4,0.7-1.1,1.3-1.9,1.6l3.6,6.6h-1.9L34,14h-2.2v6.1H30.2
				z M31.9,12.7h1.7c0.9,0,1.6-0.3,2.1-0.9c0.5-0.6,0.8-1.4,0.8-2.5c0-1.9-1-2.8-2.9-2.8h-1.7V12.7z"/>
			<path fill="none" stroke="#FF0000" stroke-width="0.25" stroke-linecap="round" stroke-linejoin="round" d="M41.8,20.2V5.1h7.7
				v1.5h-6v5.1h4.4v1.4h-4.4v5.6h6.2v1.5H41.8z"/>
		</g>
		<g>
			<path fill="#FF0000" d="M8.2,20.2V5.1h8.1v1.5H9.9v5.1h4.7v1.4H9.9v7.1H8.2z"/>
			<path fill="#FF0000" d="M23.5,18.7h1.9v1.5h-5.6v-1.5h1.9V6.6h-1.9V5.1h5.6v1.5h-1.9V18.7z"/>
			<path fill="#FF0000" d="M30.2,20.2V5.1h3.4c1.6,0,2.8,0.4,3.5,1.1c0.8,0.7,1.1,1.8,1.1,3.2c0,1-0.2,1.8-0.7,2.6
				c-0.4,0.7-1.1,1.3-1.9,1.6l3.6,6.6h-1.9L34,14h-2.2v6.1H30.2z M31.9,12.7h1.7c0.9,0,1.6-0.3,2.1-0.9c0.5-0.6,0.8-1.4,0.8-2.5
				c0-1.9-1-2.8-2.9-2.8h-1.7V12.7z"/>
			<path fill="#FF0000" d="M41.8,20.2V5.1h7.7v1.5h-6v5.1h4.4v1.4h-4.4v5.6h6.2v1.5H41.8z"/>
		</g>
	</g>
</g>
</svg>
