<!-- Generator: Adobe Illustrator 18.0.0, SVG Export Plug-In  -->
<svg version="1.1"
	 xmlns="http://www.w3.org/2000/svg" xmlns:xlink="http://www.w3.org/1999/xlink" xmlns:a="http://ns.adobe.com/AdobeSVGViewerExtensions/3.0/"
	 x="0px" y="0px" width="265px" height="117.5px" viewBox="0 0 265 117.5" enable-background="new 0 0 265 117.5"
	 xml:space="preserve">
<defs>
</defs>
<rect x="0" y="0" fill-rule="evenodd" clip-rule="evenodd" width="265" height="115"/>
<g id="EPR_1_">
	<g id="EPR_R_1_">
		<g id="EPR_V_Rating_Bug_2_">
			<polyline fill="none" stroke="#FF00FF" stroke-width="1.8394" stroke-linecap="round" stroke-linejoin="round" points="180,8.9 
				186.8,15.6 188.6,6.2 			"/>
			<polyline fill="none" points="223.4,114.7 216.5,108.1 214.8,117.5 			"/>
		</g>
		<path fill="none" d="M250.3,61.8c0,26.8-21.7,48.6-48.6,48.6c-26.8,0-48.6-21.7-48.6-48.6c0-26.8,21.7-48.6,48.6-48.6
			C228.5,13.3,250.3,35,250.3,61.8z"/>
		<path fill="none" stroke="#FFFFFF" stroke-width="1.8394" stroke-linecap="round" stroke-linejoin="round" d="M173.7,101.5
			c-12.4-8.8-20.6-23.3-20.6-39.7c0-26.8,21.7-48.6,48.6-48.6c26.8,0,48.6,21.7,48.6,48.6"/>
		<g id="mask_2_">
			<g>
				<defs>
					<polyline id="SVGID_1_" points="174.5,102.1 201.7,61.8 171.3,99.7 					"/>
				</defs>
				<clipPath id="SVGID_2_">
					<use xlink:href="#SVGID_1_"  overflow="visible"/>
				</clipPath>
				<circle clip-path="url(#SVGID_2_)" fill="none" cx="201.7" cy="61.8" r="45.7"/>
				<circle clip-path="url(#SVGID_2_)" fill="#B2B2B2" cx="201.7" cy="61.8" r="45.7"/>
			</g>
		</g>
		<g id="Needle_EPR_2_">
			<line fill="none" x1="201.7" y1="61.8" x2="171.3" y2="99.7"/>
			<line fill="none" x1="232" y1="23.9" x2="201.7" y2="61.8"/>
			<polygon fill="#00FE00" points="203.1,63 175.1,98 171.3,99.7 172.2,95.7 200.3,60.7 203.1,63 			"/>
		</g>
		<g id="EPR_T_Command_Bug_2_">
			<g>
				
					<line fill="none" stroke="#00FE00" stroke-width="1.8394" stroke-linecap="round" stroke-linejoin="round" x1="173.9" y1="101.6" x2="168.4" y2="109.4"/>
				
					<line fill="none" stroke="#00FE00" stroke-width="1.8394" stroke-linecap="round" stroke-linejoin="round" x1="164.5" y1="106.7" x2="172.3" y2="112.1"/>
			</g>
			<g>
				<line fill="none" x1="229.5" y1="22" x2="235" y2="14.2"/>
				<line fill="none" x1="238.9" y1="17" x2="231.1" y2="11.5"/>
			</g>
		</g>
		<g>
			
				<rect x="180.2" y="43.4" stroke="#00FE00" stroke-width="1.8394" stroke-linecap="round" stroke-linejoin="round" width="44.1" height="23.3"/>
		</g>
	</g>
	<g id="EPR_L_6_">
		<g id="EPR_V_Rating_Bug_1_">
			<polyline fill="none" stroke="#FF00FF" stroke-width="1.8394" stroke-linecap="round" stroke-linejoin="round" points="32,8.9 
				38.9,15.6 40.7,6.2 			"/>
			<polyline fill="none" points="75.5,114.7 68.6,108.1 66.9,117.5 			"/>
		</g>
		<g>
			<circle fill="none" cx="53.8" cy="61.8" r="48.6"/>
			<path fill="none" stroke="#FFFFFF" stroke-width="1.8394" stroke-linecap="round" stroke-linejoin="round" d="M25.8,101.5
				C13.4,92.7,5.2,78.2,5.2,61.8C5.2,35,27,13.3,53.8,13.3c26.8,0,48.6,21.7,48.6,48.6"/>
		</g>
		<g id="mask_1_">
			<g>
				<defs>
					<polyline id="SVGID_3_" points="26.6,102.1 53.8,61.8 23.4,99.7 					"/>
				</defs>
				<clipPath id="SVGID_4_">
					<use xlink:href="#SVGID_3_"  overflow="visible"/>
				</clipPath>
				<circle clip-path="url(#SVGID_4_)" fill="none" cx="53.8" cy="61.8" r="45.7"/>
				<circle clip-path="url(#SVGID_4_)" fill="#B2B2B2" cx="53.8" cy="61.8" r="45.7"/>
			</g>
		</g>
		<g id="Needle_EPR_1_">
			<line fill="none" x1="53.8" y1="61.8" x2="23.4" y2="99.7"/>
			<line fill="none" x1="84.1" y1="23.9" x2="53.8" y2="61.8"/>
			<polygon fill="#00FE00" points="55.2,63 27.2,98 23.4,99.7 24.3,95.7 52.4,60.7 55.2,63 			"/>
		</g>
		<g id="EPR_T_Command_Bug_1_">
			<g>
				
					<line fill="none" stroke="#00FE00" stroke-width="1.8394" stroke-linecap="round" stroke-linejoin="round" x1="25.9" y1="101.6" x2="20.5" y2="109.4"/>
				
					<line fill="none" stroke="#00FE00" stroke-width="1.8394" stroke-linecap="round" stroke-linejoin="round" x1="16.6" y1="106.7" x2="24.4" y2="112.2"/>
			</g>
			<g>
				<line fill="none" x1="81.6" y1="22" x2="87.1" y2="14.2"/>
				<line fill="none" x1="91" y1="17" x2="83.2" y2="11.5"/>
			</g>
		</g>
		<g>
			
				<rect x="32.3" y="43.4" stroke="#00FE00" stroke-width="1.8394" stroke-linecap="round" stroke-linejoin="round" width="44.1" height="23.3"/>
		</g>
	</g>
</g>
<g>
	<g>
		<path fill="#FF00FF" d="M80,84.8c0-0.4,0.1-0.7,0.4-1c0.3-0.3,0.6-0.4,1-0.4c0.4,0,0.7,0.1,1,0.4c0.3,0.3,0.4,0.6,0.4,1
			c0,0.4-0.1,0.7-0.4,1s-0.6,0.4-1,0.4c-0.4,0-0.7-0.1-1-0.4C80.1,85.5,80,85.2,80,84.8z"/>
	</g>
	<g>
		<path fill="#FF00FF" d="M86.5,79.2c0.6-0.4,1.2-0.6,1.8-0.6c0.9,0,1.6,0.3,2.1,1c0.5,0.7,0.8,1.6,0.8,2.7c0,0.6-0.1,1.2-0.2,1.6
			c-0.2,0.5-0.4,0.9-0.7,1.2c-0.3,0.3-0.6,0.6-1.1,0.8c-0.4,0.2-0.9,0.3-1.4,0.3c-1.5,0-2.5-0.7-3.1-2l1.1-0.6
			c0.3,0.5,0.5,0.9,0.8,1.1c0.3,0.2,0.6,0.3,1.1,0.3c0.7,0,1.2-0.2,1.5-0.7s0.5-1.1,0.5-2c0-0.9-0.1-1.5-0.4-2s-0.7-0.6-1.3-0.6
			c-0.4,0-0.7,0.1-1,0.3s-0.6,0.5-0.9,0.9l-1-0.3l0.5-6.3h5l-0.1,1.1h-3.8L86.5,79.2z"/>
		<path fill="#FF00FF" d="M95,79.2c0.6-0.4,1.2-0.6,1.8-0.6c0.9,0,1.6,0.3,2.1,1c0.5,0.7,0.8,1.6,0.8,2.7c0,0.6-0.1,1.2-0.2,1.6
			c-0.2,0.5-0.4,0.9-0.7,1.2c-0.3,0.3-0.6,0.6-1.1,0.8c-0.4,0.2-0.9,0.3-1.4,0.3c-1.5,0-2.5-0.7-3.1-2l1.1-0.6
			c0.3,0.5,0.5,0.9,0.8,1.1c0.3,0.2,0.6,0.3,1.1,0.3c0.7,0,1.2-0.2,1.5-0.7s0.5-1.1,0.5-2c0-0.9-0.1-1.5-0.4-2s-0.7-0.6-1.3-0.6
			c-0.4,0-0.7,0.1-1,0.3s-0.6,0.5-0.9,0.9l-1-0.3l0.5-6.3h5l-0.1,1.1h-3.8L95,79.2z"/>
	</g>
	<g>
		<path fill="#FF00FF" d="M73.3,84.8h1.9v-8.9l-1.9,0.5v-1.1l2.3-0.8h0.8v10.4h1.8v1.1h-4.9V84.8z"/>
	</g>
</g>
<g>
	<g>
		<path fill="#FF00FF" d="M228,84.8c0-0.4,0.1-0.7,0.4-1c0.3-0.3,0.6-0.4,1-0.4c0.4,0,0.7,0.1,1,0.4c0.3,0.3,0.4,0.6,0.4,1
			c0,0.4-0.1,0.7-0.4,1s-0.6,0.4-1,0.4c-0.4,0-0.7-0.1-1-0.4C228.1,85.5,228,85.2,228,84.8z"/>
	</g>
	<g>
		<path fill="#FF00FF" d="M234.5,79.2c0.6-0.4,1.2-0.6,1.8-0.6c0.9,0,1.6,0.3,2.1,1c0.5,0.7,0.8,1.6,0.8,2.7c0,0.6-0.1,1.2-0.2,1.6
			c-0.2,0.5-0.4,0.9-0.7,1.2c-0.3,0.3-0.6,0.6-1.1,0.8c-0.4,0.2-0.9,0.3-1.4,0.3c-1.5,0-2.5-0.7-3.1-2l1.1-0.6
			c0.3,0.5,0.5,0.9,0.8,1.1c0.3,0.2,0.6,0.3,1.1,0.3c0.7,0,1.2-0.2,1.5-0.7c0.3-0.5,0.5-1.1,0.5-2c0-0.9-0.1-1.5-0.4-2
			c-0.3-0.4-0.7-0.6-1.3-0.6c-0.4,0-0.7,0.1-1,0.3s-0.6,0.5-0.9,0.9l-1-0.3l0.5-6.3h5l-0.1,1.1h-3.8L234.5,79.2z"/>
		<path fill="#FF00FF" d="M243,79.2c0.6-0.4,1.2-0.6,1.8-0.6c0.9,0,1.6,0.3,2.1,1c0.5,0.7,0.8,1.6,0.8,2.7c0,0.6-0.1,1.2-0.2,1.6
			c-0.2,0.5-0.4,0.9-0.7,1.2c-0.3,0.3-0.6,0.6-1.1,0.8c-0.4,0.2-0.9,0.3-1.4,0.3c-1.5,0-2.5-0.7-3.1-2l1.1-0.6
			c0.3,0.5,0.5,0.9,0.8,1.1c0.3,0.2,0.6,0.3,1.1,0.3c0.7,0,1.2-0.2,1.5-0.7c0.3-0.5,0.5-1.1,0.5-2c0-0.9-0.1-1.5-0.4-2
			c-0.3-0.4-0.7-0.6-1.3-0.6c-0.4,0-0.7,0.1-1,0.3s-0.6,0.5-0.9,0.9l-1-0.3l0.5-6.3h5l-0.1,1.1h-3.8L243,79.2z"/>
	</g>
	<g>
		<path fill="#FF00FF" d="M221.2,84.8h1.9v-8.9l-1.9,0.5v-1.1l2.3-0.8h0.8v10.4h1.8v1.1h-4.9V84.8z"/>
	</g>
</g>
<g>
	<path fill="#B2B2B2" d="M116.2,49.6V37.6h6.1v1.2h-4.7v4h3.4V44h-3.4v4.4h4.9v1.2H116.2z"/>
	<path fill="#B2B2B2" d="M125,49.6V37.6h2.7c1.2,0,2.2,0.3,2.8,0.9s0.9,1.5,0.9,2.7c0,0.8-0.2,1.5-0.5,2c-0.3,0.6-0.8,1-1.4,1.3
		s-1.4,0.4-2.3,0.4h-0.9v4.6H125z M126.4,43.8h1.4c0.8,0,1.3-0.2,1.7-0.7c0.4-0.5,0.6-1.1,0.6-2c0-1.6-0.8-2.5-2.3-2.5h-1.4V43.8z"
		/>
	<path fill="#B2B2B2" d="M133.7,49.6V37.6h2.7c1.3,0,2.2,0.3,2.8,0.8s0.9,1.4,0.9,2.6c0,0.8-0.2,1.4-0.5,2c-0.3,0.6-0.8,1-1.5,1.3
		l2.8,5.2h-1.5l-2.6-4.8H135v4.8H133.7z M135,43.6h1.3c0.7,0,1.2-0.2,1.7-0.7c0.4-0.5,0.6-1.1,0.6-1.9c0-1.5-0.8-2.2-2.3-2.2H135
		V43.6z"/>
</g>
<g>
	<path fill="#FF00FF" d="M116.5,30.6h-1.7V17.3h-3.7v-1.5h9v1.5h-3.7V30.6z"/>
	<path fill="#FF00FF" d="M123.3,35.8l-1.1-0.4l8.1-21.6l1.1,0.4L123.3,35.8z"/>
	<path fill="#FF00FF" d="M142.3,23.2c0,2.5-0.4,4.5-1.2,5.8c-0.8,1.3-1.9,2-3.4,2c-1,0-1.8-0.3-2.5-0.9s-1.2-1.5-1.6-2.6
		c-0.4-1.2-0.5-2.6-0.5-4.3c0-1.2,0.1-2.4,0.3-3.3s0.5-1.8,0.9-2.4c0.4-0.7,0.9-1.1,1.4-1.5c0.6-0.3,1.2-0.5,2-0.5
		c0.7,0,1.4,0.2,2,0.5c0.6,0.3,1.1,0.8,1.4,1.5c0.4,0.6,0.7,1.4,0.9,2.4C142.2,20.8,142.3,22,142.3,23.2z M137.7,16.9
		c-0.5,0-0.9,0.1-1.2,0.4c-0.4,0.3-0.7,0.6-0.9,1.1s-0.4,1.1-0.6,1.9c-0.1,0.7-0.2,1.6-0.2,2.5c0,2.3,0.2,3.9,0.7,5
		c0.5,1.1,1.2,1.7,2.2,1.7c1.9,0,2.9-2.1,2.9-6.3C140.6,19,139.6,16.9,137.7,16.9z"/>
</g>
<g id="EPR_L_3_">
	<g>
		<g>
			<g>
				<path fill="none" stroke="#000000" stroke-width="2.25" stroke-linecap="round" stroke-linejoin="round" d="M47.8,61
					c0-0.5,0.2-0.9,0.5-1.3c0.3-0.3,0.8-0.5,1.3-0.5c0.5,0,0.9,0.2,1.2,0.5c0.3,0.3,0.5,0.8,0.5,1.3c0,0.5-0.2,0.9-0.5,1.3
					s-0.8,0.5-1.2,0.5c-0.5,0-0.9-0.2-1.3-0.5C48,61.9,47.8,61.5,47.8,61z"/>
			</g>
			<g>
				<path fill="none" stroke="#00FE00" stroke-width="0.25" stroke-linecap="round" stroke-linejoin="round" d="M47.8,61
					c0-0.5,0.2-0.9,0.5-1.3c0.3-0.3,0.8-0.5,1.3-0.5c0.5,0,0.9,0.2,1.2,0.5c0.3,0.3,0.5,0.8,0.5,1.3c0,0.5-0.2,0.9-0.5,1.3
					s-0.8,0.5-1.2,0.5c-0.5,0-0.9-0.2-1.3-0.5C48,61.9,47.8,61.5,47.8,61z"/>
			</g>
			<g>
				<path fill="#00FE00" d="M47.8,61c0-0.5,0.2-0.9,0.5-1.3c0.3-0.3,0.8-0.5,1.3-0.5c0.5,0,0.9,0.2,1.2,0.5c0.3,0.3,0.5,0.8,0.5,1.3
					c0,0.5-0.2,0.9-0.5,1.3s-0.8,0.5-1.2,0.5c-0.5,0-0.9-0.2-1.3-0.5C48,61.9,47.8,61.5,47.8,61z"/>
			</g>
		</g>
		<g>
			<g>
				<path fill="none" stroke="#000000" stroke-width="2.25" stroke-linecap="round" stroke-linejoin="round" d="M61.9,55.1
					c0,1.7-0.2,3.1-0.5,4.3s-0.8,2-1.5,2.6c-0.7,0.6-1.4,0.9-2.4,0.9c-0.9,0-1.7-0.3-2.4-0.9s-1.2-1.5-1.5-2.6
					c-0.3-1.2-0.5-2.6-0.5-4.3c0-1.7,0.2-3.1,0.5-4.3s0.8-2,1.5-2.6c0.7-0.6,1.4-0.9,2.4-0.9c0.9,0,1.7,0.3,2.4,0.9
					c0.7,0.6,1.2,1.5,1.5,2.6C61.7,52,61.9,53.4,61.9,55.1z M57.5,61.4c0.5,0,0.9-0.1,1.2-0.4c0.3-0.3,0.6-0.7,0.8-1.2
					c0.2-0.5,0.4-1.2,0.5-2c0.1-0.8,0.2-1.7,0.2-2.8c0-4.2-0.9-6.3-2.6-6.3c-0.9,0-1.6,0.5-2,1.6c-0.4,1-0.6,2.6-0.6,4.7
					C54.9,59.3,55.7,61.4,57.5,61.4z"/>
				<path fill="none" stroke="#000000" stroke-width="2.25" stroke-linecap="round" stroke-linejoin="round" d="M64.3,51.6
					c0-1.4,0.4-2.5,1.1-3.2c0.7-0.7,1.7-1.1,3-1.1c0.8,0,1.5,0.2,2.1,0.5c0.6,0.3,1.1,0.7,1.4,1.3c0.3,0.5,0.5,1.2,0.5,1.8
					s-0.2,1.3-0.5,1.9c-0.3,0.6-0.7,1.1-1.1,1.5c-0.4,0.4-1.3,1.2-2.5,2.4c-0.6,0.6-1.1,1-1.4,1.4c-0.3,0.4-0.6,0.8-0.8,1.2
					c-0.2,0.5-0.3,1-0.3,1.6h6.5v1.5h-8.1c0-0.4-0.1-0.7-0.1-1c0-0.8,0.1-1.5,0.3-2.1c0.2-0.6,0.6-1.2,1-1.8c0.4-0.5,1-1.2,1.7-1.8
					c0.8-0.8,1.4-1.4,1.9-1.9c0.5-0.5,0.9-1,1.2-1.4c0.3-0.4,0.4-0.9,0.4-1.4c0-0.4-0.1-0.8-0.3-1.1c-0.2-0.3-0.5-0.6-0.8-0.8
					c-0.3-0.2-0.7-0.3-1.2-0.3c-0.8,0-1.4,0.2-1.8,0.7c-0.4,0.5-0.7,1.2-0.8,2.1H64.3z"/>
			</g>
			<g>
				<path fill="none" stroke="#00FE00" stroke-width="0.25" stroke-linecap="round" stroke-linejoin="round" d="M61.9,55.1
					c0,1.7-0.2,3.1-0.5,4.3s-0.8,2-1.5,2.6c-0.7,0.6-1.4,0.9-2.4,0.9c-0.9,0-1.7-0.3-2.4-0.9s-1.2-1.5-1.5-2.6
					c-0.3-1.2-0.5-2.6-0.5-4.3c0-1.7,0.2-3.1,0.5-4.3s0.8-2,1.5-2.6c0.7-0.6,1.4-0.9,2.4-0.9c0.9,0,1.7,0.3,2.4,0.9
					c0.7,0.6,1.2,1.5,1.5,2.6C61.7,52,61.9,53.4,61.9,55.1z M57.5,61.4c0.5,0,0.9-0.1,1.2-0.4c0.3-0.3,0.6-0.7,0.8-1.2
					c0.2-0.5,0.4-1.2,0.5-2c0.1-0.8,0.2-1.7,0.2-2.8c0-4.2-0.9-6.3-2.6-6.3c-0.9,0-1.6,0.5-2,1.6c-0.4,1-0.6,2.6-0.6,4.7
					C54.9,59.3,55.7,61.4,57.5,61.4z"/>
				<path fill="none" stroke="#00FE00" stroke-width="0.25" stroke-linecap="round" stroke-linejoin="round" d="M64.3,51.6
					c0-1.4,0.4-2.5,1.1-3.2c0.7-0.7,1.7-1.1,3-1.1c0.8,0,1.5,0.2,2.1,0.5c0.6,0.3,1.1,0.7,1.4,1.3c0.3,0.5,0.5,1.2,0.5,1.8
					s-0.2,1.3-0.5,1.9c-0.3,0.6-0.7,1.1-1.1,1.5c-0.4,0.4-1.3,1.2-2.5,2.4c-0.6,0.6-1.1,1-1.4,1.4c-0.3,0.4-0.6,0.8-0.8,1.2
					c-0.2,0.5-0.3,1-0.3,1.6h6.5v1.5h-8.1c0-0.4-0.1-0.7-0.1-1c0-0.8,0.1-1.5,0.3-2.1c0.2-0.6,0.6-1.2,1-1.8c0.4-0.5,1-1.2,1.7-1.8
					c0.8-0.8,1.4-1.4,1.9-1.9c0.5-0.5,0.9-1,1.2-1.4c0.3-0.4,0.4-0.9,0.4-1.4c0-0.4-0.1-0.8-0.3-1.1c-0.2-0.3-0.5-0.6-0.8-0.8
					c-0.3-0.2-0.7-0.3-1.2-0.3c-0.8,0-1.4,0.2-1.8,0.7c-0.4,0.5-0.7,1.2-0.8,2.1H64.3z"/>
			</g>
			<g>
				<path fill="#00FE00" d="M61.9,55.1c0,1.7-0.2,3.1-0.5,4.3s-0.8,2-1.5,2.6c-0.7,0.6-1.4,0.9-2.4,0.9c-0.9,0-1.7-0.3-2.4-0.9
					s-1.2-1.5-1.5-2.6c-0.3-1.2-0.5-2.6-0.5-4.3c0-1.7,0.2-3.1,0.5-4.3s0.8-2,1.5-2.6c0.7-0.6,1.4-0.9,2.4-0.9
					c0.9,0,1.7,0.3,2.4,0.9c0.7,0.6,1.2,1.5,1.5,2.6C61.7,52,61.9,53.4,61.9,55.1z M57.5,61.4c0.5,0,0.9-0.1,1.2-0.4
					c0.3-0.3,0.6-0.7,0.8-1.2c0.2-0.5,0.4-1.2,0.5-2c0.1-0.8,0.2-1.7,0.2-2.8c0-4.2-0.9-6.3-2.6-6.3c-0.9,0-1.6,0.5-2,1.6
					c-0.4,1-0.6,2.6-0.6,4.7C54.9,59.3,55.7,61.4,57.5,61.4z"/>
				<path fill="#00FE00" d="M64.3,51.6c0-1.4,0.4-2.5,1.1-3.2c0.7-0.7,1.7-1.1,3-1.1c0.8,0,1.5,0.2,2.1,0.5c0.6,0.3,1.1,0.7,1.4,1.3
					c0.3,0.5,0.5,1.2,0.5,1.8s-0.2,1.3-0.5,1.9c-0.3,0.6-0.7,1.1-1.1,1.5c-0.4,0.4-1.3,1.2-2.5,2.4c-0.6,0.6-1.1,1-1.4,1.4
					c-0.3,0.4-0.6,0.8-0.8,1.2c-0.2,0.5-0.3,1-0.3,1.6h6.5v1.5h-8.1c0-0.4-0.1-0.7-0.1-1c0-0.8,0.1-1.5,0.3-2.1
					c0.2-0.6,0.6-1.2,1-1.8c0.4-0.5,1-1.2,1.7-1.8c0.8-0.8,1.4-1.4,1.9-1.9c0.5-0.5,0.9-1,1.2-1.4c0.3-0.4,0.4-0.9,0.4-1.4
					c0-0.4-0.1-0.8-0.3-1.1c-0.2-0.3-0.5-0.6-0.8-0.8c-0.3-0.2-0.7-0.3-1.2-0.3c-0.8,0-1.4,0.2-1.8,0.7c-0.4,0.5-0.7,1.2-0.8,2.1
					H64.3z"/>
			</g>
		</g>
		<g>
			<g>
				<path fill="none" stroke="#000000" stroke-width="2.25" stroke-linecap="round" stroke-linejoin="round" d="M38.3,60.8h2.4V49.2
					l-2.4,0.6v-1.5l3-1.1h1.1v13.5h2.3v1.4h-6.4V60.8z"/>
			</g>
			<g>
				<path fill="none" stroke="#00FE00" stroke-width="0.25" stroke-linecap="round" stroke-linejoin="round" d="M38.3,60.8h2.4V49.2
					l-2.4,0.6v-1.5l3-1.1h1.1v13.5h2.3v1.4h-6.4V60.8z"/>
			</g>
			<g>
				<path fill="#00FE00" d="M38.3,60.8h2.4V49.2l-2.4,0.6v-1.5l3-1.1h1.1v13.5h2.3v1.4h-6.4V60.8z"/>
			</g>
		</g>
	</g>
</g>
<g id="EPR_L_2_">
	<g>
		<g>
			<g>
				<path fill="none" stroke="#000000" stroke-width="2.25" stroke-linecap="round" stroke-linejoin="round" d="M195.8,61
					c0-0.5,0.2-0.9,0.5-1.3c0.3-0.3,0.8-0.5,1.3-0.5c0.5,0,0.9,0.2,1.2,0.5c0.3,0.3,0.5,0.8,0.5,1.3c0,0.5-0.2,0.9-0.5,1.3
					s-0.8,0.5-1.2,0.5c-0.5,0-0.9-0.2-1.3-0.5S195.8,61.5,195.8,61z"/>
			</g>
			<g>
				<path fill="none" stroke="#00FE00" stroke-width="0.25" stroke-linecap="round" stroke-linejoin="round" d="M195.8,61
					c0-0.5,0.2-0.9,0.5-1.3c0.3-0.3,0.8-0.5,1.3-0.5c0.5,0,0.9,0.2,1.2,0.5c0.3,0.3,0.5,0.8,0.5,1.3c0,0.5-0.2,0.9-0.5,1.3
					s-0.8,0.5-1.2,0.5c-0.5,0-0.9-0.2-1.3-0.5S195.8,61.5,195.8,61z"/>
			</g>
			<g>
				<path fill="#00FE00" d="M195.8,61c0-0.5,0.2-0.9,0.5-1.3c0.3-0.3,0.8-0.5,1.3-0.5c0.5,0,0.9,0.2,1.2,0.5
					c0.3,0.3,0.5,0.8,0.5,1.3c0,0.5-0.2,0.9-0.5,1.3s-0.8,0.5-1.2,0.5c-0.5,0-0.9-0.2-1.3-0.5S195.8,61.5,195.8,61z"/>
			</g>
		</g>
		<g>
			<g>
				<path fill="none" stroke="#000000" stroke-width="2.25" stroke-linecap="round" stroke-linejoin="round" d="M209.9,55.1
					c0,1.7-0.2,3.1-0.5,4.3s-0.8,2-1.5,2.6c-0.7,0.6-1.4,0.9-2.4,0.9c-0.9,0-1.7-0.3-2.4-0.9s-1.2-1.5-1.5-2.6
					c-0.3-1.2-0.5-2.6-0.5-4.3c0-1.7,0.2-3.1,0.5-4.3s0.8-2,1.5-2.6c0.7-0.6,1.4-0.9,2.4-0.9c0.9,0,1.7,0.3,2.4,0.9
					c0.7,0.6,1.2,1.5,1.5,2.6C209.7,52,209.9,53.4,209.9,55.1z M205.5,61.4c0.5,0,0.9-0.1,1.2-0.4c0.3-0.3,0.6-0.7,0.8-1.2
					c0.2-0.5,0.4-1.2,0.5-2c0.1-0.8,0.2-1.7,0.2-2.8c0-4.2-0.9-6.3-2.6-6.3c-0.9,0-1.6,0.5-2,1.6c-0.4,1-0.6,2.6-0.6,4.7
					C202.9,59.3,203.7,61.4,205.5,61.4z"/>
				<path fill="none" stroke="#000000" stroke-width="2.25" stroke-linecap="round" stroke-linejoin="round" d="M212.3,51.6
					c0-1.4,0.4-2.5,1.1-3.2c0.7-0.7,1.7-1.1,3-1.1c0.8,0,1.5,0.2,2.1,0.5c0.6,0.3,1.1,0.7,1.4,1.3c0.3,0.5,0.5,1.2,0.5,1.8
					s-0.2,1.3-0.5,1.9c-0.3,0.6-0.7,1.1-1.1,1.5s-1.3,1.2-2.5,2.4c-0.6,0.6-1.1,1-1.4,1.4c-0.3,0.4-0.6,0.8-0.8,1.2
					c-0.2,0.5-0.3,1-0.3,1.6h6.5v1.5h-8.1c0-0.4-0.1-0.7-0.1-1c0-0.8,0.1-1.5,0.3-2.1c0.2-0.6,0.6-1.2,1-1.8c0.4-0.5,1-1.2,1.7-1.8
					c0.8-0.8,1.4-1.4,1.9-1.9c0.5-0.5,0.9-1,1.2-1.4c0.3-0.4,0.4-0.9,0.4-1.4c0-0.4-0.1-0.8-0.3-1.1c-0.2-0.3-0.5-0.6-0.8-0.8
					c-0.3-0.2-0.7-0.3-1.2-0.3c-0.8,0-1.4,0.2-1.8,0.7c-0.4,0.5-0.7,1.2-0.8,2.1H212.3z"/>
			</g>
			<g>
				<path fill="none" stroke="#00FE00" stroke-width="0.25" stroke-linecap="round" stroke-linejoin="round" d="M209.9,55.1
					c0,1.7-0.2,3.1-0.5,4.3s-0.8,2-1.5,2.6c-0.7,0.6-1.4,0.9-2.4,0.9c-0.9,0-1.7-0.3-2.4-0.9s-1.2-1.5-1.5-2.6
					c-0.3-1.2-0.5-2.6-0.5-4.3c0-1.7,0.2-3.1,0.5-4.3s0.8-2,1.5-2.6c0.7-0.6,1.4-0.9,2.4-0.9c0.9,0,1.7,0.3,2.4,0.9
					c0.7,0.6,1.2,1.5,1.5,2.6C209.7,52,209.9,53.4,209.9,55.1z M205.5,61.4c0.5,0,0.9-0.1,1.2-0.4c0.3-0.3,0.6-0.7,0.8-1.2
					c0.2-0.5,0.4-1.2,0.5-2c0.1-0.8,0.2-1.7,0.2-2.8c0-4.2-0.9-6.3-2.6-6.3c-0.9,0-1.6,0.5-2,1.6c-0.4,1-0.6,2.6-0.6,4.7
					C202.9,59.3,203.7,61.4,205.5,61.4z"/>
				<path fill="none" stroke="#00FE00" stroke-width="0.25" stroke-linecap="round" stroke-linejoin="round" d="M212.3,51.6
					c0-1.4,0.4-2.5,1.1-3.2c0.7-0.7,1.7-1.1,3-1.1c0.8,0,1.5,0.2,2.1,0.5c0.6,0.3,1.1,0.7,1.4,1.3c0.3,0.5,0.5,1.2,0.5,1.8
					s-0.2,1.3-0.5,1.9c-0.3,0.6-0.7,1.1-1.1,1.5s-1.3,1.2-2.5,2.4c-0.6,0.6-1.1,1-1.4,1.4c-0.3,0.4-0.6,0.8-0.8,1.2
					c-0.2,0.5-0.3,1-0.3,1.6h6.5v1.5h-8.1c0-0.4-0.1-0.7-0.1-1c0-0.8,0.1-1.5,0.3-2.1c0.2-0.6,0.6-1.2,1-1.8c0.4-0.5,1-1.2,1.7-1.8
					c0.8-0.8,1.4-1.4,1.9-1.9c0.5-0.5,0.9-1,1.2-1.4c0.3-0.4,0.4-0.9,0.4-1.4c0-0.4-0.1-0.8-0.3-1.1c-0.2-0.3-0.5-0.6-0.8-0.8
					c-0.3-0.2-0.7-0.3-1.2-0.3c-0.8,0-1.4,0.2-1.8,0.7c-0.4,0.5-0.7,1.2-0.8,2.1H212.3z"/>
			</g>
			<g>
				<path fill="#00FE00" d="M209.9,55.1c0,1.7-0.2,3.1-0.5,4.3s-0.8,2-1.5,2.6c-0.7,0.6-1.4,0.9-2.4,0.9c-0.9,0-1.7-0.3-2.4-0.9
					s-1.2-1.5-1.5-2.6c-0.3-1.2-0.5-2.6-0.5-4.3c0-1.7,0.2-3.1,0.5-4.3s0.8-2,1.5-2.6c0.7-0.6,1.4-0.9,2.4-0.9
					c0.9,0,1.7,0.3,2.4,0.9c0.7,0.6,1.2,1.5,1.5,2.6C209.7,52,209.9,53.4,209.9,55.1z M205.5,61.4c0.5,0,0.9-0.1,1.2-0.4
					c0.3-0.3,0.6-0.7,0.8-1.2c0.2-0.5,0.4-1.2,0.5-2c0.1-0.8,0.2-1.7,0.2-2.8c0-4.2-0.9-6.3-2.6-6.3c-0.9,0-1.6,0.5-2,1.6
					c-0.4,1-0.6,2.6-0.6,4.7C202.9,59.3,203.7,61.4,205.5,61.4z"/>
				<path fill="#00FE00" d="M212.3,51.6c0-1.4,0.4-2.5,1.1-3.2c0.7-0.7,1.7-1.1,3-1.1c0.8,0,1.5,0.2,2.1,0.5
					c0.6,0.3,1.1,0.7,1.4,1.3c0.3,0.5,0.5,1.2,0.5,1.8s-0.2,1.3-0.5,1.9c-0.3,0.6-0.7,1.1-1.1,1.5s-1.3,1.2-2.5,2.4
					c-0.6,0.6-1.1,1-1.4,1.4c-0.3,0.4-0.6,0.8-0.8,1.2c-0.2,0.5-0.3,1-0.3,1.6h6.5v1.5h-8.1c0-0.4-0.1-0.7-0.1-1
					c0-0.8,0.1-1.5,0.3-2.1c0.2-0.6,0.6-1.2,1-1.8c0.4-0.5,1-1.2,1.7-1.8c0.8-0.8,1.4-1.4,1.9-1.9c0.5-0.5,0.9-1,1.2-1.4
					c0.3-0.4,0.4-0.9,0.4-1.4c0-0.4-0.1-0.8-0.3-1.1c-0.2-0.3-0.5-0.6-0.8-0.8c-0.3-0.2-0.7-0.3-1.2-0.3c-0.8,0-1.4,0.2-1.8,0.7
					c-0.4,0.5-0.7,1.2-0.8,2.1H212.3z"/>
			</g>
		</g>
		<g>
			<g>
				<path fill="none" stroke="#000000" stroke-width="2.25" stroke-linecap="round" stroke-linejoin="round" d="M186.3,60.8h2.4
					V49.2l-2.4,0.6v-1.5l3-1.1h1.1v13.5h2.3v1.4h-6.4V60.8z"/>
			</g>
			<g>
				<path fill="none" stroke="#00FE00" stroke-width="0.25" stroke-linecap="round" stroke-linejoin="round" d="M186.3,60.8h2.4
					V49.2l-2.4,0.6v-1.5l3-1.1h1.1v13.5h2.3v1.4h-6.4V60.8z"/>
			</g>
			<g>
				<path fill="#00FE00" d="M186.3,60.8h2.4V49.2l-2.4,0.6v-1.5l3-1.1h1.1v13.5h2.3v1.4h-6.4V60.8z"/>
			</g>
		</g>
	</g>
</g>
</svg>
