<!-- Generator: Adobe Illustrator 18.0.0, SVG Export Plug-In  -->
<svg version="1.1"
	 xmlns="http://www.w3.org/2000/svg" xmlns:xlink="http://www.w3.org/1999/xlink" xmlns:a="http://ns.adobe.com/AdobeSVGViewerExtensions/3.0/"
	 x="0px" y="0px" width="547.1px" height="195.8px" viewBox="0 0 547.1 195.8" enable-background="new 0 0 547.1 195.8"
	 xml:space="preserve">
<defs>
</defs>
<path fill-rule="evenodd" clip-rule="evenodd" fill="#FFFFFF" stroke="#000000" stroke-width="0.72" stroke-miterlimit="2.4142" d="
	M271.7,195.8v-14.9c0-1.1,0.8-1.9,1.7-1.9H314c5.9,0,9.2-2.7,9.2-9.2v-6.7h-4.8v6.7c0,3.1-1.8,5.1-4.4,5.1h-88
	c-3.3,0-4.9-3.2-4.9-5.5V163h-4.8v6.4c0,4.9,3.5,9.6,9.8,9.6h39.4c0.9,0,1.8,0.6,1.8,1.9v14.9"/>
<g>
	
		<path fill-rule="evenodd" clip-rule="evenodd" fill="#FFFFFF" stroke="#000000" stroke-width="0.72" stroke-miterlimit="2.4142" d="
		M212,153.3c-1.3,0.7-1.1,2.4-1.1,3.6v3.3c0,0.6,0.8,0.7,1.7,0.8h12.1c0.9,0,1.7-0.2,1.7-0.8v-3.3c0-1.2,0.1-2.9-1.1-3.6H212z"/>
	
		<path fill-rule="evenodd" clip-rule="evenodd" fill="#FFFFFF" stroke="#000000" stroke-width="0.72" stroke-miterlimit="2.4142" d="
		M212,156.1c-1.3,0.7-1.1,2.4-1.1,3.6v3.3c0,0.6,0.8,0.7,1.7,0.8h12.1c0.9,0,1.7-0.2,1.7-0.8v-3.3c0-1.2,0.1-2.9-1.1-3.6H212z"/>
	
		<ellipse fill-rule="evenodd" clip-rule="evenodd" fill="#FFFFFF" stroke="#000000" stroke-width="0.72" stroke-linejoin="round" stroke-miterlimit="2.4142" cx="218.6" cy="152.8" rx="7.7" ry="4.2"/>
	
		<ellipse fill-rule="evenodd" clip-rule="evenodd" fill="#FFFFFF" stroke="#000000" stroke-width="0.72" stroke-linejoin="round" stroke-miterlimit="2.4142" cx="218.6" cy="149.2" rx="7.7" ry="4.2"/>
</g>
<g>
	
		<path fill-rule="evenodd" clip-rule="evenodd" fill="#FFFFFF" stroke="#000000" stroke-width="0.72" stroke-miterlimit="2.4142" d="
		M314.2,153.3c-1.3,0.7-1.1,2.4-1.1,3.6v3.3c0,0.6,0.8,0.7,1.7,0.8h12.1c0.9,0,1.7-0.2,1.7-0.8v-3.3c0-1.2,0.1-2.9-1.1-3.6H314.2z"
		/>
	
		<path fill-rule="evenodd" clip-rule="evenodd" fill="#FFFFFF" stroke="#000000" stroke-width="0.72" stroke-miterlimit="2.4142" d="
		M314.2,156.1c-1.3,0.7-1.1,2.4-1.1,3.6v3.3c0,0.6,0.8,0.7,1.7,0.8h12.1c0.9,0,1.7-0.2,1.7-0.8v-3.3c0-1.2,0.1-2.9-1.1-3.6H314.2z"
		/>
	
		<ellipse fill-rule="evenodd" clip-rule="evenodd" fill="#FFFFFF" stroke="#000000" stroke-width="0.72" stroke-linejoin="round" stroke-miterlimit="2.4142" cx="320.8" cy="152.8" rx="7.7" ry="4.2"/>
	
		<ellipse fill-rule="evenodd" clip-rule="evenodd" fill="#FFFFFF" stroke="#000000" stroke-width="0.72" stroke-linejoin="round" stroke-miterlimit="2.4142" cx="320.8" cy="149.2" rx="7.7" ry="4.2"/>
</g>
<rect x="210.7" y="144.3" fill-rule="evenodd" clip-rule="evenodd" fill="#FFFFFF" stroke="#000000" stroke-width="0.72" stroke-linejoin="round" stroke-miterlimit="2.4142" width="15.4" height="4.3"/>
<path fill-rule="evenodd" clip-rule="evenodd" fill="#FFFFFF" stroke="#000000" stroke-width="0.72" stroke-miterlimit="2.4142" d="
	M284.8,151.4l1.8,1.8c1.1,1.3,3.5,1,5.4-0.8c2-1.9,2.5-4.4,1.4-5.6l-1.8-1.9L284.8,151.4L284.8,151.4z"/>
<rect x="301.3" y="141" transform="matrix(0.5564 -0.8309 0.8309 0.5564 14.6581 316.6879)" fill="#FFFFFF" stroke="#000000" stroke-width="0.72" stroke-miterlimit="2.4142" width="5.3" height="7.3"/>
<rect x="332.7" y="141.7" transform="matrix(-0.5563 -0.831 0.831 -0.5563 401.1227 504.9631)" fill="#FFFFFF" stroke="#000000" stroke-width="0.72" stroke-miterlimit="2.4142" width="5.3" height="7.3"/>
<rect x="227.4" y="144.8" transform="matrix(-0.5561 -0.8311 0.8311 -0.5561 234.6126 422.2419)" fill="#FFFFFF" stroke="#000000" stroke-width="0.72" stroke-miterlimit="2.4142" width="5.3" height="7.3"/>
<rect x="201.2" y="143.1" transform="matrix(0.5566 -0.8308 0.8308 0.5566 -31.5344 234.3933)" fill="#FFFFFF" stroke="#000000" stroke-width="0.72" stroke-miterlimit="2.4142" width="5.3" height="7.3"/>
<g>
	
		<polygon fill-rule="evenodd" clip-rule="evenodd" fill="#FFFFFF" stroke="#000000" stroke-width="0.72" stroke-miterlimit="2.4142" points="
		42.8,77.3 32.5,135.9 17.6,135.9 7.2,77.3 42.8,77.3 	"/>
	
		<path fill-rule="evenodd" clip-rule="evenodd" fill="#FFFFFF" stroke="#000000" stroke-width="0.72" stroke-miterlimit="2.4142" d="
		M44.9,77.2H5.2C0,77.7,0.3,51.6,0.4,34.6V2.7c16.2-3.1,33.7-3.1,49.2,0v31.9C49.7,51.6,50,77.7,44.9,77.2L44.9,77.2z"/>
	<line fill="none" stroke="#000000" stroke-width="0.72" stroke-miterlimit="2.4142" x1="13.5" y1="112.2" x2="36.5" y2="112.2"/>
</g>
<g>
	
		<polygon fill-rule="evenodd" clip-rule="evenodd" fill="#FFFFFF" stroke="#000000" stroke-width="0.72" stroke-miterlimit="2.4142" points="
		504.3,77.3 514.5,135.9 529.4,135.9 539.9,77.3 504.3,77.3 	"/>
	
		<path fill-rule="evenodd" clip-rule="evenodd" fill="#FFFFFF" stroke="#000000" stroke-width="0.72" stroke-miterlimit="2.4142" d="
		M502.2,77.2h39.7c5.2,0.5,4.9-25.6,4.8-42.6V2.7c-16.2-3.1-33.7-3.1-49.2,0v31.9C497.4,51.6,497,77.7,502.2,77.2L502.2,77.2z"/>
	<line fill="none" stroke="#000000" stroke-width="0.72" stroke-miterlimit="2.4142" x1="533.6" y1="112.2" x2="510.6" y2="112.2"/>
</g>
<polygon fill-rule="evenodd" clip-rule="evenodd" fill="#FFFFFF" stroke="#000000" stroke-width="0.72" stroke-linejoin="round" stroke-miterlimit="2.4142" points="
	236.6,147.4 226.3,154.4 228.6,158 239,151.1 236.6,147.4 "/>
<path fill-rule="evenodd" clip-rule="evenodd" fill="#FFFFFF" stroke="#000000" stroke-width="0.72" stroke-miterlimit="2.4142" d="
	M246.4,153.8l-1.8,1.8c-1.1,1.3-3.5,1-5.4-0.8c-2-1.9-2.5-4.4-1.4-5.6l1.8-1.9L246.4,153.8L246.4,153.8z"/>
<path fill-rule="evenodd" clip-rule="evenodd" fill="#FFFFFF" stroke="#000000" stroke-width="0.72" stroke-miterlimit="2.4142" d="
	M235.5,164.5l9.3-6.5c0-0.1,0.4-2.3-0.7-1.9c-1.3,0.6-2.8,0.2-4.2-0.6c-1.5-1-1.9-3-2.2-2.9l-7,4.2c-1.2,0.6-1.3,2.7-0.8,3.6
	l2.1,3.3C232.4,164.5,234.6,165.1,235.5,164.5L235.5,164.5z"/>
<g>
	<g>
		<path fill="none" stroke="#000000" stroke-width="0.72" stroke-miterlimit="2.4142" d="M286.6,153.2c-1.3-1.1-1-3.7,0.7-5.7
			c1.7-2,4.2-2.7,5.5-1.6h0"/>
		
			<ellipse transform="matrix(0.7593 0.6508 -0.6508 0.7593 165.5711 -151.6342)" fill-rule="evenodd" clip-rule="evenodd" fill="#FFFFFF" stroke="#000000" stroke-width="0.72" stroke-miterlimit="2.4142" cx="287.7" cy="148" rx="3.1" ry="4.8"/>
		<line fill="none" stroke="#000000" stroke-width="0.72" stroke-miterlimit="2.4142" x1="290.8" y1="144.1" x2="292.9" y2="146"/>
		
			<line fill="none" stroke="#000000" stroke-width="0.72" stroke-miterlimit="2.4142" x1="284.8" y1="151.5" x2="286.9" y2="153.3"/>
	</g>
	
		<rect x="299.1" y="141.2" transform="matrix(0.5431 -0.8396 0.8396 0.5431 12.6306 320.995)" fill-rule="evenodd" clip-rule="evenodd" fill="#FFFFFF" stroke="#000000" stroke-width="0.72" stroke-linejoin="round" stroke-miterlimit="2.4142" width="4.3" height="15.4"/>
	
		<path fill-rule="evenodd" clip-rule="evenodd" fill="#FFFFFF" stroke="#000000" stroke-width="0.72" stroke-miterlimit="2.4142" d="
		M299,161.3l-10.4-7.5c-0.3-0.3,1.9-0.1,3.1-1.4l1.6-1.7c1.3-1.4,0.1-3.8,0.2-3.8l10.4,6.7c1.3,0.7,1.4,2.5,0.8,3.6l-2.1,3.3
		C302,161.5,299.9,162.1,299,161.3L299,161.3z"/>
</g>
<ellipse transform="matrix(-0.6784 0.7347 -0.7347 -0.6784 518.9152 74.3202)" fill-rule="evenodd" clip-rule="evenodd" fill="#FFFFFF" stroke="#000000" stroke-width="0.72" stroke-miterlimit="2.4142" cx="243.2" cy="150.7" rx="3.1" ry="4.8"/>
<ellipse transform="matrix(0.6062 -0.7953 0.7953 0.6062 21.1148 335.815)" fill-rule="evenodd" clip-rule="evenodd" fill="#FFFFFF" stroke="#000000" stroke-width="0.72" stroke-miterlimit="2.4142" cx="349.6" cy="146.6" rx="3.1" ry="4.8"/>
<path fill-rule="evenodd" clip-rule="evenodd" fill="#FFFFFF" stroke="#000000" stroke-width="0.72" stroke-miterlimit="2.4142" d="
	M89.5,53.1c-0.7-0.7-1.3-1.7-2.3-2.3c-0.8-0.7-1.8-0.4-2.8-0.6H62.2l-1.5-4.8c19.6,0,4.9,0,24.6,0c1.5,0,2.8-0.2,4.3,0.8l2.5,2.6
	l96.6,96.3l-3.6,3.6L89.5,53.1L89.5,53.1z"/>
<circle fill="#FFFFFF" stroke="#000000" stroke-width="0.72" stroke-linejoin="round" stroke-miterlimit="2.4142" cx="123.8" cy="91.3" r="2"/>
<polygon fill-rule="evenodd" clip-rule="evenodd" fill="#FFFFFF" stroke="#000000" stroke-width="0.72" stroke-linejoin="round" stroke-miterlimit="2.4142" points="
	123.7,88.4 128.3,83.8 131.2,86.8 126.7,91.3 123.7,88.4 "/>
<rect x="131.4" y="89.3" transform="matrix(-0.7069 -0.7073 0.7073 -0.7069 160.6849 251.6997)" fill="none" stroke="#000000" stroke-width="0.72" stroke-linejoin="round" stroke-miterlimit="2.4142" width="2.1" height="6.6"/>
<polygon fill-rule="evenodd" clip-rule="evenodd" fill="#FFFFFF" stroke="#000000" stroke-width="0.72" stroke-linejoin="round" stroke-miterlimit="2.4142" points="
	129.5,94.1 134,89.6 135.5,91.1 131,95.6 129.5,94.1 "/>
<polygon fill-rule="evenodd" clip-rule="evenodd" fill="#FFFFFF" stroke="#000000" stroke-width="0.72" stroke-linejoin="round" stroke-miterlimit="2.4142" points="
	133.7,98.4 138.2,93.8 139.7,95.3 135.2,99.9 133.7,98.4 "/>
<polygon fill-rule="evenodd" clip-rule="evenodd" fill="#FFFFFF" stroke="#000000" stroke-width="0.72" stroke-linejoin="round" stroke-miterlimit="2.4142" points="
	129.5,97.1 136.9,89.7 139.6,92.4 132.3,99.8 129.5,97.1 "/>
<g>
	<line fill="none" stroke="#000000" stroke-width="0.72" stroke-miterlimit="2.4142" x1="134.9" y1="91.7" x2="137.6" y2="94.3"/>
	<line fill="none" stroke="#000000" stroke-width="0.72" stroke-miterlimit="2.4142" x1="131.6" y1="94.9" x2="134.3" y2="97.6"/>
</g>
<rect x="138.4" y="93.9" transform="matrix(-0.707 -0.7072 0.7072 -0.707 168.8523 271.5003)" fill-rule="evenodd" clip-rule="evenodd" stroke="#000000" stroke-width="0.72" stroke-miterlimit="2.4142" width="4.6" height="13.8"/>
<polygon fill-rule="evenodd" clip-rule="evenodd" fill="#FFFFFF" stroke="#000000" stroke-width="0.72" stroke-miterlimit="2.4142" points="
	134.8,103.4 135.5,102.7 136.1,102 137.6,102.2 138.5,103 139.3,103.8 139.4,105.3 138.7,106 138,106.7 136.5,106.5 135.7,105.7 
	134.9,104.9 134.8,103.4 "/>
<polygon fill-rule="evenodd" clip-rule="evenodd" fill="none" stroke="#000000" stroke-width="0.72" stroke-miterlimit="2.4142" points="
	141.9,96.3 142.5,95.6 143.2,94.9 144.7,95.1 145.5,95.9 146.4,96.7 146.5,98.2 145.8,98.9 145.1,99.6 143.6,99.4 142.8,98.6 
	142,97.8 141.9,96.3 "/>
<polygon fill-rule="evenodd" clip-rule="evenodd" fill="#FFFFFF" stroke="#000000" stroke-width="0.72" stroke-miterlimit="2.4142" points="
	141.9,96.2 142.6,95.6 143.3,94.9 144.8,95 145.6,95.8 146.4,96.7 146.6,98.1 145.9,98.8 145.2,99.5 143.7,99.4 142.9,98.6 
	142.1,97.7 141.9,96.2 "/>
<polygon fill-rule="evenodd" clip-rule="evenodd" fill="#FFFFFF" stroke="#000000" stroke-width="0.72" stroke-miterlimit="2.4142" points="
	138.2,100.4 139.3,99.2 140.5,98.1 142.3,97.7 143,98.4 143.7,99.1 143.3,101 142.2,102.1 141.1,103.2 139.2,103.6 138.5,102.9 
	137.8,102.2 138.2,100.4 "/>
<polygon fill-rule="evenodd" clip-rule="evenodd" fill="#FFFFFF" stroke="#000000" stroke-width="0.72" stroke-miterlimit="2.4142" points="
	143.1,108 145.5,105.6 147.9,103.3 154.2,104.8 155.8,111.2 153.4,113.5 151,115.9 144.7,114.3 143.1,108 "/>
<path fill-rule="evenodd" clip-rule="evenodd" fill="#FFFFFF" stroke="#000000" stroke-width="0.72" stroke-miterlimit="2.4142" d="
	M444.2,46.1l-2.6,2.5l-91.1,93.3l3.9,2.8c27.5-27.3,77.5-79.2,89.9-91.6c0.7-0.7,1.3-1.7,2.3-2.3c0.8-0.7,1.8-0.4,2.8-0.6h37.3
	l-1.5-4.8c-19.6,0-16.9,0-36.6,0C447,45.4,445.7,45.2,444.2,46.1L444.2,46.1z"/>
<circle fill-rule="evenodd" clip-rule="evenodd" fill="#FFFFFF" stroke="#000000" stroke-width="0.72" stroke-miterlimit="2.4142" cx="413.3" cy="88.3" r="2"/>
<polygon fill-rule="evenodd" clip-rule="evenodd" fill="#FFFFFF" stroke="#000000" stroke-width="0.72" stroke-linejoin="round" stroke-miterlimit="2.4142" points="
	408.6,80.7 413.1,85.2 410.2,88.2 405.6,83.6 408.6,80.7 "/>
<rect x="403.4" y="86.1" transform="matrix(0.7071 -0.7071 0.7071 0.7071 55.2227 312.1635)" fill="none" stroke="#000000" stroke-width="0.72" stroke-linejoin="round" stroke-miterlimit="2.4142" width="2.1" height="6.6"/>
<polygon fill-rule="evenodd" clip-rule="evenodd" fill="#FFFFFF" stroke="#000000" stroke-width="0.72" stroke-linejoin="round" stroke-miterlimit="2.4142" points="
	402.9,86.4 407.4,91 405.9,92.5 401.4,87.9 402.9,86.4 "/>
<polygon fill-rule="evenodd" clip-rule="evenodd" fill="#FFFFFF" stroke="#000000" stroke-width="0.72" stroke-linejoin="round" stroke-miterlimit="2.4142" points="
	398.6,90.6 403.2,95.2 401.7,96.7 397.1,92.1 398.6,90.6 "/>
<polygon fill-rule="evenodd" clip-rule="evenodd" fill="#FFFFFF" stroke="#000000" stroke-width="0.72" stroke-linejoin="round" stroke-miterlimit="2.4142" points="
	399.9,86.5 407.3,93.8 404.6,96.5 397.2,89.2 399.9,86.5 "/>
<g>
	<line fill="none" stroke="#000000" stroke-width="0.72" stroke-miterlimit="2.4142" x1="405.3" y1="91.8" x2="402.6" y2="94.5"/>
	<line fill="none" stroke="#000000" stroke-width="0.72" stroke-miterlimit="2.4142" x1="402" y1="88.6" x2="399.4" y2="91.2"/>
</g>
<rect x="393.9" y="90.7" transform="matrix(0.7069 -0.7073 0.7073 0.7069 47.0974 308.8501)" fill-rule="evenodd" clip-rule="evenodd" stroke="#000000" stroke-width="0.72" stroke-miterlimit="2.4142" width="4.6" height="13.8"/>
<polygon fill-rule="evenodd" clip-rule="evenodd" fill="#FFFFFF" stroke="#000000" stroke-width="0.72" stroke-miterlimit="2.4142" points="
	393.6,91.7 394.3,92.4 395,93.1 394.8,94.6 394,95.4 393.2,96.2 391.7,96.3 391,95.7 390.3,95 390.5,93.5 391.3,92.7 392.1,91.8 
	393.6,91.7 "/>
<polygon fill-rule="evenodd" clip-rule="evenodd" fill="none" stroke="#000000" stroke-width="0.72" stroke-miterlimit="2.4142" points="
	400.7,98.8 401.4,99.5 402,100.2 401.9,101.7 401.1,102.5 400.3,103.3 398.8,103.4 398.1,102.7 397.4,102.1 397.5,100.6 398.4,99.7 
	399.2,98.9 400.7,98.8 "/>
<polygon fill-rule="evenodd" clip-rule="evenodd" fill="#FFFFFF" stroke="#000000" stroke-width="0.72" stroke-miterlimit="2.4142" points="
	400.7,98.9 401.4,99.5 402.1,100.2 402,101.7 401.2,102.5 400.3,103.4 398.8,103.5 398.2,102.8 397.5,102.1 397.6,100.6 398.4,99.8 
	399.2,99 400.7,98.9 "/>
<polygon fill-rule="evenodd" clip-rule="evenodd" fill="#FFFFFF" stroke="#000000" stroke-width="0.72" stroke-miterlimit="2.4142" points="
	396.6,95.1 397.7,96.3 398.9,97.4 399.3,99.2 398.6,99.9 397.8,100.7 396,100.3 394.9,99.1 393.8,98 393.3,96.2 394.1,95.4 
	394.8,94.7 396.6,95.1 "/>
<polygon fill-rule="evenodd" clip-rule="evenodd" fill="#FFFFFF" stroke="#000000" stroke-width="0.72" stroke-miterlimit="2.4142" points="
	389,100 391.3,102.4 393.7,104.8 392.2,111.1 385.8,112.7 383.4,110.3 381.1,107.9 382.7,101.7 389,100 "/>
<g>
	<path fill="#FFFFFF" stroke="#000000" stroke-width="0.72" stroke-miterlimit="2.4142" d="M221.8,144.6v-2.9
		c-0.8-0.3-2-0.5-3.3-0.5c-1.3,0-2.6,0.2-3.2,0.5v3"/>
	<path fill="#FFFFFF" stroke="#000000" stroke-width="0.72" stroke-miterlimit="2.4142" d="M323.9,144.6v-2.9
		c-0.8-0.3-2-0.5-3.3-0.5c-1.3,0-2.6,0.2-3.2,0.5v3"/>
	
		<ellipse fill="#FFFFFF" stroke="#000000" stroke-width="0.72" stroke-miterlimit="2.4142" cx="320.9" cy="147.2" rx="5.1" ry="3.2"/>
	
		<ellipse fill-rule="evenodd" clip-rule="evenodd" fill="#FFFFFF" stroke="#000000" stroke-width="0.72" stroke-miterlimit="2.4142" cx="320.9" cy="149.6" rx="5.1" ry="3.2"/>
</g>
<g>
	
		<path fill-rule="evenodd" clip-rule="evenodd" fill="#FFFFFF" stroke="#000000" stroke-width="0.72" stroke-miterlimit="2.4142" d="
		M192.2,145.5c-1.5-1.5-4.5-0.7-6,0.8c-1.5,1.5-2.3,4.5-0.6,6.1"/>
	<path fill="#FFFFFF" stroke="#000000" stroke-width="0.72" stroke-miterlimit="2.4142" d="M192.2,145.5c1.2,1.2,1,3.8-0.9,5.7
		c-1.8,1.9-4.4,2.4-5.7,1.2"/>
	
		<ellipse transform="matrix(-0.7157 -0.6984 0.6984 -0.7157 222.3473 392.0226)" fill-rule="evenodd" clip-rule="evenodd" fill="#FFFFFF" stroke="#000000" stroke-width="0.72" stroke-miterlimit="2.4142" cx="191" cy="150.8" rx="3.1" ry="4.8"/>
	
		<line fill="#FFFFFF" stroke="#000000" stroke-width="0.72" stroke-miterlimit="2.4142" x1="187.6" y1="154.2" x2="185.6" y2="152.4"/>
	
		<line fill="#FFFFFF" stroke="#000000" stroke-width="0.72" stroke-miterlimit="2.4142" x1="194.2" y1="147.4" x2="192.2" y2="145.5"/>
</g>
<rect x="199" y="143.3" transform="matrix(0.543 -0.8397 0.8397 0.543 -34.8727 237.9404)" fill-rule="evenodd" clip-rule="evenodd" fill="#FFFFFF" stroke="#000000" stroke-width="0.72" stroke-linejoin="round" stroke-miterlimit="2.4142" width="4.3" height="15.4"/>
<path fill-rule="evenodd" clip-rule="evenodd" fill="#FFFFFF" stroke="#000000" stroke-width="0.72" stroke-miterlimit="2.4142" d="
	M198.8,163.4l-10.4-7.5c-0.6-0.5-0.5-0.4,1-2.5l1.9-2.7c1.3-1.7,1.9-1.6,2-1.6l10.4,6.7c1.3,0.7,1.4,2.5,0.8,3.6l-2.1,3.3
	C201.8,163.6,199.7,164.2,198.8,163.4L198.8,163.4z"/>
<path fill-rule="evenodd" clip-rule="evenodd" fill="none" stroke="#000000" stroke-width="0.72" stroke-miterlimit="2.4142" d="
	M353.9,147.4c0.9-1,0.4-2.9-1.2-4.3c-1.6-1.4-3.6-1.7-4.4-0.6"/>
<ellipse transform="matrix(0.6059 -0.7955 0.7955 0.6059 18.7657 335.2964)" fill-rule="evenodd" clip-rule="evenodd" fill="#FFFFFF" stroke="#000000" stroke-width="0.72" stroke-miterlimit="2.4142" cx="347.8" cy="148.7" rx="3.1" ry="4.8"/>
<ellipse transform="matrix(0.6059 -0.7955 0.7955 0.6059 18.849 335.2347)" fill-rule="evenodd" clip-rule="evenodd" fill="#FFFFFF" stroke="#000000" stroke-width="0.72" stroke-miterlimit="2.4142" cx="347.8" cy="148.6" rx="1.9" ry="2.9"/>
<polygon fill-rule="evenodd" clip-rule="evenodd" fill="#FFFFFF" stroke="#000000" stroke-width="0.72" stroke-linejoin="round" stroke-miterlimit="2.4142" points="
	331,151.4 343.5,143.1 346.3,147.5 333.8,155.7 331,151.4 "/>
<path fill-rule="evenodd" clip-rule="evenodd" fill="#FFFFFF" stroke="#000000" stroke-width="0.72" stroke-miterlimit="2.4142" d="
	M335.8,154l9.7-5.9c0.5-0.2,0.9-0.6,2.3,1.6l1.6,2.6c1.1,1.8,0.6,2.4,0.2,2.9l-8.6,6.3c-1,0.8-3,0.1-3.6-0.7l-2.2-3.2
	C334.5,156.8,334.8,154.5,335.8,154L335.8,154z"/>
<polygon fill-rule="evenodd" clip-rule="evenodd" fill="#FFFFFF" stroke="#000000" stroke-width="0.72" stroke-miterlimit="2.4142" points="
	55.3,45.3 56.8,50.2 42.7,50.2 28.7,64.2 25.3,60.7 38.2,47.8 25.3,34.9 28.7,31.4 42.6,45.3 55.3,45.3 "/>
<polygon fill-rule="evenodd" clip-rule="evenodd" fill="#FFFFFF" stroke="#000000" stroke-width="0.72" stroke-miterlimit="2.4142" points="
	489.5,45.3 491.1,50.1 503.5,50.2 517.4,64.2 520.9,60.7 508,47.8 520.9,34.9 517.4,31.4 503.6,45.3 489.5,45.3 "/>
<path fill-rule="evenodd" clip-rule="evenodd" fill="none" stroke="#000000" stroke-width="0.72" stroke-miterlimit="2.4142" d="
	M56.4,40.1c-4.3,4.7,3.4,10.2,0,15.4"/>
<path fill-rule="evenodd" clip-rule="evenodd" fill="none" stroke="#000000" stroke-width="0.72" stroke-miterlimit="2.4142" d="
	M486.2,40.1c-4.3,4.7,3.4,10.2,0,15.4"/>
<path fill-rule="evenodd" clip-rule="evenodd" fill="none" stroke="#000000" stroke-width="0.72" stroke-miterlimit="2.4142" d="
	M61.7,40.1c-4.3,4.7,3.4,10.2,0,15.4"/>
<path fill-rule="evenodd" clip-rule="evenodd" fill="none" stroke="#000000" stroke-width="0.72" stroke-miterlimit="2.4142" d="
	M490.6,40.1c-4.3,4.7,3.4,10.2,0,15.4"/>
<g>
	
		<ellipse fill="#FFFFFF" stroke="#000000" stroke-width="0.72" stroke-miterlimit="2.4142" cx="218.7" cy="147.2" rx="5.1" ry="3.2"/>
	
		<ellipse fill-rule="evenodd" clip-rule="evenodd" fill="#FFFFFF" stroke="#000000" stroke-width="0.72" stroke-miterlimit="2.4142" cx="218.7" cy="149.6" rx="5.1" ry="3.2"/>
</g>
<path fill-rule="evenodd" clip-rule="evenodd" fill="#FFFFFF" stroke="#000000" stroke-width="0.72" stroke-miterlimit="2.4142" d="
	M286,149.8c-13.4-9-24.6-19.2-29-20.1c-30.9-6.6-68-10.8-108.4-17.3c-3.4-2.1-2.3-5.6,0.7-6c36.1,5.9,102.7,15.4,109.3,17.6
	c6.6,2.2,19.5,12.8,30.8,21.3C291.3,147.6,289.3,150.1,286,149.8L286,149.8z"/>
<path fill-rule="evenodd" clip-rule="evenodd" fill="#FFFFFF" stroke="#000000" stroke-width="0.72" stroke-miterlimit="2.4142" d="
	M246,151.3c4.7-6.3,13-19.1,18.1-20.2c30.9-7.2,84.1-15.4,124.4-22.1c3.4-2.1,2.3-5.8-1.4-5.7c-39.6,6.9-119.7,19.7-126.5,22.1
	c-6.8,2.4-12,12.6-19.3,22.3C240.7,151.8,243.5,151.4,246,151.3L246,151.3z"/>
<g id="L_and_R_Tank_copy">
	<path fill="none" stroke="#000000" stroke-width="0.72" stroke-miterlimit="2.4142" d="M247.6,120c0-16-13-29-29-29
		c-13.5,0-24.9,9.3-28.1,21.8c21.9,3.4,44.1,6.7,57.1,9C247.6,121.2,247.6,120.6,247.6,120z"/>
	<path fill="none" stroke="#000000" stroke-width="0.72" stroke-miterlimit="2.4142" d="M320.9,91c-15.8,0-28.6,12.6-29,28.3
		c16.4-2.8,36.9-6.2,56.2-9.5C343.9,98.9,333.3,91,320.9,91z"/>
	<g>
		<path fill="none" stroke="#000000" stroke-width="0.72" stroke-miterlimit="2.4142" d="M349.9,120c0-1.6-0.1-3.2-0.4-4.7
			c-19.6,3.2-39.6,6.6-57.2,9.9c2.2,12.1,11.9,21.6,24,23.5c-0.4-0.4-0.6-0.9-0.6-1.5c0-1,0.8-1.9,2-2.5l-0.2,0v-3
			c0.6-0.3,1.9-0.5,3.2-0.5c1.3,0,2.4,0.2,3.3,0.5v2.9l-0.1,0c1.3,0.6,2.1,1.5,2.1,2.6c0,0.5-0.2,1.1-0.6,1.5
			C339.2,146.6,349.9,134.5,349.9,120z"/>
	</g>
	<g>
		<path fill="none" stroke="#000000" stroke-width="0.72" stroke-miterlimit="2.4142" d="M246.6,127.6c-17.4-3.3-36.6-6.1-57-9.1
			c0,0.5,0,1,0,1.5c0,14.6,10.7,26.6,24.7,28.7c-0.4-0.5-0.6-1-0.6-1.5c0-1,0.8-1.9,2-2.5l-0.2,0v-3c0.6-0.3,1.9-0.5,3.2-0.5
			c1.3,0,2.4,0.2,3.3,0.5v2.9l-0.1,0c1.3,0.6,2.1,1.5,2.1,2.6c0,0.5-0.2,1-0.6,1.5C234.5,146.8,243.6,138.5,246.6,127.6z"/>
	</g>
</g>
</svg>
