<!-- Generator: Adobe Illustrator 18.0.0, SVG Export Plug-In  -->
<svg version="1.1"
	 xmlns="http://www.w3.org/2000/svg" xmlns:xlink="http://www.w3.org/1999/xlink" xmlns:a="http://ns.adobe.com/AdobeSVGViewerExtensions/3.0/"
	 x="0px" y="0px" width="132.9px" height="183.6px" viewBox="0 0 132.9 183.6" enable-background="new 0 0 132.9 183.6"
	 xml:space="preserve">
<defs>
</defs>
<g id="Normal_1_">
	<path id="Shadow_up_1_" display="none" opacity="0.3" d="M130.1,86.1L130.1,86.1l-20.9-20.9l0,0c-1.7-1.7-4.1-2.8-6.8-2.8H71.8V155
		c0,7.8-6.3,14.2-14.2,14.2H41.4l10.2,10.2v0.9h81.4V92.9C132.9,90.2,131.9,87.8,130.1,86.1z"/>
	<path id="Shadow_down_1_" opacity="0.3" d="M114.9,70.8L114.9,70.8L94,49.9l0,0c-1.7-1.7-4.1-2.8-6.8-2.8H71.8V155
		c0,7.8-6.3,14.2-14.2,14.2H36.3v11.2h81.4V77.6C117.7,75,116.6,72.6,114.9,70.8z"/>
	<path opacity="0.3" d="M61.4,56c0.4-1.4,0.6-2.8,0.6-4.3c0-4.3-1.7-8.1-4.5-10.9l-8.9-8.9h0c-2.8-2.8-6.7-4.5-10.9-4.5
		c-8.5,0-15.5,6.9-15.5,15.5c0,4.3,1.7,8.2,4.5,11l8.9,8.9c2.5,2.5,5.9,4.2,9.6,4.5v56.6c-2.3-1.1-4.9-1.7-7.6-1.7
		c-9.9,0-18,8.1-18,18c0,5,2,9.5,5.3,12.7l16.5,16.5h16.3c7.8,0,14.2-6.3,14.2-14.2V56H61.4z"/>
	
		<circle id="button_1_" fill="#828385" stroke="#000000" stroke-width="0.576" stroke-linecap="round" stroke-linejoin="round" cx="37.6" cy="42.8" r="15.5"/>
	<g>
		<path fill="#E7F2EA" d="M63.6,183.6H12c-6.6,0-12-5.4-12-12V12C0,5.4,5.4,0,12,0h51.6c6.6,0,12,5.4,12,12v159.6
			C75.6,178.2,70.2,183.6,63.6,183.6L63.6,183.6z"/>
		<path fill="#E7F2EA" d="M63.6,183.6H12c-6.6,0-12-5.4-12-12V12C0,5.4,5.4,0,12,0h51.6c6.6,0,12,5.4,12,12v159.6
			C75.6,178.2,70.2,183.6,63.6,183.6L63.6,183.6z"/>
		<path fill="#0D0D0D" stroke="#000000" stroke-width="0.72" stroke-linecap="round" stroke-linejoin="round" d="M73.8,171.6
			c0,5.6-4.6,10.2-10.2,10.2H12c-5.6,0-10.2-4.6-10.2-10.2V12C1.8,6.4,6.4,1.8,12,1.8h51.6c5.6,0,10.2,4.6,10.2,10.2V171.6z"/>
		<g>
			<path fill="none" stroke="#262626" stroke-width="2.16" stroke-linecap="round" stroke-linejoin="round" d="M3.6,171.6
				c0,4.6,3.8,8.4,8.4,8.4l0,0v0"/>
			<polyline fill="none" stroke="#333333" stroke-width="2.16" stroke-linecap="round" stroke-linejoin="round" points="3.6,12 
				3.6,12 3.6,171.6 			"/>
			<path fill="none" stroke="#404040" stroke-width="2.16" stroke-linecap="round" stroke-linejoin="round" d="M12,3.6
				c-4.6,0-8.4,3.8-8.4,8.4"/>
			<path fill="none" stroke="#191919" stroke-width="2.16" stroke-linecap="round" stroke-linejoin="round" d="M71.3,171.6
				c0,4.6-3.8,8.4-8.4,8.4l0,0v0"/>
			<polyline fill="none" stroke="#191919" stroke-width="2.16" stroke-linecap="round" stroke-linejoin="round" points="71.3,12 
				71.3,12 71.3,171.6 			"/>
			<path fill="none" stroke="#262626" stroke-width="2.16" stroke-linecap="round" stroke-linejoin="round" d="M62.9,3.6
				c4.6,0,8.4,3.8,8.4,8.4"/>
			<path fill="none" stroke="#000000" stroke-width="0.72" stroke-linecap="round" stroke-linejoin="round" d="M73.8,171.6
				c0,5.6-4.6,10.2-10.2,10.2H12c-5.6,0-10.2-4.6-10.2-10.2V12C1.8,6.4,6.4,1.8,12,1.8h51.6c5.6,0,10.2,4.6,10.2,10.2V171.6z"/>
			
				<line fill="none" stroke="#333333" stroke-width="2.16" stroke-linecap="round" stroke-linejoin="round" x1="12" y1="3.6" x2="62.9" y2="3.6"/>
			
				<line fill="none" stroke="#191919" stroke-width="2.16" stroke-linecap="round" stroke-linejoin="round" x1="12" y1="180" x2="62.9" y2="180"/>
		</g>
	</g>
	<g>
		<path fill="#FFFFFF" d="M19.5,20.5v-8.9h2c1.3,0,2.2,0.1,2.7,0.2c0.5,0.1,1,0.3,1.4,0.6c0.5,0.4,0.9,0.9,1.2,1.5S27,15.2,27,16
			c0,0.8-0.1,1.5-0.4,2.1c-0.3,0.6-0.7,1.1-1.2,1.5c-0.4,0.3-0.8,0.5-1.3,0.6c-0.5,0.1-1.3,0.2-2.3,0.2h-0.4H19.5z M20.9,19.2h1.2
			c0.7,0,1.2,0,1.5-0.1s0.6-0.2,0.9-0.5c0.3-0.3,0.6-0.6,0.8-1.1c0.2-0.4,0.3-0.9,0.3-1.5c0-0.6-0.1-1.1-0.3-1.5
			c-0.2-0.4-0.4-0.8-0.8-1.1c-0.3-0.2-0.6-0.4-0.9-0.5s-0.9-0.1-1.7-0.1h-0.5h-0.5V19.2z"/>
		<path fill="#FFFFFF" d="M28.7,20.5v-8.9h1.5v8.9H28.7z"/>
		<path fill="#FFFFFF" d="M31.8,18.7l1.2-0.5c0.1,0.4,0.3,0.7,0.6,0.9c0.3,0.2,0.7,0.3,1.1,0.3c0.4,0,0.8-0.1,1-0.4s0.4-0.6,0.4-1
			c0-0.5-0.4-1-1.3-1.4c-0.1-0.1-0.2-0.1-0.3-0.1c-1-0.5-1.6-0.9-2-1.3c-0.3-0.4-0.5-0.9-0.5-1.4c0-0.7,0.2-1.3,0.7-1.8
			s1.1-0.7,1.9-0.7c0.7,0,1.2,0.1,1.7,0.4c0.4,0.3,0.8,0.6,0.9,1.1l-1.1,0.6c-0.2-0.3-0.4-0.5-0.6-0.6s-0.5-0.2-0.7-0.2
			c-0.4,0-0.7,0.1-0.9,0.3s-0.3,0.5-0.3,0.8c0,0.5,0.5,1,1.5,1.5c0.1,0,0.1,0.1,0.2,0.1c0.9,0.4,1.5,0.8,1.8,1.2
			c0.3,0.4,0.5,0.9,0.5,1.5c0,0.8-0.3,1.5-0.8,2c-0.5,0.5-1.3,0.7-2.2,0.7c-0.8,0-1.4-0.2-1.9-0.5S31.9,19.3,31.8,18.7z"/>
		<path fill="#FFFFFF" d="M46.3,13.7c-0.4-0.4-0.8-0.6-1.3-0.8s-0.9-0.3-1.4-0.3c-1,0-1.8,0.3-2.4,0.9S40.3,15,40.3,16
			c0,1,0.3,1.8,0.9,2.4s1.3,0.9,2.3,0.9c0.5,0,1-0.1,1.5-0.3s0.9-0.5,1.4-0.8v1.6c-0.4,0.3-0.8,0.5-1.3,0.6s-1,0.2-1.5,0.2
			c-0.7,0-1.3-0.1-1.9-0.3s-1.1-0.6-1.5-1c-0.4-0.4-0.8-0.9-1-1.5c-0.2-0.6-0.4-1.2-0.4-1.9c0-0.7,0.1-1.3,0.4-1.8
			c0.2-0.6,0.6-1.1,1-1.5c0.4-0.4,1-0.8,1.5-1c0.6-0.2,1.2-0.3,1.9-0.3c0.5,0,1,0.1,1.5,0.2c0.5,0.2,0.9,0.4,1.4,0.7L46.3,13.7z"/>
		<path fill="#FFFFFF" d="M48.1,20.5v-8.9h1.5v3.3H54v-3.3h1.5v8.9H54v-4.3h-4.4v4.3H48.1z"/>
	</g>
	<g>
		<path fill="#FFFFFF" d="M68.4,48.6v1.2h-6l3.3-4c0.4-0.5,0.7-0.9,0.9-1.3s0.3-0.7,0.3-1c0-0.4-0.1-0.8-0.4-1
			c-0.3-0.3-0.6-0.4-1.1-0.4c-0.4,0-0.7,0.1-1,0.4c-0.3,0.3-0.4,0.6-0.4,1h-1.4c0-0.8,0.3-1.4,0.8-1.9c0.5-0.5,1.3-0.7,2.2-0.7
			c0.9,0,1.5,0.2,2,0.7s0.7,1,0.7,1.8c0,0.5-0.1,1.1-0.4,1.7c-0.3,0.6-0.9,1.4-1.8,2.4L65,48.6H68.4z"/>
	</g>
	<g>
		<path fill="#FFFFFF" d="M8.5,49.8V42H6.6l0.6-1.1h2.6v8.9H8.5z"/>
	</g>
	<g>
		<path fill="#FFFFFF" d="M26,167.7v4h-1.4v-8.9h2.2c0.7,0,1.1,0,1.4,0.1c0.3,0.1,0.6,0.2,0.8,0.4c0.3,0.2,0.5,0.5,0.7,0.8
			c0.2,0.4,0.2,0.7,0.2,1.2s-0.1,0.8-0.2,1.2s-0.4,0.6-0.7,0.8c-0.2,0.2-0.5,0.3-0.8,0.3s-0.8,0.1-1.4,0.1h-0.3H26z M26.1,166.5h0.4
			c0.8,0,1.3-0.1,1.6-0.3s0.4-0.5,0.4-0.9c0-0.5-0.1-0.8-0.4-1s-0.8-0.3-1.6-0.3h-0.4V166.5z"/>
		<path fill="#FFFFFF" d="M31.2,162.8h1.4v5.4c0,0.8,0.2,1.4,0.6,1.8c0.4,0.4,0.9,0.6,1.7,0.6c0.7,0,1.3-0.2,1.7-0.6
			c0.4-0.4,0.6-1,0.6-1.8v-5.4h1.5v5.6c0,1.2-0.3,2.1-0.9,2.7c-0.6,0.6-1.5,0.9-2.8,0.9s-2.1-0.3-2.8-0.9c-0.6-0.6-0.9-1.5-0.9-2.7
			V162.8z"/>
		<path fill="#FFFFFF" d="M40.6,171.7v-8.9H42v7.6h3.2v1.3H40.6z"/>
		<path fill="#FFFFFF" d="M46.4,171.7v-8.9h1.5v7.6h3.2v1.3H46.4z"/>
	</g>
	<g>
		<path fill="#FF0000" d="M26.8,124.1V70.5h8.7v45.8h19.5v7.8H26.8z"/>
	</g>
	<g>
		<g>
			
				<path fill="none" stroke="#FFFFFF" stroke-width="1.575" stroke-linecap="round" stroke-linejoin="round" stroke-miterlimit="2.4142" d="
				M57.2,36.1c-4.4-2-11.4-4.3-19.7-4.3s-15.3,2.4-19.7,4.3"/>
			<polygon fill="#FFFFFF" points="18.2,33.4 11.3,39 20.1,37.6 			"/>
			<polygon fill="#FFFFFF" points="54.8,37.6 63.5,39 56.7,33.4 			"/>
		</g>
	</g>
</g>
</svg>
