<!-- Generator: Adobe Illustrator 18.0.0, SVG Export Plug-In  -->
<svg version="1.1"
	 xmlns="http://www.w3.org/2000/svg" xmlns:xlink="http://www.w3.org/1999/xlink" xmlns:a="http://ns.adobe.com/AdobeSVGViewerExtensions/3.0/"
	 x="0px" y="0px" width="712.9px" height="268.3px" viewBox="0 0 712.9 268.3" enable-background="new 0 0 712.9 268.3"
	 xml:space="preserve">
<defs>
	<symbol  id="screw_x5F_lg__x28_phillips_x29__2" viewBox="-12.2 -12.2 24.3 24.3">
		<g>
			<path fill-rule="evenodd" clip-rule="evenodd" fill="#595959" stroke="#000000" stroke-width="0.576" stroke-linecap="round" d="
				M8.4,8.4C3.8,13-3.8,13-8.4,8.4C-13,3.8-13-3.8-8.4-8.4C-3.8-13,3.8-13,8.4-8.4C13-3.8,13,3.8,8.4,8.4z"/>
			<path fill-rule="evenodd" clip-rule="evenodd" fill="#626262" d="M7.6,8.6C3.4,12.8-3.9,12.7-8.3,8.3c-4.4-4.4-4.5-11.7-0.3-15.9
				c4.3-4.3,11.4-4,15.8,0.4C11.6-2.8,11.9,4.3,7.6,8.6z"/>
			<path fill-rule="evenodd" clip-rule="evenodd" fill="#6A6A6A" d="M6.9,8.7C3,12.6-3.9,12.4-8.2,8.1c-4.2-4.2-4.5-11.1-0.6-15
				C-4.9-10.8,1.8-10.3,6-6.1C10.1-1.9,10.8,4.9,6.9,8.7z"/>
			<path fill-rule="evenodd" clip-rule="evenodd" fill="#737373" d="M6.1,8.9C2.6,12.4-4,12-8.1,8C-12.1,4-12.5-2.7-9-6.2
				c3.5-3.5,9.8-2.7,13.7,1.3C8.7-1,9.6,5.4,6.1,8.9z"/>
			<path fill-rule="evenodd" clip-rule="evenodd" fill="#7B7B7B" d="M5.4,9.1C2.2,12.2-4.1,11.7-8,7.8c-3.7-3.7-4.3-10.1-1.2-13.2
				c3.1-3.1,9-2,12.7,1.7C7.3-0.1,8.5,6,5.4,9.1z"/>
			<path fill-rule="evenodd" clip-rule="evenodd" fill="#848484" d="M4.6,9.3C1.9,12-4.2,11.3-7.9,7.6C-11.4,4.2-12.1-2-9.4-4.7
				c2.7-2.7,8.2-1.4,11.7,2.1C5.8,0.9,7.3,6.5,4.6,9.3z"/>
			<path fill-rule="evenodd" clip-rule="evenodd" fill="#8C8C8C" d="M3.8,9.4C1.5,11.8-4.3,11-7.8,7.5C-11.1,4.3-11.9-1.6-9.6-4
				c2.4-2.3,7.4-0.7,10.7,2.5C4.4,1.8,6.2,7.1,3.8,9.4z"/>
			<path fill-rule="evenodd" clip-rule="evenodd" fill="#959595" d="M3.1,9.6c-2,2-7.5,1.1-10.8-2.3c-3-3-4-8.6-2-10.6
				c2-2,6.6,0,9.6,3C2.9,2.7,5.1,7.6,3.1,9.6z"/>
			<path fill-rule="evenodd" clip-rule="evenodd" fill="#9D9D9D" d="M2.3,9.8c-1.6,1.6-6.8,0.6-10-2.6c-2.8-2.8-3.9-8.1-2.3-9.7
				c1.6-1.6,5.9,0.6,8.6,3.4C1.5,3.7,3.9,8.2,2.3,9.8z"/>
			<path fill-rule="evenodd" clip-rule="evenodd" fill="#A6A6A6" d="M1.6,9.9C0.4,11.2-4.6,10-7.5,7c-2.5-2.5-3.8-7.6-2.6-8.8
				C-8.9-3-5.1-0.5-2.5,2C0,4.6,2.8,8.7,1.6,9.9z"/>
			<path fill-rule="evenodd" clip-rule="evenodd" fill="#ADADAD" d="M-7.4,7c-2.3-2.3-3.5-7-2.3-8.1c1.2-1.2,4.7,1,7.1,3.4
				C-0.3,4.6,2.2,8.4,1,9.5C-0.2,10.7-4.7,9.7-7.4,7z"/>
			<path fill-rule="evenodd" clip-rule="evenodd" fill="#B4B4B4" d="M-7.3,6.9c-2.1-2.1-3.1-6.4-2-7.5c1.1-1.1,4.4,0.8,6.5,3
				C-0.6,4.5,1.5,8,0.4,9.1C-0.7,10.2-4.8,9.3-7.3,6.9z"/>
			<path fill-rule="evenodd" clip-rule="evenodd" fill="#BBBBBB" d="M-7.1,6.8C-9.1,4.9-9.9,1.1-8.9,0c1.1-1.1,4,0.6,6,2.5
				c1.9,2,3.8,5.1,2.7,6.2C-1.2,9.8-4.9,9-7.1,6.8z"/>
			<path fill-rule="evenodd" clip-rule="evenodd" fill="#C2C2C2" d="M-7,6.7C-8.7,5-9.4,1.6-8.4,0.6c1-1,3.7,0.4,5.5,2.1
				c1.8,1.8,3.3,4.6,2.3,5.6C-1.7,9.3-5,8.7-7,6.7z"/>
			<path fill-rule="evenodd" clip-rule="evenodd" fill="#C9C9C9" d="M-6.9,6.6C-8.4,5.1-9,2.1-8,1.2c1-1,3.4,0.1,4.9,1.7
				c1.6,1.6,2.8,4.1,1.8,5C-2.2,8.9-5.1,8.4-6.9,6.6z"/>
			<path fill-rule="evenodd" clip-rule="evenodd" fill="#D0D0D0" d="M-6.7,6.6c-1.4-1.4-1.8-3.9-0.9-4.8c0.9-0.9,3-0.1,4.4,1.3
				c1.4,1.4,2.3,3.6,1.4,4.5C-2.8,8.4-5.2,8-6.7,6.6z"/>
			<path fill-rule="evenodd" clip-rule="evenodd" fill="#D7D7D7" d="M-6.6,6.5C-7.7,5.3-8,3.2-7.2,2.4C-6.3,1.5-4.5,2-3.3,3.2
				c1.2,1.2,1.8,3,0.9,3.9C-3.3,8-5.3,7.7-6.6,6.5z"/>
			<path fill-rule="evenodd" clip-rule="evenodd" fill="#DEDEDE" d="M-6.4,6.4c-1-1-1.1-2.6-0.3-3.4c0.8-0.8,2.3-0.5,3.3,0.4
				c1,1,1.3,2.5,0.5,3.3C-3.8,7.5-5.4,7.4-6.4,6.4z"/>
			<path fill-rule="evenodd" clip-rule="evenodd" fill="#E5E5E5" d="M-3.5,6.3c-0.8,0.8-2,0.8-2.8,0c-0.8-0.8-0.8-2,0-2.8
				c0.8-0.8,2-0.8,2.8,0C-2.8,4.3-2.8,5.5-3.5,6.3z"/>
		</g>
		<path fill-rule="evenodd" clip-rule="evenodd" fill="#666666" stroke="#000000" stroke-width="0.576" stroke-linecap="round" d="
			M1.3,3.2l2.9,2.9c0,0,0.6-0.2,1.1-0.8c0.6-0.6,0.8-1.1,0.8-1.1L3.2,1.3C2.8,0.9,2.7,0.5,2.7,0c0-0.5,0.2-0.9,0.5-1.3l2.9-2.9
			c0,0-0.2-0.6-0.8-1.1C4.7-5.8,4.1-6,4.1-6L1.3-3.2c-0.7,0.7-1.8,0.7-2.5,0L-4.1-6c0,0-0.6,0.2-1.1,0.8c-0.6,0.6-0.8,1.1-0.8,1.1
			l2.9,2.9C-2.8-0.9-2.7-0.5-2.7,0c0,0.5-0.2,0.9-0.5,1.3l-2.9,2.9c0,0,0.2,0.6,0.8,1.1c0.6,0.6,1.1,0.8,1.1,0.8l2.9-2.9
			C-0.6,2.5,0.6,2.5,1.3,3.2z"/>
	</symbol>
</defs>
<path fill="#828385" stroke="#000000" stroke-width="0.576" stroke-linecap="round" stroke-linejoin="round" d="M712.6,268H0.3
	V116.5c0-18.2,7.2-36.8,26.9-56.5C46.9,40.3,99.1,19.8,181.4,9.6c0,0,69.9-9.3,175.1-9.3s175.1,9.3,175.1,9.3
	C613.8,19.8,665.9,40.3,685.7,60c19.7,19.7,26.9,38.4,26.9,56.5V268z"/>
<use xlink:href="#screw_x5F_lg__x28_phillips_x29__2"  width="24.3" height="24.3" id="XMLID_8_" x="-12.2" y="-12.2" transform="matrix(1 0 0 -1 683.7724 118.454)" overflow="visible"/>
<use xlink:href="#screw_x5F_lg__x28_phillips_x29__2"  width="24.3" height="24.3" x="-12.2" y="-12.2" transform="matrix(1 0 0 -1 683.7724 219.2533)" overflow="visible"/>
<use xlink:href="#screw_x5F_lg__x28_phillips_x29__2"  width="24.3" height="24.3" id="XMLID_6_" x="-12.2" y="-12.2" transform="matrix(1 0 0 -1 29.1274 114.976)" overflow="visible"/>
<use xlink:href="#screw_x5F_lg__x28_phillips_x29__2"  width="24.3" height="24.3" id="XMLID_5_" x="-12.2" y="-12.2" transform="matrix(1 0 0 -1 294.2031 20.368)" overflow="visible"/>
<use xlink:href="#screw_x5F_lg__x28_phillips_x29__2"  width="24.3" height="24.3" id="XMLID_1_" x="-12.2" y="-12.2" transform="matrix(1 0 0 -1 420.2031 20.368)" overflow="visible"/>
<use xlink:href="#screw_x5F_lg__x28_phillips_x29__2"  width="24.3" height="24.3" x="-12.2" y="-12.2" transform="matrix(1 0 0 -1 29.1274 201.3763)" overflow="visible"/>
<g>
	<path fill="#77787B" stroke="#000000" stroke-width="0.576" stroke-linecap="round" stroke-linejoin="round" d="M126.3,242.7
		c0,7.8-6.3,14.2-14.2,14.2H72.1c-7.8,0-14.2-6.3-14.2-14.2V116.2c0-7.8,6.3-14.2,14.2-14.2h40.1c7.8,0,14.2,6.3,14.2,14.2V242.7z"
		/>
	<path opacity="0.3" d="M66.8,125.1c0-7.8,6.3-14.2,14.2-14.2h40.1c1.6,0,3.1,0.3,4.5,0.7c-1.9-5.6-7.2-9.7-13.4-9.7H72.1
		c-7.8,0-14.2,6.3-14.2,14.2v126.5c0,6.2,4,11.5,9.7,13.4c-0.5-1.4-0.7-2.9-0.7-4.5V125.1z"/>
</g>
<g>
	<path fill="#77787B" stroke="#000000" stroke-width="0.576" stroke-linecap="round" stroke-linejoin="round" d="M655,246.1
		c0,7.8-6.3,14.2-14.2,14.2h-40.1c-7.8,0-14.2-6.3-14.2-14.2V119.7c0-7.8,6.3-14.2,14.2-14.2h40.1c7.8,0,14.2,6.3,14.2,14.2V246.1z"
		/>
	<path opacity="0.3" d="M595.5,128.6c0-7.8,6.3-14.2,14.2-14.2h40.1c1.6,0,3.1,0.3,4.5,0.7c-1.9-5.6-7.2-9.7-13.4-9.7h-40.1
		c-7.8,0-14.2,6.3-14.2,14.2v126.5c0,6.2,4,11.5,9.7,13.4c-0.5-1.4-0.7-2.9-0.7-4.5V128.6z"/>
</g>
<g>
	<path fill="#77787B" stroke="#000000" stroke-width="0.576" stroke-linecap="round" stroke-linejoin="round" d="M393.9,148.2
		c0,0-2.3,0-2.6,1.7l0,0c-0.9,7-6.8,12.4-14.1,12.4h-40.1c-7.8,0-14.2-6.3-14.2-14.2V21.6c0-7.8,6.3-14.2,14.2-14.2h40.1
		c7.8,0,14.2,6.3,14.2,14.2v101c0,2.5,2.5,2.5,2.5,2.5c6.4,0,11.5,5.2,11.5,11.5C405.4,143,400.3,148.2,393.9,148.2L393.9,148.2z"/>
	<path opacity="0.3" d="M331.9,30.5c0-7.8,6.3-14.2,14.2-14.2h40.1c1.6,0,3.1,0.3,4.5,0.7c-1.9-5.6-7.2-9.7-13.4-9.7h-40.1
		c-7.8,0-14.2,6.3-14.2,14.2v126.5c0,6.2,4,11.5,9.7,13.4c-0.5-1.4-0.7-2.9-0.7-4.5V30.5z"/>
</g>
<g>
	<path fill="#77787B" stroke="#000000" stroke-width="0.576" stroke-linecap="round" stroke-linejoin="round" d="M126.3,242.7
		c0,7.8-6.3,14.2-14.2,14.2H72.1c-7.8,0-14.2-6.3-14.2-14.2V116.2c0-7.8,6.3-14.2,14.2-14.2h40.1c7.8,0,14.2,6.3,14.2,14.2V242.7z"
		/>
	<path opacity="0.3" d="M66.8,125.1c0-7.8,6.3-14.2,14.2-14.2h40.1c1.6,0,3.1,0.3,4.5,0.7c-1.9-5.6-7.2-9.7-13.4-9.7H72.1
		c-7.8,0-14.2,6.3-14.2,14.2v126.5c0,6.2,4,11.5,9.7,13.4c-0.5-1.4-0.7-2.9-0.7-4.5V125.1z"/>
</g>
<g>
	<path fill="#FFFFFF" d="M413.9,145.4v-8.6h1.4v7.3h3.1v1.2H413.9z"/>
	<path fill="#FFFFFF" d="M428.5,141.2c0,0.6-0.1,1.2-0.3,1.7s-0.6,1-1,1.5c-0.4,0.4-0.9,0.8-1.5,1s-1.1,0.3-1.7,0.3
		c-0.6,0-1.2-0.1-1.8-0.3s-1.1-0.6-1.5-1c-0.4-0.4-0.8-0.9-1-1.4s-0.3-1.1-0.3-1.7c0-0.6,0.1-1.2,0.3-1.7s0.6-1,1-1.5
		c0.4-0.4,0.9-0.8,1.5-1s1.1-0.3,1.8-0.3c0.6,0,1.2,0.1,1.8,0.3s1,0.5,1.5,1c0.4,0.4,0.8,0.9,1,1.5S428.5,140.6,428.5,141.2z
		 M427.1,141.2c0-0.4-0.1-0.8-0.2-1.2s-0.4-0.7-0.7-1c-0.3-0.3-0.6-0.5-1-0.7s-0.8-0.2-1.2-0.2s-0.8,0.1-1.2,0.2s-0.7,0.4-1,0.7
		c-0.3,0.3-0.5,0.6-0.7,1s-0.2,0.8-0.2,1.2c0,0.4,0.1,0.8,0.2,1.2s0.4,0.7,0.7,1s0.6,0.5,1,0.7s0.8,0.2,1.2,0.2
		c0.4,0,0.8-0.1,1.2-0.2s0.7-0.4,1-0.7c0.3-0.3,0.5-0.7,0.7-1S427.1,141.6,427.1,141.2z"/>
	<path fill="#FFFFFF" d="M437.6,139c-0.4-0.3-0.8-0.6-1.3-0.8s-0.9-0.3-1.4-0.3c-0.9,0-1.7,0.3-2.3,0.9s-0.9,1.4-0.9,2.3
		c0,0.9,0.3,1.7,0.9,2.3s1.3,0.9,2.2,0.9c0.5,0,1-0.1,1.5-0.3s0.9-0.5,1.3-0.8v1.6c-0.4,0.3-0.8,0.5-1.2,0.6s-0.9,0.2-1.4,0.2
		c-0.7,0-1.3-0.1-1.8-0.3s-1-0.5-1.5-0.9c-0.4-0.4-0.7-0.9-1-1.5s-0.3-1.1-0.3-1.8s0.1-1.2,0.3-1.8s0.5-1,1-1.5
		c0.4-0.4,0.9-0.7,1.5-1s1.1-0.3,1.8-0.3c0.5,0,1,0.1,1.4,0.2s0.9,0.4,1.3,0.7L437.6,139z"/>
	<path fill="#FFFFFF" d="M440,145.4v-8.6h1.4v3.6l3.1-3.6h1.7l-3.4,3.8l3.8,4.8h-1.8l-3.4-4.4v4.4H440z"/>
	<path fill="#FFFFFF" d="M415.2,153.6v3.8h-1.3v-8.6h1.9c0.6,0,1,0,1.3,0.1s0.6,0.2,0.8,0.4c0.3,0.2,0.5,0.5,0.6,0.8
		s0.2,0.7,0.2,1.1c0,0.7-0.2,1.2-0.5,1.6s-0.8,0.6-1.5,0.7l3,3.9h-1.6l-2.9-3.8H415.2z M415.3,152.5h0.3c0.7,0,1.2-0.1,1.5-0.3
		s0.4-0.5,0.4-0.9c0-0.5-0.1-0.8-0.4-1s-0.7-0.3-1.4-0.3h-0.3V152.5z"/>
	<path fill="#FFFFFF" d="M421.3,157.4v-8.6h4.8v1.2h-3.4v2.2h3.4v1.2h-3.4v2.8h3.4v1.2H421.3z"/>
	<path fill="#FFFFFF" d="M428.2,157.4v-8.6h1.4v7.3h3.1v1.2H428.2z"/>
	<path fill="#FFFFFF" d="M434.5,157.4v-8.6h4.8v1.2h-3.4v2.2h3.4v1.2h-3.4v2.8h3.4v1.2H434.5z"/>
	<path fill="#FFFFFF" d="M447.1,157.4l-1-2.2h-3.4l-1,2.2h-1.5l4.2-8.9l4.1,8.9H447.1z M443.3,154.1h2.4l-0.9-2
		c-0.1-0.1-0.1-0.3-0.2-0.4s-0.1-0.3-0.2-0.5c0,0.2-0.1,0.4-0.1,0.5s-0.1,0.3-0.2,0.4L443.3,154.1z"/>
	<path fill="#FFFFFF" d="M449.5,155.7l1.1-0.5c0.1,0.4,0.3,0.7,0.6,0.9s0.6,0.3,1.1,0.3c0.4,0,0.7-0.1,1-0.3s0.4-0.5,0.4-0.9
		c0-0.5-0.4-1-1.3-1.3c-0.1-0.1-0.2-0.1-0.3-0.1c-0.9-0.5-1.6-0.9-1.9-1.3s-0.5-0.8-0.5-1.4c0-0.7,0.2-1.3,0.7-1.7s1.1-0.7,1.9-0.7
		c0.6,0,1.2,0.1,1.6,0.4s0.7,0.6,0.9,1.1l-1.1,0.6c-0.2-0.3-0.4-0.5-0.6-0.6s-0.4-0.2-0.7-0.2c-0.4,0-0.7,0.1-0.9,0.3
		s-0.3,0.5-0.3,0.8c0,0.5,0.5,1,1.5,1.4c0.1,0,0.1,0.1,0.2,0.1c0.8,0.4,1.4,0.8,1.7,1.1s0.5,0.8,0.5,1.4c0,0.8-0.3,1.5-0.8,1.9
		s-1.2,0.7-2.1,0.7c-0.7,0-1.3-0.2-1.8-0.5S449.7,156.4,449.5,155.7z"/>
	<path fill="#FFFFFF" d="M457.2,157.4v-8.6h4.8v1.2h-3.4v2.2h3.4v1.2h-3.4v2.8h3.4v1.2H457.2z"/>
</g>
<path fill="#6B6C6F" stroke="#000000" stroke-width="0.576" stroke-linecap="round" stroke-linejoin="round" d="M386.7,136.6
	c0-1.9,1.5-3.4,3.4-3.4h7.8c1.9,0,3.4,1.5,3.4,3.4l0,0c0,1.9-1.5,3.4-3.4,3.4H390C388.2,140,386.7,138.5,386.7,136.6L386.7,136.6z"
	/>
<circle id="Switch_1_" fill="#0D0D0D" stroke="#000000" stroke-width="0.576" stroke-linecap="round" stroke-linejoin="round" cx="390.2" cy="136.6" r="2.5"/>
<path opacity="0.3" d="M698,161.9L698,161.9L677.1,141l0,0c-1.7-1.7-4.1-2.8-6.8-2.8H655v107.9c0,7.8-6.3,14.2-14.2,14.2h-21.4v7.7
	h81.4v-99.3C700.8,166.1,699.7,163.7,698,161.9z"/>
<path opacity="0.3" d="M644.5,147.1c0.4-1.4,0.6-2.8,0.6-4.3c0-4.3-1.7-8.1-4.5-10.9l-8.9-8.9l0,0c-2.8-2.8-6.7-4.5-10.9-4.5
	c-8.5,0-15.5,6.9-15.5,15.5c0,4.3,1.7,8.2,4.5,11l8.9,8.9c2.5,2.5,5.9,4.2,9.6,4.5v56.6c-2.3-1.1-4.9-1.7-7.6-1.7
	c-9.9,0-18,8.1-18,18c0,5,2,9.5,5.3,12.7l16.5,16.5h16.3c7.8,0,14.2-6.3,14.2-14.2v-99H644.5z"/>
<circle id="button_4_" fill="#828385" stroke="#000000" stroke-width="0.576" stroke-linecap="round" stroke-linejoin="round" cx="620.8" cy="133.9" r="15.5"/>
<g>
	<path fill="#E7F2EA" d="M641.6,256.3h-41.3c-5.3,0-9.6-4.3-9.6-9.6V119.1c0-5.3,4.3-9.6,9.6-9.6h41.3c5.3,0,9.6,4.3,9.6,9.6v127.7
		C651.2,252,646.9,256.3,641.6,256.3L641.6,256.3z"/>
	<path fill="#E7F2EA" d="M641.6,256.3h-41.3c-5.3,0-9.6-4.3-9.6-9.6V119.1c0-5.3,4.3-9.6,9.6-9.6h41.3c5.3,0,9.6,4.3,9.6,9.6v127.7
		C651.2,252,646.9,256.3,641.6,256.3L641.6,256.3z"/>
	<path fill="#0D0D0D" stroke="#000000" stroke-width="0.576" stroke-linecap="round" stroke-linejoin="round" d="M649.7,246.7
		c0,4.5-3.7,8.2-8.2,8.2h-41.3c-4.5,0-8.2-3.7-8.2-8.2V119.1c0-4.5,3.7-8.2,8.2-8.2h41.3c4.5,0,8.2,3.7,8.2,8.2V246.7z"/>
	<g>
		<path fill="none" stroke="#262626" stroke-width="1.728" stroke-linecap="round" stroke-linejoin="round" d="M593.6,246.7
			c0,3.7,3,6.7,6.7,6.7l0,0v0"/>
		<polyline fill="none" stroke="#333333" stroke-width="1.728" stroke-linecap="round" stroke-linejoin="round" points="
			593.6,119.1 593.6,119.1 593.6,246.7 		"/>
		<path fill="none" stroke="#404040" stroke-width="1.728" stroke-linecap="round" stroke-linejoin="round" d="M600.3,112.3
			c-3.7,0-6.7,3-6.7,6.7"/>
		<path fill="none" stroke="#191919" stroke-width="1.728" stroke-linecap="round" stroke-linejoin="round" d="M647.7,246.7
			c0,3.7-3,6.7-6.7,6.7l0,0v0"/>
		<polyline fill="none" stroke="#191919" stroke-width="1.728" stroke-linecap="round" stroke-linejoin="round" points="
			647.7,119.1 647.7,119.1 647.7,246.7 		"/>
		<path fill="none" stroke="#262626" stroke-width="1.728" stroke-linecap="round" stroke-linejoin="round" d="M641,112.3
			c3.7,0,6.7,3,6.7,6.7"/>
		<path fill="none" stroke="#000000" stroke-width="0.576" stroke-linecap="round" stroke-linejoin="round" d="M649.7,246.7
			c0,4.5-3.7,8.2-8.2,8.2h-41.3c-4.5,0-8.2-3.7-8.2-8.2V119.1c0-4.5,3.7-8.2,8.2-8.2h41.3c4.5,0,8.2,3.7,8.2,8.2V246.7z"/>
		
			<line fill="none" stroke="#333333" stroke-width="1.728" stroke-linecap="round" stroke-linejoin="round" x1="600.3" y1="112.3" x2="641" y2="112.3"/>
		
			<line fill="none" stroke="#191919" stroke-width="1.728" stroke-linecap="round" stroke-linejoin="round" x1="600.3" y1="253.5" x2="641" y2="253.5"/>
	</g>
</g>
<g>
	<path fill="#FFFFFF" d="M606.2,125.8v-7.1h1.6c1,0,1.7,0.1,2.2,0.2c0.4,0.1,0.8,0.3,1.1,0.5c0.4,0.3,0.7,0.7,0.9,1.2
		s0.3,1.1,0.3,1.7s-0.1,1.2-0.3,1.7c-0.2,0.5-0.5,0.9-0.9,1.2c-0.3,0.2-0.7,0.4-1.1,0.5c-0.4,0.1-1,0.2-1.9,0.2h-0.3H606.2z
		 M607.4,124.8h1c0.5,0,0.9,0,1.2-0.1s0.5-0.2,0.7-0.4c0.3-0.2,0.5-0.5,0.6-0.9c0.1-0.3,0.2-0.7,0.2-1.2s-0.1-0.9-0.2-1.2
		c-0.1-0.3-0.3-0.6-0.6-0.9c-0.2-0.2-0.4-0.3-0.7-0.4s-0.7-0.1-1.3-0.1h-0.4h-0.4V124.8z"/>
	<path fill="#FFFFFF" d="M613.7,125.8v-7.1h1.2v7.1H613.7z"/>
	<path fill="#FFFFFF" d="M616.1,124.4l0.9-0.4c0.1,0.3,0.3,0.6,0.5,0.7c0.2,0.2,0.5,0.3,0.9,0.3c0.3,0,0.6-0.1,0.8-0.3
		s0.3-0.4,0.3-0.8c0-0.4-0.3-0.8-1-1.1c-0.1,0-0.2-0.1-0.2-0.1c-0.8-0.4-1.3-0.7-1.6-1c-0.3-0.3-0.4-0.7-0.4-1.1
		c0-0.6,0.2-1.1,0.6-1.4s0.9-0.5,1.6-0.5c0.5,0,1,0.1,1.3,0.3c0.4,0.2,0.6,0.5,0.7,0.9l-0.9,0.5c-0.1-0.2-0.3-0.4-0.5-0.5
		s-0.4-0.2-0.6-0.2c-0.3,0-0.6,0.1-0.7,0.2s-0.3,0.4-0.3,0.7c0,0.4,0.4,0.8,1.2,1.2c0.1,0,0.1,0.1,0.1,0.1c0.7,0.3,1.2,0.6,1.5,1
		c0.3,0.3,0.4,0.7,0.4,1.2c0,0.7-0.2,1.2-0.6,1.6c-0.4,0.4-1,0.6-1.7,0.6c-0.6,0-1.1-0.1-1.5-0.4S616.2,124.9,616.1,124.4z"/>
	<path fill="#FFFFFF" d="M627.7,120.4c-0.3-0.3-0.7-0.5-1-0.6s-0.8-0.2-1.2-0.2c-0.8,0-1.4,0.3-1.9,0.8s-0.7,1.2-0.7,1.9
		c0,0.8,0.2,1.4,0.7,1.9s1.1,0.8,1.8,0.8c0.4,0,0.8-0.1,1.2-0.2s0.8-0.4,1.1-0.7v1.3c-0.3,0.2-0.7,0.4-1,0.5
		c-0.4,0.1-0.8,0.2-1.2,0.2c-0.5,0-1.1-0.1-1.5-0.3s-0.9-0.4-1.2-0.8c-0.3-0.3-0.6-0.7-0.8-1.2c-0.2-0.5-0.3-1-0.3-1.5
		s0.1-1,0.3-1.5c0.2-0.5,0.5-0.9,0.8-1.2c0.4-0.4,0.8-0.6,1.2-0.8c0.5-0.2,1-0.3,1.5-0.3c0.4,0,0.8,0.1,1.2,0.2
		c0.4,0.1,0.8,0.3,1.1,0.6L627.7,120.4z"/>
	<path fill="#FFFFFF" d="M629.2,125.8v-7.1h1.2v2.6h3.5v-2.6h1.2v7.1h-1.2v-3.5h-3.5v3.5H629.2z"/>
</g>
<g>
	<path fill="#FFFFFF" d="M645.4,148.3v0.9h-4.8l2.7-3.2c0.3-0.4,0.6-0.8,0.7-1.1c0.2-0.3,0.2-0.6,0.2-0.8c0-0.4-0.1-0.6-0.3-0.8
		c-0.2-0.2-0.5-0.3-0.9-0.3c-0.3,0-0.6,0.1-0.8,0.3c-0.2,0.2-0.3,0.5-0.4,0.8h-1.1c0-0.6,0.2-1.2,0.6-1.5c0.4-0.4,1-0.6,1.7-0.6
		c0.7,0,1.2,0.2,1.6,0.5s0.6,0.8,0.6,1.5c0,0.4-0.1,0.9-0.3,1.3c-0.2,0.4-0.7,1.1-1.5,1.9l-0.9,1.1H645.4z"/>
</g>
<g>
	<path fill="#FFFFFF" d="M597.5,149.3v-6.2H596l0.4-0.9h2.1v7.1H597.5z"/>
</g>
<g>
	<path fill="#FFFFFF" d="M611.5,243.6v3.2h-1.1v-7.1h1.8c0.5,0,0.9,0,1.1,0.1c0.2,0.1,0.5,0.2,0.6,0.3c0.2,0.2,0.4,0.4,0.5,0.7
		c0.1,0.3,0.2,0.6,0.2,0.9s-0.1,0.7-0.2,0.9s-0.3,0.5-0.5,0.7c-0.2,0.1-0.4,0.2-0.6,0.3s-0.6,0.1-1.1,0.1h-0.2H611.5z M611.5,242.7
		h0.3c0.6,0,1.1-0.1,1.3-0.2s0.3-0.4,0.3-0.7c0-0.4-0.1-0.6-0.3-0.8s-0.7-0.2-1.3-0.2h-0.3V242.7z"/>
	<path fill="#FFFFFF" d="M615.7,239.7h1.1v4.3c0,0.6,0.1,1.1,0.4,1.5c0.3,0.3,0.7,0.5,1.3,0.5c0.6,0,1-0.2,1.3-0.5
		c0.3-0.3,0.4-0.8,0.4-1.5v-4.3h1.2v4.4c0,1-0.2,1.7-0.7,2.2c-0.5,0.5-1.2,0.7-2.2,0.7c-1,0-1.7-0.2-2.2-0.7
		c-0.5-0.5-0.7-1.2-0.7-2.2V239.7z"/>
	<path fill="#FFFFFF" d="M623.1,246.8v-7.1h1.2v6.1h2.6v1H623.1z"/>
	<path fill="#FFFFFF" d="M627.8,246.8v-7.1h1.2v6.1h2.6v1H627.8z"/>
</g>
<g>
	<path fill="#808080" d="M615.9,189.6v19.2h-6.5v-42.9h9.7c2.9,0,5.1,0.2,6.6,0.6s2.9,1,4,1.8c1.3,1,2.4,2.4,3.1,4
		c0.7,1.6,1.1,3.4,1.1,5.4c0,3.4-0.8,6.1-2.5,8.1c-1.7,1.9-4.1,3.1-7.4,3.5l14.8,19.5H631l-14.3-19.2H615.9z M616.4,184.2h1.3
		c3.7,0,6.1-0.4,7.4-1.3c1.2-0.9,1.8-2.4,1.8-4.6c0-2.4-0.7-4-1.9-5s-3.7-1.5-7.2-1.5h-1.3V184.2z"/>
</g>
<g>
	<g>
		
			<path fill="none" stroke="#FFFFFF" stroke-width="1.26" stroke-linecap="round" stroke-linejoin="round" stroke-miterlimit="2.4142" d="
			M636.4,138.4c-3.5-1.6-9.1-3.5-15.8-3.5c-6.7,0-12.3,1.9-15.8,3.5"/>
		<polygon fill="#FFFFFF" points="605.2,136.2 599.8,140.7 606.7,139.5 		"/>
		<polygon fill="#FFFFFF" points="634.5,139.5 641.5,140.6 636,136.2 		"/>
	</g>
</g>
<circle fill="none" cx="620.8" cy="231.1" r="18"/>
<path id="shadow_down_1_" opacity="0.3" d="M434.4,63.8L434.4,63.8l-20.9-20.9l0,0c-1.7-1.7-4.1-2.8-6.8-2.8h-15.4v82.5
	c0,2.5,2.5,2.5,2.5,2.5c6.4,0,11.5,5.2,11.5,11.5c0,6.4-5.2,11.5-11.5,11.5v0c0,0-2.3,0-2.6,1.7l0,0c-0.9,7-6.8,12.4-14.1,12.4
	h-21.4v15.2c0,2.6,1.1,5,2.8,6.8l0,0l20.9,20.9l0,0c1.7,1.7,4.1,2.8,6.8,2.8h41.3c5.3,0,9.6-4.3,9.6-9.6V70.6
	C437.2,68,436.2,65.6,434.4,63.8z"/>
<path opacity="0.3" d="M393.9,125.1c0,0-2.5,0-2.5-2.5V49H381c0.4-1.4,0.6-2.8,0.6-4.3c0-4.3-1.7-8.1-4.5-10.9l-8.9-8.9h0
	c-2.8-2.8-6.7-4.5-10.9-4.5c-8.5,0-15.5,6.9-15.5,15.5c0,4.3,1.7,8.2,4.5,11l8.9,8.9c2.5,2.5,5.9,4.2,9.6,4.5v56.6
	c-2.3-1.1-4.9-1.7-7.6-1.7c-9.9,0-18,8.1-18,18c0,5,2,9.5,5.3,12.7l16.5,16.5h16.3c6.9,0,12.7-5,13.9-11.6c0.1-0.2,0.1-0.5,0.1-0.8
	l0,0c0.3-1.7,2.6-1.7,2.6-1.7v0c6.4,0,11.5-5.2,11.5-11.5C405.4,130.3,400.3,125.1,393.9,125.1z"/>
<circle id="button_1_" fill="#828385" stroke="#000000" stroke-width="0.576" stroke-linecap="round" stroke-linejoin="round" cx="357.2" cy="35.8" r="15.5"/>
<g>
	<path fill="#E7F2EA" d="M378,158.2h-41.3c-5.3,0-9.6-4.3-9.6-9.6V21c0-5.3,4.3-9.6,9.6-9.6H378c5.3,0,9.6,4.3,9.6,9.6v127.7
		C387.6,153.9,383.3,158.2,378,158.2L378,158.2z"/>
	<path fill="#E7F2EA" d="M378,158.2h-41.3c-5.3,0-9.6-4.3-9.6-9.6V21c0-5.3,4.3-9.6,9.6-9.6H378c5.3,0,9.6,4.3,9.6,9.6v127.7
		C387.6,153.9,383.3,158.2,378,158.2L378,158.2z"/>
	<path fill="#0D0D0D" stroke="#000000" stroke-width="0.576" stroke-linecap="round" stroke-linejoin="round" d="M386.2,148.6
		c0,4.5-3.7,8.2-8.2,8.2h-41.3c-4.5,0-8.2-3.7-8.2-8.2V21c0-4.5,3.7-8.2,8.2-8.2H378c4.5,0,8.2,3.7,8.2,8.2V148.6z"/>
	<g>
		<path fill="none" stroke="#262626" stroke-width="1.728" stroke-linecap="round" stroke-linejoin="round" d="M330,148.7
			c0,3.7,3,6.7,6.7,6.7l0,0v0"/>
		<polyline fill="none" stroke="#333333" stroke-width="1.728" stroke-linecap="round" stroke-linejoin="round" points="330,21 
			330,21 330,148.7 		"/>
		<path fill="none" stroke="#404040" stroke-width="1.728" stroke-linecap="round" stroke-linejoin="round" d="M336.7,14.3
			c-3.7,0-6.7,3-6.7,6.7"/>
		<path fill="none" stroke="#191919" stroke-width="1.728" stroke-linecap="round" stroke-linejoin="round" d="M384.1,148.7
			c0,3.7-3,6.7-6.7,6.7l0,0v0"/>
		<polyline fill="none" stroke="#191919" stroke-width="1.728" stroke-linecap="round" stroke-linejoin="round" points="384.1,21 
			384.1,21 384.1,148.7 		"/>
		<path fill="none" stroke="#262626" stroke-width="1.728" stroke-linecap="round" stroke-linejoin="round" d="M377.4,14.3
			c3.7,0,6.7,3,6.7,6.7"/>
		<path fill="none" stroke="#000000" stroke-width="0.576" stroke-linecap="round" stroke-linejoin="round" d="M386.2,148.6
			c0,4.5-3.7,8.2-8.2,8.2h-41.3c-4.5,0-8.2-3.7-8.2-8.2V21c0-4.5,3.7-8.2,8.2-8.2H378c4.5,0,8.2,3.7,8.2,8.2V148.6z"/>
		
			<line fill="none" stroke="#333333" stroke-width="1.728" stroke-linecap="round" stroke-linejoin="round" x1="336.7" y1="14.3" x2="377.4" y2="14.3"/>
		
			<line fill="none" stroke="#191919" stroke-width="1.728" stroke-linecap="round" stroke-linejoin="round" x1="336.7" y1="155.4" x2="377.4" y2="155.4"/>
	</g>
</g>
<g>
	<path fill="#FFFFFF" d="M342.7,27.8v-7.1h1.6c1,0,1.7,0.1,2.2,0.2c0.4,0.1,0.8,0.3,1.1,0.5c0.4,0.3,0.7,0.7,0.9,1.2
		s0.3,1.1,0.3,1.7s-0.1,1.2-0.3,1.7c-0.2,0.5-0.5,0.9-0.9,1.2c-0.3,0.2-0.7,0.4-1.1,0.5c-0.4,0.1-1,0.2-1.9,0.2h-0.3H342.7z
		 M343.8,26.7h1c0.5,0,0.9,0,1.2-0.1s0.5-0.2,0.7-0.4c0.3-0.2,0.5-0.5,0.6-0.9c0.1-0.3,0.2-0.7,0.2-1.2s-0.1-0.9-0.2-1.2
		c-0.1-0.3-0.3-0.6-0.6-0.9c-0.2-0.2-0.4-0.3-0.7-0.4s-0.7-0.1-1.3-0.1h-0.4h-0.4V26.7z"/>
	<path fill="#FFFFFF" d="M350.1,27.8v-7.1h1.2v7.1H350.1z"/>
	<path fill="#FFFFFF" d="M352.5,26.3l0.9-0.4c0.1,0.3,0.2,0.6,0.5,0.7c0.2,0.2,0.5,0.3,0.9,0.3c0.3,0,0.6-0.1,0.8-0.3
		s0.3-0.4,0.3-0.8c0-0.4-0.3-0.8-1-1.1c-0.1,0-0.2-0.1-0.2-0.1c-0.8-0.4-1.3-0.7-1.6-1c-0.3-0.3-0.4-0.7-0.4-1.1
		c0-0.6,0.2-1.1,0.6-1.4s0.9-0.5,1.6-0.5c0.5,0,1,0.1,1.3,0.3c0.4,0.2,0.6,0.5,0.7,0.9l-0.9,0.5c-0.1-0.2-0.3-0.4-0.5-0.5
		s-0.4-0.2-0.6-0.2c-0.3,0-0.6,0.1-0.7,0.2s-0.3,0.4-0.3,0.7c0,0.4,0.4,0.8,1.2,1.2c0.1,0,0.1,0.1,0.1,0.1c0.7,0.3,1.2,0.6,1.5,1
		c0.3,0.3,0.4,0.7,0.4,1.2c0,0.7-0.2,1.2-0.6,1.6c-0.4,0.4-1,0.6-1.7,0.6c-0.6,0-1.1-0.1-1.5-0.4S352.6,26.8,352.5,26.3z"/>
	<path fill="#FFFFFF" d="M364.2,22.3c-0.3-0.3-0.7-0.5-1-0.6s-0.8-0.2-1.2-0.2c-0.8,0-1.4,0.3-1.9,0.8s-0.7,1.2-0.7,1.9
		c0,0.8,0.2,1.4,0.7,1.9s1.1,0.8,1.8,0.8c0.4,0,0.8-0.1,1.2-0.2s0.7-0.4,1.1-0.7v1.3c-0.3,0.2-0.7,0.4-1,0.5
		c-0.4,0.1-0.8,0.2-1.2,0.2c-0.5,0-1.1-0.1-1.5-0.3s-0.9-0.4-1.2-0.8c-0.3-0.3-0.6-0.7-0.8-1.2c-0.2-0.5-0.3-1-0.3-1.5
		s0.1-1,0.3-1.5c0.2-0.5,0.5-0.9,0.8-1.2c0.4-0.4,0.8-0.6,1.2-0.8c0.5-0.2,1-0.3,1.5-0.3c0.4,0,0.8,0.1,1.2,0.2
		c0.4,0.1,0.8,0.3,1.1,0.6L364.2,22.3z"/>
	<path fill="#FFFFFF" d="M365.6,27.8v-7.1h1.2v2.6h3.5v-2.6h1.2v7.1h-1.2v-3.5h-3.5v3.5H365.6z"/>
</g>
<g>
	<path fill="#FFFFFF" d="M381.8,50.2v0.9H377l2.7-3.2c0.3-0.4,0.6-0.8,0.7-1.1c0.2-0.3,0.2-0.6,0.2-0.8c0-0.4-0.1-0.6-0.3-0.8
		c-0.2-0.2-0.5-0.3-0.9-0.3c-0.3,0-0.6,0.1-0.8,0.3c-0.2,0.2-0.3,0.5-0.4,0.8h-1.1c0-0.6,0.2-1.2,0.6-1.5c0.4-0.4,1-0.6,1.7-0.6
		c0.7,0,1.2,0.2,1.6,0.5s0.6,0.8,0.6,1.5c0,0.4-0.1,0.9-0.3,1.3c-0.2,0.4-0.7,1.1-1.5,1.9l-0.9,1.1H381.8z"/>
</g>
<g>
	<path fill="#FFFFFF" d="M333.9,51.2V45h-1.5l0.4-0.9h2.1v7.1H333.9z"/>
</g>
<g>
	<path fill="#FFFFFF" d="M347.9,145.5v3.2h-1.1v-7.1h1.8c0.5,0,0.9,0,1.2,0.1c0.2,0.1,0.5,0.2,0.6,0.3c0.2,0.2,0.4,0.4,0.5,0.7
		c0.1,0.3,0.2,0.6,0.2,0.9s-0.1,0.7-0.2,0.9s-0.3,0.5-0.5,0.7c-0.2,0.1-0.4,0.2-0.6,0.3s-0.6,0.1-1.2,0.1h-0.2H347.9z M348,144.6
		h0.3c0.6,0,1.1-0.1,1.3-0.2s0.3-0.4,0.3-0.7c0-0.4-0.1-0.6-0.3-0.8s-0.7-0.2-1.3-0.2H348V144.6z"/>
	<path fill="#FFFFFF" d="M352.1,141.6h1.1v4.3c0,0.6,0.1,1.1,0.4,1.5c0.3,0.3,0.7,0.5,1.3,0.5c0.6,0,1-0.2,1.3-0.5
		c0.3-0.3,0.4-0.8,0.4-1.5v-4.3h1.2v4.4c0,1-0.2,1.7-0.7,2.2c-0.5,0.5-1.2,0.7-2.2,0.7c-1,0-1.7-0.2-2.2-0.7
		c-0.5-0.5-0.7-1.2-0.7-2.2V141.6z"/>
	<path fill="#FFFFFF" d="M359.6,148.8v-7.1h1.2v6.1h2.6v1H359.6z"/>
	<path fill="#FFFFFF" d="M364.3,148.8v-7.1h1.2v6.1h2.6v1H364.3z"/>
</g>
<g>
	<path fill="#808080" d="M363.1,72.7l-1.9-4.4h-6.8l-2,4.4h-2.9l8.3-17.8l8.3,17.8H363.1z M355.4,66h4.8l-1.8-3.9
		c-0.1-0.3-0.2-0.5-0.3-0.9s-0.2-0.7-0.3-1.1c-0.1,0.4-0.2,0.7-0.3,1s-0.2,0.6-0.3,0.9L355.4,66z"/>
	<path fill="#808080" d="M355.9,89v7.7h-2.6V79.5h4.2c1.3,0,2.2,0.1,2.8,0.2s1.1,0.4,1.5,0.7c0.5,0.4,1,0.9,1.3,1.6s0.5,1.4,0.5,2.2
		s-0.2,1.6-0.5,2.3s-0.7,1.2-1.3,1.6c-0.4,0.3-1,0.5-1.5,0.7s-1.5,0.2-2.8,0.2H357H355.9z M356.1,86.7h0.7c1.5,0,2.6-0.2,3.1-0.5
		s0.8-0.9,0.8-1.8c0-0.9-0.3-1.6-0.8-1.9s-1.6-0.6-3-0.6h-0.7V86.7z"/>
	<path fill="#808080" d="M350.7,103.5h2.8V114c0,1.5,0.4,2.7,1.1,3.5s1.8,1.2,3.2,1.2c1.4,0,2.5-0.4,3.2-1.2s1.1-1.9,1.1-3.5v-10.4
		h2.8v10.7c0,2.3-0.6,4.1-1.8,5.2s-2.9,1.7-5.3,1.7s-4.1-0.6-5.3-1.7s-1.7-2.9-1.7-5.2V103.5z"/>
</g>
<g>
	<g>
		
			<path fill="none" stroke="#FFFFFF" stroke-width="1.26" stroke-linecap="round" stroke-linejoin="round" stroke-miterlimit="2.4142" d="
			M372.8,40.3c-3.5-1.6-9.1-3.5-15.8-3.5c-6.7,0-12.3,1.9-15.8,3.5"/>
		<polygon fill="#FFFFFF" points="341.7,38.1 336.2,42.6 343.2,41.5 		"/>
		<polygon fill="#FFFFFF" points="371,41.4 378,42.5 372.5,38.1 		"/>
	</g>
</g>
<circle fill="none" cx="357.2" cy="133" r="18"/>
</svg>
