<!-- Generator: Adobe Illustrator 18.0.0, SVG Export Plug-In  -->
<svg version="1.1"
	 xmlns="http://www.w3.org/2000/svg" xmlns:xlink="http://www.w3.org/1999/xlink" xmlns:a="http://ns.adobe.com/AdobeSVGViewerExtensions/3.0/"
	 x="0px" y="0px" width="179.3px" height="191.6px" viewBox="0 0 179.3 191.6" enable-background="new 0 0 179.3 191.6"
	 xml:space="preserve">
<defs>
</defs>
<g id="Disch_2_1_">
	<path opacity="0.3" d="M176.5,101L176.5,101l-20.9-20.9l0,0c-1-1-2.1-1.7-3.5-2.2l-38.8-14.1c-5-1.8-10.5,0.8-12.3,5.7l-19.9,54.7
		v31.9c0,7.8-6.3,14.2-14.2,14.2H50.6l10,10l-0.4,1.1h92.8l25.6-70.3C180,107.5,179,103.6,176.5,101z"/>
	<path opacity="0.3" d="M81.1,156.1v-6.3l-21.5-21.5c-3.3-3.3-7.8-5.3-12.7-5.3c-9.9,0-18,8.1-18,18c0,5,2,9.5,5.3,12.7l16.5,16.5
		h16.3C74.8,170.3,81.1,163.9,81.1,156.1z"/>
	<path opacity="0.3" d="M66.7,41.8l-8.9-8.9c-2.8-2.8-6.7-4.5-10.9-4.5c-8.5,0-15.5,6.9-15.5,15.5c0,4.3,1.7,8.2,4.5,11l8.9,8.9l0,0
		c2.8,2.8,6.7,4.5,11,4.5c8.5,0,15.5-6.9,15.5-15.5C71.3,48.5,69.6,44.6,66.7,41.8z"/>
	
		<circle id="button_1_" fill="#828385" stroke="#000000" stroke-width="0.576" stroke-linecap="round" stroke-linejoin="round" cx="46.9" cy="43.9" r="15.5"/>
	<g>
		<path fill="#E7F2EA" d="M56.4,190.9L7.9,173.2c-6.2-2.3-9.4-9.2-7.2-15.4l54.6-150c2.3-6.2,9.2-9.4,15.4-7.2l48.5,17.6
			c6.2,2.3,9.4,9.2,7.2,15.4l-54.6,150C69.5,189.9,62.6,193.2,56.4,190.9L56.4,190.9z"/>
		<path fill="#E7F2EA" d="M56.4,190.9L7.9,173.2c-6.2-2.3-9.4-9.2-7.2-15.4l54.6-150c2.3-6.2,9.2-9.4,15.4-7.2l48.5,17.6
			c6.2,2.3,9.4,9.2,7.2,15.4l-54.6,150C69.5,189.9,62.6,193.2,56.4,190.9L56.4,190.9z"/>
		<path fill="#0D0D0D" stroke="#000000" stroke-width="0.72" stroke-linecap="round" stroke-linejoin="round" d="M70.1,183.1
			c-1.9,5.3-7.8,8-13.1,6.1L8.5,171.6c-5.3-1.9-8-7.8-6.1-13.1L57,8.5c1.9-5.3,7.8-8,13.1-6.1l48.5,17.6c5.3,1.9,8,7.8,6.1,13.1
			L70.1,183.1z"/>
		<g>
			<path fill="none" stroke="#2E2E2E" stroke-width="2.16" stroke-linecap="round" stroke-linejoin="round" d="M4.1,159.1
				c-1.6,4.4,0.7,9.2,5,10.8l0,0l0,0"/>
			<polyline fill="none" stroke="#3B3B3B" stroke-width="2.16" stroke-linecap="round" stroke-linejoin="round" points="58.7,9.1 
				58.7,9.1 4.1,159.1 			"/>
			<path fill="none" stroke="#383838" stroke-width="2.16" stroke-linecap="round" stroke-linejoin="round" d="M69.5,4.1
				c-4.4-1.6-9.2,0.7-10.8,5"/>
			<path fill="none" stroke="#191919" stroke-width="2.16" stroke-linecap="round" stroke-linejoin="round" d="M67.7,182.2
				c-1.6,4.4-6.4,6.6-10.8,5l0,0l0,0"/>
			<polyline fill="none" stroke="#191919" stroke-width="2.16" stroke-linecap="round" stroke-linejoin="round" points="122.3,32.3 
				122.3,32.3 67.7,182.2 			"/>
			<path fill="none" stroke="#1F1F1F" stroke-width="2.16" stroke-linecap="round" stroke-linejoin="round" d="M117.2,21.5
				c4.4,1.6,6.6,6.4,5,10.8"/>
			<path fill="none" stroke="#000000" stroke-width="0.72" stroke-linecap="round" stroke-linejoin="round" d="M70.1,183.1
				c-1.9,5.3-7.8,8-13.1,6.1L8.5,171.6c-5.3-1.9-8-7.8-6.1-13.1L57,8.5c1.9-5.3,7.8-8,13.1-6.1l48.5,17.6c5.3,1.9,8,7.8,6.1,13.1
				L70.1,183.1z"/>
			
				<line fill="none" stroke="#2B2B2B" stroke-width="2.16" stroke-linecap="round" stroke-linejoin="round" x1="69.5" y1="4.1" x2="117.2" y2="21.5"/>
			
				<line fill="none" stroke="#212121" stroke-width="2.16" stroke-linecap="round" stroke-linejoin="round" x1="9.1" y1="169.9" x2="56.9" y2="187.3"/>
		</g>
	</g>
	<g>
		<path fill="#FFFFFF" d="M70.7,22.5l3.1-8.4l1.8,0.7c1.2,0.4,2,0.8,2.5,1.1c0.4,0.3,0.8,0.7,1.1,1.1c0.4,0.5,0.5,1.2,0.6,1.8
			c0,0.7-0.1,1.4-0.3,2.1s-0.6,1.4-1.1,1.8c-0.5,0.5-1,0.8-1.6,1c-0.5,0.1-1,0.2-1.5,0.1c-0.5,0-1.3-0.3-2.3-0.6l-0.4-0.1L70.7,22.5
			z M72.5,21.7l1.1,0.4c0.6,0.2,1.1,0.4,1.5,0.4c0.3,0,0.7,0,1-0.1c0.4-0.2,0.8-0.4,1.1-0.8c0.3-0.3,0.6-0.8,0.8-1.3
			c0.2-0.5,0.3-1,0.3-1.5c0-0.5-0.1-0.9-0.3-1.3c-0.2-0.3-0.4-0.5-0.7-0.7c-0.3-0.2-0.8-0.4-1.5-0.7L75.1,16l-0.5-0.2L72.5,21.7z"/>
		<path fill="#FFFFFF" d="M79.4,25.7l3.1-8.4l1.4,0.5l-3.1,8.4L79.4,25.7z"/>
		<path fill="#FFFFFF" d="M82.8,25l1.3-0.1c0,0.4,0.1,0.8,0.3,1.1c0.2,0.3,0.5,0.5,0.9,0.7c0.4,0.1,0.8,0.2,1.1,0
			c0.3-0.1,0.6-0.4,0.7-0.8c0.2-0.5-0.1-1.1-0.7-1.8c-0.1-0.1-0.2-0.2-0.2-0.2c-0.8-0.8-1.2-1.4-1.4-1.9c-0.2-0.5-0.2-1,0-1.5
			c0.2-0.7,0.7-1.2,1.3-1.4c0.6-0.3,1.3-0.2,2.1,0c0.6,0.2,1.1,0.5,1.4,0.9c0.3,0.4,0.5,0.8,0.5,1.3l-1.3,0.2
			c-0.1-0.3-0.2-0.6-0.3-0.8c-0.2-0.2-0.4-0.3-0.6-0.4c-0.4-0.1-0.7-0.1-1,0c-0.3,0.1-0.5,0.3-0.6,0.7c-0.2,0.5,0.1,1.1,0.9,1.9
			c0.1,0.1,0.1,0.1,0.1,0.1c0.7,0.7,1.1,1.3,1.3,1.7c0.2,0.5,0.2,1,0,1.5c-0.3,0.8-0.8,1.3-1.4,1.6s-1.4,0.3-2.3,0
			c-0.7-0.3-1.2-0.6-1.6-1.1C82.9,26.3,82.8,25.7,82.8,25z"/>
		<path fill="#FFFFFF" d="M98.2,25.3c-0.3-0.5-0.6-0.9-1-1.2c-0.4-0.3-0.8-0.6-1.3-0.7c-0.9-0.3-1.8-0.3-2.6,0.1
			c-0.8,0.4-1.4,1-1.7,2c-0.3,0.9-0.3,1.8,0,2.5c0.3,0.8,0.9,1.3,1.8,1.7c0.5,0.2,1,0.3,1.5,0.3c0.5,0,1-0.1,1.6-0.3l-0.6,1.5
			c-0.5,0.1-0.9,0.2-1.4,0.2s-1-0.1-1.5-0.3c-0.6-0.2-1.2-0.6-1.7-1c-0.5-0.4-0.8-0.9-1.1-1.5C90.2,28,90,27.4,90,26.8
			c0-0.6,0.1-1.2,0.3-1.9c0.2-0.6,0.5-1.2,1-1.6c0.4-0.5,0.9-0.8,1.5-1.1c0.6-0.3,1.2-0.4,1.8-0.4c0.6,0,1.2,0.1,1.9,0.3
			c0.5,0.2,0.9,0.4,1.3,0.7c0.4,0.3,0.8,0.7,1.1,1.1L98.2,25.3z"/>
		<path fill="#FFFFFF" d="M97.6,32.3l3.1-8.4l1.4,0.5l-1.1,3.1L105,29l1.1-3.1l1.4,0.5l-3.1,8.4l-1.4-0.5l1.5-4.1l-4.1-1.5L99,32.8
			L97.6,32.3z"/>
	</g>
	<g>
		<path fill="#FFFFFF" d="M107,65.6l-0.4,1.1l-5.6-2l4.5-2.6c0.6-0.3,1-0.6,1.3-0.9s0.5-0.6,0.6-0.9c0.2-0.4,0.1-0.8,0-1.1
			s-0.5-0.6-0.9-0.7c-0.4-0.1-0.7-0.1-1.1,0c-0.3,0.1-0.6,0.4-0.8,0.8l-1.3-0.5c0.3-0.8,0.7-1.3,1.4-1.5c0.7-0.3,1.4-0.2,2.3,0.1
			c0.8,0.3,1.4,0.7,1.7,1.3c0.3,0.6,0.3,1.2,0.1,2c-0.2,0.5-0.5,1-1,1.4c-0.5,0.4-1.3,1-2.5,1.7l-1.5,0.9L107,65.6z"/>
	</g>
	<g>
		<path fill="#FFFFFF" d="M50.3,46.2L53,39l-1.7-0.6l0.9-0.9l2.5,0.9l-3,8.3L50.3,46.2z"/>
	</g>
	<g>
		<path fill="#FFFFFF" d="M26.4,163.1l-1.4,3.8l-1.3-0.5l3.1-8.4l2.1,0.8c0.6,0.2,1,0.4,1.3,0.6c0.3,0.2,0.5,0.4,0.6,0.6
			c0.2,0.3,0.3,0.6,0.3,1c0,0.4,0,0.8-0.2,1.2c-0.1,0.4-0.4,0.7-0.6,1c-0.3,0.3-0.6,0.5-0.9,0.6c-0.3,0.1-0.6,0.1-0.9,0.1
			c-0.3,0-0.8-0.2-1.4-0.4l-0.3-0.1L26.4,163.1z M26.9,162l0.4,0.1c0.8,0.3,1.3,0.4,1.6,0.3c0.3-0.1,0.5-0.3,0.7-0.7
			c0.2-0.4,0.1-0.8-0.1-1.1s-0.7-0.6-1.4-0.8l-0.4-0.1L26.9,162z"/>
		<path fill="#FFFFFF" d="M33,160.2l1.3,0.5l-1.9,5.1c-0.3,0.8-0.3,1.4-0.1,1.9c0.2,0.5,0.7,0.9,1.4,1.1c0.7,0.3,1.3,0.3,1.8,0
			c0.5-0.3,0.9-0.8,1.1-1.5l1.9-5.1l1.4,0.5L38,168c-0.4,1.1-1,1.9-1.8,2.2c-0.8,0.4-1.7,0.3-2.9-0.1c-1.2-0.4-1.9-1-2.3-1.8
			c-0.4-0.8-0.3-1.7,0.1-2.9L33,160.2z"/>
		<path fill="#FFFFFF" d="M38.8,171.8l3.1-8.4l1.4,0.5l-2.6,7.2l3.1,1.1l-0.4,1.2L38.8,171.8z"/>
		<path fill="#FFFFFF" d="M44.3,173.8l3.1-8.4l1.4,0.5l-2.6,7.2l3.1,1.1l-0.4,1.2L44.3,173.8z"/>
	</g>
	<g>
		<path fill="#FF0000" d="M42.1,122.4L60.4,72l8.2,3L52.9,118l18.3,6.7l-2.7,7.3L42.1,122.4z"/>
	</g>
	<g>
		<g>
			
				<path fill="none" stroke="#FFFFFF" stroke-width="1.575" stroke-linecap="round" stroke-linejoin="round" stroke-miterlimit="2.4142" d="
				M100.8,50.1c-3.4-3.3-9.2-8-17.1-10.8c-7.8-2.9-15.2-3-20-2.7"/>
			<polygon fill="#FFFFFF" points="65.1,34.3 56.7,37.2 65.4,38.8 			"/>
			<polygon fill="#FFFFFF" points="98.1,50.7 105.8,55 101.3,47.4 			"/>
		</g>
	</g>
</g>
</svg>
