<!-- Generator: Adobe Illustrator 18.0.0, SVG Export Plug-In  -->
<svg version="1.1"
	 xmlns="http://www.w3.org/2000/svg" xmlns:xlink="http://www.w3.org/1999/xlink" xmlns:a="http://ns.adobe.com/AdobeSVGViewerExtensions/3.0/"
	 x="0px" y="0px" width="168.2px" height="191.6px" viewBox="0 0 168.2 191.6" enable-background="new 0 0 168.2 191.6"
	 xml:space="preserve">
<defs>
</defs>
<g id="Disch_1_2_">
	<path opacity="0.3" d="M99.7,41.9L90.8,33c-2.8-2.8-6.7-4.5-10.9-4.5c-8.5,0-15.5,6.9-15.5,15.5c0,4.3,1.7,8.2,4.5,11l8.9,8.9l0,0
		c2.8,2.8,6.7,4.5,11,4.5c8.5,0,15.5-6.9,15.5-15.5C104.3,48.6,102.5,44.7,99.7,41.9z"/>
	<path opacity="0.3" d="M168.2,181.5L135,90.4c-0.5-1.4-1.3-2.5-2.2-3.5l0,0l-18.7-18.7v88c0,7.8-6.3,14.2-14.2,14.2H83.6l4.5,4.5
		l2.4,6.6L168.2,181.5z"/>
	<path opacity="0.3" d="M114.1,156.2V72.1c-1.1,0-2.2,0.2-3.3,0.6L72,86.8c-5,1.8-7.5,7.3-5.7,12.3l9,24.7
		c-7.7,2.1-13.3,9-13.3,17.4c0,5,2,9.5,5.3,12.7l16.5,16.5h16.3C107.7,170.4,114.1,164,114.1,156.2z"/>
	
		<circle id="button_1_" fill="#828385" stroke="#000000" stroke-width="0.576" stroke-linecap="round" stroke-linejoin="round" cx="79.9" cy="44" r="15.5"/>
	<g>
		<path fill="#E7F2EA" d="M119.2,173.2l-48.5,17.6c-6.2,2.3-13.1-1-15.4-7.2L0.7,33.8c-2.3-6.2,1-13.1,7.2-15.4L56.4,0.7
			c6.2-2.3,13.1,1,15.4,7.2l54.6,150C128.6,164.1,125.4,171,119.2,173.2L119.2,173.2z"/>
		<path fill="#E7F2EA" d="M119.2,173.2l-48.5,17.6c-6.2,2.3-13.1-1-15.4-7.2L0.7,33.8c-2.3-6.2,1-13.1,7.2-15.4L56.4,0.7
			c6.2-2.3,13.1,1,15.4,7.2l54.6,150C128.6,164.1,125.4,171,119.2,173.2L119.2,173.2z"/>
		<path fill="#0D0D0D" stroke="#000000" stroke-width="0.72" stroke-linecap="round" stroke-linejoin="round" d="M124.7,158.5
			c1.9,5.3-0.8,11.1-6.1,13.1l-48.5,17.6c-5.3,1.9-11.1-0.8-13.1-6.1L2.4,33.1C0.5,27.8,3.2,22,8.5,20.1L57,2.4
			c5.3-1.9,11.1,0.8,13.1,6.1L124.7,158.5z"/>
		<g>
			<path fill="none" stroke="#1F1F1F" stroke-width="2.16" stroke-linecap="round" stroke-linejoin="round" d="M58.7,182.5
				c1.6,4.4,6.4,6.6,10.8,5l0,0l0,0"/>
			<polyline fill="none" stroke="#2B2B2B" stroke-width="2.16" stroke-linecap="round" stroke-linejoin="round" points="4.1,32.5 
				4.1,32.5 58.7,182.5 			"/>
			<path fill="none" stroke="#3B3B3B" stroke-width="2.16" stroke-linecap="round" stroke-linejoin="round" d="M9.1,21.8
				c-4.4,1.6-6.6,6.4-5,10.8"/>
			<path fill="none" stroke="#191919" stroke-width="2.16" stroke-linecap="round" stroke-linejoin="round" d="M122.3,159.4
				c1.6,4.4-0.7,9.2-5,10.8l0,0l0,0"/>
			<polyline fill="none" stroke="#212121" stroke-width="2.16" stroke-linecap="round" stroke-linejoin="round" points="67.7,9.4 
				67.7,9.4 122.3,159.4 			"/>
			<path fill="none" stroke="#2E2E2E" stroke-width="2.16" stroke-linecap="round" stroke-linejoin="round" d="M56.9,4.4
				c4.4-1.6,9.2,0.7,10.8,5"/>
			
				<line fill="none" stroke="#383838" stroke-width="2.16" stroke-linecap="round" stroke-linejoin="round" x1="9.1" y1="21.8" x2="56.9" y2="4.4"/>
			
				<line fill="none" stroke="#191919" stroke-width="2.16" stroke-linecap="round" stroke-linejoin="round" x1="69.5" y1="187.5" x2="117.2" y2="170.1"/>
			<path fill="none" stroke="#000000" stroke-width="0.72" stroke-linecap="round" stroke-linejoin="round" d="M124.7,158.5
				c1.9,5.3-0.8,11.1-6.1,13.1l-48.5,17.6c-5.3,1.9-11.1-0.8-13.1-6.1L2.4,33.1C0.5,27.8,3.2,22,8.5,20.1L57,2.4
				c5.3-1.9,11.1,0.8,13.1,6.1L124.7,158.5z"/>
		</g>
	</g>
	<g>
		<path fill="#FFFFFF" d="M21.9,35l-3.1-8.4l1.8-0.7c1.2-0.4,2.1-0.7,2.6-0.7c0.5-0.1,1,0,1.5,0.1c0.6,0.2,1.2,0.5,1.6,1
			c0.5,0.5,0.8,1.1,1.1,1.9c0.3,0.7,0.4,1.5,0.3,2.1c0,0.7-0.2,1.3-0.6,1.8c-0.3,0.4-0.6,0.8-1,1.1c-0.4,0.3-1.1,0.6-2.1,1l-0.4,0.1
			L21.9,35z M22.8,33.3l1.1-0.4c0.6-0.2,1.1-0.4,1.4-0.6s0.5-0.4,0.7-0.7c0.2-0.4,0.3-0.8,0.3-1.3s-0.1-1-0.3-1.5
			c-0.2-0.5-0.4-1-0.8-1.3c-0.3-0.3-0.7-0.6-1.1-0.8c-0.3-0.1-0.6-0.2-1-0.1c-0.4,0-0.9,0.2-1.6,0.4l-0.5,0.2l-0.5,0.2L22.8,33.3z"
			/>
		<path fill="#FFFFFF" d="M30.6,31.9l-3.1-8.4l1.4-0.5l3.1,8.4L30.6,31.9z"/>
		<path fill="#FFFFFF" d="M32.8,29.1l0.9-0.9c0.2,0.3,0.5,0.6,0.9,0.7c0.3,0.1,0.7,0.1,1.2-0.1c0.4-0.1,0.7-0.4,0.8-0.7
			c0.2-0.3,0.2-0.7,0-1c-0.2-0.5-0.7-0.8-1.7-0.9c-0.1,0-0.2,0-0.3,0c-1.1-0.1-1.9-0.3-2.3-0.6c-0.4-0.3-0.8-0.6-0.9-1.2
			c-0.2-0.7-0.2-1.3,0.1-1.9c0.3-0.6,0.8-1,1.6-1.3c0.6-0.2,1.2-0.3,1.7-0.2c0.5,0.1,0.9,0.3,1.2,0.7l-0.9,0.9
			c-0.3-0.2-0.5-0.3-0.8-0.4c-0.2,0-0.5,0-0.8,0.1c-0.4,0.1-0.6,0.3-0.8,0.6c-0.1,0.3-0.2,0.6,0,0.9c0.2,0.5,0.8,0.8,1.9,0.9
			c0.1,0,0.2,0,0.2,0c1,0.1,1.7,0.2,2.1,0.5s0.8,0.7,1,1.2c0.3,0.8,0.3,1.5-0.1,2.2c-0.3,0.7-0.9,1.1-1.8,1.4
			c-0.7,0.3-1.4,0.3-1.9,0.1C33.7,30.1,33.2,29.7,32.8,29.1z"/>
		<path fill="#FFFFFF" d="M44.8,19.5c-0.5-0.2-1-0.3-1.5-0.3c-0.5,0-1,0.1-1.4,0.2c-0.9,0.3-1.6,0.9-1.9,1.7s-0.4,1.7,0,2.6
			c0.3,0.9,0.9,1.6,1.7,1.9c0.8,0.4,1.6,0.4,2.4,0.1c0.5-0.2,0.9-0.4,1.3-0.8c0.4-0.3,0.7-0.8,1-1.3l0.6,1.5c-0.3,0.4-0.6,0.7-1,1
			c-0.4,0.3-0.8,0.5-1.3,0.7c-0.6,0.2-1.3,0.3-1.9,0.3c-0.6,0-1.2-0.1-1.8-0.4c-0.6-0.3-1-0.6-1.5-1.1c-0.4-0.5-0.7-1-1-1.6
			c-0.2-0.6-0.3-1.2-0.3-1.9c0-0.6,0.2-1.2,0.4-1.8c0.3-0.6,0.6-1.1,1.1-1.5s1-0.7,1.6-1c0.5-0.2,1-0.3,1.5-0.3c0.5,0,1,0,1.5,0.2
			L44.8,19.5z"/>
		<path fill="#FFFFFF" d="M48.8,25.2l-3.1-8.4l1.4-0.5l1.1,3.1l4.1-1.5l-1.1-3.1l1.4-0.5l3.1,8.4l-1.4,0.5l-1.5-4.1l-4.1,1.5
			l1.5,4.1L48.8,25.2z"/>
	</g>
	<g>
		<path fill="#FFFFFF" d="M77.5,44.7l0.4,1.1l-5.6,2L74,43c0.2-0.6,0.4-1.1,0.4-1.6c0.1-0.4,0-0.8-0.1-1.1c-0.2-0.4-0.4-0.7-0.7-0.8
			c-0.3-0.1-0.7-0.1-1.1,0c-0.4,0.1-0.7,0.4-0.8,0.7c-0.2,0.3-0.2,0.7-0.1,1.1l-1.3,0.5C70,41,70,40.3,70.3,39.7
			c0.3-0.6,0.9-1.1,1.8-1.4c0.8-0.3,1.5-0.3,2.1-0.1c0.6,0.2,1.1,0.7,1.3,1.4c0.2,0.5,0.2,1.1,0.2,1.7c-0.1,0.6-0.4,1.6-0.9,2.9
			l-0.6,1.6L77.5,44.7z"/>
	</g>
	<g>
		<path fill="#FFFFFF" d="M21.6,66.3l-2.6-7.2l-1.7,0.6l0.1-1.3l2.5-0.9l3,8.3L21.6,66.3z"/>
	</g>
	<g>
		<path fill="#FFFFFF" d="M78.3,171.2l1.4,3.8l-1.3,0.5l-3.1-8.4l2.1-0.8c0.6-0.2,1.1-0.4,1.4-0.4c0.3,0,0.6,0,0.9,0.1
			c0.3,0.1,0.6,0.3,0.9,0.6c0.3,0.3,0.5,0.6,0.6,1s0.2,0.8,0.2,1.2s-0.1,0.7-0.3,1c-0.2,0.2-0.4,0.4-0.6,0.6
			c-0.3,0.2-0.7,0.4-1.3,0.6l-0.3,0.1L78.3,171.2z M78,170l0.3-0.1c0.8-0.3,1.2-0.5,1.4-0.8c0.2-0.3,0.2-0.6,0.1-1
			c-0.2-0.4-0.4-0.7-0.7-0.8c-0.3-0.1-0.9,0-1.6,0.3l-0.3,0.1L78,170z"/>
		<path fill="#FFFFFF" d="M81.6,164.7l1.3-0.5l1.9,5.1c0.3,0.8,0.7,1.3,1.1,1.5c0.5,0.3,1.1,0.3,1.8,0c0.7-0.3,1.1-0.6,1.4-1.1
			c0.2-0.5,0.2-1.1-0.1-1.9l-1.9-5.1l1.4-0.5l1.9,5.2c0.4,1.1,0.4,2.1,0.1,2.9c-0.4,0.8-1.1,1.4-2.3,1.8c-1.2,0.4-2.1,0.5-2.9,0.1
			c-0.8-0.4-1.4-1.1-1.8-2.2L81.6,164.7z"/>
		<path fill="#FFFFFF" d="M93.4,169.9l-3.1-8.4l1.4-0.5l2.6,7.2l3.1-1.1l0.4,1.2L93.4,169.9z"/>
		<path fill="#FFFFFF" d="M99,167.9l-3.1-8.4l1.4-0.5l2.6,7.2l3.1-1.1l0.4,1.2L99,167.9z"/>
	</g>
	<g>
		<path fill="#FF0000" d="M64.2,129.9L45.8,79.6l8.2-3l15.7,43.1L88,113l2.7,7.3L64.2,129.9z"/>
	</g>
	<g>
		<g>
			
				<path fill="none" stroke="#FFFFFF" stroke-width="1.575" stroke-linecap="round" stroke-linejoin="round" stroke-miterlimit="2.4142" d="
				M62.7,36.9c-4.8-0.3-12.2-0.2-20,2.7c-7.8,2.9-13.6,7.5-17.1,10.8"/>
			<polygon fill="#FFFFFF" points="25.2,47.7 20.6,55.2 28.3,50.9 			"/>
			<polygon fill="#FFFFFF" points="61,39 69.6,37.3 61.3,34.5 			"/>
		</g>
	</g>
</g>
</svg>
