<!-- Generator: Adobe Illustrator 18.0.0, SVG Export Plug-In  -->
<svg version="1.1"
	 xmlns="http://www.w3.org/2000/svg" xmlns:xlink="http://www.w3.org/1999/xlink" xmlns:a="http://ns.adobe.com/AdobeSVGViewerExtensions/3.0/"
	 x="0px" y="0px" width="492.8px" height="245.5px" viewBox="0 0 492.8 245.5" enable-background="new 0 0 492.8 245.5"
	 xml:space="preserve">
<defs>
</defs>
<path fill="#636467" stroke="#000000" stroke-width="0.5744" stroke-linecap="round" d="M492.5,245.2l-81.1-0.3
	c0,0-4.5,0.1-12.7,0.1c-23.6,0-87-1.1-164-11.3c-99.8-13.3-161.7-52.8-173.1-60.6c-14.7-10.1-30.9-24.1-39.7-33
	c-5.8-5.8-12.6-13.7-19.4-22.6l-0.3-0.4c-1.7-2.2-2.3-5.4-1.5-8.1c0.8-2.7,3-4.8,6-5.8c7.8-2.6,145.4-40.8,218.9-57.2
	c76.6-17,145.3-31.3,167.1-34.8c24.5-3.9,62.8-8.9,77.5-9.7l22.3-1.3V245.2L492.5,245.2z"/>
<path fill="#828385" stroke="#000000" stroke-width="0.576" stroke-miterlimit="2.4142" d="M490.8,243.5l-79.5-0.3
	c0,0-76.1,2.1-176.5-11.2S72.8,178.7,62.5,171.7c-14.1-9.6-30.4-23.6-39.5-32.8c-9.5-9.5-18.6-21.5-19.6-22.8
	c-2.3-2.9-2.5-9.2,3.8-11.3C15.1,102.3,152.8,64,226,47.8C299.1,31.5,370,16.6,393,13s62.3-8.8,77.4-9.7c15.1-0.9,20.5-1.2,20.5-1.2
	V243.5z"/>
<g>
	<path fill="#FFFFFF" d="M313.8,96.8v4.2h-1.2v-8.6h1.4c0.9,0,1.6,0.2,2,0.5s0.6,0.9,0.6,1.7c0,0.6-0.1,1.1-0.4,1.5
		s-0.7,0.6-1.2,0.6l2,4.2h-1.2L313.8,96.8L313.8,96.8z M313.8,96.1h0.4c0.5,0,0.8-0.1,1-0.3s0.3-0.6,0.3-1.2c0-0.5-0.1-0.8-0.3-1
		s-0.5-0.3-1-0.3h-0.3V96.1z"/>
	<path fill="#FFFFFF" d="M318.2,96.7c0-1.6,0.2-2.7,0.6-3.4s1-1,1.9-1c0.9,0,1.5,0.3,1.9,1s0.6,1.8,0.6,3.4c0,1.6-0.2,2.7-0.6,3.4
		s-1,1-1.9,1c-0.9,0-1.5-0.3-1.9-1S318.2,98.2,318.2,96.7z M319.4,96.6c0,1.2,0.1,2.1,0.3,2.6s0.5,0.7,1,0.7c0.5,0,0.8-0.2,1-0.7
		s0.3-1.3,0.3-2.6c0-1.2-0.1-2.1-0.3-2.6s-0.5-0.7-1-0.7c-0.5,0-0.8,0.2-1,0.7S319.4,95.4,319.4,96.6z"/>
	<path fill="#FFFFFF" d="M325,100.9v-8.6h1.2v7.5h2.5v1.1H325z"/>
	<path fill="#FFFFFF" d="M330.1,100.9v-8.6h1.2v7.5h2.5v1.1H330.1z"/>
	<path fill="#FFFFFF" d="M337.9,99.4c0.3,0.2,0.5,0.3,0.8,0.4s0.4,0.1,0.7,0.1c0.4,0,0.6-0.1,0.8-0.3s0.3-0.5,0.3-0.8
		c0-0.5-0.4-1.1-1.2-1.7c-0.1-0.1-0.2-0.1-0.2-0.2c-0.5-0.4-0.9-0.8-1.1-1.2s-0.3-0.8-0.3-1.2c0-0.6,0.2-1.2,0.6-1.6
		s0.9-0.6,1.5-0.6c0.3,0,0.5,0,0.8,0.1s0.5,0.2,0.7,0.3v1.1c-0.2-0.2-0.4-0.3-0.7-0.3s-0.4-0.1-0.6-0.1c-0.4,0-0.7,0.1-0.9,0.3
		s-0.3,0.5-0.3,0.9c0,0.5,0.4,1.1,1.3,1.7c0.1,0.1,0.1,0.1,0.2,0.1c0.5,0.4,0.8,0.8,1,1.1s0.3,0.8,0.3,1.2c0,0.7-0.2,1.2-0.6,1.6
		s-1,0.6-1.6,0.6c-0.2,0-0.5,0-0.7-0.1s-0.5-0.2-0.8-0.3V99.4z"/>
	<path fill="#FFFFFF" d="M343.4,100.9v-8.6h1.4c0.5,0,0.9,0,1.2,0.1s0.5,0.2,0.8,0.4c0.3,0.2,0.4,0.5,0.6,0.8s0.2,0.7,0.2,1.1
		c0,0.8-0.2,1.4-0.7,1.8s-1.1,0.6-2,0.6c-0.1,0-0.2,0-0.2,0s-0.1,0-0.1,0v3.8H343.4z M344.5,96.1h0.4c0.5,0,0.9-0.1,1.1-0.3
		s0.3-0.6,0.3-1.1c0-0.5-0.1-0.8-0.3-1s-0.6-0.3-1.2-0.3h-0.3V96.1z"/>
	<path fill="#FFFFFF" d="M349.2,100.9v-8.6h1.2v7.5h2.5v1.1H349.2z"/>
	<path fill="#FFFFFF" d="M355.5,96.8v4.2h-1.2v-8.6h1.4c0.9,0,1.6,0.2,2,0.5s0.6,0.9,0.6,1.7c0,0.6-0.1,1.1-0.4,1.5
		s-0.7,0.6-1.2,0.6l2,4.2h-1.2L355.5,96.8L355.5,96.8z M355.5,96.1h0.4c0.5,0,0.8-0.1,1-0.3s0.3-0.6,0.3-1.2c0-0.5-0.1-0.8-0.3-1
		s-0.5-0.3-1-0.3h-0.3V96.1z"/>
	<path fill="#FFFFFF" d="M359.9,99.4c0.3,0.2,0.5,0.3,0.8,0.4s0.4,0.1,0.7,0.1c0.4,0,0.6-0.1,0.8-0.3s0.3-0.5,0.3-0.8
		c0-0.5-0.4-1.1-1.2-1.7c-0.1-0.1-0.2-0.1-0.2-0.2c-0.5-0.4-0.9-0.8-1.1-1.2s-0.3-0.8-0.3-1.2c0-0.6,0.2-1.2,0.6-1.6
		s0.9-0.6,1.5-0.6c0.3,0,0.5,0,0.8,0.1s0.5,0.2,0.7,0.3v1.1c-0.2-0.2-0.4-0.3-0.7-0.3s-0.4-0.1-0.6-0.1c-0.4,0-0.7,0.1-0.9,0.3
		s-0.3,0.5-0.3,0.9c0,0.5,0.4,1.1,1.3,1.7c0.1,0.1,0.1,0.1,0.2,0.1c0.5,0.4,0.8,0.8,1,1.1s0.3,0.8,0.3,1.2c0,0.7-0.2,1.2-0.6,1.6
		s-1,0.6-1.6,0.6c-0.2,0-0.5,0-0.7-0.1s-0.5-0.2-0.8-0.3V99.4z"/>
</g>
<g>
	<path fill="#FFFFFF" d="M247.1,101.2v-8.6h1.2v3.3h2.1v-3.3h1.2v8.6h-1.2V97h-2.1v4.2H247.1z"/>
	<path fill="#FFFFFF" d="M253.6,99v-6.3h1.1v6.4c0,0.4,0.1,0.7,0.3,0.9s0.5,0.3,0.8,0.3s0.7-0.1,0.8-0.3s0.3-0.5,0.3-0.9v-6.4h1.1
		V99c0,0.8-0.2,1.4-0.5,1.8s-0.9,0.6-1.7,0.6s-1.4-0.2-1.7-0.6S253.6,99.8,253.6,99z"/>
	<path fill="#FFFFFF" d="M260.1,101.2v-8.6h1.5c1.2,0,2,0.3,2.5,1s0.7,1.7,0.7,3.3c0,1.6-0.2,2.7-0.7,3.3s-1.3,1-2.5,1H260.1z
		 M261.3,100.1h0.6c0.6,0,1.1-0.2,1.4-0.7s0.4-1.3,0.4-2.5c0-1.2-0.1-2-0.4-2.5s-0.7-0.7-1.4-0.7h-0.6V100.1z"/>
</g>
<g>
	<path fill="#FFFFFF" d="M156.5,101c-0.2,0.1-0.4,0.2-0.6,0.2s-0.4,0.1-0.6,0.1c-0.9,0-1.5-0.4-2-1.1s-0.7-1.8-0.7-3.2
		c0-1.5,0.2-2.6,0.7-3.3s1.1-1.1,2.1-1.1c0.2,0,0.4,0,0.6,0.1s0.3,0.1,0.5,0.2v1.1c-0.2-0.1-0.3-0.1-0.5-0.2s-0.3-0.1-0.4-0.1
		c-0.6,0-1.1,0.3-1.3,0.8s-0.4,1.4-0.4,2.6c0,1.1,0.1,1.9,0.4,2.4s0.7,0.8,1.2,0.8c0.2,0,0.3,0,0.5-0.1s0.3-0.1,0.5-0.2V101z"/>
	<path fill="#FFFFFF" d="M160.3,101.2h-1l-1.9-8.6h1.2l1.2,5.8l1.2-5.8h1.2L160.3,101.2z"/>
	<path fill="#FFFFFF" d="M163.4,99.7c0.3,0.2,0.5,0.3,0.8,0.4s0.4,0.1,0.7,0.1c0.4,0,0.6-0.1,0.8-0.3s0.3-0.5,0.3-0.8
		c0-0.5-0.4-1.1-1.2-1.7c-0.1-0.1-0.2-0.1-0.2-0.2c-0.5-0.4-0.9-0.8-1.1-1.2s-0.3-0.8-0.3-1.2c0-0.6,0.2-1.2,0.6-1.6
		s0.9-0.6,1.5-0.6c0.3,0,0.5,0,0.8,0.1s0.5,0.2,0.7,0.3v1.1c-0.2-0.2-0.4-0.3-0.7-0.3s-0.4-0.1-0.6-0.1c-0.4,0-0.7,0.1-0.9,0.3
		s-0.3,0.5-0.3,0.9c0,0.5,0.4,1.1,1.3,1.7c0.1,0.1,0.1,0.1,0.2,0.1c0.5,0.4,0.8,0.8,1,1.1s0.3,0.8,0.3,1.2c0,0.7-0.2,1.2-0.6,1.6
		s-1,0.6-1.6,0.6c-0.2,0-0.5,0-0.7-0.1s-0.5-0.2-0.8-0.3V99.7z"/>
</g>
<g>
	<g>
		<path fill="#FFFFFF" d="M123.8,175.2l0.6-7.1h0.9l1,4.9l1-4.9h0.8l0.6,7.1h-0.9l-0.3-5l-1,5h-0.6l-1-5l-0.3,5H123.8z"/>
		<path fill="#FFFFFF" d="M129.7,175.2V168h1v7.1H129.7z"/>
		<path fill="#FFFFFF" d="M131.9,175.2V168h0.9l1.9,5v-5h0.9v7.1h-0.9l-1.9-5v5H131.9z"/>
	</g>
</g>
<g>
	<g>
		<path fill="#FFFFFF" d="M185.4,175.2l0.6-7.1h0.9l1,4.9l1-4.9h0.8l0.6,7.1h-0.9l-0.3-5l-1,5h-0.6l-1-5l-0.3,5H185.4z"/>
		<path fill="#FFFFFF" d="M190.8,175.2l1.7-7.1h0.9l1.7,7.1h-1l-0.3-1.4h-1.6l-0.3,1.4H190.8z M192.9,169.9l-0.6,3.1h1.3
			L192.9,169.9z"/>
		<path fill="#FFFFFF" d="M195.2,175.2l1.3-3.6l-1.2-3.5h1l0.8,2.3l0.8-2.3h1l-1.2,3.5l1.3,3.6h-1l-0.8-2.5l-0.8,2.5H195.2z"/>
	</g>
</g>
<g>
	<path fill="#FFFFFF" d="M415.7,89.9l0.7-8.6h1l1.2,5.9l1.2-5.9h1l0.7,8.6h-1.1l-0.3-6l-1.1,6h-0.8l-1.1-6l-0.3,6H415.7z"/>
	<path fill="#FFFFFF" d="M422.7,89.9l2-8.6h1.1l2,8.6h-1.2l-0.4-1.7h-2l-0.4,1.7H422.7z M425.2,83.5l-0.8,3.7h1.5L425.2,83.5z"/>
	<path fill="#FFFFFF" d="M429,88.4c0.3,0.2,0.5,0.3,0.8,0.4s0.4,0.1,0.7,0.1c0.4,0,0.6-0.1,0.8-0.3s0.3-0.5,0.3-0.8
		c0-0.5-0.4-1.1-1.2-1.7c-0.1-0.1-0.2-0.1-0.2-0.2c-0.5-0.4-0.9-0.8-1.1-1.2s-0.3-0.8-0.3-1.2c0-0.6,0.2-1.2,0.6-1.6
		s0.9-0.6,1.5-0.6c0.3,0,0.5,0,0.8,0.1s0.5,0.2,0.7,0.3v1.1c-0.2-0.2-0.4-0.3-0.7-0.3s-0.4-0.1-0.6-0.1c-0.4,0-0.7,0.1-0.9,0.3
		s-0.3,0.5-0.3,0.9c0,0.5,0.4,1.1,1.3,1.7c0.1,0.1,0.1,0.1,0.2,0.1c0.5,0.4,0.8,0.8,1,1.1s0.3,0.8,0.3,1.2c0,0.7-0.2,1.2-0.6,1.6
		s-1,0.6-1.6,0.6c-0.2,0-0.5,0-0.7-0.1s-0.5-0.2-0.8-0.3V88.4z"/>
	<path fill="#FFFFFF" d="M435.4,89.9v-7.5h-1.6v-1.1h4.3v1.1h-1.6v7.5H435.4z"/>
	<path fill="#FFFFFF" d="M439.6,89.9v-8.6h3.4v1h-2.3v2.5h2.1v1h-2.1v2.9h2.3v1.1H439.6z"/>
	<path fill="#FFFFFF" d="M446,85.7v4.2h-1.2v-8.6h1.4c0.9,0,1.6,0.2,2,0.5s0.6,0.9,0.6,1.7c0,0.6-0.1,1.1-0.4,1.5s-0.7,0.6-1.2,0.6
		l2,4.2H448L446,85.7L446,85.7z M446,85h0.4c0.5,0,0.8-0.1,1-0.3s0.3-0.6,0.3-1.2c0-0.5-0.1-0.8-0.3-1s-0.5-0.3-1-0.3H446V85z"/>
	<path fill="#FFFFFF" d="M391.6,101.9l-1.4-8.6h1.1l0.8,5.9l1-5.9h0.9l1,5.9l0.8-5.9h1.1l-1.4,8.6h-0.9l-1.1-6.1l-1.1,6.1H391.6z"/>
	<path fill="#FFFFFF" d="M397.7,101.9l2-8.6h1.1l2,8.6h-1.2l-0.4-1.7h-2l-0.4,1.7H397.7z M400.3,95.6l-0.8,3.7h1.5L400.3,95.6z"/>
	<path fill="#FFFFFF" d="M405.4,97.8v4.2h-1.2v-8.6h1.4c0.9,0,1.6,0.2,2,0.5s0.6,0.9,0.6,1.7c0,0.6-0.1,1.1-0.4,1.5
		s-0.7,0.6-1.2,0.6l2,4.2h-1.2L405.4,97.8L405.4,97.8z M405.4,97.1h0.4c0.5,0,0.8-0.1,1-0.3s0.3-0.6,0.3-1.2c0-0.5-0.1-0.8-0.3-1
		s-0.5-0.3-1-0.3h-0.3V97.1z"/>
	<path fill="#FFFFFF" d="M410.1,101.9v-8.6h1.1l2.3,5.9v-5.9h1.1v8.6h-1.1l-2.3-6v6H410.1z"/>
	<path fill="#FFFFFF" d="M416.6,101.9v-8.6h1.2v8.6H416.6z"/>
	<path fill="#FFFFFF" d="M419.9,101.9v-8.6h1.1l2.3,5.9v-5.9h1.1v8.6h-1.1l-2.3-6v6H419.9z"/>
	<path fill="#FFFFFF" d="M431.1,97.4c0,0.2,0,0.4,0,0.5s0,0.3,0,0.5c0,1.3-0.2,2.2-0.6,2.8s-1,0.9-1.9,0.9c-0.9,0-1.5-0.3-1.9-1
		s-0.6-1.8-0.6-3.4c0-1.6,0.2-2.7,0.6-3.4s1-1,1.9-1c0.6,0,1.1,0.1,1.5,0.4s0.7,0.8,0.8,1.4l-1,0.5c-0.1-0.4-0.2-0.7-0.4-0.9
		s-0.5-0.3-0.8-0.3c-0.5,0-0.9,0.2-1.1,0.7s-0.3,1.3-0.3,2.6c0,1.2,0.1,2.1,0.3,2.6s0.6,0.7,1.1,0.7c0.4,0,0.8-0.2,1-0.6
		s0.3-0.9,0.3-1.6c0-0.1,0-0.2,0-0.2s0-0.1,0-0.2h-1.2v-1H431.1z"/>
	<path fill="#FFFFFF" d="M432.2,103.1l2.5-9.8h0.8l-2.5,9.8H432.2z"/>
	<path fill="#FFFFFF" d="M440.4,101.8c-0.2,0.1-0.4,0.2-0.6,0.2s-0.4,0.1-0.6,0.1c-0.9,0-1.5-0.4-2-1.1s-0.7-1.8-0.7-3.2
		c0-1.5,0.2-2.6,0.7-3.3s1.1-1.1,2.1-1.1c0.2,0,0.4,0,0.6,0.1s0.3,0.1,0.5,0.2v1.1c-0.2-0.1-0.3-0.1-0.5-0.2s-0.3-0.1-0.4-0.1
		c-0.6,0-1.1,0.3-1.3,0.8s-0.4,1.4-0.4,2.6c0,1.1,0.1,1.9,0.4,2.4s0.7,0.8,1.2,0.8c0.2,0,0.3,0,0.5-0.1s0.3-0.1,0.5-0.2V101.8z"/>
	<path fill="#FFFFFF" d="M441.4,101.9l2-8.6h1.1l2,8.6h-1.2l-0.4-1.7h-2l-0.4,1.7H441.4z M443.9,95.6l-0.8,3.7h1.5L443.9,95.6z"/>
	<path fill="#FFFFFF" d="M447.8,99.7v-6.3h1.1v6.4c0,0.4,0.1,0.7,0.3,0.9s0.5,0.3,0.8,0.3s0.7-0.1,0.8-0.3s0.3-0.5,0.3-0.9v-6.4h1.1
		v6.3c0,0.8-0.2,1.4-0.5,1.8s-0.9,0.6-1.7,0.6s-1.4-0.2-1.7-0.6S447.8,100.5,447.8,99.7z"/>
	<path fill="#FFFFFF" d="M455.4,101.9v-7.5h-1.6v-1.1h4.3v1.1h-1.6v7.5H455.4z"/>
	<path fill="#FFFFFF" d="M459.6,101.9v-8.6h1.2v8.6H459.6z"/>
	<path fill="#FFFFFF" d="M462.6,97.7c0-1.6,0.2-2.7,0.6-3.4s1-1,1.9-1c0.9,0,1.5,0.3,1.9,1c0.4,0.7,0.6,1.8,0.6,3.4
		c0,1.6-0.2,2.7-0.6,3.4c-0.4,0.7-1,1-1.9,1c-0.9,0-1.5-0.3-1.9-1S462.6,99.2,462.6,97.7z M463.8,97.6c0,1.2,0.1,2.1,0.3,2.6
		s0.5,0.7,1,0.7c0.5,0,0.8-0.2,1-0.7c0.2-0.5,0.3-1.3,0.3-2.6c0-1.2-0.1-2.1-0.3-2.6c-0.2-0.5-0.5-0.7-1-0.7c-0.5,0-0.8,0.2-1,0.7
		S463.8,96.4,463.8,97.6z"/>
	<path fill="#FFFFFF" d="M469.4,101.9v-8.6h1.1l2.3,5.9v-5.9h1.1v8.6h-1.1l-2.3-6v6H469.4z"/>
</g>
<g>
	<path fill="#FFFFFF" d="M318.1,200.7v-8.6h1.4c0.5,0,0.9,0,1.2,0.1s0.5,0.2,0.8,0.4c0.3,0.2,0.4,0.5,0.6,0.8s0.2,0.7,0.2,1.1
		c0,0.8-0.2,1.4-0.7,1.8s-1.1,0.6-2,0.6c-0.1,0-0.2,0-0.2,0s-0.1,0-0.1,0v3.8H318.1z M319.3,195.9h0.4c0.5,0,0.9-0.1,1.1-0.3
		s0.3-0.6,0.3-1.1c0-0.5-0.1-0.8-0.3-1s-0.6-0.3-1.2-0.3h-0.3V195.9z"/>
	<path fill="#FFFFFF" d="M324,200.7v-8.6h1.2v7.5h2.5v1.1H324z"/>
	<path fill="#FFFFFF" d="M329.4,200.7v-7.5h-1.6v-1.1h4.3v1.1h-1.6v7.5H329.4z"/>
	<path fill="#FFFFFF" d="M340.1,200.5c-0.2,0.1-0.4,0.2-0.6,0.2s-0.4,0.1-0.6,0.1c-0.9,0-1.5-0.4-2-1.1s-0.7-1.8-0.7-3.2
		c0-1.5,0.2-2.6,0.7-3.3s1.1-1.1,2.1-1.1c0.2,0,0.4,0,0.6,0.1s0.3,0.1,0.5,0.2v1.1c-0.2-0.1-0.3-0.1-0.5-0.2s-0.3-0.1-0.4-0.1
		c-0.6,0-1.1,0.3-1.3,0.8s-0.4,1.4-0.4,2.6c0,1.1,0.1,1.9,0.4,2.4s0.7,0.8,1.2,0.8c0.2,0,0.3,0,0.5-0.1s0.3-0.1,0.5-0.2V200.5z"/>
	<path fill="#FFFFFF" d="M341.5,196.4c0-1.6,0.2-2.7,0.6-3.4s1-1,1.9-1c0.9,0,1.5,0.3,1.9,1s0.6,1.8,0.6,3.4c0,1.6-0.2,2.7-0.6,3.4
		s-1,1-1.9,1c-0.9,0-1.5-0.3-1.9-1S341.5,197.9,341.5,196.4z M342.6,196.4c0,1.2,0.1,2.1,0.3,2.6s0.5,0.7,1,0.7c0.5,0,0.8-0.2,1-0.7
		s0.3-1.3,0.3-2.6c0-1.2-0.1-2.1-0.3-2.6s-0.5-0.7-1-0.7c-0.5,0-0.8,0.2-1,0.7S342.6,195.1,342.6,196.4z"/>
	<path fill="#FFFFFF" d="M348.2,200.7v-8.6h1.1l2.3,5.9v-5.9h1.1v8.6h-1.1l-2.3-6v6H348.2z"/>
	<path fill="#FFFFFF" d="M355.7,200.7v-7.5h-1.6v-1.1h4.3v1.1h-1.6v7.5H355.7z"/>
</g>
<g>
	<path fill="#FFFFFF" d="M230.1,190.7v-8.6h1.4c0.5,0,0.9,0,1.2,0.1s0.5,0.2,0.8,0.4c0.3,0.2,0.4,0.5,0.6,0.8s0.2,0.7,0.2,1.1
		c0,0.8-0.2,1.4-0.7,1.8s-1.1,0.6-2,0.6c-0.1,0-0.2,0-0.2,0s-0.1,0-0.1,0v3.8H230.1z M231.3,185.9h0.4c0.5,0,0.9-0.1,1.1-0.3
		s0.3-0.6,0.3-1.1c0-0.5-0.1-0.8-0.3-1s-0.6-0.3-1.2-0.3h-0.3V185.9z"/>
	<path fill="#FFFFFF" d="M235.9,188.5v-6.3h1.1v6.4c0,0.4,0.1,0.7,0.3,0.9s0.5,0.3,0.8,0.3s0.7-0.1,0.8-0.3s0.3-0.5,0.3-0.9v-6.4
		h1.1v6.3c0,0.8-0.2,1.4-0.5,1.8s-0.9,0.6-1.7,0.6s-1.4-0.2-1.7-0.6S235.9,189.3,235.9,188.5z"/>
	<path fill="#FFFFFF" d="M242.3,189.2c0.3,0.2,0.5,0.3,0.8,0.4s0.4,0.1,0.7,0.1c0.4,0,0.6-0.1,0.8-0.3s0.3-0.5,0.3-0.8
		c0-0.5-0.4-1.1-1.2-1.7c-0.1-0.1-0.2-0.1-0.2-0.2c-0.5-0.4-0.9-0.8-1.1-1.2s-0.3-0.8-0.3-1.2c0-0.6,0.2-1.2,0.6-1.6
		s0.9-0.6,1.5-0.6c0.3,0,0.5,0,0.8,0.1s0.5,0.2,0.7,0.3v1.1c-0.2-0.2-0.4-0.3-0.7-0.3s-0.4-0.1-0.6-0.1c-0.4,0-0.7,0.1-0.9,0.3
		s-0.3,0.5-0.3,0.9c0,0.5,0.4,1.1,1.3,1.7c0.1,0.1,0.1,0.1,0.2,0.1c0.5,0.4,0.8,0.8,1,1.1s0.3,0.8,0.3,1.2c0,0.7-0.2,1.2-0.6,1.6
		s-1,0.6-1.6,0.6c-0.2,0-0.5,0-0.7-0.1s-0.5-0.2-0.8-0.3V189.2z"/>
	<path fill="#FFFFFF" d="M247.7,190.7v-8.6h1.2v3.3h2.1v-3.3h1.2v8.6h-1.2v-4.2h-2.1v4.2H247.7z"/>
	<path fill="#FFFFFF" d="M253.4,191.8l2.5-9.8h0.8l-2.5,9.8H253.4z"/>
	<path fill="#FFFFFF" d="M257.8,190.7l0.7-8.6h1l1.2,5.9l1.2-5.9h1l0.7,8.6h-1.1l-0.3-6l-1.1,6h-0.8l-1.1-6l-0.3,6H257.8z"/>
	<path fill="#FFFFFF" d="M265.2,186.5c0-1.6,0.2-2.7,0.6-3.4s1-1,1.9-1c0.9,0,1.5,0.3,1.9,1s0.6,1.8,0.6,3.4c0,1.6-0.2,2.7-0.6,3.4
		s-1,1-1.9,1c-0.9,0-1.5-0.3-1.9-1S265.2,188,265.2,186.5z M266.3,186.4c0,1.2,0.1,2.1,0.3,2.6s0.5,0.7,1,0.7c0.5,0,0.8-0.2,1-0.7
		s0.3-1.3,0.3-2.6c0-1.2-0.1-2.1-0.3-2.6s-0.5-0.7-1-0.7c-0.5,0-0.8,0.2-1,0.7S266.3,185.2,266.3,186.4z"/>
	<path fill="#FFFFFF" d="M271.9,190.7v-8.6h1.5c1.2,0,2,0.3,2.5,1s0.7,1.7,0.7,3.3c0,1.6-0.2,2.7-0.7,3.3s-1.3,1-2.5,1H271.9z
		 M273.1,189.6h0.6c0.6,0,1.1-0.2,1.4-0.7s0.4-1.3,0.4-2.5c0-1.2-0.1-2-0.4-2.5s-0.7-0.7-1.4-0.7h-0.6V189.6z"/>
	<path fill="#FFFFFF" d="M278.4,190.7v-8.6h3.4v1h-2.3v2.5h2.1v1h-2.1v2.9h2.3v1.1H278.4z"/>
</g>
<g>
	<path fill="#FFFFFF" d="M129.4,190.7v-8.6h1.4c0.5,0,0.9,0,1.2,0.1s0.5,0.2,0.8,0.4c0.3,0.2,0.4,0.5,0.6,0.8s0.2,0.7,0.2,1.1
		c0,0.8-0.2,1.4-0.7,1.8s-1.1,0.6-2,0.6c-0.1,0-0.2,0-0.2,0s-0.1,0-0.1,0v3.8H129.4z M130.5,185.9h0.4c0.5,0,0.9-0.1,1.1-0.3
		s0.3-0.6,0.3-1.1c0-0.5-0.1-0.8-0.3-1s-0.6-0.3-1.2-0.3h-0.3V185.9z"/>
	<path fill="#FFFFFF" d="M135.1,188.5v-6.3h1.1v6.4c0,0.4,0.1,0.7,0.3,0.9s0.5,0.3,0.8,0.3s0.7-0.1,0.8-0.3s0.3-0.5,0.3-0.9v-6.4
		h1.1v6.3c0,0.8-0.2,1.4-0.5,1.8s-0.9,0.6-1.7,0.6s-1.4-0.2-1.7-0.6S135.1,189.3,135.1,188.5z"/>
	<path fill="#FFFFFF" d="M141.5,189.2c0.3,0.2,0.5,0.3,0.8,0.4s0.4,0.1,0.7,0.1c0.4,0,0.6-0.1,0.8-0.3s0.3-0.5,0.3-0.8
		c0-0.5-0.4-1.1-1.2-1.7c-0.1-0.1-0.2-0.1-0.2-0.2c-0.5-0.4-0.9-0.8-1.1-1.2s-0.3-0.8-0.3-1.2c0-0.6,0.2-1.2,0.6-1.6
		s0.9-0.6,1.5-0.6c0.3,0,0.5,0,0.8,0.1s0.5,0.2,0.7,0.3v1.1c-0.2-0.2-0.4-0.3-0.7-0.3s-0.4-0.1-0.6-0.1c-0.4,0-0.7,0.1-0.9,0.3
		s-0.3,0.5-0.3,0.9c0,0.5,0.4,1.1,1.3,1.7c0.1,0.1,0.1,0.1,0.2,0.1c0.5,0.4,0.8,0.8,1,1.1s0.3,0.8,0.3,1.2c0,0.7-0.2,1.2-0.6,1.6
		s-1,0.6-1.6,0.6c-0.2,0-0.5,0-0.7-0.1s-0.5-0.2-0.8-0.3V189.2z"/>
	<path fill="#FFFFFF" d="M146.9,190.7v-8.6h1.2v3.3h2.1v-3.3h1.2v8.6h-1.2v-4.2h-2.1v4.2H146.9z"/>
	<path fill="#FFFFFF" d="M152.7,191.8l2.5-9.8h0.8l-2.5,9.8H152.7z"/>
	<path fill="#FFFFFF" d="M157.3,190.7v-8.6h3.4v1h-2.3v2.5h2.1v1h-2.1v2.9h2.3v1.1H157.3z"/>
	<path fill="#FFFFFF" d="M164.8,190.7h-1l-1.9-8.6h1.2l1.2,5.8l1.2-5.8h1.2L164.8,190.7z"/>
	<path fill="#FFFFFF" d="M167.9,189.2c0.3,0.2,0.5,0.3,0.8,0.4s0.4,0.1,0.7,0.1c0.4,0,0.6-0.1,0.8-0.3s0.3-0.5,0.3-0.8
		c0-0.5-0.4-1.1-1.2-1.7c-0.1-0.1-0.2-0.1-0.2-0.2c-0.5-0.4-0.9-0.8-1.1-1.2s-0.3-0.8-0.3-1.2c0-0.6,0.2-1.2,0.6-1.6
		s0.9-0.6,1.5-0.6c0.3,0,0.5,0,0.8,0.1s0.5,0.2,0.7,0.3v1.1c-0.2-0.2-0.4-0.3-0.7-0.3s-0.4-0.1-0.6-0.1c-0.4,0-0.7,0.1-0.9,0.3
		s-0.3,0.5-0.3,0.9c0,0.5,0.4,1.1,1.3,1.7c0.1,0.1,0.1,0.1,0.2,0.1c0.5,0.4,0.8,0.8,1,1.1s0.3,0.8,0.3,1.2c0,0.7-0.2,1.2-0.6,1.6
		s-1,0.6-1.6,0.6c-0.2,0-0.5,0-0.7-0.1s-0.5-0.2-0.8-0.3V189.2z"/>
	<path fill="#FFFFFF" d="M179.8,190.5c-0.2,0.1-0.4,0.2-0.6,0.2s-0.4,0.1-0.6,0.1c-0.9,0-1.5-0.4-2-1.1s-0.7-1.8-0.7-3.2
		c0-1.5,0.2-2.6,0.7-3.3s1.1-1.1,2.1-1.1c0.2,0,0.4,0,0.6,0.1s0.3,0.1,0.5,0.2v1.1c-0.2-0.1-0.3-0.1-0.5-0.2s-0.3-0.1-0.4-0.1
		c-0.6,0-1.1,0.3-1.3,0.8s-0.4,1.4-0.4,2.6c0,1.1,0.1,1.9,0.4,2.4s0.7,0.8,1.2,0.8c0.2,0,0.3,0,0.5-0.1s0.3-0.1,0.5-0.2V190.5z"/>
	<path fill="#FFFFFF" d="M180.8,190.7l2-8.6h1.1l2,8.6h-1.2l-0.4-1.7h-2l-0.4,1.7H180.8z M183.3,184.4l-0.8,3.7h1.5L183.3,184.4z"/>
	<path fill="#FFFFFF" d="M187.3,190.7v-8.6h1.2v7.5h2.5v1.1H187.3z"/>
</g>
<path fill-rule="evenodd" clip-rule="evenodd" fill="none" stroke="#FFFFFF" stroke-width="1.26" stroke-miterlimit="2.4142" d="
	M369.2,123.3c0-3.4-2.8-6.2-6.2-6.2h-50.3c-3.4,0-6.2,2.8-6.2,6.2v50.3c0,3.4,2.8,6.2,6.2,6.2H363c3.4,0,6.2-2.8,6.2-6.2V123.3z"/>
<path fill-rule="evenodd" clip-rule="evenodd" fill="none" stroke="#FFFFFF" stroke-width="1.26" stroke-miterlimit="2.4142" d="
	M468.7,123.5c0-3.4-2.8-6.2-6.2-6.2H395c-3.4,0-6.2,2.8-6.2,6.2V191c0,3.4,2.8,6.2,6.2,6.2h67.5c3.4,0,6.2-2.8,6.2-6.2V123.5z"/>
<g>
	<path fill="#FFFFFF" d="M281.1,174.9v-7.1h1.3c0.7,0,1.2,0.1,1.5,0.4c0.3,0.3,0.5,0.7,0.5,1.4c0,0.5-0.1,0.8-0.2,1.1
		s-0.4,0.4-0.7,0.5c0.4,0.1,0.6,0.3,0.8,0.5s0.3,0.6,0.3,1.1c0,0.7-0.2,1.2-0.5,1.6s-0.8,0.5-1.5,0.5H281.1z M282.1,170.8h0.4
		c0.4,0,0.6-0.1,0.8-0.3c0.2-0.2,0.3-0.5,0.3-0.8c0-0.4-0.1-0.7-0.2-0.8c-0.2-0.2-0.4-0.2-0.8-0.2h-0.4V170.8z M282.1,174h0.3
		c0.4,0,0.7-0.1,0.9-0.3c0.2-0.2,0.2-0.5,0.2-0.9c0-0.4-0.1-0.7-0.3-0.9c-0.2-0.2-0.5-0.3-0.9-0.3h-0.3V174z"/>
	<path fill="#FFFFFF" d="M286.5,171.4v3.5h-1v-7.1h1.2c0.8,0,1.3,0.1,1.6,0.4c0.3,0.3,0.5,0.8,0.5,1.4c0,0.5-0.1,0.9-0.3,1.2
		s-0.6,0.5-1,0.5l1.7,3.5h-1L286.5,171.4L286.5,171.4z M286.5,170.8h0.3c0.4,0,0.7-0.1,0.8-0.3c0.2-0.2,0.2-0.5,0.2-1
		c0-0.4-0.1-0.7-0.2-0.8c-0.2-0.1-0.4-0.2-0.9-0.2h-0.3V170.8z"/>
	<path fill="#FFFFFF" d="M290.7,174.9v-6.2h-1.3v-0.9h3.6v0.9h-1.3v6.2H290.7z"/>
</g>
<g>
	<g>
		<path fill="#FFFFFF" d="M220.3,174.9v-7.1h1.3c1,0,1.7,0.3,2,0.8s0.6,1.5,0.6,2.8c0,1.3-0.2,2.2-0.6,2.8c-0.4,0.5-1.1,0.8-2,0.8
			H220.3z M221.2,174h0.5c0.5,0,0.9-0.2,1.1-0.6s0.3-1.1,0.3-2.1c0-1-0.1-1.7-0.3-2.1c-0.2-0.4-0.6-0.6-1.1-0.6h-0.5V174z"/>
		<path fill="#FFFFFF" d="M225.2,174.9v-7.1h1v7.1H225.2z"/>
		<path fill="#FFFFFF" d="M227.2,174.9l0.6-7.1h0.9l1,4.9l1-4.9h0.8l0.6,7.1h-0.9l-0.3-5l-1,5h-0.7l-1-5l-0.3,5H227.2z"/>
	</g>
</g>
<g>
	<path fill-rule="evenodd" clip-rule="evenodd" fill="none" stroke="#FFFFFF" stroke-width="1.26" stroke-miterlimit="2.4142" d="
		M184.9,163.3c4.7-5.6,7.6-12.9,7.6-20.8c0-17.9-14.5-32.4-32.4-32.4c-17.9,0-32.4,14.5-32.4,32.4c0,11,5.5,20.7,13.9,26.6"/>
	<polygon fill-rule="evenodd" clip-rule="evenodd" fill="#FFFFFF" points="184.2,160.9 187.1,164.1 178.8,168.9 	"/>
</g>
<g>
	<path fill-rule="evenodd" clip-rule="evenodd" fill="none" stroke="#FFFFFF" stroke-width="1.26" stroke-miterlimit="2.4142" d="
		M280.9,163.3c4.7-5.6,7.6-12.9,7.6-20.8c0-17.9-14.5-32.4-32.4-32.4c-17.9,0-32.4,14.5-32.4,32.4c0,11,5.5,20.7,13.9,26.6"/>
	<polygon fill-rule="evenodd" clip-rule="evenodd" fill="#FFFFFF" points="280.2,160.9 283.1,164.1 274.8,168.9 	"/>
</g>
<g id="Roll_Splrs_2_">
	<g>
		<path fill-rule="evenodd" clip-rule="evenodd" fill="#77787B" stroke="#000000" stroke-width="0.576" stroke-linecap="round" d="
			M365.9,173.8c0,1.5-1.2,2.8-2.8,2.8h-50.5c-1.5,0-2.8-1.2-2.8-2.8v-50.4c0-1.5,1.2-2.8,2.8-2.8h50.5c1.5,0,2.8,1.2,2.8,2.8V173.8z
			"/>
		<g>
			<path fill-rule="evenodd" clip-rule="evenodd" stroke="#000000" stroke-width="0.576" stroke-linecap="round" d="M313,172.2
				v-47.4c0-0.3,0.1-0.6,0.3-0.8c0.2-0.2,0.5-0.3,0.8-0.3h47.4c0.6,0,1.1,0.5,1.1,1.1v47.4c0,0.3-0.1,0.6-0.3,0.8
				c-0.2,0.2-0.5,0.3-0.8,0.3h-47.4C313.5,173.2,313,172.8,313,172.2z"/>
			<path opacity="0.3" fill-rule="evenodd" clip-rule="evenodd" d="M314.4,170.8v-44.6c0-0.3,0.1-0.6,0.3-0.8
				c0.2-0.2,0.5-0.3,0.8-0.3h44.6c0.3,0,3.1,2.7,3.3,2.8c0.2,0.2,0.3,0.5,0.3,0.8v44.6v0c0,0.3-0.1,0.6-0.3,0.8
				c-0.2,0.2-0.5,0.3-0.8,0.3h-44.6c-0.3,0-0.6-0.1-0.8-0.3C317.1,173.9,314.4,171.1,314.4,170.8z"/>
			<path fill-rule="evenodd" clip-rule="evenodd" fill="#333333" stroke="#000000" stroke-width="0.576" stroke-linecap="round" d="
				M314.4,170.8v-44.6c0-0.3,0.1-0.6,0.3-0.8c0.2-0.2,0.5-0.3,0.8-0.3h44.6c0.6,0,1.1,0.5,1.1,1.1v44.6v0c0,0.3-0.1,0.6-0.3,0.8
				c-0.2,0.2-0.5,0.3-0.8,0.3h-44.6C314.9,171.8,314.4,171.4,314.4,170.8"/>
			
				<rect x="318" y="128.6" fill-rule="evenodd" clip-rule="evenodd" stroke="#000000" stroke-width="0.576" stroke-linecap="round" width="39.6" height="18"/>
			
				<rect x="318" y="150.2" fill-rule="evenodd" clip-rule="evenodd" stroke="#000000" stroke-width="0.576" stroke-linecap="round" width="39.6" height="18"/>
		</g>
	</g>
	<path opacity="0.3" d="M311.6,125.3c0-1.5,1.2-2.8,2.8-2.8h50.5c0.3,0,0.6,0.1,0.9,0.1c-0.4-1.1-1.4-1.9-2.6-1.9h-50.5
		c-1.5,0-2.8,1.2-2.8,2.8v50.4c0,1.2,0.8,2.2,1.9,2.6c-0.1-0.3-0.1-0.5-0.1-0.8V125.3z"/>
	<g id="APU_Gen_2_">
		<g>
			<path d="M326.3,134v3.2h-1.1v-7.1h1.6c0.5,0,0.8,0,1.1,0.1s0.5,0.2,0.7,0.3c0.2,0.2,0.4,0.4,0.5,0.7c0.1,0.3,0.2,0.6,0.2,0.9
				c0,0.6-0.1,1-0.4,1.3c-0.3,0.3-0.7,0.5-1.2,0.6l2.5,3.3h-1.3l-2.4-3.2H326.3z M326.3,133.1h0.2c0.6,0,1-0.1,1.2-0.2
				c0.2-0.1,0.3-0.4,0.3-0.8c0-0.4-0.1-0.7-0.3-0.8c-0.2-0.2-0.6-0.2-1.2-0.2h-0.2V133.1z"/>
			<path d="M339.1,133.7c0,0.5-0.1,1-0.3,1.4s-0.5,0.9-0.8,1.2c-0.4,0.4-0.8,0.6-1.2,0.8c-0.5,0.2-0.9,0.3-1.5,0.3
				c-0.5,0-1-0.1-1.5-0.3c-0.5-0.2-0.9-0.5-1.2-0.8c-0.4-0.4-0.6-0.8-0.8-1.2c-0.2-0.4-0.3-0.9-0.3-1.4c0-0.5,0.1-1,0.3-1.4
				c0.2-0.5,0.5-0.9,0.8-1.2c0.4-0.4,0.8-0.6,1.2-0.8c0.5-0.2,1-0.3,1.5-0.3c0.5,0,1,0.1,1.5,0.3s0.9,0.5,1.2,0.8
				c0.4,0.4,0.6,0.8,0.8,1.2C339,132.7,339.1,133.2,339.1,133.7z M337.9,133.7c0-0.4-0.1-0.7-0.2-1s-0.3-0.6-0.6-0.9
				c-0.2-0.3-0.5-0.4-0.8-0.6c-0.3-0.1-0.7-0.2-1-0.2s-0.7,0.1-1,0.2s-0.6,0.3-0.8,0.6c-0.2,0.3-0.4,0.5-0.6,0.9
				c-0.1,0.3-0.2,0.7-0.2,1c0,0.4,0.1,0.7,0.2,1c0.1,0.3,0.3,0.6,0.6,0.9c0.2,0.3,0.5,0.4,0.8,0.6c0.3,0.1,0.7,0.2,1,0.2
				c0.3,0,0.7-0.1,1-0.2s0.6-0.3,0.8-0.6c0.2-0.3,0.4-0.5,0.6-0.9C337.8,134.4,337.9,134,337.9,133.7z"/>
			<path d="M341.4,137.2v-7.1h1.2v6.1h2.6v1H341.4z"/>
			<path d="M347.2,137.2v-7.1h1.2v6.1h2.6v1H347.2z"/>
			<path d="M329.4,143.8l0.9-0.4c0.1,0.3,0.3,0.6,0.5,0.7c0.2,0.2,0.5,0.3,0.9,0.3c0.3,0,0.6-0.1,0.8-0.3s0.3-0.4,0.3-0.8
				c0-0.4-0.3-0.8-1-1.1c-0.1,0-0.2-0.1-0.2-0.1c-0.8-0.4-1.3-0.7-1.6-1c-0.3-0.3-0.4-0.7-0.4-1.1c0-0.6,0.2-1.1,0.6-1.4
				s0.9-0.5,1.6-0.5c0.5,0,1,0.1,1.3,0.3c0.4,0.2,0.6,0.5,0.7,0.9l-0.9,0.5c-0.1-0.2-0.3-0.4-0.5-0.5s-0.4-0.2-0.6-0.2
				c-0.3,0-0.6,0.1-0.7,0.2s-0.3,0.4-0.3,0.7c0,0.4,0.4,0.8,1.2,1.2c0.1,0,0.1,0.1,0.1,0.1c0.7,0.3,1.2,0.6,1.5,1
				c0.3,0.3,0.4,0.7,0.4,1.2c0,0.7-0.2,1.2-0.6,1.6c-0.4,0.4-1,0.6-1.7,0.6c-0.6,0-1.1-0.1-1.5-0.4S329.5,144.3,329.4,143.8z"/>
			<path d="M336.3,145.2v-7.1h4v1h-2.8v1.8h2.8v1h-2.8v2.3h2.8v1H336.3z"/>
			<path d="M342.6,145.2v-7.1h1.2v6.1h2.6v1H342.6z"/>
		</g>
		<g>
			<path d="M331.3,155.8v3.2h-1.1v-7.1h1.8c0.5,0,0.9,0,1.1,0.1c0.2,0.1,0.5,0.2,0.6,0.3c0.2,0.2,0.4,0.4,0.5,0.7
				c0.1,0.3,0.2,0.6,0.2,0.9s-0.1,0.7-0.2,0.9s-0.3,0.5-0.5,0.7c-0.2,0.1-0.4,0.2-0.6,0.3s-0.6,0.1-1.1,0.1h-0.2H331.3z
				 M331.4,154.9h0.3c0.6,0,1.1-0.1,1.3-0.2s0.3-0.4,0.3-0.7c0-0.4-0.1-0.6-0.3-0.8s-0.7-0.2-1.3-0.2h-0.3V154.9z"/>
			<path d="M336.5,159v-7.1h1.2v6.1h2.6v1H336.5z"/>
			<path d="M344,152.9v6.2h-1.2v-6.2h-1.9v-1h5v1H344z"/>
			<path d="M326.2,163.8v3.2h-1.1v-7.1h1.6c0.5,0,0.8,0,1.1,0.1s0.5,0.2,0.7,0.3c0.2,0.2,0.4,0.4,0.5,0.7c0.1,0.3,0.2,0.6,0.2,0.9
				c0,0.6-0.1,1-0.4,1.3c-0.3,0.3-0.7,0.5-1.2,0.6l2.5,3.3h-1.3l-2.4-3.2H326.2z M326.3,162.9h0.2c0.6,0,1-0.1,1.2-0.2
				c0.2-0.1,0.3-0.4,0.3-0.8c0-0.4-0.1-0.7-0.3-0.8c-0.2-0.2-0.6-0.2-1.2-0.2h-0.2V162.9z"/>
			<path d="M339.1,163.5c0,0.5-0.1,1-0.3,1.4s-0.5,0.9-0.8,1.2c-0.4,0.4-0.8,0.6-1.2,0.8c-0.5,0.2-0.9,0.3-1.5,0.3
				c-0.5,0-1-0.1-1.5-0.3c-0.5-0.2-0.9-0.5-1.2-0.8c-0.4-0.4-0.6-0.8-0.8-1.2c-0.2-0.4-0.3-0.9-0.3-1.4c0-0.5,0.1-1,0.3-1.4
				c0.2-0.5,0.5-0.9,0.8-1.2c0.4-0.4,0.8-0.6,1.2-0.8c0.5-0.2,1-0.3,1.5-0.3c0.5,0,1,0.1,1.5,0.3s0.9,0.5,1.2,0.8
				c0.4,0.4,0.6,0.8,0.8,1.2C339,162.5,339.1,163,339.1,163.5z M337.9,163.5c0-0.4-0.1-0.7-0.2-1s-0.3-0.6-0.6-0.9
				c-0.2-0.3-0.5-0.4-0.8-0.6c-0.3-0.1-0.7-0.2-1-0.2s-0.7,0.1-1,0.2s-0.6,0.3-0.8,0.6c-0.2,0.3-0.4,0.5-0.6,0.9
				c-0.1,0.3-0.2,0.7-0.2,1c0,0.4,0.1,0.7,0.2,1c0.1,0.3,0.3,0.6,0.6,0.9c0.2,0.3,0.5,0.4,0.8,0.6c0.3,0.1,0.7,0.2,1,0.2
				c0.3,0,0.7-0.1,1-0.2s0.6-0.3,0.8-0.6c0.2-0.3,0.4-0.5,0.6-0.9C337.8,164.2,337.9,163.8,337.9,163.5z"/>
			<path d="M341.4,167v-7.1h1.2v6.1h2.6v1H341.4z"/>
			<path d="M347.1,167v-7.1h1.2v6.1h2.6v1H347.1z"/>
		</g>
	</g>
</g>
<g id="Master_Warning_2_">
	<path fill-rule="evenodd" clip-rule="evenodd" fill="#77787B" stroke="#000000" stroke-width="0.7628" stroke-linecap="round" d="
		M391.7,190.7c0,2,1.7,3.7,3.7,3.7h66.8c2,0,3.7-1.6,3.7-3.7v-66.8c0-2-1.7-3.7-3.7-3.7h-66.8c-2,0-3.7,1.6-3.7,3.7V190.7z"/>
	<g opacity="0.3">
		<path d="M393.4,125.6c0-2,1.7-3.7,3.7-3.7h66.8c0.6,0,1.1,0.1,1.6,0.4c-0.6-1.3-1.9-2.1-3.3-2.1h-66.8c-2,0-3.7,1.6-3.7,3.7v66.8
			c0,1.5,0.9,2.7,2.1,3.3c-0.2-0.5-0.3-1-0.3-1.5V125.6z"/>
	</g>
	<g>
		<g>
			<path fill-rule="evenodd" clip-rule="evenodd" stroke="#000000" stroke-width="0.7713" stroke-linecap="round" d="M462,189v-63.5
				c0-0.4-0.1-0.7-0.4-1c-0.3-0.3-0.6-0.4-1-0.4H397c-0.8,0-1.4,0.6-1.4,1.4V189c0,0.4,0.1,0.7,0.4,1c0.3,0.3,0.6,0.4,1,0.4h63.5
				C461.3,190.5,462,189.8,462,189z"/>
		</g>
	</g>
	<g>
		<g opacity="0.3">
			<path d="M465.8,190.7v-57.6c-0.2-0.1-0.4-0.2-0.6-0.2l-5.1-6.1c-0.6,0-63.4,60-62.6,62l6.4,5.5h58.1
				C464.2,194.4,465.8,192.7,465.8,190.7z"/>
		</g>
		<g>
			<path fill-rule="evenodd" clip-rule="evenodd" fill="#333333" stroke="#000000" stroke-width="0.576" stroke-linecap="round" d="
				M459,125.7h-60.8c-0.6,0-1.1,0.5-1.1,1.1v60.8c0,0.6,0.5,1.1,1.1,1.1H459c0.3,0,0.6-0.1,0.8-0.3c0.2-0.2,0.3-0.5,0.3-0.8v-60.8
				C460.1,126.2,459.6,125.7,459,125.7z"/>
		</g>
		<g>
			
				<rect x="400.7" y="129.3" fill-rule="evenodd" clip-rule="evenodd" stroke="#000000" stroke-width="0.576" stroke-linecap="round" width="55.8" height="26.1"/>
		</g>
		<g>
			
				<rect x="400.7" y="159" fill-rule="evenodd" clip-rule="evenodd" stroke="#000000" stroke-width="0.576" stroke-linecap="round" width="55.8" height="26.1"/>
		</g>
		<g>
			<path d="M401.8,139.3h1.3l1.5,4c0.1,0.3,0.2,0.5,0.2,0.7c0.1,0.2,0.1,0.4,0.2,0.6c0.1-0.4,0.3-0.8,0.4-1.2c0,0,0-0.1,0-0.1
				l1.6-4.2l1.7,4.3c0.1,0.2,0.2,0.4,0.2,0.6c0.1,0.2,0.1,0.4,0.2,0.6c0-0.2,0.1-0.3,0.1-0.5c0.1-0.2,0.1-0.4,0.2-0.7l1.5-4h1.3
				l-3,8.2l-1.8-4.5c-0.1-0.2-0.2-0.4-0.2-0.6s-0.1-0.4-0.2-0.5c-0.1,0.2-0.1,0.4-0.2,0.6c-0.1,0.2-0.1,0.4-0.2,0.5l-1.8,4.5
				L401.8,139.3z"/>
			<path d="M418.1,147.1l-0.9-2h-3.1l-0.9,2h-1.3l3.8-8.2l3.8,8.2H418.1z M414.5,144h2.2l-0.8-1.8c0-0.1-0.1-0.2-0.1-0.4
				c-0.1-0.1-0.1-0.3-0.2-0.5c0,0.2-0.1,0.3-0.1,0.5c0,0.1-0.1,0.3-0.1,0.4L414.5,144z"/>
			<path d="M421.4,143.6v3.5h-1.2v-7.9h1.8c0.5,0,0.9,0,1.2,0.1c0.3,0.1,0.5,0.2,0.7,0.3c0.2,0.2,0.4,0.4,0.6,0.7
				c0.1,0.3,0.2,0.6,0.2,1c0,0.6-0.2,1.1-0.5,1.5c-0.3,0.4-0.8,0.6-1.3,0.6l2.7,3.6h-1.4l-2.6-3.5H421.4z M421.4,142.6h0.2
				c0.7,0,1.1-0.1,1.3-0.2c0.2-0.2,0.3-0.4,0.3-0.8c0-0.4-0.1-0.7-0.4-0.9c-0.2-0.2-0.7-0.3-1.3-0.3h-0.2V142.6z"/>
			<path d="M426.3,147.1V139l5,4.8c0.1,0.1,0.3,0.3,0.4,0.4s0.3,0.3,0.4,0.5v-5.5h1.2v8.2l-5.1-4.9c-0.1-0.1-0.3-0.3-0.4-0.4
				s-0.2-0.3-0.4-0.5v5.5H426.3z"/>
			<path d="M435.2,147.1v-7.9h1.3v7.9H435.2z"/>
			<path d="M438.3,147.1V139l5,4.8c0.1,0.1,0.3,0.3,0.4,0.4s0.3,0.3,0.4,0.5v-5.5h1.2v8.2l-5.1-4.9c-0.1-0.1-0.3-0.3-0.4-0.4
				c-0.1-0.1-0.2-0.3-0.4-0.5v5.5H438.3z"/>
			<path d="M451.5,143.1h3.1c0,0.1,0,0.1,0,0.2c0,0.3,0,0.4,0,0.5c0,1.1-0.3,2-1,2.6s-1.5,0.9-2.7,0.9c-0.6,0-1.2-0.1-1.7-0.3
				s-0.9-0.5-1.3-0.9c-0.4-0.4-0.7-0.8-0.9-1.3c-0.2-0.5-0.3-1.1-0.3-1.6c0-0.6,0.1-1.1,0.3-1.6c0.2-0.5,0.5-0.9,0.9-1.3
				c0.4-0.4,0.8-0.7,1.3-0.9s1.1-0.3,1.7-0.3c0.6,0,1.2,0.1,1.7,0.3s0.9,0.6,1.3,1l-0.9,0.7c-0.3-0.3-0.6-0.5-0.9-0.7
				s-0.7-0.2-1.1-0.2c-0.9,0-1.5,0.3-2.1,0.8s-0.8,1.3-0.8,2.1c0,0.9,0.3,1.6,0.8,2.2c0.5,0.6,1.2,0.8,2.1,0.8
				c0.7,0,1.3-0.2,1.7-0.5c0.4-0.3,0.6-0.8,0.6-1.4v-0.1h-1.9V143.1z"/>
		</g>
		<g>
			<path d="M410.4,170.5c-0.4-0.3-0.7-0.5-1.1-0.7c-0.4-0.2-0.8-0.2-1.3-0.2c-0.9,0-1.6,0.3-2.1,0.8c-0.5,0.6-0.8,1.3-0.8,2.1
				c0,0.8,0.3,1.5,0.8,2.1c0.5,0.6,1.2,0.8,2,0.8c0.5,0,0.9-0.1,1.3-0.2s0.8-0.4,1.2-0.7v1.4c-0.3,0.2-0.7,0.4-1.1,0.6
				c-0.4,0.1-0.8,0.2-1.3,0.2c-0.6,0-1.2-0.1-1.7-0.3c-0.5-0.2-1-0.5-1.3-0.9c-0.4-0.4-0.7-0.8-0.9-1.3c-0.2-0.5-0.3-1.1-0.3-1.6
				c0-0.6,0.1-1.1,0.3-1.6s0.5-1,0.9-1.3c0.4-0.4,0.8-0.7,1.3-0.9c0.5-0.2,1.1-0.3,1.6-0.3c0.5,0,0.9,0.1,1.3,0.2
				c0.4,0.1,0.8,0.3,1.2,0.6L410.4,170.5z"/>
			<path d="M417.2,176.4l-0.9-2h-3.1l-0.9,2h-1.3l3.8-8.2l3.8,8.2H417.2z M413.6,173.3h2.2l-0.8-1.8c0-0.1-0.1-0.2-0.1-0.4
				c-0.1-0.1-0.1-0.3-0.2-0.5c0,0.2-0.1,0.3-0.1,0.5c0,0.1-0.1,0.3-0.1,0.4L413.6,173.3z"/>
			<path d="M419,168.6h1.3v4.8c0,0.7,0.2,1.2,0.5,1.6c0.3,0.4,0.8,0.5,1.5,0.5c0.6,0,1.1-0.2,1.5-0.5c0.3-0.4,0.5-0.9,0.5-1.6v-4.8
				h1.3v4.9c0,1.1-0.3,1.9-0.8,2.4s-1.3,0.8-2.4,0.8c-1.1,0-1.9-0.3-2.4-0.8c-0.5-0.5-0.8-1.3-0.8-2.4V168.6z"/>
			<path d="M429.8,169.7v6.8h-1.3v-6.8h-2.1v-1.1h5.4v1.1H429.8z"/>
			<path d="M432.9,176.4v-7.9h1.3v7.9H432.9z"/>
			<path d="M444.1,172.5c0,0.6-0.1,1.1-0.3,1.6c-0.2,0.5-0.5,0.9-0.9,1.3c-0.4,0.4-0.9,0.7-1.4,0.9c-0.5,0.2-1,0.3-1.6,0.3
				c-0.6,0-1.1-0.1-1.6-0.3c-0.5-0.2-1-0.5-1.4-0.9c-0.4-0.4-0.7-0.8-0.9-1.3c-0.2-0.5-0.3-1-0.3-1.6c0-0.6,0.1-1.1,0.3-1.6
				c0.2-0.5,0.5-0.9,0.9-1.3c0.4-0.4,0.9-0.7,1.4-0.9c0.5-0.2,1-0.3,1.6-0.3c0.6,0,1.1,0.1,1.6,0.3c0.5,0.2,1,0.5,1.4,0.9
				c0.4,0.4,0.7,0.8,0.9,1.3C444,171.4,444.1,172,444.1,172.5z M442.7,172.5c0-0.4-0.1-0.8-0.2-1.1c-0.1-0.4-0.4-0.7-0.6-1
				c-0.3-0.3-0.6-0.5-0.9-0.6c-0.3-0.1-0.7-0.2-1.1-0.2s-0.8,0.1-1.1,0.2c-0.3,0.1-0.7,0.4-0.9,0.6c-0.3,0.3-0.5,0.6-0.6,1
				c-0.1,0.4-0.2,0.7-0.2,1.1c0,0.4,0.1,0.8,0.2,1.1c0.1,0.4,0.4,0.7,0.6,1c0.3,0.3,0.6,0.5,0.9,0.6c0.3,0.1,0.7,0.2,1.1,0.2
				c0.4,0,0.7-0.1,1.1-0.2c0.3-0.1,0.7-0.4,0.9-0.6c0.3-0.3,0.5-0.6,0.6-1C442.7,173.3,442.7,172.9,442.7,172.5z"/>
			<path d="M445.5,176.4v-8.2l5,4.8c0.1,0.1,0.3,0.3,0.4,0.4s0.3,0.3,0.4,0.5v-5.5h1.2v8.2l-5.1-4.9c-0.1-0.1-0.3-0.3-0.4-0.4
				c-0.1-0.1-0.2-0.3-0.4-0.5v5.5H445.5z"/>
		</g>
	</g>
	<path fill-rule="evenodd" clip-rule="evenodd" fill="none" stroke="#4C4C4C" stroke-width="0.576" stroke-linecap="round" d="
		M397.4,188.4c0.2,0.2,0.5,0.3,0.8,0.3H459c0.3,0,0.6-0.1,0.8-0.3c0.2-0.2,0.3-0.5,0.3-0.8v-60.8c0-0.3-0.2-0.6-0.4-0.8"/>
	<path fill-rule="evenodd" clip-rule="evenodd" fill="none" stroke="#CCCCCC" stroke-width="0.576" stroke-linecap="round" d="
		M459.7,126c-0.2-0.2-0.4-0.2-0.7-0.2h-60.8c-0.6,0-1.1,0.5-1.1,1.1v60.8c0,0.3,0.1,0.6,0.3,0.7"/>
</g>
<g id="CVS_2_">
	<path opacity="0.3" d="M193.3,142.2l-4.4-4.4c-1.2-4.1-3.5-8-6.7-11.3l-3.1-3.1c-4.9-4.9-11.6-7.9-19-7.9
		c-14.9,0-26.9,12-26.9,26.9c0,7.4,3,14.2,7.9,19h0l3.1,3.1c3.3,3.3,7.1,5.5,11.3,6.7l4.4,4.4c9.2,9.2,24.2,9.2,33.4-0.1
		C202.5,166.3,202.5,151.4,193.3,142.2z"/>
	<linearGradient id="SVGID_1_" gradientUnits="userSpaceOnUse" x1="179.1677" y1="161.5385" x2="141.1105" y2="123.4813">
		<stop  offset="0" style="stop-color:#0D0D0D"/>
		<stop  offset="1" style="stop-color:#404040"/>
	</linearGradient>
	<circle fill="url(#SVGID_1_)" stroke="#000000" stroke-width="0.576" cx="160.1" cy="142.5" r="26.9"/>
	<g>
		<path fill="#FFFFFF" d="M137,138.1h-3.4c-0.2,1.1-0.3,2.2-0.3,3.3h2.3v2.4h-2.2c0.1,1.1,0.2,2.2,0.4,3.3h3.4V138.1z"/>
		<polyline fill="none" stroke="#000000" points="133.3,141.7 135.2,141.7 135.2,143.3 133.2,143.3 		"/>
		<circle fill="none" stroke="#000000" stroke-width="0.576" cx="160.1" cy="142.5" r="26.9"/>
		<line fill="none" x1="133.2" y1="142.5" x2="187" y2="142.5"/>
	</g>
	<g>
		<linearGradient id="SVGID_2_" gradientUnits="userSpaceOnUse" x1="176.8613" y1="159.2321" x2="143.4169" y2="125.7877">
			<stop  offset="0" style="stop-color:#0D0D0D"/>
			<stop  offset="1" style="stop-color:#3B3B3B"/>
		</linearGradient>
		<ellipse fill="url(#SVGID_2_)" cx="160.1" cy="142.5" rx="23.7" ry="23.6"/>
		<path opacity="0.3" d="M187,142.6c0-2.7-0.4-5.3-1.1-7.8l-9-9l0,0l-33.4,33.4l0,0l9,9c2.5,0.7,5.1,1.1,7.8,1.1
			C175,169.5,187,157.5,187,142.6z"/>
		<linearGradient id="SVGID_3_" gradientUnits="userSpaceOnUse" x1="143.7529" y1="126.1242" x2="176.5249" y2="158.8962">
			<stop  offset="0" style="stop-color:#474747"/>
			<stop  offset="1" style="stop-color:#191919"/>
		</linearGradient>
		<path fill="url(#SVGID_3_)" d="M182.7,142.9l0-0.8l0.7-0.4c0-0.4,0-0.9-0.1-1.3l-0.7-0.3l-0.1-0.8l0.6-0.5
			c-0.1-0.4-0.2-0.9-0.3-1.3l-0.7-0.2l-0.2-0.8l0.6-0.5c-0.1-0.4-0.3-0.9-0.4-1.3l-0.8-0.1l-0.3-0.7l0.5-0.6
			c-0.2-0.4-0.4-0.8-0.6-1.2l-0.8,0l-0.4-0.7l0.4-0.6c-0.2-0.4-0.5-0.8-0.7-1.2l-0.7,0.1l-0.5-0.6l0.3-0.7c-0.3-0.4-0.6-0.7-0.9-1.1
			l-0.7,0.2l-0.5-0.6l0.2-0.7c-0.3-0.3-0.7-0.6-1-1l-0.7,0.2l-0.6-0.5l0.1-0.7c-0.4-0.3-0.8-0.6-1.1-0.8l-0.6,0.3l-0.7-0.4l0-0.7
			c-0.4-0.2-0.8-0.5-1.3-0.7l-0.6,0.4l-0.7-0.3l-0.1-0.7c-0.4-0.2-0.9-0.4-1.3-0.5l-0.5,0.4l-0.8-0.2l-0.1-0.6
			c-0.5-0.1-0.9-0.3-1.4-0.4l-0.4,0.5l-0.8-0.2l-0.2-0.6c-0.5-0.1-1-0.1-1.4-0.2L162,120l-0.8-0.1l-0.3-0.6c-0.2,0-0.5,0-0.7,0
			c-0.2,0-0.5,0-0.7,0l-0.3,0.6l-0.8,0l-0.4-0.5c-0.5,0-1,0.1-1.4,0.2l-0.2,0.6l-0.8,0.1l-0.4-0.5c-0.5,0.1-0.9,0.2-1.4,0.4
			l-0.1,0.6l-0.8,0.2l-0.5-0.4c-0.5,0.2-0.9,0.3-1.3,0.5l-0.1,0.7l-0.7,0.3l-0.6-0.4c-0.4,0.2-0.8,0.4-1.3,0.7l0,0.7l-0.7,0.4
			l-0.6-0.3c-0.4,0.3-0.8,0.5-1.1,0.8l0.1,0.7l-0.6,0.5l-0.7-0.2c-0.4,0.3-0.7,0.6-1,1l0.2,0.7l-0.5,0.6l-0.7-0.2
			c-0.3,0.3-0.6,0.7-0.9,1.1l0.3,0.7l-0.5,0.6l-0.7-0.1c-0.3,0.4-0.5,0.8-0.7,1.2l0.4,0.6l-0.4,0.7l-0.8,0c-0.2,0.4-0.4,0.8-0.6,1.2
			l0.5,0.6l-0.3,0.7l-0.8,0.1c-0.2,0.4-0.3,0.8-0.4,1.3l0.6,0.5l-0.2,0.8l-0.7,0.2c-0.1,0.4-0.2,0.9-0.3,1.3l0.6,0.5l-0.1,0.8
			l-0.7,0.3c0,0.4-0.1,0.9-0.1,1.3l0.7,0.4v0.8l-0.7,0.4c0,0.4,0,0.9,0.1,1.3l0.7,0.3l0.1,0.8l-0.6,0.5c0.1,0.4,0.2,0.9,0.3,1.3
			l0.7,0.2l0.2,0.8l-0.6,0.5c0.1,0.4,0.3,0.9,0.4,1.3l0.8,0.1l0.3,0.7l-0.5,0.6c0.2,0.4,0.4,0.8,0.6,1.2l0.8,0l0.4,0.7l-0.4,0.6
			c0.2,0.4,0.5,0.8,0.7,1.2l0.7-0.1l0.5,0.6l-0.3,0.7c0.3,0.4,0.6,0.7,0.9,1.1l0.7-0.2l0.5,0.6l-0.2,0.7c0.3,0.3,0.7,0.6,1,1
			l0.7-0.2l0.6,0.5l-0.1,0.7c0.4,0.3,0.8,0.6,1.1,0.8l0.6-0.3l0.7,0.4l0,0.7c0.4,0.2,0.8,0.5,1.3,0.7l0.6-0.4l0.7,0.3l0.1,0.7
			c0.4,0.2,0.9,0.4,1.3,0.5l0.5-0.4l0.8,0.2l0.1,0.6c0.5,0.1,0.9,0.3,1.4,0.4l0.4-0.5l0.8,0.1l0.2,0.6c0.5,0.1,1,0.1,1.4,0.2
			l0.4-0.5l0.8,0l0.3,0.6c0.2,0,0.5,0,0.7,0c0.2,0,0.5,0,0.7,0l0.3-0.6l0.8,0l0.4,0.5c0.5,0,1-0.1,1.4-0.2l0.2-0.6l0.8-0.1l0.4,0.5
			c0.5-0.1,0.9-0.2,1.4-0.4l0.1-0.6l0.8-0.2l0.5,0.4c0.5-0.2,0.9-0.3,1.3-0.5l0.1-0.7l0.7-0.3l0.6,0.4c0.4-0.2,0.8-0.4,1.3-0.7
			l0-0.7l0.7-0.4l0.6,0.3c0.4-0.3,0.8-0.5,1.1-0.8l-0.1-0.7l0.6-0.5l0.7,0.2c0.4-0.3,0.7-0.6,1-1l-0.2-0.7l0.5-0.6l0.7,0.2
			c0.3-0.3,0.6-0.7,0.9-1.1l-0.3-0.7l0.5-0.6l0.7,0.1c0.3-0.4,0.5-0.8,0.7-1.2l-0.4-0.6l0.4-0.7l0.8,0c0.2-0.4,0.4-0.8,0.6-1.2
			l-0.5-0.6l0.3-0.7l0.8-0.1c0.2-0.4,0.3-0.8,0.4-1.3l-0.6-0.5l0.2-0.8l0.7-0.2c0.1-0.4,0.2-0.9,0.3-1.3l-0.6-0.5l0.1-0.8l0.7-0.3
			c0-0.4,0.1-0.9,0.1-1.3L182.7,142.9z"/>
		<ellipse fill="none" stroke="#000000" stroke-width="0.576" cx="160.1" cy="142.5" rx="23.7" ry="23.6"/>
	</g>
	<path opacity="0.3" d="M176.1,128.3l-0.9-0.9c-3.9-3.9-9.2-6.3-15.1-6.3c-11.8,0-21.4,9.6-21.4,21.4c0,5.9,2.4,11.2,6.3,15.1l0,0
		l0.9,0.9c8.3,8.3,21.9,8.3,30.2,0C184.5,150.2,184.5,136.6,176.1,128.3z"/>
	<circle fill="#2E2E2E" stroke="#000000" stroke-width="0.576" cx="160.1" cy="142.5" r="21.4"/>
	<circle fill="#191919" stroke="#000000" stroke-width="0.576" cx="160.1" cy="142.5" r="19.1"/>
	<path opacity="0.3" d="M161.7,124.9c4.9,0,9.4,1.9,12.7,4.9c-3.5-3.9-8.6-6.4-14.3-6.4c-10.6,0-19.1,8.6-19.1,19.1
		c0,5.7,2.5,10.8,6.4,14.3c-3-3.4-4.9-7.8-4.9-12.7C142.5,133.5,151.1,124.9,161.7,124.9z"/>
	<path opacity="0.3" d="M179.3,142.5c0-2.5-0.5-5-1.4-7.2l-5.4-5.4h0c-3.2-3.2-7.5-5.1-12.4-5.1c-9.7,0-17.5,7.8-17.5,17.5
		c0,4.8,2,9.2,5.1,12.4l5.8,5.8c2.1,0.8,4.3,1.2,6.6,1.2C170.7,161.7,179.3,153.1,179.3,142.5z"/>
	<circle fill="#2E2E2E" stroke="#000000" stroke-width="0.576" cx="160.1" cy="142.3" r="17.5"/>
</g>
<g id="HUD_2_">
	<path opacity="0.3" d="M289.3,142.2l-4.4-4.4c-1.2-4.1-3.5-8-6.7-11.3l-3.1-3.1c-4.9-4.9-11.6-7.9-19-7.9
		c-14.9,0-26.9,12-26.9,26.9c0,7.4,3,14.2,7.9,19h0l3.1,3.1c3.3,3.3,7.1,5.5,11.3,6.7l4.4,4.4c9.2,9.2,24.2,9.2,33.4-0.1
		C298.5,166.3,298.5,151.4,289.3,142.2z"/>
	<linearGradient id="SVGID_4_" gradientUnits="userSpaceOnUse" x1="275.1786" y1="161.5385" x2="237.1214" y2="123.4813">
		<stop  offset="0" style="stop-color:#0D0D0D"/>
		<stop  offset="1" style="stop-color:#404040"/>
	</linearGradient>
	<circle fill="url(#SVGID_4_)" stroke="#000000" stroke-width="0.576" cx="256.2" cy="142.5" r="26.9"/>
	<g>
		<path fill="#FFFFFF" d="M233,138.1h-3.4c-0.2,1.1-0.3,2.2-0.3,3.3h2.3v2.4h-2.2c0.1,1.1,0.2,2.2,0.4,3.3h3.4V138.1z"/>
		<polyline fill="none" stroke="#000000" points="229.3,141.7 231.2,141.7 231.2,143.3 229.2,143.3 		"/>
		<circle fill="none" stroke="#000000" stroke-width="0.576" cx="256.2" cy="142.5" r="26.9"/>
		<line fill="none" x1="229.2" y1="142.5" x2="283.1" y2="142.5"/>
	</g>
	<g>
		<linearGradient id="SVGID_5_" gradientUnits="userSpaceOnUse" x1="272.872" y1="159.2321" x2="239.4276" y2="125.7877">
			<stop  offset="0" style="stop-color:#0D0D0D"/>
			<stop  offset="1" style="stop-color:#3B3B3B"/>
		</linearGradient>
		<ellipse fill="url(#SVGID_5_)" cx="256.1" cy="142.5" rx="23.7" ry="23.6"/>
		<path opacity="0.3" d="M283.1,142.6c0-2.7-0.4-5.3-1.1-7.8l-9-9l0,0l-33.4,33.4l0,0l9,9c2.5,0.7,5.1,1.1,7.8,1.1
			C271,169.5,283.1,157.5,283.1,142.6z"/>
		<linearGradient id="SVGID_6_" gradientUnits="userSpaceOnUse" x1="239.7638" y1="126.1239" x2="272.536" y2="158.8961">
			<stop  offset="0" style="stop-color:#474747"/>
			<stop  offset="1" style="stop-color:#191919"/>
		</linearGradient>
		<path fill="url(#SVGID_6_)" d="M278,142.6c0-0.7,0.6-1.3,1.3-1.4c-0.2-4.1-1.5-7.9-3.6-11.1c-0.6,0.4-1.4,0.2-1.8-0.4
			c-0.4-0.6-0.3-1.4,0.2-1.9c-2.5-3-5.7-5.4-9.4-6.8c-0.3,0.6-1,0.9-1.7,0.7c-0.7-0.2-1.1-0.9-1-1.6c-1.9-0.5-3.8-0.7-5.9-0.7
			c-2,0-3.9,0.2-5.8,0.7c0.1,0.7-0.3,1.3-1,1.6c-0.7,0.2-1.4-0.1-1.7-0.7c-3.7,1.4-7,3.8-9.5,6.8c0.5,0.5,0.6,1.3,0.2,1.9
			c-0.4,0.6-1.2,0.7-1.9,0.4c-2.1,3.2-3.4,7-3.7,11.1c0.7,0.1,1.3,0.7,1.3,1.4c0,0.7-0.6,1.3-1.3,1.4c0.2,4.1,1.5,7.9,3.6,11.1
			c0.6-0.4,1.4-0.2,1.8,0.4c0.4,0.6,0.3,1.4-0.2,1.9c2.5,3,5.7,5.4,9.4,6.8c0.3-0.6,1-0.9,1.7-0.7c0.7,0.2,1.1,0.9,1,1.6
			c1.9,0.5,3.8,0.7,5.9,0.7c2,0,3.9-0.2,5.8-0.7c-0.1-0.7,0.3-1.3,1-1.6c0.7-0.2,1.4,0.1,1.7,0.7c3.7-1.4,7-3.8,9.5-6.8
			c-0.5-0.5-0.6-1.3-0.2-1.9c0.4-0.6,1.2-0.7,1.9-0.4c2.1-3.2,3.4-7,3.7-11.1C278.6,143.9,278,143.3,278,142.6z"/>
		<ellipse fill="none" stroke="#000000" stroke-width="0.576" cx="256.1" cy="142.5" rx="23.7" ry="23.6"/>
	</g>
	<path opacity="0.3" d="M272.1,128.3l-0.9-0.9c-3.9-3.9-9.2-6.3-15.1-6.3c-11.8,0-21.4,9.6-21.4,21.4c0,5.9,2.4,11.2,6.3,15.1l0,0
		l0.9,0.9c8.3,8.3,21.9,8.3,30.2,0C280.5,150.2,280.5,136.6,272.1,128.3z"/>
	<circle fill="#2E2E2E" stroke="#000000" stroke-width="0.576" cx="256.1" cy="142.5" r="21.4"/>
	<circle fill="#191919" stroke="#000000" stroke-width="0.576" cx="256.1" cy="142.5" r="19.1"/>
	<path opacity="0.3" d="M257.7,124.9c4.9,0,9.4,1.9,12.7,4.9c-3.5-3.9-8.6-6.4-14.3-6.4c-10.6,0-19.1,8.6-19.1,19.1
		c0,5.7,2.5,10.8,6.4,14.3c-3-3.4-4.9-7.8-4.9-12.7C238.5,133.5,247.1,124.9,257.7,124.9z"/>
	<path opacity="0.3" d="M275.3,142.5c0-2.5-0.5-5-1.4-7.2l-5.4-5.4h0c-3.2-3.2-7.5-5.1-12.4-5.1c-9.7,0-17.5,7.8-17.5,17.5
		c0,4.8,2,9.2,5.1,12.4l5.8,5.8c2.1,0.8,4.3,1.2,6.6,1.2C266.7,161.7,275.3,153.1,275.3,142.5z"/>
	<circle fill="#2E2E2E" stroke="#000000" stroke-width="0.576" cx="256.1" cy="142.3" r="17.5"/>
</g>
</svg>
