<!-- Generator: Adobe Illustrator 18.0.0, SVG Export Plug-In  -->
<svg version="1.1"
	 xmlns="http://www.w3.org/2000/svg" xmlns:xlink="http://www.w3.org/1999/xlink" xmlns:a="http://ns.adobe.com/AdobeSVGViewerExtensions/3.0/"
	 x="0px" y="0px" width="36.2px" height="28.4px" viewBox="0 0 36.2 28.4" enable-background="new 0 0 36.2 28.4"
	 xml:space="preserve">
<defs>
</defs>
<g>
	<path fill-rule="evenodd" clip-rule="evenodd" fill="#FF0000" d="M21.9,0C19.3,11,19.3,11,21.9,0c-0.9,10.2,1.2,11.4,11.9,7.1
		c-11,6-11,6,0,0c-11.2,6.6-10.9,7.3,2.4,6c-12.7,1.8-12.7,1.8,0,0c-11.2,2.9-12,5-4.5,11.5c-9.5-6.3-9.5-6.3,0,0
		c-10.3-6.2-11-5.8-6.2,3.7c-5.2-8.9-5.2-8.9,0,0c-6.1-7.4-8.7-7.4-14.7,0c5.2-8.9,5.2-8.9,0,0c4.8-9.5,4.1-9.9-6.2-3.7
		c9.5-6.3,9.5-6.3,0,0c7.5-6.5,6.7-8.6-4.5-11.5c12.7,1.8,12.7,1.8,0,0c13.3,1.3,13.5,0.7,2.4-6c11,6,11,6,0,0
		c10.7,4.3,12.8,3.1,11.9-7.1c2.7,11,2.7,11,0,0C17.7,11.3,18.5,11.3,21.9,0z"/>
	<path fill="none" stroke="#000000" stroke-width="0.2674" stroke-miterlimit="2.4142" d="M21.9,0C19.3,11,19.3,11,21.9,0
		c-0.9,10.2,1.2,11.4,11.9,7.1c-11,6-11,6,0,0c-11.2,6.6-10.9,7.3,2.4,6c-12.7,1.8-12.7,1.8,0,0c-11.2,2.9-12,5-4.5,11.5
		c-9.5-6.3-9.5-6.3,0,0c-10.3-6.2-11-5.8-6.2,3.7c-5.2-8.9-5.2-8.9,0,0c-6.1-7.4-8.7-7.4-14.7,0c5.2-8.9,5.2-8.9,0,0
		c4.8-9.5,4.1-9.9-6.2-3.7c9.5-6.3,9.5-6.3,0,0c7.5-6.5,6.7-8.6-4.5-11.5c12.7,1.8,12.7,1.8,0,0c13.3,1.3,13.5,0.7,2.4-6
		c11,6,11,6,0,0c10.7,4.3,12.8,3.1,11.9-7.1c2.7,11,2.7,11,0,0C17.7,11.3,18.5,11.3,21.9,0z"/>
</g>
</svg>
