<?xml version="1.0" encoding="iso-8859-1"?>
<!-- Generator: Adobe Illustrator 18.0.0, SVG Export Plug-In . SVG Version: 6.00 Build 0)  -->
<!DOCTYPE svg PUBLIC "-//W3C//DTD SVG 1.1//EN" "http://www.w3.org/Graphics/SVG/1.1/DTD/svg11.dtd">
<svg version="1.1" xmlns="http://www.w3.org/2000/svg" xmlns:xlink="http://www.w3.org/1999/xlink" x="0px" y="0px"
	 viewBox="0 0 425.689 43.201" style="enable-background:new 0 0 425.689 43.201;" xml:space="preserve">
<g id="AC_x5F_DC_x5F_divLine">
	<g>
		<path style="fill:#C7C7C7;" d="M6.623,0.253h2.146c0.583,0,1.08,0.092,1.49,0.277c0.41,0.184,0.748,0.466,1.012,0.844
			s0.461,0.862,0.591,1.453c0.13,0.59,0.195,1.295,0.195,2.115c0,0.815-0.065,1.519-0.195,2.109c-0.13,0.59-0.327,1.071-0.591,1.445
			s-0.603,0.654-1.015,0.841s-0.908,0.28-1.487,0.28H6.623V0.253z M7.689,1.148v7.574h1.005c0.424,0,0.784-0.07,1.08-0.212
			s0.529-0.359,0.697-0.652c0.168-0.295,0.291-0.682,0.366-1.162c0.075-0.481,0.113-1.07,0.113-1.768
			c0-0.921-0.069-1.656-0.208-2.208s-0.373-0.951-0.701-1.2C9.712,1.272,9.264,1.148,8.694,1.148H7.689z"/>
		<path style="fill:#C7C7C7;" d="M17.868,2.42c-0.16-0.998-0.636-1.497-1.429-1.497c-1.249,0-1.873,1.335-1.873,4.006
			c0,0.925,0.067,1.682,0.202,2.27s0.346,1.026,0.636,1.316c0.29,0.289,0.667,0.434,1.131,0.434c0.392,0,0.701-0.104,0.926-0.314
			s0.411-0.559,0.557-1.046L18.9,7.827c-0.137,0.67-0.41,1.181-0.82,1.531s-0.939,0.526-1.586,0.526
			c-0.998,0-1.751-0.416-2.259-1.247c-0.508-0.832-0.762-2.063-0.762-3.695c0-1.071,0.114-1.977,0.342-2.717
			c0.228-0.741,0.561-1.297,0.998-1.668C15.249,0.186,15.778,0,16.398,0c0.351,0,0.677,0.054,0.978,0.161
			c0.301,0.106,0.556,0.257,0.766,0.451c0.209,0.193,0.38,0.436,0.513,0.728s0.214,0.624,0.246,0.998L17.868,2.42z"/>
	</g>
	<g>
		<rect y="20.084" style="fill:#FFFFFF;" width="9" height="1"/>
		<path style="fill:#FFFFFF;" d="M406.548,21.084h-18.254v-1h18.254V21.084z M378.152,21.084h-18.255v-1h18.255V21.084z
			 M349.755,21.084H331.5v-1h18.255V21.084z M321.359,21.084h-18.255v-1h18.255V21.084z M292.963,21.084h-18.255v-1h18.255V21.084z
			 M264.566,21.084h-18.254v-1h18.254V21.084z M236.17,21.084h-18.255v-1h18.255V21.084z M207.774,21.084h-18.255v-1h18.255V21.084z
			 M179.378,21.084h-18.255v-1h18.255V21.084z M150.981,21.084h-18.255v-1h18.255V21.084z M122.585,21.084H104.33v-1h18.254V21.084z
			 M94.189,21.084H75.934v-1h18.255V21.084z M65.792,21.084H47.538v-1h18.254V21.084z M37.396,21.084H19.142v-1h18.255V21.084z"/>
		<rect x="416.689" y="20.084" style="fill:#FFFFFF;" width="9" height="1"/>
	</g>
	<g>
		<path style="fill:#C7C7C7;" d="M7.046,42.935H5.994l2.365-9.495h1.6l2.365,9.495H11.23l-0.684-2.816h-2.83L7.046,42.935z
			 M7.928,39.223h2.42c-0.401-1.718-0.807-3.468-1.217-5.25c-0.073,0.392-0.204,0.999-0.393,1.821
			C8.549,36.617,8.279,37.76,7.928,39.223z"/>
		<path style="fill:#C7C7C7;" d="M17.868,35.736c-0.16-0.998-0.636-1.497-1.429-1.497c-1.249,0-1.873,1.335-1.873,4.006
			c0,0.925,0.067,1.682,0.202,2.27s0.346,1.026,0.636,1.316c0.29,0.289,0.667,0.434,1.131,0.434c0.392,0,0.701-0.104,0.926-0.314
			s0.411-0.559,0.557-1.046l0.882,0.239c-0.137,0.67-0.41,1.181-0.82,1.531s-0.939,0.526-1.586,0.526
			c-0.998,0-1.751-0.416-2.259-1.247c-0.508-0.832-0.762-2.063-0.762-3.695c0-1.071,0.114-1.977,0.342-2.717
			c0.228-0.741,0.561-1.297,0.998-1.668c0.438-0.372,0.966-0.558,1.586-0.558c0.351,0,0.677,0.054,0.978,0.161
			c0.301,0.106,0.556,0.257,0.766,0.451c0.209,0.193,0.38,0.436,0.513,0.728s0.214,0.624,0.246,0.998L17.868,35.736z"/>
	</g>
</g>
<g id="Layer_1">
</g>
</svg>
