<!-- Generator: Adobe Illustrator 18.0.0, SVG Export Plug-In  -->
<svg version="1.1"
	 xmlns="http://www.w3.org/2000/svg" xmlns:xlink="http://www.w3.org/1999/xlink" xmlns:a="http://ns.adobe.com/AdobeSVGViewerExtensions/3.0/"
	 x="0px" y="0px" width="367.4px" height="551px" viewBox="0 0 367.4 551" enable-background="new 0 0 367.4 551"
	 xml:space="preserve">
<defs>
	<symbol  id="APUNoFuel" viewBox="-18.1 -14.4 36.2 28.9">
		<g id="GV_ref_x5F_AC_Elec_2_">
			<g id="APU_18_">
				<linearGradient id="SVGID_1_" gradientUnits="userSpaceOnUse" x1="-18.1169" y1="0" x2="18.1169" y2="0">
					<stop  offset="0" style="stop-color:#999999"/>
					<stop  offset="1" style="stop-color:#191919"/>
				</linearGradient>
				<path fill="url(#SVGID_1_)" d="M0-14.4c-5.5,0-6.7,1.5-6.7,1.5c-3,3-10.2,17.2-11,21.8c-0.5,3.1-0.4,5.6-0.4,5.6h36.2
					c0,0,0.2-2.5-0.4-5.6c-0.8-4.6-8-18.8-11-21.8C6.7-12.9,5.5-14.4,0-14.4z"/>
				<g>
					<g>
						<g>
							<path fill="#FFFFFF" d="M-4.9-2.5l-0.5,0.4l-0.6,2.4h-2l-0.6-2.4L-9-2.5h-1l-0.5,0.6l2.3,9.4l0.5,0.4h1.6l0.5-0.4l2.3-9.4
								l-0.5-0.6H-4.9z M-6.4,2.1c-0.2,0.8-0.4,1.6-0.6,2.4c-0.1-0.6-0.3-1.4-0.6-2.4H-6.4z"/>
							<path d="M-6.1,7.3L-3.8-2h-1.1l-0.7,2.8h-2.8L-9-2h-1l2.3,9.4H-6.1 M-8.1,1.6h2.4c-0.4,1.7-0.8,3.4-1.2,5.2
								C-7,6.4-7.1,5.8-7.3,5S-7.8,3.1-8.1,1.6 M-6.1,8.3h-1.6l-1-0.8L-11-1.8l1-1.2h1l1,0.8l0.5,2h1.2l0.5-2l1-0.8h1.1l1,1.2
								l-2.3,9.4L-6.1,8.3L-6.1,8.3z"/>
						</g>
						<g>
							<path fill="#FFFFFF" d="M-2.1-2.5L-2.6-2v9.2l0.5,0.5h2.1c1.1,0,1.9-0.3,2.5-0.8C3,6.3,3.3,5.5,3.3,4.4
								c0-0.7-0.1-1.3-0.4-1.8C2.6,2.1,2.2,1.7,1.6,1.4c-0.5-0.3-1.2-0.4-2-0.4h-0.2V-2l-0.5-0.5H-2.1z M0,2.9c0.4,0,0.8,0.1,1,0.4
								c0.2,0.3,0.3,0.7,0.3,1.2c0,1-0.4,1.4-1.3,1.4h-0.6V2.9H0z"/>
							<path d="M-0.1,7.2c1,0,1.7-0.2,2.2-0.7s0.7-1.2,0.7-2.1c0-0.6-0.1-1.1-0.4-1.6c-0.2-0.4-0.6-0.8-1.1-1
								C0.9,1.7,0.3,1.6-0.4,1.6h-0.7V-2h-1v9.2H-0.1 M-1.1,2.4H0c0.6,0,1,0.2,1.3,0.5c0.3,0.3,0.5,0.9,0.5,1.5
								c0,1.3-0.6,1.9-1.8,1.9h-1.1V2.4 M-0.1,8.2h-2.1l-1-1V-2l1-1h1l1,1v2.6c0.7,0,1.4,0.2,1.9,0.4C2.5,1.3,3,1.8,3.3,2.4
								C3.7,3,3.8,3.6,3.8,4.4c0,1.2-0.4,2.1-1,2.8C2.1,7.9,1.2,8.2-0.1,8.2L-0.1,8.2z M-0.1,5.4L-0.1,5.4c0.6,0,0.9-0.1,0.9-0.9
								c0-0.4-0.1-0.7-0.2-0.9c0,0-0.2-0.2-0.6-0.2h-0.1V5.4L-0.1,5.4z"/>
						</g>
						<g>
							<path fill="#FFFFFF" d="M6.9-2.8c-0.5,0-1,0.1-1.5,0.4C4.9-2.2,4.6-1.8,4.3-1.4C4.2-1.1,4.1-0.9,4-0.6C3.9-0.3,3.9,0,3.9,0.3
								c0,0.3,0,0.6,0,1.1v5.9l0.5,0.5h1l0.5-0.5V1.3c0-1.1,0.2-1.6,0.3-1.8c0.1-0.2,0.3-0.4,0.8-0.4c0.3,0,0.4,0.1,0.6,0.2
								c0.1,0.1,0.3,0.3,0.3,0.6C7.9,0.3,8,0.8,8,1.3v5.9l0.5,0.5h1L10,7.2V0.8c0-0.4,0-0.7-0.1-1c0-0.3-0.1-0.6-0.3-0.9
								C9.4-1.6,9-2,8.5-2.3C8-2.6,7.5-2.8,6.9-2.8z"/>
							<path d="M9.5,7.2V1.3V0.8c0-0.3,0-0.6-0.1-0.9c0-0.3-0.1-0.5-0.2-0.8C9-1.3,8.6-1.7,8.3-1.9C7.9-2.2,7.4-2.3,6.9-2.3
								C6.4-2.3,6-2.2,5.6-2S5-1.5,4.7-1.1C4.6-0.9,4.5-0.7,4.5-0.5C4.4-0.2,4.4,0,4.4,0.3c0,0.3,0,0.6,0,1v5.9h1V1.3
								c0-0.9,0.1-1.6,0.3-2.1s0.6-0.7,1.2-0.7c0.4,0,0.7,0.1,0.9,0.3c0.2,0.2,0.4,0.5,0.5,0.9s0.1,0.9,0.1,1.5v5.9H9.5 M9.5,8.2h-1
								l-1-1V1.3c0-0.5,0-1-0.1-1.3c0-0.2-0.1-0.3-0.2-0.4c0,0-0.1-0.1-0.2-0.1c-0.3,0-0.3,0.1-0.3,0.1C6.5-0.1,6.4,0.3,6.4,1.3v5.9
								l-1,1h-1l-1-1V1.3c0-0.4,0-0.8,0-1.1c0-0.3,0.1-0.7,0.1-0.9C3.6-1,3.7-1.3,3.9-1.6c0.3-0.6,0.8-1,1.3-1.3
								c0.5-0.3,1.1-0.4,1.7-0.4c0.7,0,1.3,0.2,1.9,0.5c0.6,0.4,1,0.8,1.3,1.5c0.2,0.3,0.3,0.7,0.3,1c0,0.3,0.1,0.7,0.1,1.1v0.5v5.9
								L9.5,8.2L9.5,8.2z"/>
						</g>
					</g>
				</g>
				<path fill="none" d="M0-14.4c-5.5,0-6.7,1.5-6.7,1.5c-3,3-10.2,17.2-11,21.8c-0.5,3.1-0.4,5.6-0.4,5.6h36.2c0,0,0.2-2.5-0.4-5.6
					c-0.8-4.6-8-18.8-11-21.8C6.7-12.9,5.5-14.4,0-14.4z"/>
				<linearGradient id="SVGID_2_" gradientUnits="userSpaceOnUse" x1="-7.0195" y1="-12.4111" x2="7.0195" y2="-12.4111">
					<stop  offset="0" style="stop-color:#999999"/>
					<stop  offset="0.4322" style="stop-color:#5B5B5B"/>
					<stop  offset="0.8118" style="stop-color:#2B2B2B"/>
					<stop  offset="1" style="stop-color:#191919"/>
				</linearGradient>
				<path fill="url(#SVGID_2_)" d="M-7-12.4c0-1.1,3.1-2,7-2s7,0.9,7,2c0,1.1-3.1,2-7,2S-7-11.3-7-12.4z"/>
			</g>
		</g>
	</symbol>
	<symbol  id="BUSPowered" viewBox="-59.7 -10.5 119.3 21">
		<path stroke="#00FE00" stroke-width="2.2" stroke-linecap="round" stroke-linejoin="round" stroke-miterlimit="3" d="M58.6,0
			c0-5.2-4.6-9.4-10.4-9.4h-96.4c-5.7,0-10.4,4.2-10.4,9.4l0,0c0,5.2,4.6,9.4,10.4,9.4h96.4C53.9,9.4,58.6,5.2,58.6,0L58.6,0z"/>
	</symbol>
	<symbol  id="BattOperat" viewBox="-46.9 -40.8 93.8 81.5">
		<path stroke="#00FE00" stroke-width="2" d="M45.9-38.8c0-0.6-0.4-1-1-1h-89.8c-0.6,0-1,0.4-1,1v77.5c0,0.6,0.4,1,1,1h89.8
			c0.6,0,1-0.4,1-1V-38.8z"/>
	</symbol>
	<symbol  id="GENSTATNoPower" viewBox="-22.7 -22.7 45.4 45.4">
		<path stroke="#FFFFFF" stroke-width="2" stroke-linecap="round" stroke-linejoin="round" stroke-miterlimit="3" d="M21.7,0
			C21.7-12,12-21.7,0-21.7S-21.7-12-21.7,0S-12,21.7,0,21.7S21.7,12,21.7,0z"/>
	</symbol>
	<symbol  id="GENSTATOperat" viewBox="-22.7 -22.7 45.4 45.4">
		<path stroke="#00FF00" stroke-width="2" stroke-linecap="round" stroke-linejoin="round" stroke-miterlimit="3" d="M21.7,0
			C21.7-12,12-21.7,0-21.7S-21.7-12-21.7,0S-12,21.7,0,21.7S21.7,12,21.7,0z"/>
	</symbol>
	<symbol  id="GenNotOperat" viewBox="-36.1 -22.4 72.3 44.9">
		<g id="RAT_Gen_Norm_2_">
		</g>
		<g id="Isolation_Mode_2_">
			<path stroke="#FFFFFF" stroke-width="2" stroke-miterlimit="3" d="M35.1-20.4c0-0.6-0.4-1-1-1h-68.3c-0.6,0-1,0.4-1,1v40.9
				c0,0.6,0.4,1,1,1h68.3c0.6,0,1-0.4,1-1V-20.4z"/>
		</g>
	</symbol>
	<symbol  id="PowerPlantRun" viewBox="-18 -33.6 36 67.2">
		<g id="GV_ref_x5F_AC_Elec_1_">
			<g>
				
					<linearGradient id="SVGID_3_" gradientUnits="userSpaceOnUse" x1="16798.5039" y1="-1.000000e-004" x2="16833.4961" y2="-1.000000e-004" gradientTransform="matrix(-1 0 0 1 16816 0)">
					<stop  offset="0" style="stop-color:#191919"/>
					<stop  offset="1" style="stop-color:#999999"/>
				</linearGradient>
				<path fill="url(#SVGID_3_)" d="M10.5,33.1c0,0,7.6-0.1,7-5.9c-0.6-5.8-6.1-57.1-6.1-57.1c0-1.8-5.1-3.3-11.4-3.3
					c-6.3,0-11.4,1.5-11.4,3.3c0,0-5.5,51.3-6.1,57.1c-0.6,5.8,7,5.9,7,5.9H10.5z"/>
				<path fill="none" stroke="#00FE00" stroke-width="1" d="M11.4-29.8c0-1.8-5.1-3.3-11.4-3.3c-6.3,0-11.4,1.5-11.4,3.3
					c0,1.8,5.1,3.3,11.4,3.3C6.3-26.5,11.4-28,11.4-29.8z"/>
				<path fill="none" stroke="#00FE00" stroke-width="1" d="M10.5,33.1c0,0,7.6-0.1,7-5.9c-0.6-5.8-6.1-57.1-6.1-57.1
					c0-1.8-5.1-3.3-11.4-3.3c-6.3,0-11.4,1.5-11.4,3.3c0,0-5.5,51.3-6.1,57.1c-0.6,5.8,7,5.9,7,5.9H10.5z"/>
			</g>
		</g>
	</symbol>
	<symbol  id="TRUOperat" viewBox="-39.9 -30.5 79.8 61">
		<path stroke="#00FE00" stroke-width="2.0001" d="M38.9-28.5c0-0.6-0.4-1-1-1h-75.8c-0.6,0-1,0.4-1,1v57c0,0.6,0.4,1,1,1h75.8
			c0.6,0,1-0.4,1-1V-28.5z"/>
	</symbol>
</defs>
<rect x="0" y="0" width="367.3" height="551"/>
<g id="DC_x2F_AC__div_line_1_">
	<g>
		<path fill="#C7C7C7" d="M9.3,283.8h1.8c0.5,0,0.9,0.1,1.2,0.2c0.3,0.2,0.6,0.4,0.8,0.7c0.2,0.3,0.4,0.7,0.5,1.2
			c0.1,0.5,0.2,1.1,0.2,1.8c0,0.7-0.1,1.3-0.2,1.8c-0.1,0.5-0.3,0.9-0.5,1.2s-0.5,0.5-0.8,0.7c-0.3,0.2-0.8,0.2-1.2,0.2H9.3V283.8z
			 M10.2,284.5v6.3H11c0.4,0,0.7-0.1,0.9-0.2c0.2-0.1,0.4-0.3,0.6-0.5s0.2-0.6,0.3-1s0.1-0.9,0.1-1.5c0-0.8-0.1-1.4-0.2-1.8
			c-0.1-0.5-0.3-0.8-0.6-1s-0.6-0.3-1.1-0.3H10.2z"/>
		<path fill="#C7C7C7" d="M18.7,285.6c-0.1-0.8-0.5-1.2-1.2-1.2c-1,0-1.6,1.1-1.6,3.3c0,0.8,0.1,1.4,0.2,1.9
			c0.1,0.5,0.3,0.9,0.5,1.1s0.6,0.4,0.9,0.4c0.3,0,0.6-0.1,0.8-0.3s0.3-0.5,0.5-0.9l0.7,0.2c-0.1,0.6-0.3,1-0.7,1.3
			c-0.3,0.3-0.8,0.4-1.3,0.4c-0.8,0-1.5-0.3-1.9-1c-0.4-0.7-0.6-1.7-0.6-3.1c0-0.9,0.1-1.6,0.3-2.3s0.5-1.1,0.8-1.4
			c0.4-0.3,0.8-0.5,1.3-0.5c0.3,0,0.6,0,0.8,0.1c0.3,0.1,0.5,0.2,0.6,0.4s0.3,0.4,0.4,0.6c0.1,0.2,0.2,0.5,0.2,0.8L18.7,285.6z"/>
	</g>
	<g>
		<rect x="3.7" y="300.4" fill="#FFFFFF" width="7.6" height="0.8"/>
		<path fill="#FFFFFF" d="M347.4,301.3H332v-0.8h15.4V301.3z M323.4,301.3H308v-0.8h15.4V301.3z M299.4,301.3H284v-0.8h15.4V301.3z
			 M275.4,301.3H260v-0.8h15.4V301.3z M251.4,301.3H236v-0.8h15.4V301.3z M227.4,301.3H212v-0.8h15.4V301.3z M203.4,301.3H188v-0.8
			h15.4V301.3z M179.4,301.3h-15.4v-0.8h15.4V301.3z M155.4,301.3h-15.4v-0.8h15.4V301.3z M131.4,301.3h-15.4v-0.8h15.4V301.3z
			 M107.4,301.3H91.9v-0.8h15.4V301.3z M83.4,301.3H67.9v-0.8h15.4V301.3z M59.3,301.3H43.9v-0.8h15.4V301.3z M35.3,301.3H19.9v-0.8
			h15.4V301.3z"/>
		<rect x="356" y="300.4" fill="#FFFFFF" width="7.6" height="0.8"/>
	</g>
	<g>
		<path fill="#C7C7C7" d="M9.7,319.8H8.8l2-7.9h1.3l2,7.9h-0.9l-0.6-2.3h-2.4L9.7,319.8z M10.4,316.7h2c-0.3-1.4-0.7-2.9-1-4.4
			c-0.1,0.3-0.2,0.8-0.3,1.5S10.7,315.4,10.4,316.7z"/>
		<path fill="#C7C7C7" d="M18.7,313.8c-0.1-0.8-0.5-1.2-1.2-1.2c-1,0-1.6,1.1-1.6,3.3c0,0.8,0.1,1.4,0.2,1.9
			c0.1,0.5,0.3,0.9,0.5,1.1s0.6,0.4,0.9,0.4c0.3,0,0.6-0.1,0.8-0.3s0.3-0.5,0.5-0.9l0.7,0.2c-0.1,0.6-0.3,1-0.7,1.3
			c-0.3,0.3-0.8,0.4-1.3,0.4c-0.8,0-1.5-0.3-1.9-1c-0.4-0.7-0.6-1.7-0.6-3.1c0-0.9,0.1-1.6,0.3-2.3s0.5-1.1,0.8-1.4
			c0.4-0.3,0.8-0.5,1.3-0.5c0.3,0,0.6,0,0.8,0.1c0.3,0.1,0.5,0.2,0.6,0.4s0.3,0.4,0.4,0.6c0.1,0.2,0.2,0.5,0.2,0.8L18.7,313.8z"/>
	</g>
</g>
<g id="Flow_Lines_1_">
	<g id="Not_Powered_1_">
		<rect x="140.2" y="407.9" stroke="#FFFFFF" stroke-width="0.8455" stroke-miterlimit="3" width="4.2" height="15.5"/>
		<rect x="140.2" y="460.2" stroke="#FFFFFF" stroke-width="0.8455" stroke-miterlimit="3" width="4.2" height="24.8"/>
		<rect x="140.2" y="507.6" stroke="#FFFFFF" stroke-width="0.8455" stroke-miterlimit="3" width="4.2" height="18.3"/>
	</g>
	<g id="Powered_1_">
		
			<rect x="57.9" y="119.5" fill="#00FE00" stroke="#00FE00" stroke-width="0.8455" stroke-miterlimit="3" width="4.2" height="54.1"/>
		
			<rect x="307.1" y="407.9" fill="#00FE00" stroke="#00FE00" stroke-width="0.8455" stroke-miterlimit="3" width="4.2" height="16"/>
		
			<rect x="307.1" y="443.6" fill="#00FE00" stroke="#00FE00" stroke-width="0.8455" stroke-miterlimit="3" width="4.2" height="52.5"/>
		<polygon fill="#00FE00" stroke="#00FE00" stroke-width="0.8455" stroke-miterlimit="3" points="175.9,201.9 171.7,201.9 
			171.7,180.3 100.6,180.3 100.6,176.1 175.9,176.1 		"/>
		<path fill="#00FE00" stroke="#00FE00" stroke-width="0.8455" stroke-miterlimit="3" d="M60,488.6"/>
		<path fill="#00FE00" stroke="#00FE00" stroke-width="0.8455" stroke-miterlimit="3" d="M60,210.3"/>
		<path fill="#00FE00" stroke="#00FE00" stroke-width="0.8455" stroke-miterlimit="3" d="M309.3,210.3"/>
		
			<rect x="57.9" y="447.5" fill="#00FE00" stroke="#00FE00" stroke-width="0.8455" stroke-miterlimit="3" width="4.2" height="41.1"/>
		
			<rect x="57.9" y="407.9" fill="#00FE00" stroke="#00FE00" stroke-width="0.8455" stroke-miterlimit="3" width="4.2" height="16.9"/>
		
			<rect x="57.9" y="347.2" fill="#00FE00" stroke="#00FE00" stroke-width="0.8455" stroke-miterlimit="3" width="4.2" height="60.6"/>
		
			<rect x="57.9" y="315.4" fill="#00FE00" stroke="#00FE00" stroke-width="0.8455" stroke-miterlimit="3" width="4.2" height="22.9"/>
		
			<rect x="57.9" y="247.7" fill="#00FE00" stroke="#00FE00" stroke-width="0.8455" stroke-miterlimit="3" width="4.2" height="28.2"/>
		<polygon display="none" fill="#00FE00" stroke="#00FE00" stroke-width="0.8455" stroke-miterlimit="3" points="62.1,238.3 
			57.9,238.3 57.9,208.2 144.3,208.2 144.3,212.4 62.1,212.4 		"/>
		
			<rect x="228.7" y="208.2" display="none" fill="#00FE00" stroke="#00FE00" stroke-width="0.8455" stroke-miterlimit="3" width="80.6" height="4.2"/>
		<path fill="#00FE00" stroke="#00FE00" stroke-width="0.8455" stroke-miterlimit="3" d="M309.3,407.9"/>
		<path fill="#00FE00" stroke="#00FE00" stroke-width="0.8455" stroke-miterlimit="3" d="M309.3,119.3"/>
		
			<rect x="307.1" y="317.8" fill="#00FE00" stroke="#00FE00" stroke-width="0.8455" stroke-miterlimit="3" width="4.2" height="20.8"/>
		
			<rect x="307.1" y="250" fill="#00FE00" stroke="#00FE00" stroke-width="0.8455" stroke-miterlimit="3" width="4.2" height="26.2"/>
		
			<rect x="307.1" y="216.7" fill="#00FE00" stroke="#00FE00" stroke-width="0.8455" stroke-miterlimit="3" width="4.2" height="19.5"/>
		
			<rect x="307.1" y="119.3" fill="#00FE00" stroke="#00FE00" stroke-width="0.8455" stroke-miterlimit="3" width="4.2" height="53"/>
		
			<rect x="184.1" y="216.7" fill="#00FE00" stroke="#00FE00" stroke-width="0.8455" stroke-miterlimit="3" width="4.2" height="62.1"/>
		
			<rect x="184.1" y="314" fill="#00FE00" stroke="#00FE00" stroke-width="0.8455" stroke-miterlimit="3" width="4.2" height="24.5"/>
		
			<rect x="184.1" y="347.2" fill="#00FE00" stroke="#00FE00" stroke-width="0.8455" stroke-miterlimit="3" width="4.2" height="60.6"/>
		<polygon fill="#00FE00" stroke="#00FE00" stroke-width="0.8455" stroke-miterlimit="3" points="199.2,203.1 194.9,203.1 
			194.9,176.2 270.5,176.2 270.5,180.4 199.2,180.4 		"/>
		
			<rect x="307.1" y="345.8" fill="#00FE00" stroke="#00FE00" stroke-width="0.8455" stroke-miterlimit="3" width="4.2" height="62.1"/>
		
			<rect x="57.9" y="405.7" fill="#00FE00" stroke="#00FE00" stroke-width="0.8455" stroke-miterlimit="3" width="130.4" height="4.2"/>
		
			<rect x="140.2" y="407.9" display="none" fill="#00FE00" stroke="#00FE00" stroke-width="0.8455" stroke-miterlimit="3" width="4.2" height="15.5"/>
		
			<rect x="140.2" y="460.2" display="none" fill="#00FE00" stroke="#00FE00" stroke-width="0.8455" stroke-miterlimit="3" width="4.2" height="24.8"/>
		
			<rect x="140.2" y="507.6" display="none" fill="#00FE00" stroke="#00FE00" stroke-width="0.8455" stroke-miterlimit="3" width="4.2" height="18.3"/>
	</g>
</g>
<g id="APU_1_">
	<g id="EXT_PWR_2_">
		
			<use xlink:href="#GENSTATNoPower"  width="45.4" height="45.4" id="XMLID_11_" x="-22.7" y="-22.7" transform="matrix(0.7477 0 0 -0.7477 141.9269 496.4941)" overflow="visible"/>
		<g>
			<path fill="#C7C7C7" d="M137.7,499.9c-0.5,0.6-1,0.9-1.6,0.9c-0.5,0-1-0.2-1.3-0.5s-0.6-0.8-0.8-1.4s-0.3-1.4-0.3-2.3
				s0.1-1.6,0.3-2.3s0.5-1.1,0.8-1.4s0.8-0.5,1.3-0.5c0.4,0,0.7,0.1,1,0.2c0.3,0.2,0.5,0.4,0.7,0.7s0.3,0.6,0.3,1l-0.8,0.1
				c-0.1-0.8-0.5-1.2-1.2-1.2c-1,0-1.5,1.1-1.5,3.3c0,0.8,0.1,1.4,0.2,1.9c0.1,0.5,0.3,0.9,0.5,1.1c0.2,0.2,0.5,0.4,0.9,0.4
				c0.9,0,1.3-0.7,1.3-2.2c0-0.1,0-0.1,0-0.2c0,0,0-0.1,0-0.2h-1.6v-0.8h2.5v4h-0.6V499.9z"/>
			<path fill="#C7C7C7" d="M140.2,500.6v-7.8h4v0.8h-3.1v2.6h2.3v0.7h-2.3v2.9h3.2v0.8H140.2z"/>
			<path fill="#C7C7C7" d="M146.4,494c0,2.1,0,4.3,0.1,6.6h-0.9v-7.8h1.2l2,4.9c0.1,0.3,0.3,0.7,0.4,1.4c0-1.1-0.1-2.1-0.1-3.1
				c0-1,0-2-0.1-3.1h0.9v7.9h-0.7L146.4,494z"/>
		</g>
	</g>
	<g id="EXT_PWR_1_">
		<path stroke="#FFFFFF" stroke-width="1.6909" stroke-miterlimit="3" d="M177.5,471.3c0,0.5-0.4,0.8-0.8,0.8h-66.9
			c-0.5,0-0.8-0.4-0.8-0.8v-52.7c0-0.5,0.4-0.8,0.8-0.8h66.9c0.5,0,0.8,0.4,0.8,0.8V471.3z"/>
		<g>
			<path fill="#00FE00" d="M148,430.1c0,1.2-0.1,2.2-0.4,3s-0.6,1.4-1,1.8c-0.5,0.4-1,0.6-1.6,0.6c-0.6,0-1.2-0.2-1.6-0.6
				c-0.5-0.4-0.8-1-1-1.8c-0.2-0.8-0.4-1.8-0.4-3c0-1.2,0.1-2.2,0.4-3s0.6-1.4,1-1.8c0.5-0.4,1-0.6,1.6-0.6c0.6,0,1.2,0.2,1.6,0.6
				c0.5,0.4,0.8,1,1,1.8S148,428.9,148,430.1z M145,434.5c0.3,0,0.6-0.1,0.8-0.3c0.2-0.2,0.4-0.5,0.6-0.8c0.2-0.4,0.3-0.8,0.3-1.4
				c0.1-0.5,0.1-1.2,0.1-1.9c0-2.9-0.6-4.4-1.8-4.4c-0.6,0-1.1,0.4-1.4,1.1s-0.4,1.8-0.4,3.3C143.2,433,143.8,434.5,145,434.5z"/>
		</g>
		<g>
			<path fill="#C7C7C7" d="M154.4,427l1.2,5.5c0.1,0.4,0.1,0.8,0.2,1.2c0-0.1,0-0.3,0.1-0.4c0-0.2,0-0.3,0.1-0.4s0.1-0.3,0.1-0.4
				l1.2-5.5h0.9l-1.8,7.9h-1l-1.7-7.9H154.4z"/>
		</g>
		<g>
			<path fill="#00FE00" d="M148,458.9c0,1.2-0.1,2.2-0.4,3s-0.6,1.4-1,1.8c-0.5,0.4-1,0.6-1.6,0.6c-0.6,0-1.2-0.2-1.6-0.6
				c-0.5-0.4-0.8-1-1-1.8c-0.2-0.8-0.4-1.8-0.4-3c0-1.2,0.1-2.2,0.4-3s0.6-1.4,1-1.8c0.5-0.4,1-0.6,1.6-0.6c0.6,0,1.2,0.2,1.6,0.6
				c0.5,0.4,0.8,1,1,1.8S148,457.7,148,458.9z M145,463.2c0.3,0,0.6-0.1,0.8-0.3c0.2-0.2,0.4-0.5,0.6-0.8c0.2-0.4,0.3-0.8,0.3-1.4
				c0.1-0.5,0.1-1.2,0.1-1.9c0-2.9-0.6-4.4-1.8-4.4c-0.6,0-1.1,0.4-1.4,1.1s-0.4,1.8-0.4,3.3C143.2,461.8,143.8,463.2,145,463.2z"/>
		</g>
		<g>
			<path fill="#C7C7C7" d="M153.7,463.7v-7.8h0.9v3.4h2.4v-3.4h0.9v7.8H157V460h-2.4v3.7H153.7z"/>
			<path fill="#C7C7C7" d="M159.3,463.7v-0.5l3.3-6.5h-3.2v-0.8h4.3v0.4l-3.4,6.6h3.4v0.8H159.3z"/>
		</g>
		<g>
			<path fill="#00FE00" d="M148,444.4c0,1.2-0.1,2.2-0.4,3s-0.6,1.4-1,1.8c-0.5,0.4-1,0.6-1.6,0.6c-0.6,0-1.2-0.2-1.6-0.6
				c-0.5-0.4-0.8-1-1-1.8c-0.2-0.8-0.4-1.8-0.4-3c0-1.2,0.1-2.2,0.4-3s0.6-1.4,1-1.8c0.5-0.4,1-0.6,1.6-0.6c0.6,0,1.2,0.2,1.6,0.6
				c0.5,0.4,0.8,1,1,1.8S148,443.2,148,444.4z M145,448.7c0.3,0,0.6-0.1,0.8-0.3c0.2-0.2,0.4-0.5,0.6-0.8c0.2-0.4,0.3-0.8,0.3-1.4
				c0.1-0.5,0.1-1.2,0.1-1.9c0-2.9-0.6-4.4-1.8-4.4c-0.6,0-1.1,0.4-1.4,1.1s-0.4,1.8-0.4,3.3C143.2,447.3,143.8,448.7,145,448.7z"/>
		</g>
		<g>
			<path fill="#C7C7C7" d="M154.8,449H154v-7.8h0.9v3.5l2.8-3.6l0.7,0.4l-2.6,3.4l2.9,4.1h-1.1l-2.7-3.9V449z"/>
			<path fill="#C7C7C7" d="M160.3,441.2l1.2,5.5c0.1,0.4,0.1,0.8,0.2,1.2c0-0.1,0-0.3,0.1-0.4c0-0.2,0-0.3,0.1-0.4s0.1-0.3,0.1-0.4
				l1.2-5.5h0.9l-1.8,7.9h-1l-1.7-7.9H160.3z"/>
			<path fill="#C7C7C7" d="M165.7,449h-0.9l2-7.9h1.3l2,7.9h-0.9l-0.6-2.3h-2.4L165.7,449z M166.4,445.9h2c-0.3-1.4-0.7-2.9-1-4.4
				c-0.1,0.3-0.2,0.8-0.3,1.5S166.7,444.7,166.4,445.9z"/>
		</g>
	</g>
	<g id="APU_2_">
		
			<use xlink:href="#APUNoFuel"  width="36.2" height="28.9" id="XMLID_10_" x="-18.1" y="-14.4" transform="matrix(0.8455 0 0 -0.8455 142.2646 528.7042)" overflow="visible"/>
	</g>
</g>
<g id="LEFT_1_">
	<g id="L_Gen_2_">
		
			<use xlink:href="#GenNotOperat"  width="72.3" height="44.9" id="XMLID_9_" x="-36.1" y="-22.4" transform="matrix(0.8455 0 0 -0.8455 60.0269 435.8851)" overflow="visible"/>
		<g>
			<path fill="#00FE00" d="M40.6,432.3h1.7v-8l-1.7,0.4v-1l2.1-0.8h0.8v9.3H45v1h-4.4V432.3z"/>
			<path fill="#00FE00" d="M48.2,432.3h1.7v-8l-1.7,0.4v-1l2.1-0.8H51v9.3h1.6v1h-4.4V432.3z"/>
			<path fill="#00FE00" d="M56.4,427.3c0.5-0.4,1.1-0.5,1.6-0.5c0.8,0,1.4,0.3,1.9,0.9s0.7,1.4,0.7,2.4c0,0.5-0.1,1-0.2,1.5
				c-0.1,0.4-0.3,0.8-0.6,1.1c-0.3,0.3-0.6,0.5-0.9,0.7s-0.8,0.2-1.2,0.2c-1.3,0-2.3-0.6-2.8-1.8l1-0.5c0.2,0.5,0.5,0.8,0.7,1
				c0.3,0.2,0.6,0.3,1,0.3c0.6,0,1-0.2,1.3-0.6c0.3-0.4,0.5-1,0.5-1.8c0-0.8-0.1-1.4-0.4-1.8c-0.3-0.4-0.7-0.6-1.2-0.6
				c-0.3,0-0.6,0.1-0.9,0.3s-0.5,0.5-0.8,0.8l-0.9-0.3l0.5-5.6h4.5l-0.1,1h-3.4L56.4,427.3z"/>
		</g>
		<g>
			<path fill="#C7C7C7" d="M67.8,425.2l1.2,5.5c0.1,0.4,0.1,0.8,0.2,1.2c0-0.1,0-0.3,0.1-0.4c0-0.2,0-0.3,0.1-0.4s0.1-0.3,0.1-0.4
				l1.2-5.5h0.9l-1.8,7.9h-1l-1.7-7.9H67.8z"/>
		</g>
		<g>
			<path fill="#00FE00" d="M48.2,446.5h1.7v-8l-1.7,0.4v-1l2.1-0.8H51v9.3h1.6v1h-4.4V446.5z"/>
			<path fill="#00FE00" d="M54.9,440c0-1,0.3-1.7,0.8-2.2c0.5-0.5,1.2-0.8,2.1-0.8c0.6,0,1.1,0.1,1.5,0.3c0.4,0.2,0.7,0.5,1,0.9
				c0.2,0.4,0.3,0.8,0.3,1.3s-0.1,0.9-0.3,1.3c-0.2,0.4-0.5,0.8-0.8,1.1c-0.3,0.3-0.9,0.9-1.7,1.7c-0.4,0.4-0.7,0.7-1,1
				c-0.2,0.2-0.4,0.5-0.5,0.8c-0.1,0.3-0.2,0.7-0.2,1.1h4.5v1h-5.6c0-0.2,0-0.5,0-0.7c0-0.6,0.1-1,0.2-1.5c0.2-0.4,0.4-0.8,0.7-1.2
				c0.3-0.4,0.7-0.8,1.1-1.3c0.5-0.5,1-1,1.3-1.3s0.6-0.7,0.8-1s0.3-0.6,0.3-1c0-0.3-0.1-0.5-0.2-0.8c-0.1-0.2-0.3-0.4-0.5-0.5
				c-0.2-0.1-0.5-0.2-0.8-0.2c-0.5,0-0.9,0.2-1.2,0.5c-0.3,0.3-0.5,0.8-0.5,1.5H54.9z"/>
		</g>
		<g>
			<path fill="#C7C7C7" d="M68.2,447.8h-0.9V440h0.9v3.5l2.8-3.6l0.7,0.4l-2.6,3.4l2.9,4.1h-1.1l-2.7-3.9V447.8z"/>
			<path fill="#C7C7C7" d="M73.6,440l1.2,5.5c0.1,0.4,0.1,0.8,0.2,1.2c0-0.1,0-0.3,0.1-0.4c0-0.2,0-0.3,0.1-0.4s0.1-0.3,0.1-0.4
				l1.2-5.5h0.9l-1.8,7.9h-1l-1.7-7.9H73.6z"/>
			<path fill="#C7C7C7" d="M79.1,447.8h-0.9l2-7.9h1.3l2,7.9h-0.9l-0.6-2.3h-2.4L79.1,447.8z M79.8,444.7h2c-0.3-1.4-0.7-2.9-1-4.4
				c-0.1,0.3-0.2,0.8-0.3,1.5S80.1,443.5,79.8,444.7z"/>
		</g>
	</g>
	<g id="AC_BUS_1_1_">
		
			<use xlink:href="#BUSPowered"  width="119.3" height="21" x="-59.7" y="-10.5" transform="matrix(0.8455 0 0 -0.8455 60.0269 344.0187)" overflow="visible"/>
		<g>
			<path fill="#C7C7C7" d="M37.8,347.2H37l2-7.9h1.3l2,7.9h-0.9l-0.6-2.3h-2.4L37.8,347.2z M38.6,344.1h2c-0.3-1.4-0.7-2.9-1-4.4
				c-0.1,0.3-0.2,0.8-0.3,1.5S38.9,342.9,38.6,344.1z"/>
			<path fill="#C7C7C7" d="M46.9,341.2c-0.1-0.8-0.5-1.2-1.2-1.2c-1,0-1.6,1.1-1.6,3.3c0,0.8,0.1,1.4,0.2,1.9
				c0.1,0.5,0.3,0.9,0.5,1.1s0.6,0.4,0.9,0.4c0.3,0,0.6-0.1,0.8-0.3s0.3-0.5,0.5-0.9l0.7,0.2c-0.1,0.6-0.3,1-0.7,1.3
				c-0.3,0.3-0.8,0.4-1.3,0.4c-0.8,0-1.5-0.3-1.9-1c-0.4-0.7-0.6-1.7-0.6-3.1c0-0.9,0.1-1.6,0.3-2.3s0.5-1.1,0.8-1.4
				c0.4-0.3,0.8-0.5,1.3-0.5c0.3,0,0.6,0,0.8,0.1c0.3,0.1,0.5,0.2,0.6,0.4s0.3,0.4,0.4,0.6c0.1,0.2,0.2,0.5,0.2,0.8L46.9,341.2z"/>
			<path fill="#C7C7C7" d="M55.1,347.2v-7.8h1.7c0.8,0,1.4,0.2,1.8,0.5c0.4,0.3,0.6,0.8,0.6,1.4c0,0.4-0.1,0.8-0.3,1.1
				s-0.5,0.5-0.9,0.7c1,0.3,1.5,1,1.5,2c0,0.8-0.2,1.3-0.7,1.7c-0.5,0.4-1.2,0.5-2.2,0.5H55.1z M56,342.8h0.7c0.5,0,0.9-0.1,1.2-0.3
				c0.3-0.2,0.4-0.6,0.4-1.1c0-0.5-0.1-0.8-0.4-1s-0.6-0.3-1.2-0.3H56V342.8z M56,346.5H57c0.5,0,0.9-0.1,1.1-0.4
				c0.3-0.2,0.4-0.6,0.4-1c0-0.4-0.1-0.7-0.2-0.9c-0.1-0.2-0.3-0.4-0.6-0.5c-0.3-0.1-0.6-0.2-1.1-0.2H56V346.5z"/>
			<path fill="#C7C7C7" d="M60.8,339.4h0.9v5c0,0.8,0.1,1.4,0.3,1.7c0.2,0.4,0.5,0.6,1,0.6c0.3,0,0.6-0.1,0.8-0.3s0.3-0.4,0.4-0.8
				c0.1-0.3,0.1-0.8,0.1-1.3v-5h0.8v5v0.5c0,0.3,0,0.5,0,0.8c0,0.2-0.1,0.4-0.2,0.6c-0.2,0.4-0.4,0.7-0.8,0.9
				c-0.3,0.2-0.7,0.3-1.1,0.3c-0.4,0-0.7-0.1-1.1-0.3s-0.6-0.4-0.8-0.7c-0.1-0.2-0.2-0.3-0.2-0.5c0-0.2-0.1-0.4-0.1-0.7s0-0.5,0-0.9
				V339.4z"/>
			<path fill="#C7C7C7" d="M66.5,346.3l0.7-0.7c0.2,0.3,0.4,0.6,0.7,0.8c0.3,0.2,0.6,0.3,0.9,0.3c0.4,0,0.7-0.1,0.9-0.3
				c0.2-0.2,0.4-0.5,0.4-0.9c0-0.3-0.1-0.7-0.3-0.9s-0.5-0.6-1-0.9c-0.5-0.3-0.9-0.6-1.2-0.8c-0.3-0.2-0.5-0.4-0.6-0.7
				c-0.2-0.3-0.2-0.6-0.2-0.9c0-0.6,0.2-1,0.6-1.4c0.4-0.4,0.9-0.6,1.5-0.6c0.8,0,1.5,0.4,2.1,1.2l-0.7,0.5c-0.5-0.6-1-0.9-1.5-0.9
				c-0.2,0-0.4,0-0.6,0.1c-0.2,0.1-0.3,0.2-0.4,0.4c-0.1,0.2-0.1,0.3-0.1,0.5c0,0.2,0.1,0.4,0.2,0.6c0.1,0.2,0.3,0.3,0.5,0.5
				s0.5,0.4,0.8,0.6c0.5,0.3,0.8,0.6,1.1,0.8c0.3,0.2,0.5,0.5,0.6,0.8c0.1,0.3,0.2,0.6,0.2,1c0,0.4-0.1,0.8-0.3,1.1
				c-0.2,0.3-0.5,0.6-0.8,0.8c-0.3,0.2-0.7,0.3-1.2,0.3C67.8,347.4,67.1,347.1,66.5,346.3z"/>
			<path fill="#C7C7C7" d="M78.9,346.5h1.3v-6.1l-1.3,0.3v-0.8l1.6-0.6h0.6v7.2h1.2v0.8h-3.4V346.5z"/>
		</g>
	</g>
	<g id="TRU-1_1_">
		
			<use xlink:href="#TRUOperat"  width="79.8" height="61" id="XMLID_8_" x="-39.9" y="-30.5" transform="matrix(0.8455 0 0 -0.8455 60.0269 296.2881)" overflow="visible"/>
		<g>
			<path fill="#00FE00" d="M46.6,292.5c0-1,0.3-1.7,0.8-2.2c0.5-0.5,1.2-0.8,2.1-0.8c0.6,0,1.1,0.1,1.5,0.3c0.4,0.2,0.7,0.5,1,0.9
				c0.2,0.4,0.3,0.8,0.3,1.3s-0.1,0.9-0.3,1.3c-0.2,0.4-0.5,0.8-0.8,1.1c-0.3,0.3-0.9,0.9-1.7,1.7c-0.4,0.4-0.7,0.7-1,1
				c-0.2,0.2-0.4,0.5-0.5,0.8c-0.1,0.3-0.2,0.7-0.2,1.1h4.5v1h-5.6c0-0.2,0-0.5,0-0.7c0-0.6,0.1-1,0.2-1.5c0.2-0.4,0.4-0.8,0.7-1.2
				c0.3-0.4,0.7-0.8,1.1-1.3c0.5-0.5,1-1,1.3-1.3s0.6-0.7,0.8-1s0.3-0.6,0.3-1c0-0.3-0.1-0.5-0.2-0.8c-0.1-0.2-0.3-0.4-0.5-0.5
				c-0.2-0.1-0.5-0.2-0.8-0.2c-0.5,0-0.9,0.2-1.2,0.5c-0.3,0.3-0.5,0.8-0.5,1.5H46.6z"/>
			<path fill="#00FE00" d="M58.6,294.5c0.4,0.2,0.7,0.4,1,0.7c0.3,0.3,0.5,0.6,0.6,1c0.1,0.4,0.2,0.8,0.2,1.2c0,0.6-0.1,1.1-0.4,1.5
				c-0.3,0.4-0.7,0.8-1.2,1c-0.5,0.2-1.1,0.4-1.7,0.4c-0.6,0-1.2-0.1-1.7-0.4c-0.5-0.2-0.9-0.6-1.2-1s-0.4-1-0.4-1.5
				c0-0.7,0.2-1.2,0.5-1.7c0.3-0.5,0.8-0.9,1.4-1.1c-0.5-0.3-0.8-0.7-1.1-1c-0.2-0.4-0.3-0.8-0.3-1.2c0-0.5,0.1-0.9,0.4-1.4
				s0.6-0.7,1-1c0.4-0.2,0.9-0.4,1.5-0.4c0.4,0,0.8,0.1,1.1,0.2c0.4,0.1,0.7,0.3,0.9,0.6c0.3,0.2,0.5,0.5,0.6,0.9
				c0.1,0.3,0.2,0.7,0.2,1.1C60,293.1,59.5,293.9,58.6,294.5z M59.3,297.2c0-0.4-0.1-0.8-0.3-1.1s-0.4-0.6-0.8-0.8
				c-0.3-0.2-0.7-0.3-1.1-0.3c-0.6,0-1.1,0.2-1.5,0.6s-0.6,0.9-0.6,1.5c0,0.6,0.2,1.1,0.6,1.5s0.9,0.6,1.5,0.6
				c0.4,0,0.8-0.1,1.1-0.3c0.3-0.2,0.6-0.4,0.7-0.7S59.3,297.6,59.3,297.2z M57.2,294.2c0.3,0,0.6-0.1,0.8-0.2
				c0.3-0.2,0.5-0.4,0.6-0.7c0.1-0.3,0.2-0.6,0.2-1c0-0.5-0.1-1-0.4-1.3c-0.3-0.3-0.7-0.5-1.2-0.5c-0.5,0-0.9,0.2-1.2,0.5
				c-0.3,0.3-0.4,0.7-0.4,1.3c0,0.6,0.2,1,0.5,1.4C56.3,294,56.7,294.2,57.2,294.2z"/>
		</g>
		<g>
			<path fill="#C7C7C7" d="M68.4,291.1l1.2,5.5c0.1,0.4,0.1,0.8,0.2,1.2c0-0.1,0-0.3,0.1-0.4c0-0.2,0-0.3,0.1-0.4s0.1-0.3,0.1-0.4
				l1.2-5.5H72l-1.8,7.9h-1l-1.7-7.9H68.4z"/>
		</g>
		<g>
			<path fill="#00FE00" d="M51.4,303v6.5h1.3v1h-1.3v2.7h-1.1v-2.7h-3.7v-1.1l2.9-6.4H51.4z M50.3,309.5v-5.7h-0.2l-2.7,5.7H50.3z"
				/>
			<path fill="#00FE00" d="M60.2,308.1c0,1.2-0.1,2.2-0.4,3s-0.6,1.4-1,1.8c-0.5,0.4-1,0.6-1.6,0.6c-0.6,0-1.2-0.2-1.6-0.6
				c-0.5-0.4-0.8-1-1-1.8c-0.2-0.8-0.4-1.8-0.4-3c0-1.2,0.1-2.2,0.4-3s0.6-1.4,1-1.8c0.5-0.4,1-0.6,1.6-0.6c0.6,0,1.2,0.2,1.6,0.6
				c0.5,0.4,0.8,1,1,1.8S60.2,306.9,60.2,308.1z M57.1,312.5c0.3,0,0.6-0.1,0.8-0.3c0.2-0.2,0.4-0.5,0.6-0.8
				c0.2-0.4,0.3-0.8,0.3-1.4c0.1-0.5,0.1-1.2,0.1-1.9c0-2.9-0.6-4.4-1.8-4.4c-0.6,0-1.1,0.4-1.4,1.1s-0.4,1.8-0.4,3.3
				C55.3,311,55.9,312.5,57.1,312.5z"/>
		</g>
		<g>
			<path fill="#C7C7C7" d="M68,312.7h-0.9l2-7.9h1.3l2,7.9h-0.9l-0.6-2.3h-2.4L68,312.7z M68.8,309.6h2c-0.3-1.4-0.7-2.9-1-4.4
				c-0.1,0.3-0.2,0.8-0.3,1.5S69.1,308.4,68.8,309.6z"/>
		</g>
		<g>
			<path fill="#C7C7C7" d="M48.4,285h-0.9v-7h-1.9v-0.8h4.8v0.8h-1.9V285z"/>
			<path fill="#C7C7C7" d="M51.9,285v-7.8h1.7c0.8,0,1.4,0.2,1.8,0.5s0.6,0.9,0.6,1.7c0,0.5-0.1,0.9-0.3,1.3c-0.2,0.4-0.6,0.7-1,0.9
				l1.9,3.4h-1l-1.7-3.2h-1.1v3.2H51.9z M52.8,281.1h0.9c0.5,0,0.8-0.2,1.1-0.5s0.4-0.7,0.4-1.3c0-1-0.5-1.5-1.5-1.5h-0.9V281.1z"/>
			<path fill="#C7C7C7" d="M57.5,277.1h0.9v5c0,0.8,0.1,1.4,0.3,1.7c0.2,0.4,0.5,0.6,1,0.6c0.3,0,0.6-0.1,0.8-0.3s0.3-0.4,0.4-0.8
				c0.1-0.3,0.1-0.8,0.1-1.3v-5h0.8v5v0.5c0,0.3,0,0.5,0,0.8c0,0.2-0.1,0.4-0.2,0.6c-0.2,0.4-0.4,0.7-0.8,0.9s-0.7,0.3-1.1,0.3
				c-0.4,0-0.7-0.1-1.1-0.3s-0.6-0.4-0.8-0.7c-0.1-0.2-0.2-0.3-0.2-0.5c0-0.2-0.1-0.4-0.1-0.7s0-0.5,0-0.9V277.1z"/>
		</g>
		<g>
			<path fill="#C7C7C7" d="M69.8,284.2h1.3V278l-1.3,0.3v-0.8l1.6-0.6H72v7.2h1.2v0.8h-3.4V284.2z"/>
		</g>
	</g>
	<g id="DC_BUS_1_1_">
		
			<use xlink:href="#BUSPowered"  width="119.3" height="21" x="-59.7" y="-10.5" transform="matrix(0.8455 0 0 -0.8455 60.0269 244.1387)" overflow="visible"/>
		<g>
			<path fill="#C7C7C7" d="M37.5,239.9h1.8c0.5,0,0.9,0.1,1.2,0.2c0.3,0.2,0.6,0.4,0.8,0.7c0.2,0.3,0.4,0.7,0.5,1.2
				c0.1,0.5,0.2,1.1,0.2,1.8c0,0.7-0.1,1.3-0.2,1.8c-0.1,0.5-0.3,0.9-0.5,1.2s-0.5,0.5-0.8,0.7c-0.3,0.2-0.8,0.2-1.2,0.2h-1.8V239.9
				z M38.4,240.6v6.3h0.8c0.4,0,0.7-0.1,0.9-0.2c0.2-0.1,0.4-0.3,0.6-0.5s0.2-0.6,0.3-1s0.1-0.9,0.1-1.5c0-0.8-0.1-1.4-0.2-1.8
				c-0.1-0.5-0.3-0.8-0.6-1s-0.6-0.3-1.1-0.3H38.4z"/>
			<path fill="#C7C7C7" d="M46.9,241.7c-0.1-0.8-0.5-1.2-1.2-1.2c-1,0-1.6,1.1-1.6,3.3c0,0.8,0.1,1.4,0.2,1.9
				c0.1,0.5,0.3,0.9,0.5,1.1s0.6,0.4,0.9,0.4c0.3,0,0.6-0.1,0.8-0.3s0.3-0.5,0.5-0.9l0.7,0.2c-0.1,0.6-0.3,1-0.7,1.3
				c-0.3,0.3-0.8,0.4-1.3,0.4c-0.8,0-1.5-0.3-1.9-1c-0.4-0.7-0.6-1.7-0.6-3.1c0-0.9,0.1-1.6,0.3-2.3s0.5-1.1,0.8-1.4
				c0.4-0.3,0.8-0.5,1.3-0.5c0.3,0,0.6,0,0.8,0.1c0.3,0.1,0.5,0.2,0.6,0.4s0.3,0.4,0.4,0.6c0.1,0.2,0.2,0.5,0.2,0.8L46.9,241.7z"/>
			<path fill="#C7C7C7" d="M55.1,247.7v-7.8h1.7c0.8,0,1.4,0.2,1.8,0.5c0.4,0.3,0.6,0.8,0.6,1.4c0,0.4-0.1,0.8-0.3,1.1
				s-0.5,0.5-0.9,0.7c1,0.3,1.5,1,1.5,2c0,0.8-0.2,1.3-0.7,1.7c-0.5,0.4-1.2,0.5-2.2,0.5H55.1z M56,243.3h0.7c0.5,0,0.9-0.1,1.2-0.3
				c0.3-0.2,0.4-0.6,0.4-1.1c0-0.5-0.1-0.8-0.4-1s-0.6-0.3-1.2-0.3H56V243.3z M56,246.9H57c0.5,0,0.9-0.1,1.1-0.4
				c0.3-0.2,0.4-0.6,0.4-1c0-0.4-0.1-0.7-0.2-0.9c-0.1-0.2-0.3-0.4-0.6-0.5c-0.3-0.1-0.6-0.2-1.1-0.2H56V246.9z"/>
			<path fill="#C7C7C7" d="M60.8,239.9h0.9v5c0,0.8,0.1,1.4,0.3,1.7c0.2,0.4,0.5,0.6,1,0.6c0.3,0,0.6-0.1,0.8-0.3s0.3-0.4,0.4-0.8
				c0.1-0.3,0.1-0.8,0.1-1.3v-5h0.8v5v0.5c0,0.3,0,0.5,0,0.8c0,0.2-0.1,0.4-0.2,0.6c-0.2,0.4-0.4,0.7-0.8,0.9
				c-0.3,0.2-0.7,0.3-1.1,0.3c-0.4,0-0.7-0.1-1.1-0.3s-0.6-0.4-0.8-0.7c-0.1-0.2-0.2-0.3-0.2-0.5c0-0.2-0.1-0.4-0.1-0.7s0-0.5,0-0.9
				V239.9z"/>
			<path fill="#C7C7C7" d="M66.5,246.7l0.7-0.7c0.2,0.3,0.4,0.6,0.7,0.8c0.3,0.2,0.6,0.3,0.9,0.3c0.4,0,0.7-0.1,0.9-0.3
				c0.2-0.2,0.4-0.5,0.4-0.9c0-0.3-0.1-0.7-0.3-0.9s-0.5-0.6-1-0.9c-0.5-0.3-0.9-0.6-1.2-0.8c-0.3-0.2-0.5-0.4-0.6-0.7
				c-0.2-0.3-0.2-0.6-0.2-0.9c0-0.6,0.2-1,0.6-1.4c0.4-0.4,0.9-0.6,1.5-0.6c0.8,0,1.5,0.4,2.1,1.2l-0.7,0.5c-0.5-0.6-1-0.9-1.5-0.9
				c-0.2,0-0.4,0-0.6,0.1c-0.2,0.1-0.3,0.2-0.4,0.4c-0.1,0.2-0.1,0.3-0.1,0.5c0,0.2,0.1,0.4,0.2,0.6c0.1,0.2,0.3,0.3,0.5,0.5
				s0.5,0.4,0.8,0.6c0.5,0.3,0.8,0.6,1.1,0.8c0.3,0.2,0.5,0.5,0.6,0.8c0.1,0.3,0.2,0.6,0.2,1c0,0.4-0.1,0.8-0.3,1.1
				c-0.2,0.3-0.5,0.6-0.8,0.8c-0.3,0.2-0.7,0.3-1.2,0.3C67.8,247.9,67.1,247.5,66.5,246.7z"/>
			<path fill="#C7C7C7" d="M78.9,246.9h1.3v-6.1l-1.3,0.3v-0.8l1.6-0.6h0.6v7.2h1.2v0.8h-3.4V246.9z"/>
		</g>
	</g>
	<g id="MAIN_BATT_BUS_1_">
		
			<use xlink:href="#BUSPowered"  width="119.3" height="21" id="XMLID_7_" x="-59.7" y="-10.5" transform="matrix(0.8455 0 0 -0.8455 60.0269 178.1885)" overflow="visible"/>
		<g>
			<path fill="#C7C7C7" d="M23.6,175.7c-0.1-0.3-0.2-0.6-0.2-0.9c0,0.1,0,0.3,0,0.5v0.6v5.5h-0.8v-7.8h1.1l1.3,4.2l1.4-4.2h1v7.8
				h-0.8v-5.5c0-0.5,0-0.9,0-1.1c0,0.2-0.1,0.3-0.1,0.4c0,0.1,0,0.2-0.1,0.3c0,0.1,0,0.1-0.1,0.2l-1.2,3.5h-0.5L23.6,175.7z"/>
			<path fill="#C7C7C7" d="M29.1,181.4h-0.9l2-7.9h1.3l2,7.9h-0.9L32,179h-2.4L29.1,181.4z M29.8,178.3h2c-0.3-1.4-0.7-2.9-1-4.4
				c-0.1,0.3-0.2,0.8-0.3,1.5C30.4,176.1,30.1,177.1,29.8,178.3z"/>
			<path fill="#C7C7C7" d="M37.1,180.6h1v0.8h-2.9v-0.8h1v-6.3h-1v-0.8h2.9v0.8h-1V180.6z"/>
			<path fill="#C7C7C7" d="M41.2,174.8c0,2.1,0,4.3,0.1,6.6h-0.9v-7.8h1.2l2,4.9c0.1,0.3,0.3,0.7,0.4,1.4c0-1.1-0.1-2.1-0.1-3.1
				c0-1,0-2-0.1-3.1h0.9v7.9h-0.7L41.2,174.8z"/>
			<path fill="#C7C7C7" d="M52.2,181.4v-7.8h1.7c0.8,0,1.4,0.2,1.8,0.5c0.4,0.3,0.6,0.8,0.6,1.4c0,0.4-0.1,0.8-0.3,1.1
				c-0.2,0.3-0.5,0.5-0.9,0.7c1,0.3,1.5,1,1.5,2c0,0.8-0.2,1.3-0.7,1.7c-0.5,0.4-1.2,0.5-2.2,0.5H52.2z M53,177h0.7
				c0.5,0,0.9-0.1,1.2-0.3c0.3-0.2,0.4-0.6,0.4-1.1c0-0.5-0.1-0.8-0.4-1s-0.6-0.3-1.2-0.3H53V177z M53,180.6h1.1
				c0.5,0,0.9-0.1,1.1-0.4s0.4-0.6,0.4-1c0-0.4-0.1-0.7-0.2-0.9s-0.3-0.4-0.6-0.5c-0.3-0.1-0.6-0.2-1.1-0.2H53V180.6z"/>
			<path fill="#C7C7C7" d="M58.3,181.4h-0.9l2-7.9h1.3l2,7.9h-0.9l-0.6-2.3h-2.4L58.3,181.4z M59,178.3h2c-0.3-1.4-0.7-2.9-1-4.4
				c-0.1,0.3-0.2,0.8-0.3,1.5C59.5,176.1,59.3,177.1,59,178.3z"/>
			<path fill="#C7C7C7" d="M66.3,181.4h-0.9v-7h-1.9v-0.8h4.8v0.8h-1.9V181.4z"/>
			<path fill="#C7C7C7" d="M72.1,181.4h-0.9v-7h-1.9v-0.8h4.8v0.8h-1.9V181.4z"/>
			<path fill="#C7C7C7" d="M81.3,181.4v-7.8h1.7c0.8,0,1.4,0.2,1.8,0.5c0.4,0.3,0.6,0.8,0.6,1.4c0,0.4-0.1,0.8-0.3,1.1
				c-0.2,0.3-0.5,0.5-0.9,0.7c1,0.3,1.5,1,1.5,2c0,0.8-0.2,1.3-0.7,1.7c-0.5,0.4-1.2,0.5-2.2,0.5H81.3z M82.2,177H83
				c0.5,0,0.9-0.1,1.2-0.3c0.3-0.2,0.4-0.6,0.4-1.1c0-0.5-0.1-0.8-0.4-1s-0.6-0.3-1.2-0.3h-0.8V177z M82.2,180.6h1.1
				c0.5,0,0.9-0.1,1.1-0.4s0.4-0.6,0.4-1c0-0.4-0.1-0.7-0.2-0.9s-0.3-0.4-0.6-0.5c-0.3-0.1-0.6-0.2-1.1-0.2h-0.7V180.6z"/>
			<path fill="#C7C7C7" d="M87,173.6h0.9v5c0,0.8,0.1,1.4,0.3,1.7c0.2,0.4,0.5,0.6,1,0.6c0.3,0,0.6-0.1,0.8-0.3s0.3-0.4,0.4-0.8
				c0.1-0.3,0.1-0.8,0.1-1.3v-5h0.8v5v0.5c0,0.3,0,0.5,0,0.8s-0.1,0.4-0.2,0.6c-0.2,0.4-0.4,0.7-0.8,0.9c-0.3,0.2-0.7,0.3-1.1,0.3
				c-0.4,0-0.7-0.1-1.1-0.3c-0.3-0.2-0.6-0.4-0.8-0.7c-0.1-0.2-0.2-0.3-0.2-0.5c0-0.2-0.1-0.4-0.1-0.7c0-0.2,0-0.5,0-0.9V173.6z"/>
			<path fill="#C7C7C7" d="M92.7,180.4l0.7-0.7c0.2,0.3,0.4,0.6,0.7,0.8c0.3,0.2,0.6,0.3,0.9,0.3c0.4,0,0.7-0.1,0.9-0.4
				c0.2-0.2,0.4-0.5,0.4-0.9c0-0.3-0.1-0.7-0.3-0.9s-0.5-0.6-1-0.9c-0.5-0.3-0.9-0.6-1.2-0.8c-0.3-0.2-0.5-0.4-0.6-0.7
				c-0.2-0.3-0.2-0.6-0.2-0.9c0-0.6,0.2-1,0.6-1.4c0.4-0.4,0.9-0.6,1.5-0.6c0.8,0,1.5,0.4,2.1,1.2l-0.7,0.5c-0.5-0.6-1-0.9-1.5-0.9
				c-0.2,0-0.4,0-0.6,0.1c-0.2,0.1-0.3,0.2-0.4,0.4c-0.1,0.2-0.1,0.3-0.1,0.5c0,0.2,0.1,0.4,0.2,0.6c0.1,0.2,0.3,0.3,0.5,0.5
				s0.5,0.4,0.8,0.6c0.5,0.3,0.8,0.6,1.1,0.8c0.3,0.2,0.5,0.5,0.6,0.8c0.1,0.3,0.2,0.6,0.2,1c0,0.4-0.1,0.8-0.3,1.1
				c-0.2,0.3-0.5,0.6-0.8,0.8c-0.3,0.2-0.7,0.3-1.2,0.3C94,181.6,93.3,181.2,92.7,180.4z"/>
		</g>
	</g>
	<g id="MAIN_BATT_1_">
		
			<use xlink:href="#BattOperat"  width="93.8" height="81.5" id="XMLID_6_" x="-46.9" y="-40.8" transform="matrix(0.8455 0 0 -0.8455 60.0269 93.3616)" overflow="visible"/>
		<g id="BATT1_1_">
			<g>
				<path fill="#C7C7C7" d="M38,67.6c-0.1-0.3-0.2-0.6-0.2-0.9c0,0.1,0,0.3,0,0.5v0.6v5.5H37v-7.8h1.1l1.3,4.2l1.4-4.2h1v7.8h-0.8
					v-5.5c0-0.5,0-0.9,0-1.1c0,0.2-0.1,0.3-0.1,0.4c0,0.1,0,0.2-0.1,0.3c0,0.1,0,0.1-0.1,0.2L39.7,71h-0.5L38,67.6z"/>
				<path fill="#C7C7C7" d="M43.6,73.3h-0.9l2-7.9H46l2,7.9h-0.9l-0.6-2.3h-2.4L43.6,73.3z M44.3,70.2h2c-0.3-1.4-0.7-2.9-1-4.4
					c-0.1,0.3-0.2,0.8-0.3,1.5C44.8,68,44.6,69,44.3,70.2z"/>
				<path fill="#C7C7C7" d="M51.6,72.5h1v0.8h-2.9v-0.8h1v-6.3h-1v-0.8h2.9v0.8h-1V72.5z"/>
				<path fill="#C7C7C7" d="M55.6,66.7c0,2.1,0,4.3,0.1,6.6h-0.9v-7.8H56l2,4.9c0.1,0.3,0.3,0.7,0.4,1.4c0-1.1-0.1-2.1-0.1-3.1
					c0-1,0-2-0.1-3.1h0.9v7.9h-0.7L55.6,66.7z"/>
				<path fill="#C7C7C7" d="M66.6,73.3v-7.8h1.7c0.8,0,1.4,0.2,1.8,0.5c0.4,0.3,0.6,0.8,0.6,1.4c0,0.4-0.1,0.8-0.3,1.1
					c-0.2,0.3-0.5,0.5-0.9,0.7c1,0.3,1.5,1,1.5,2c0,0.8-0.2,1.3-0.7,1.7c-0.5,0.4-1.2,0.5-2.2,0.5H66.6z M67.5,68.9h0.7
					c0.5,0,0.9-0.1,1.2-0.3c0.3-0.2,0.4-0.6,0.4-1.1c0-0.5-0.1-0.8-0.4-1s-0.6-0.3-1.2-0.3h-0.8V68.9z M67.5,72.5h1.1
					c0.5,0,0.9-0.1,1.1-0.4s0.4-0.6,0.4-1c0-0.4-0.1-0.7-0.2-0.9s-0.3-0.4-0.6-0.5c-0.3-0.1-0.6-0.2-1.1-0.2h-0.7V72.5z"/>
				<path fill="#C7C7C7" d="M72.7,73.3h-0.9l2-7.9h1.3l2,7.9h-0.9l-0.6-2.3h-2.4L72.7,73.3z M73.5,70.2h2c-0.3-1.4-0.7-2.9-1-4.4
					c-0.1,0.3-0.2,0.8-0.3,1.5C74,68,73.8,69,73.5,70.2z"/>
				<path fill="#C7C7C7" d="M80.8,73.3h-0.9v-7H78v-0.8h4.8v0.8h-1.9V73.3z"/>
				<path fill="#C7C7C7" d="M86.6,73.3h-0.9v-7h-1.9v-0.8h4.8v0.8h-1.9V73.3z"/>
			</g>
			<g>
				<path fill="#00FE00" d="M47,110.6c0.2-0.3,0.4-0.6,0.7-0.8c0.3-0.2,0.6-0.4,0.9-0.5c0.3-0.1,0.7-0.2,1.1-0.2
					c0.5,0,1,0.1,1.4,0.3s0.7,0.5,1,0.9c0.2,0.4,0.3,0.8,0.3,1.3c0,0.5-0.1,0.9-0.4,1.3s-0.6,0.7-1.2,1c1.2,0.5,1.8,1.4,1.8,2.8
					c0,0.6-0.1,1.2-0.4,1.7s-0.6,0.9-1.1,1.1c-0.5,0.3-1,0.4-1.5,0.4c-1.3,0-2.3-0.6-2.8-1.8l1-0.5c0.2,0.5,0.5,0.8,0.7,1
					c0.3,0.2,0.6,0.3,1,0.3c0.6,0,1-0.2,1.3-0.6c0.3-0.4,0.5-0.9,0.5-1.6c0-1.4-0.7-2.1-2-2.1c-0.1,0-0.3,0-0.5,0v-1.1h0.1
					c1.5,0,2.3-0.6,2.3-1.8c0-0.5-0.1-0.9-0.4-1.2S50,110,49.5,110c-0.3,0-0.6,0.1-0.9,0.2c-0.3,0.2-0.5,0.4-0.8,0.8L47,110.6z"/>
				<path fill="#00FE00" d="M54.6,110.6c0.2-0.3,0.4-0.6,0.7-0.8c0.3-0.2,0.6-0.4,0.9-0.5c0.3-0.1,0.7-0.2,1.1-0.2
					c0.5,0,1,0.1,1.4,0.3s0.7,0.5,1,0.9c0.2,0.4,0.3,0.8,0.3,1.3c0,0.5-0.1,0.9-0.4,1.3s-0.6,0.7-1.2,1c1.2,0.5,1.8,1.4,1.8,2.8
					c0,0.6-0.1,1.2-0.4,1.7s-0.6,0.9-1.1,1.1c-0.5,0.3-1,0.4-1.5,0.4c-1.3,0-2.3-0.6-2.8-1.8l1-0.5c0.2,0.5,0.5,0.8,0.7,1
					c0.3,0.2,0.6,0.3,1,0.3c0.6,0,1-0.2,1.3-0.6c0.3-0.4,0.5-0.9,0.5-1.6c0-1.4-0.7-2.1-2-2.1c-0.1,0-0.3,0-0.5,0v-1.1h0.1
					c1.5,0,2.3-0.6,2.3-1.8c0-0.5-0.1-0.9-0.4-1.2s-0.7-0.4-1.2-0.4c-0.3,0-0.6,0.1-0.9,0.2c-0.3,0.2-0.5,0.4-0.8,0.8L54.6,110.6z"
					/>
			</g>
			<g>
				<path fill="#C7C7C7" d="M67.1,118.4h-0.9l2-7.9h1.3l2,7.9h-0.9l-0.6-2.3h-2.4L67.1,118.4z M67.8,115.3h2c-0.3-1.4-0.7-2.9-1-4.4
					c-0.1,0.3-0.2,0.8-0.3,1.5C68.3,113.2,68.1,114.1,67.8,115.3z"/>
			</g>
			<g>
				<path fill="#00FE00" d="M46.9,96.8c0-1,0.3-1.7,0.8-2.2c0.5-0.5,1.2-0.8,2.1-0.8c0.6,0,1.1,0.1,1.5,0.3c0.4,0.2,0.7,0.5,1,0.9
					c0.2,0.4,0.3,0.8,0.3,1.3s-0.1,0.9-0.3,1.3c-0.2,0.4-0.5,0.8-0.8,1.1c-0.3,0.3-0.9,0.9-1.7,1.7c-0.4,0.4-0.7,0.7-1,1
					c-0.2,0.2-0.4,0.5-0.5,0.8s-0.2,0.7-0.2,1.1h4.5v1h-5.6c0-0.2,0-0.5,0-0.7c0-0.5,0.1-1,0.2-1.5c0.2-0.4,0.4-0.8,0.7-1.2
					c0.3-0.4,0.7-0.8,1.1-1.3c0.5-0.5,1-1,1.3-1.3c0.4-0.3,0.6-0.7,0.8-1s0.3-0.6,0.3-1c0-0.3-0.1-0.5-0.2-0.8
					c-0.1-0.2-0.3-0.4-0.5-0.5c-0.2-0.1-0.5-0.2-0.8-0.2c-0.5,0-0.9,0.2-1.2,0.5c-0.3,0.3-0.5,0.8-0.5,1.5H46.9z"/>
				<path fill="#00FE00" d="M58.9,98.8c0.4,0.2,0.7,0.4,1,0.6s0.5,0.6,0.6,1c0.1,0.4,0.2,0.8,0.2,1.2c0,0.6-0.1,1.1-0.4,1.5
					c-0.3,0.4-0.7,0.8-1.2,1c-0.5,0.2-1.1,0.4-1.7,0.4c-0.6,0-1.2-0.1-1.7-0.4c-0.5-0.2-0.9-0.6-1.2-1c-0.3-0.4-0.4-1-0.4-1.5
					c0-0.7,0.2-1.2,0.5-1.7c0.3-0.5,0.8-0.9,1.4-1.1c-0.5-0.3-0.8-0.7-1.1-1s-0.3-0.8-0.3-1.2c0-0.5,0.1-0.9,0.4-1.4s0.6-0.7,1-1
					s0.9-0.4,1.5-0.4c0.4,0,0.8,0.1,1.1,0.2c0.4,0.1,0.7,0.3,0.9,0.6c0.3,0.2,0.5,0.5,0.6,0.9s0.2,0.7,0.2,1.1
					C60.3,97.4,59.8,98.1,58.9,98.8z M59.5,101.5c0-0.4-0.1-0.8-0.3-1.1s-0.4-0.6-0.8-0.8c-0.3-0.2-0.7-0.3-1.1-0.3
					c-0.6,0-1.1,0.2-1.5,0.6c-0.4,0.4-0.6,0.9-0.6,1.5c0,0.6,0.2,1.1,0.6,1.5c0.4,0.4,0.9,0.6,1.5,0.6c0.4,0,0.8-0.1,1.1-0.3
					c0.3-0.2,0.6-0.4,0.7-0.7C59.4,102.2,59.5,101.9,59.5,101.5z M57.4,98.4c0.3,0,0.6-0.1,0.8-0.2c0.3-0.2,0.5-0.4,0.6-0.7
					s0.2-0.6,0.2-1c0-0.5-0.1-1-0.4-1.3c-0.3-0.3-0.7-0.5-1.2-0.5c-0.5,0-0.9,0.2-1.2,0.5c-0.3,0.3-0.4,0.7-0.4,1.3
					c0,0.6,0.2,1,0.5,1.4C56.5,98.3,56.9,98.4,57.4,98.4z"/>
			</g>
			<g>
				<path fill="#C7C7C7" d="M67.5,95.6l1.2,5.5c0.1,0.4,0.1,0.8,0.2,1.2c0-0.1,0-0.3,0.1-0.4c0-0.2,0-0.3,0.1-0.4s0.1-0.3,0.1-0.4
					l1.2-5.5h0.9l-1.8,7.9h-1l-1.7-7.9H67.5z"/>
			</g>
			<g>
				<g>
					<path fill="#00FE00" d="M47.8,87.6h1.7v-8L47.8,80v-1l2.1-0.8h0.8v9.3h1.6v1h-4.4V87.6z"/>
					<path fill="#00FE00" d="M60.4,83.5c0,1.2-0.1,2.2-0.4,3c-0.2,0.8-0.6,1.4-1,1.8s-1,0.6-1.6,0.6c-0.6,0-1.2-0.2-1.6-0.6
						s-0.8-1-1-1.8c-0.2-0.8-0.4-1.8-0.4-3c0-1.2,0.1-2.2,0.4-3c0.2-0.8,0.6-1.4,1-1.8c0.5-0.4,1-0.6,1.6-0.6c0.6,0,1.2,0.2,1.6,0.6
						c0.5,0.4,0.8,1,1,1.8C60.3,81.3,60.4,82.3,60.4,83.5z M57.4,87.8c0.3,0,0.6-0.1,0.8-0.3c0.2-0.2,0.4-0.5,0.6-0.8
						c0.2-0.4,0.3-0.8,0.3-1.4s0.1-1.2,0.1-1.9c0-2.9-0.6-4.4-1.8-4.4c-0.6,0-1.1,0.4-1.4,1.1c-0.3,0.7-0.4,1.8-0.4,3.3
						C55.6,86.4,56.2,87.8,57.4,87.8z"/>
				</g>
			</g>
			<g>
				<g>
					<path fill="#C7C7C7" d="M67.9,81c0-0.3,0.1-0.6,0.3-0.8c0.2-0.2,0.5-0.3,0.8-0.3c0.2,0,0.4,0.1,0.6,0.2
						c0.2,0.1,0.3,0.2,0.4,0.4c0.1,0.2,0.2,0.4,0.2,0.6c0,0.3-0.1,0.6-0.3,0.8s-0.5,0.3-0.8,0.3c-0.3,0-0.6-0.1-0.8-0.3
						S67.9,81.3,67.9,81z M68.5,81c0,0.2,0.1,0.3,0.2,0.4c0.1,0.1,0.3,0.2,0.4,0.2c0.2,0,0.3-0.1,0.4-0.2c0.1-0.1,0.2-0.3,0.2-0.4
						c0-0.2-0.1-0.3-0.2-0.4c-0.1-0.1-0.2-0.2-0.4-0.2c-0.2,0-0.3,0.1-0.4,0.2C68.5,80.7,68.5,80.9,68.5,81z"/>
					<path fill="#C7C7C7" d="M76.1,81.9c-0.1-0.8-0.5-1.2-1.2-1.2c-1,0-1.6,1.1-1.6,3.3c0,0.8,0.1,1.4,0.2,1.9
						c0.1,0.5,0.3,0.9,0.5,1.1s0.6,0.4,0.9,0.4c0.3,0,0.6-0.1,0.8-0.3s0.3-0.5,0.5-0.9l0.7,0.2c-0.1,0.6-0.3,1-0.7,1.3
						s-0.8,0.4-1.3,0.4c-0.8,0-1.5-0.3-1.9-1c-0.4-0.7-0.6-1.7-0.6-3.1c0-0.9,0.1-1.6,0.3-2.3s0.5-1.1,0.8-1.4
						c0.4-0.3,0.8-0.5,1.3-0.5c0.3,0,0.6,0,0.8,0.1c0.3,0.1,0.5,0.2,0.6,0.4c0.2,0.2,0.3,0.4,0.4,0.6c0.1,0.2,0.2,0.5,0.2,0.8
						L76.1,81.9z"/>
				</g>
			</g>
		</g>
	</g>
</g>
<g id="CENTRE_1_">
	<g id="AC_ESS_BUS_1_">
		
			<use xlink:href="#BUSPowered"  width="119.3" height="21" x="-59.7" y="-10.5" transform="matrix(0.8455 0 0 -0.8455 186.2047 344.0187)" overflow="visible"/>
		<g>
			<path fill="#C7C7C7" d="M158.2,347.2h-0.9l2-7.9h1.3l2,7.9h-0.9l-0.6-2.3h-2.4L158.2,347.2z M158.9,344.1h2
				c-0.3-1.4-0.7-2.9-1-4.4c-0.1,0.3-0.2,0.8-0.3,1.5S159.2,342.9,158.9,344.1z"/>
			<path fill="#C7C7C7" d="M167.2,341.2c-0.1-0.8-0.5-1.2-1.2-1.2c-1,0-1.6,1.1-1.6,3.3c0,0.8,0.1,1.4,0.2,1.9
				c0.1,0.5,0.3,0.9,0.5,1.1s0.6,0.4,0.9,0.4c0.3,0,0.6-0.1,0.8-0.3s0.3-0.5,0.5-0.9l0.7,0.2c-0.1,0.6-0.3,1-0.7,1.3
				c-0.3,0.3-0.8,0.4-1.3,0.4c-0.8,0-1.5-0.3-1.9-1c-0.4-0.7-0.6-1.7-0.6-3.1c0-0.9,0.1-1.6,0.3-2.3s0.5-1.1,0.8-1.4
				c0.4-0.3,0.8-0.5,1.3-0.5c0.3,0,0.6,0,0.8,0.1c0.3,0.1,0.5,0.2,0.6,0.4s0.3,0.4,0.4,0.6c0.1,0.2,0.2,0.5,0.2,0.8L167.2,341.2z"/>
			<path fill="#C7C7C7" d="M175.7,347.2v-7.8h4v0.8h-3.1v2.6h2.3v0.7h-2.3v2.9h3.2v0.8H175.7z"/>
			<path fill="#C7C7C7" d="M181,346.3l0.7-0.7c0.2,0.3,0.4,0.6,0.7,0.8c0.3,0.2,0.6,0.3,0.9,0.3c0.4,0,0.7-0.1,0.9-0.3
				c0.2-0.2,0.4-0.5,0.4-0.9c0-0.3-0.1-0.7-0.3-0.9s-0.5-0.6-1-0.9c-0.5-0.3-0.9-0.6-1.2-0.8c-0.3-0.2-0.5-0.4-0.6-0.7
				c-0.2-0.3-0.2-0.6-0.2-0.9c0-0.6,0.2-1,0.6-1.4c0.4-0.4,0.9-0.6,1.5-0.6c0.8,0,1.5,0.4,2.1,1.2l-0.7,0.5c-0.5-0.6-1-0.9-1.5-0.9
				c-0.2,0-0.4,0-0.6,0.1c-0.2,0.1-0.3,0.2-0.4,0.4c-0.1,0.2-0.1,0.3-0.1,0.5c0,0.2,0.1,0.4,0.2,0.6c0.1,0.2,0.3,0.3,0.5,0.5
				s0.5,0.4,0.8,0.6c0.5,0.3,0.8,0.6,1.1,0.8c0.3,0.2,0.5,0.5,0.6,0.8c0.1,0.3,0.2,0.6,0.2,1c0,0.4-0.1,0.8-0.3,1.1
				c-0.2,0.3-0.5,0.6-0.8,0.8c-0.3,0.2-0.7,0.3-1.2,0.3C182.3,347.4,181.6,347.1,181,346.3z"/>
			<path fill="#C7C7C7" d="M186.8,346.3l0.7-0.7c0.2,0.3,0.4,0.6,0.7,0.8c0.3,0.2,0.6,0.3,0.9,0.3c0.4,0,0.7-0.1,0.9-0.3
				c0.2-0.2,0.4-0.5,0.4-0.9c0-0.3-0.1-0.7-0.3-0.9s-0.5-0.6-1-0.9c-0.5-0.3-0.9-0.6-1.2-0.8c-0.3-0.2-0.5-0.4-0.6-0.7
				c-0.2-0.3-0.2-0.6-0.2-0.9c0-0.6,0.2-1,0.6-1.4c0.4-0.4,0.9-0.6,1.5-0.6c0.8,0,1.5,0.4,2.1,1.2l-0.7,0.5c-0.5-0.6-1-0.9-1.5-0.9
				c-0.2,0-0.4,0-0.6,0.1c-0.2,0.1-0.3,0.2-0.4,0.4c-0.1,0.2-0.1,0.3-0.1,0.5c0,0.2,0.1,0.4,0.2,0.6c0.1,0.2,0.3,0.3,0.5,0.5
				s0.5,0.4,0.8,0.6c0.5,0.3,0.8,0.6,1.1,0.8c0.3,0.2,0.5,0.5,0.6,0.8c0.1,0.3,0.2,0.6,0.2,1c0,0.4-0.1,0.8-0.3,1.1
				c-0.2,0.3-0.5,0.6-0.8,0.8c-0.3,0.2-0.7,0.3-1.2,0.3C188.1,347.4,187.4,347.1,186.8,346.3z"/>
			<path fill="#C7C7C7" d="M198.8,347.2v-7.8h1.7c0.8,0,1.4,0.2,1.8,0.5c0.4,0.3,0.6,0.8,0.6,1.4c0,0.4-0.1,0.8-0.3,1.1
				s-0.5,0.5-0.9,0.7c1,0.3,1.5,1,1.5,2c0,0.8-0.2,1.3-0.7,1.7c-0.5,0.4-1.2,0.5-2.2,0.5H198.8z M199.6,342.8h0.7
				c0.5,0,0.9-0.1,1.2-0.3c0.3-0.2,0.4-0.6,0.4-1.1c0-0.5-0.1-0.8-0.4-1s-0.6-0.3-1.2-0.3h-0.8V342.8z M199.6,346.5h1.1
				c0.5,0,0.9-0.1,1.1-0.4c0.3-0.2,0.4-0.6,0.4-1c0-0.4-0.1-0.7-0.2-0.9c-0.1-0.2-0.3-0.4-0.6-0.5c-0.3-0.1-0.6-0.2-1.1-0.2h-0.7
				V346.5z"/>
			<path fill="#C7C7C7" d="M204.5,339.4h0.9v5c0,0.8,0.1,1.4,0.3,1.7c0.2,0.4,0.5,0.6,1,0.6c0.3,0,0.6-0.1,0.8-0.3s0.3-0.4,0.4-0.8
				c0.1-0.3,0.1-0.8,0.1-1.3v-5h0.8v5v0.5c0,0.3,0,0.5,0,0.8c0,0.2-0.1,0.4-0.2,0.6c-0.2,0.4-0.4,0.7-0.8,0.9s-0.7,0.3-1.1,0.3
				c-0.4,0-0.7-0.1-1.1-0.3s-0.6-0.4-0.8-0.7c-0.1-0.2-0.2-0.3-0.2-0.5c0-0.2-0.1-0.4-0.1-0.7s0-0.5,0-0.9V339.4z"/>
			<path fill="#C7C7C7" d="M210.1,346.3l0.7-0.7c0.2,0.3,0.4,0.6,0.7,0.8c0.3,0.2,0.6,0.3,0.9,0.3c0.4,0,0.7-0.1,0.9-0.3
				c0.2-0.2,0.4-0.5,0.4-0.9c0-0.3-0.1-0.7-0.3-0.9s-0.5-0.6-1-0.9c-0.5-0.3-0.9-0.6-1.2-0.8c-0.3-0.2-0.5-0.4-0.6-0.7
				c-0.2-0.3-0.2-0.6-0.2-0.9c0-0.6,0.2-1,0.6-1.4c0.4-0.4,0.9-0.6,1.5-0.6c0.8,0,1.5,0.4,2.1,1.2l-0.7,0.5c-0.5-0.6-1-0.9-1.5-0.9
				c-0.2,0-0.4,0-0.6,0.1c-0.2,0.1-0.3,0.2-0.4,0.4c-0.1,0.2-0.1,0.3-0.1,0.5c0,0.2,0.1,0.4,0.2,0.6c0.1,0.2,0.3,0.3,0.5,0.5
				s0.5,0.4,0.8,0.6c0.5,0.3,0.8,0.6,1.1,0.8c0.3,0.2,0.5,0.5,0.6,0.8c0.1,0.3,0.2,0.6,0.2,1c0,0.4-0.1,0.8-0.3,1.1
				c-0.2,0.3-0.5,0.6-0.8,0.8c-0.3,0.2-0.7,0.3-1.2,0.3C211.5,347.4,210.7,347.1,210.1,346.3z"/>
		</g>
	</g>
	<g id="ESS_TRU_1_">
		
			<use xlink:href="#TRUOperat"  width="79.8" height="61" x="-39.9" y="-30.5" transform="matrix(0.8455 0 0 -0.8455 186.2047 296.2881)" overflow="visible"/>
		<g>
			<path fill="#00FE00" d="M170.9,293c0-1,0.3-1.7,0.8-2.2c0.5-0.5,1.2-0.8,2.1-0.8c0.6,0,1.1,0.1,1.5,0.3c0.4,0.2,0.7,0.5,1,0.9
				c0.2,0.4,0.3,0.8,0.3,1.3s-0.1,0.9-0.3,1.3c-0.2,0.4-0.5,0.8-0.8,1.1c-0.3,0.3-0.9,0.9-1.7,1.7c-0.4,0.4-0.7,0.7-1,1
				c-0.2,0.2-0.4,0.5-0.5,0.8c-0.1,0.3-0.2,0.7-0.2,1.1h4.5v1h-5.6c0-0.2,0-0.5,0-0.7c0-0.6,0.1-1,0.2-1.5c0.2-0.4,0.4-0.8,0.7-1.2
				c0.3-0.4,0.7-0.8,1.1-1.3c0.5-0.5,1-1,1.3-1.3s0.6-0.7,0.8-1s0.3-0.6,0.3-1c0-0.3-0.1-0.5-0.2-0.8c-0.1-0.2-0.3-0.4-0.5-0.5
				c-0.2-0.1-0.5-0.2-0.8-0.2c-0.5,0-0.9,0.2-1.2,0.5c-0.3,0.3-0.5,0.8-0.5,1.5H170.9z"/>
			<path fill="#00FE00" d="M182.9,294.9c0.4,0.2,0.7,0.4,1,0.7c0.3,0.3,0.5,0.6,0.6,1c0.1,0.4,0.2,0.8,0.2,1.2
				c0,0.6-0.1,1.1-0.4,1.5c-0.3,0.4-0.7,0.8-1.2,1c-0.5,0.2-1.1,0.4-1.7,0.4c-0.6,0-1.2-0.1-1.7-0.4c-0.5-0.2-0.9-0.6-1.2-1
				s-0.4-1-0.4-1.5c0-0.7,0.2-1.2,0.5-1.7c0.3-0.5,0.8-0.9,1.4-1.1c-0.5-0.3-0.8-0.7-1.1-1c-0.2-0.4-0.3-0.8-0.3-1.2
				c0-0.5,0.1-0.9,0.4-1.4s0.6-0.7,1-1c0.4-0.2,0.9-0.4,1.5-0.4c0.4,0,0.8,0.1,1.1,0.2c0.4,0.1,0.7,0.3,0.9,0.6
				c0.3,0.2,0.5,0.5,0.6,0.9c0.1,0.3,0.2,0.7,0.2,1.1C184.3,293.6,183.8,294.3,182.9,294.9z M183.5,297.6c0-0.4-0.1-0.8-0.3-1.1
				s-0.4-0.6-0.8-0.8c-0.3-0.2-0.7-0.3-1.1-0.3c-0.6,0-1.1,0.2-1.5,0.6s-0.6,0.9-0.6,1.5c0,0.6,0.2,1.1,0.6,1.5s0.9,0.6,1.5,0.6
				c0.4,0,0.8-0.1,1.1-0.3c0.3-0.2,0.6-0.4,0.7-0.7S183.5,298,183.5,297.6z M181.4,294.6c0.3,0,0.6-0.1,0.8-0.2
				c0.3-0.2,0.5-0.4,0.6-0.7c0.1-0.3,0.2-0.6,0.2-1c0-0.5-0.1-1-0.4-1.3c-0.3-0.3-0.7-0.5-1.2-0.5c-0.5,0-0.9,0.2-1.2,0.5
				c-0.3,0.3-0.4,0.7-0.4,1.3c0,0.6,0.2,1,0.5,1.4C180.6,294.5,181,294.6,181.4,294.6z"/>
		</g>
		<g>
			<path fill="#C7C7C7" d="M192.5,291.5l1.2,5.5c0.1,0.4,0.1,0.8,0.2,1.2c0-0.1,0-0.3,0.1-0.4c0-0.2,0-0.3,0.1-0.4s0.1-0.3,0.1-0.4
				l1.2-5.5h0.9l-1.8,7.9h-1l-1.7-7.9H192.5z"/>
		</g>
		<g>
			<path fill="#00FE00" d="M171.2,304.7c0.2-0.3,0.4-0.6,0.7-0.8c0.3-0.2,0.6-0.4,0.9-0.5c0.3-0.1,0.7-0.2,1.1-0.2
				c0.5,0,1,0.1,1.4,0.3s0.7,0.5,1,0.9c0.2,0.4,0.3,0.8,0.3,1.3c0,0.5-0.1,0.9-0.4,1.3s-0.6,0.7-1.2,1c1.2,0.5,1.8,1.4,1.8,2.8
				c0,0.6-0.1,1.2-0.4,1.7c-0.3,0.5-0.6,0.9-1.1,1.1c-0.5,0.3-1,0.4-1.5,0.4c-1.3,0-2.3-0.6-2.8-1.8l1-0.5c0.2,0.5,0.5,0.8,0.7,1
				c0.3,0.2,0.6,0.3,1,0.3c0.6,0,1-0.2,1.3-0.6c0.3-0.4,0.5-0.9,0.5-1.6c0-1.4-0.7-2.1-2-2.1c-0.1,0-0.3,0-0.5,0v-1.1h0.1
				c1.5,0,2.3-0.6,2.3-1.8c0-0.5-0.1-0.9-0.4-1.2s-0.7-0.4-1.2-0.4c-0.3,0-0.6,0.1-0.9,0.2c-0.3,0.2-0.5,0.4-0.8,0.8L171.2,304.7z"
				/>
			<path fill="#00FE00" d="M180.3,307.7c0.5-0.4,1.1-0.5,1.6-0.5c0.8,0,1.4,0.3,1.9,0.9s0.7,1.4,0.7,2.4c0,0.5-0.1,1-0.2,1.5
				c-0.1,0.4-0.3,0.8-0.6,1.1c-0.3,0.3-0.6,0.5-0.9,0.7s-0.8,0.2-1.2,0.2c-1.3,0-2.3-0.6-2.8-1.8l1-0.5c0.2,0.5,0.5,0.8,0.7,1
				c0.3,0.2,0.6,0.3,1,0.3c0.6,0,1-0.2,1.3-0.6c0.3-0.4,0.5-1,0.5-1.8c0-0.8-0.1-1.4-0.4-1.8c-0.3-0.4-0.7-0.6-1.2-0.6
				c-0.3,0-0.6,0.1-0.9,0.3s-0.5,0.5-0.8,0.8l-0.9-0.3l0.5-5.6h4.5l-0.1,1h-3.4L180.3,307.7z"/>
		</g>
		<g>
			<path fill="#C7C7C7" d="M192.1,313.1h-0.9l2-7.9h1.3l2,7.9h-0.9l-0.6-2.3h-2.4L192.1,313.1z M192.8,310h2c-0.3-1.4-0.7-2.9-1-4.4
				c-0.1,0.3-0.2,0.8-0.3,1.5S193.1,308.8,192.8,310z"/>
		</g>
		<g>
			<path fill="#C7C7C7" d="M164.4,285.4v-7.8h4v0.8h-3.1v2.6h2.3v0.7h-2.3v2.9h3.2v0.8H164.4z"/>
			<path fill="#C7C7C7" d="M169.7,284.4l0.7-0.7c0.2,0.3,0.4,0.6,0.7,0.8c0.3,0.2,0.6,0.3,0.9,0.3c0.4,0,0.7-0.1,0.9-0.3
				c0.2-0.2,0.4-0.5,0.4-0.9c0-0.3-0.1-0.7-0.3-0.9s-0.5-0.6-1-0.9c-0.5-0.3-0.9-0.6-1.2-0.8c-0.3-0.2-0.5-0.4-0.6-0.7
				c-0.2-0.3-0.2-0.6-0.2-0.9c0-0.6,0.2-1,0.6-1.4c0.4-0.4,0.9-0.6,1.5-0.6c0.8,0,1.5,0.4,2.1,1.2l-0.7,0.5c-0.5-0.6-1-0.9-1.5-0.9
				c-0.2,0-0.4,0-0.6,0.1c-0.2,0.1-0.3,0.2-0.4,0.4c-0.1,0.2-0.1,0.3-0.1,0.5c0,0.2,0.1,0.4,0.2,0.6c0.1,0.2,0.3,0.3,0.5,0.5
				s0.5,0.4,0.8,0.6c0.5,0.3,0.8,0.6,1.1,0.8c0.3,0.2,0.5,0.5,0.6,0.8c0.1,0.3,0.2,0.6,0.2,1c0,0.4-0.1,0.8-0.3,1.1
				c-0.2,0.3-0.5,0.6-0.8,0.8c-0.3,0.2-0.7,0.3-1.2,0.3C171,285.6,170.3,285.2,169.7,284.4z"/>
			<path fill="#C7C7C7" d="M175.5,284.4l0.7-0.7c0.2,0.3,0.4,0.6,0.7,0.8c0.3,0.2,0.6,0.3,0.9,0.3c0.4,0,0.7-0.1,0.9-0.3
				c0.2-0.2,0.4-0.5,0.4-0.9c0-0.3-0.1-0.7-0.3-0.9s-0.5-0.6-1-0.9c-0.5-0.3-0.9-0.6-1.2-0.8c-0.3-0.2-0.5-0.4-0.6-0.7
				c-0.2-0.3-0.2-0.6-0.2-0.9c0-0.6,0.2-1,0.6-1.4c0.4-0.4,0.9-0.6,1.5-0.6c0.8,0,1.5,0.4,2.1,1.2l-0.7,0.5c-0.5-0.6-1-0.9-1.5-0.9
				c-0.2,0-0.4,0-0.6,0.1c-0.2,0.1-0.3,0.2-0.4,0.4c-0.1,0.2-0.1,0.3-0.1,0.5c0,0.2,0.1,0.4,0.2,0.6c0.1,0.2,0.3,0.3,0.5,0.5
				s0.5,0.4,0.8,0.6c0.5,0.3,0.8,0.6,1.1,0.8c0.3,0.2,0.5,0.5,0.6,0.8c0.1,0.3,0.2,0.6,0.2,1c0,0.4-0.1,0.8-0.3,1.1
				c-0.2,0.3-0.5,0.6-0.8,0.8c-0.3,0.2-0.7,0.3-1.2,0.3C176.8,285.6,176.1,285.2,175.5,284.4z"/>
		</g>
		<g>
			<path fill="#C7C7C7" d="M189.9,285.4h-0.9v-7h-1.9v-0.8h4.8v0.8h-1.9V285.4z"/>
			<path fill="#C7C7C7" d="M193.4,285.4v-7.8h1.7c0.8,0,1.4,0.2,1.8,0.5s0.6,0.9,0.6,1.7c0,0.5-0.1,0.9-0.3,1.3
				c-0.2,0.4-0.6,0.7-1,0.9l1.9,3.4h-1l-1.7-3.2h-1.1v3.2H193.4z M194.3,281.5h0.9c0.5,0,0.8-0.2,1.1-0.5s0.4-0.7,0.4-1.3
				c0-1-0.5-1.5-1.5-1.5h-0.9V281.5z"/>
			<path fill="#C7C7C7" d="M199,277.5h0.9v5c0,0.8,0.1,1.4,0.3,1.7c0.2,0.4,0.5,0.6,1,0.6c0.3,0,0.6-0.1,0.8-0.3s0.3-0.4,0.4-0.8
				c0.1-0.3,0.1-0.8,0.1-1.3v-5h0.8v5v0.5c0,0.3,0,0.5,0,0.8c0,0.2-0.1,0.4-0.2,0.6c-0.2,0.4-0.4,0.7-0.8,0.9s-0.7,0.3-1.1,0.3
				c-0.4,0-0.7-0.1-1.1-0.3s-0.6-0.4-0.8-0.7c-0.1-0.2-0.2-0.3-0.2-0.5c0-0.2-0.1-0.4-0.1-0.7s0-0.5,0-0.9V277.5z"/>
		</g>
	</g>
	<g id="DC_ESS_BUS_1_1_">
		
			<use xlink:href="#BUSPowered"  width="119.3" height="21" x="-59.7" y="-10.5" transform="matrix(0.8455 0 0 -0.8455 186.2047 209.8116)" overflow="visible"/>
		<g>
			<path fill="#C7C7C7" d="M152,205.6h1.8c0.5,0,0.9,0.1,1.2,0.2c0.3,0.2,0.6,0.4,0.8,0.7c0.2,0.3,0.4,0.7,0.5,1.2
				c0.1,0.5,0.2,1.1,0.2,1.8c0,0.7-0.1,1.3-0.2,1.8c-0.1,0.5-0.3,0.9-0.5,1.2s-0.5,0.5-0.8,0.7c-0.3,0.2-0.8,0.2-1.2,0.2H152V205.6z
				 M152.9,206.4v6.3h0.8c0.4,0,0.7-0.1,0.9-0.2c0.2-0.1,0.4-0.3,0.6-0.5s0.2-0.6,0.3-1s0.1-0.9,0.1-1.5c0-0.8-0.1-1.4-0.2-1.8
				c-0.1-0.5-0.3-0.8-0.6-1s-0.6-0.3-1.1-0.3H152.9z"/>
			<path fill="#C7C7C7" d="M161.4,207.4c-0.1-0.8-0.5-1.2-1.2-1.2c-1,0-1.6,1.1-1.6,3.3c0,0.8,0.1,1.4,0.2,1.9
				c0.1,0.5,0.3,0.9,0.5,1.1s0.6,0.4,0.9,0.4c0.3,0,0.6-0.1,0.8-0.3s0.3-0.5,0.5-0.9l0.7,0.2c-0.1,0.6-0.3,1-0.7,1.3
				c-0.3,0.3-0.8,0.4-1.3,0.4c-0.8,0-1.5-0.3-1.9-1c-0.4-0.7-0.6-1.7-0.6-3.1c0-0.9,0.1-1.6,0.3-2.3s0.5-1.1,0.8-1.4
				c0.4-0.3,0.8-0.5,1.3-0.5c0.3,0,0.6,0,0.8,0.1c0.3,0.1,0.5,0.2,0.6,0.4s0.3,0.4,0.4,0.6c0.1,0.2,0.2,0.5,0.2,0.8L161.4,207.4z"/>
			<path fill="#C7C7C7" d="M169.9,213.4v-7.8h4v0.8h-3.1v2.6h2.3v0.7h-2.3v2.9h3.2v0.8H169.9z"/>
			<path fill="#C7C7C7" d="M175.1,212.5l0.7-0.7c0.2,0.3,0.4,0.6,0.7,0.8c0.3,0.2,0.6,0.3,0.9,0.3c0.4,0,0.7-0.1,0.9-0.3
				c0.2-0.2,0.4-0.5,0.4-0.9c0-0.3-0.1-0.7-0.3-0.9s-0.5-0.6-1-0.9c-0.5-0.3-0.9-0.6-1.2-0.8c-0.3-0.2-0.5-0.4-0.6-0.7
				c-0.2-0.3-0.2-0.6-0.2-0.9c0-0.6,0.2-1,0.6-1.4c0.4-0.4,0.9-0.6,1.5-0.6c0.8,0,1.5,0.4,2.1,1.2l-0.7,0.5c-0.5-0.6-1-0.9-1.5-0.9
				c-0.2,0-0.4,0-0.6,0.1c-0.2,0.1-0.3,0.2-0.4,0.4c-0.1,0.2-0.1,0.3-0.1,0.5c0,0.2,0.1,0.4,0.2,0.6c0.1,0.2,0.3,0.3,0.5,0.5
				s0.5,0.4,0.8,0.6c0.5,0.3,0.8,0.6,1.1,0.8c0.3,0.2,0.5,0.5,0.6,0.8c0.1,0.3,0.2,0.6,0.2,1c0,0.4-0.1,0.8-0.3,1.1
				c-0.2,0.3-0.5,0.6-0.8,0.8c-0.3,0.2-0.7,0.3-1.2,0.3C176.5,213.7,175.7,213.3,175.1,212.5z"/>
			<path fill="#C7C7C7" d="M181,212.5l0.7-0.7c0.2,0.3,0.4,0.6,0.7,0.8c0.3,0.2,0.6,0.3,0.9,0.3c0.4,0,0.7-0.1,0.9-0.3
				c0.2-0.2,0.4-0.5,0.4-0.9c0-0.3-0.1-0.7-0.3-0.9s-0.5-0.6-1-0.9c-0.5-0.3-0.9-0.6-1.2-0.8c-0.3-0.2-0.5-0.4-0.6-0.7
				c-0.2-0.3-0.2-0.6-0.2-0.9c0-0.6,0.2-1,0.6-1.4c0.4-0.4,0.9-0.6,1.5-0.6c0.8,0,1.5,0.4,2.1,1.2l-0.7,0.5c-0.5-0.6-1-0.9-1.5-0.9
				c-0.2,0-0.4,0-0.6,0.1c-0.2,0.1-0.3,0.2-0.4,0.4c-0.1,0.2-0.1,0.3-0.1,0.5c0,0.2,0.1,0.4,0.2,0.6c0.1,0.2,0.3,0.3,0.5,0.5
				s0.5,0.4,0.8,0.6c0.5,0.3,0.8,0.6,1.1,0.8c0.3,0.2,0.5,0.5,0.6,0.8c0.1,0.3,0.2,0.6,0.2,1c0,0.4-0.1,0.8-0.3,1.1
				c-0.2,0.3-0.5,0.6-0.8,0.8c-0.3,0.2-0.7,0.3-1.2,0.3C182.3,213.7,181.6,213.3,181,212.5z"/>
			<path fill="#C7C7C7" d="M192.9,213.4v-7.8h1.7c0.8,0,1.4,0.2,1.8,0.5c0.4,0.3,0.6,0.8,0.6,1.4c0,0.4-0.1,0.8-0.3,1.1
				s-0.5,0.5-0.9,0.7c1,0.3,1.5,1,1.5,2c0,0.8-0.2,1.3-0.7,1.7c-0.5,0.4-1.2,0.5-2.2,0.5H192.9z M193.8,209.1h0.7
				c0.5,0,0.9-0.1,1.2-0.3c0.3-0.2,0.4-0.6,0.4-1.1c0-0.5-0.1-0.8-0.4-1s-0.6-0.3-1.2-0.3h-0.8V209.1z M193.8,212.7h1.1
				c0.5,0,0.9-0.1,1.1-0.4c0.3-0.2,0.4-0.6,0.4-1c0-0.4-0.1-0.7-0.2-0.9c-0.1-0.2-0.3-0.4-0.6-0.5c-0.3-0.1-0.6-0.2-1.1-0.2h-0.7
				V212.7z"/>
			<path fill="#C7C7C7" d="M198.6,205.6h0.9v5c0,0.8,0.1,1.4,0.3,1.7c0.2,0.4,0.5,0.6,1,0.6c0.3,0,0.6-0.1,0.8-0.3s0.3-0.4,0.4-0.8
				c0.1-0.3,0.1-0.8,0.1-1.3v-5h0.8v5v0.5c0,0.3,0,0.5,0,0.8c0,0.2-0.1,0.4-0.2,0.6c-0.2,0.4-0.4,0.7-0.8,0.9s-0.7,0.3-1.1,0.3
				c-0.4,0-0.7-0.1-1.1-0.3s-0.6-0.4-0.8-0.7c-0.1-0.2-0.2-0.3-0.2-0.5c0-0.2-0.1-0.4-0.1-0.7s0-0.5,0-0.9V205.6z"/>
			<path fill="#C7C7C7" d="M204.3,212.5l0.7-0.7c0.2,0.3,0.4,0.6,0.7,0.8c0.3,0.2,0.6,0.3,0.9,0.3c0.4,0,0.7-0.1,0.9-0.3
				c0.2-0.2,0.4-0.5,0.4-0.9c0-0.3-0.1-0.7-0.3-0.9s-0.5-0.6-1-0.9c-0.5-0.3-0.9-0.6-1.2-0.8c-0.3-0.2-0.5-0.4-0.6-0.7
				c-0.2-0.3-0.2-0.6-0.2-0.9c0-0.6,0.2-1,0.6-1.4c0.4-0.4,0.9-0.6,1.5-0.6c0.8,0,1.5,0.4,2.1,1.2l-0.7,0.5c-0.5-0.6-1-0.9-1.5-0.9
				c-0.2,0-0.4,0-0.6,0.1c-0.2,0.1-0.3,0.2-0.4,0.4c-0.1,0.2-0.1,0.3-0.1,0.5c0,0.2,0.1,0.4,0.2,0.6c0.1,0.2,0.3,0.3,0.5,0.5
				s0.5,0.4,0.8,0.6c0.5,0.3,0.8,0.6,1.1,0.8c0.3,0.2,0.5,0.5,0.6,0.8c0.1,0.3,0.2,0.6,0.2,1c0,0.4-0.1,0.8-0.3,1.1
				c-0.2,0.3-0.5,0.6-0.8,0.8c-0.3,0.2-0.7,0.3-1.2,0.3C205.6,213.7,204.9,213.3,204.3,212.5z"/>
			<path fill="#C7C7C7" d="M216.8,212.7h1.3v-6.1l-1.3,0.3v-0.8l1.6-0.6h0.6v7.2h1.2v0.8h-3.4V212.7z"/>
		</g>
	</g>
</g>
<g id="RIGHT_1_">
	<g id="R_Gen_2_">
		
			<use xlink:href="#GenNotOperat"  width="72.3" height="44.9" id="XMLID_5_" x="-36.1" y="-22.4" transform="matrix(0.8455 0 0 -0.8455 309.2631 435.8867)" overflow="visible"/>
		<g>
			<path fill="#00FE00" d="M290.6,432.5h1.7v-8l-1.7,0.4v-1l2.1-0.8h0.8v9.3h1.6v1h-4.4V432.5z"/>
			<path fill="#00FE00" d="M298.2,432.5h1.7v-8l-1.7,0.4v-1l2.1-0.8h0.8v9.3h1.6v1h-4.4V432.5z"/>
			<path fill="#00FE00" d="M306.4,427.5c0.5-0.4,1.1-0.5,1.6-0.5c0.8,0,1.4,0.3,1.9,0.9s0.7,1.4,0.7,2.4c0,0.5-0.1,1-0.2,1.5
				c-0.1,0.4-0.3,0.8-0.6,1.1c-0.3,0.3-0.6,0.5-0.9,0.7s-0.8,0.2-1.2,0.2c-1.3,0-2.3-0.6-2.8-1.8l1-0.5c0.2,0.5,0.5,0.8,0.7,1
				c0.3,0.2,0.6,0.3,1,0.3c0.6,0,1-0.2,1.3-0.6c0.3-0.4,0.5-1,0.5-1.8c0-0.8-0.1-1.4-0.4-1.8c-0.3-0.4-0.7-0.6-1.2-0.6
				c-0.3,0-0.6,0.1-0.9,0.3s-0.5,0.5-0.8,0.8l-0.9-0.3l0.5-5.6h4.5l-0.1,1h-3.4L306.4,427.5z"/>
		</g>
		<g>
			<path fill="#C7C7C7" d="M317.9,425.4l1.2,5.5c0.1,0.4,0.1,0.8,0.2,1.2c0-0.1,0-0.3,0.1-0.4c0-0.2,0-0.3,0.1-0.4s0.1-0.3,0.1-0.4
				l1.2-5.5h0.9l-1.8,7.9h-1l-1.7-7.9H317.9z"/>
		</g>
		<g>
			<path fill="#00FE00" d="M298.2,447h1.7v-8l-1.7,0.4v-1l2.1-0.8h0.8v9.3h1.6v1h-4.4V447z"/>
			<path fill="#00FE00" d="M304.9,440.6c0-1,0.3-1.7,0.8-2.2c0.5-0.5,1.2-0.8,2.1-0.8c0.6,0,1.1,0.1,1.5,0.3c0.4,0.2,0.7,0.5,1,0.9
				c0.2,0.4,0.3,0.8,0.3,1.3s-0.1,0.9-0.3,1.3c-0.2,0.4-0.5,0.8-0.8,1.1c-0.3,0.3-0.9,0.9-1.7,1.7c-0.4,0.4-0.7,0.7-1,1
				c-0.2,0.2-0.4,0.5-0.5,0.8c-0.1,0.3-0.2,0.7-0.2,1.1h4.5v1h-5.6c0-0.2,0-0.5,0-0.7c0-0.6,0.1-1,0.2-1.5c0.2-0.4,0.4-0.8,0.7-1.2
				c0.3-0.4,0.7-0.8,1.1-1.3c0.5-0.5,1-1,1.3-1.3s0.6-0.7,0.8-1s0.3-0.6,0.3-1c0-0.3-0.1-0.5-0.2-0.8c-0.1-0.2-0.3-0.4-0.5-0.5
				c-0.2-0.1-0.5-0.2-0.8-0.2c-0.5,0-0.9,0.2-1.2,0.5c-0.3,0.3-0.5,0.8-0.5,1.5H304.9z"/>
		</g>
		<g>
			<path fill="#C7C7C7" d="M318.4,447.6h-0.9v-7.8h0.9v3.5l2.8-3.6l0.7,0.4l-2.6,3.4l2.9,4.1H321l-2.7-3.9V447.6z"/>
			<path fill="#C7C7C7" d="M323.8,439.8l1.2,5.5c0.1,0.4,0.1,0.8,0.2,1.2c0-0.1,0-0.3,0.1-0.4c0-0.2,0-0.3,0.1-0.4s0.1-0.3,0.1-0.4
				l1.2-5.5h0.9l-1.8,7.9h-1l-1.7-7.9H323.8z"/>
			<path fill="#C7C7C7" d="M329.2,447.6h-0.9l2-7.9h1.3l2,7.9h-0.9l-0.6-2.3h-2.4L329.2,447.6z M329.9,444.5h2
				c-0.3-1.4-0.7-2.9-1-4.4c-0.1,0.3-0.2,0.8-0.3,1.5S330.2,443.3,329.9,444.5z"/>
		</g>
	</g>
	<g id="AC_BUS_2_1_">
		
			<use xlink:href="#BUSPowered"  width="119.3" height="21" x="-59.7" y="-10.5" transform="matrix(0.8455 0 0 -0.8455 309.2631 344.0187)" overflow="visible"/>
		<g>
			<path fill="#C7C7C7" d="M287.1,347.2h-0.9l2-7.9h1.3l2,7.9h-0.9l-0.6-2.3h-2.4L287.1,347.2z M287.8,344.1h2
				c-0.3-1.4-0.7-2.9-1-4.4c-0.1,0.3-0.2,0.8-0.3,1.5S288.1,342.9,287.8,344.1z"/>
			<path fill="#C7C7C7" d="M296.1,341.2c-0.1-0.8-0.5-1.2-1.2-1.2c-1,0-1.6,1.1-1.6,3.3c0,0.8,0.1,1.4,0.2,1.9
				c0.1,0.5,0.3,0.9,0.5,1.1s0.6,0.4,0.9,0.4c0.3,0,0.6-0.1,0.8-0.3s0.3-0.5,0.5-0.9l0.7,0.2c-0.1,0.6-0.3,1-0.7,1.3
				c-0.3,0.3-0.8,0.4-1.3,0.4c-0.8,0-1.5-0.3-1.9-1c-0.4-0.7-0.6-1.7-0.6-3.1c0-0.9,0.1-1.6,0.3-2.3s0.5-1.1,0.8-1.4
				c0.4-0.3,0.8-0.5,1.3-0.5c0.3,0,0.6,0,0.8,0.1c0.3,0.1,0.5,0.2,0.6,0.4s0.3,0.4,0.4,0.6c0.1,0.2,0.2,0.5,0.2,0.8L296.1,341.2z"/>
			<path fill="#C7C7C7" d="M304.3,347.2v-7.8h1.7c0.8,0,1.4,0.2,1.8,0.5c0.4,0.3,0.6,0.8,0.6,1.4c0,0.4-0.1,0.8-0.3,1.1
				s-0.5,0.5-0.9,0.7c1,0.3,1.5,1,1.5,2c0,0.8-0.2,1.3-0.7,1.7c-0.5,0.4-1.2,0.5-2.2,0.5H304.3z M305.2,342.8h0.7
				c0.5,0,0.9-0.1,1.2-0.3c0.3-0.2,0.4-0.6,0.4-1.1c0-0.5-0.1-0.8-0.4-1s-0.6-0.3-1.2-0.3h-0.8V342.8z M305.2,346.5h1.1
				c0.5,0,0.9-0.1,1.1-0.4c0.3-0.2,0.4-0.6,0.4-1c0-0.4-0.1-0.7-0.2-0.9c-0.1-0.2-0.3-0.4-0.6-0.5c-0.3-0.1-0.6-0.2-1.1-0.2h-0.7
				V346.5z"/>
			<path fill="#C7C7C7" d="M310,339.4h0.9v5c0,0.8,0.1,1.4,0.3,1.7c0.2,0.4,0.5,0.6,1,0.6c0.3,0,0.6-0.1,0.8-0.3s0.3-0.4,0.4-0.8
				c0.1-0.3,0.1-0.8,0.1-1.3v-5h0.8v5v0.5c0,0.3,0,0.5,0,0.8c0,0.2-0.1,0.4-0.2,0.6c-0.2,0.4-0.4,0.7-0.8,0.9s-0.7,0.3-1.1,0.3
				c-0.4,0-0.7-0.1-1.1-0.3s-0.6-0.4-0.8-0.7c-0.1-0.2-0.2-0.3-0.2-0.5c0-0.2-0.1-0.4-0.1-0.7s0-0.5,0-0.9V339.4z"/>
			<path fill="#C7C7C7" d="M315.7,346.3l0.7-0.7c0.2,0.3,0.4,0.6,0.7,0.8c0.3,0.2,0.6,0.3,0.9,0.3c0.4,0,0.7-0.1,0.9-0.3
				c0.2-0.2,0.4-0.5,0.4-0.9c0-0.3-0.1-0.7-0.3-0.9s-0.5-0.6-1-0.9c-0.5-0.3-0.9-0.6-1.2-0.8c-0.3-0.2-0.5-0.4-0.6-0.7
				c-0.2-0.3-0.2-0.6-0.2-0.9c0-0.6,0.2-1,0.6-1.4c0.4-0.4,0.9-0.6,1.5-0.6c0.8,0,1.5,0.4,2.1,1.2l-0.7,0.5c-0.5-0.6-1-0.9-1.5-0.9
				c-0.2,0-0.4,0-0.6,0.1c-0.2,0.1-0.3,0.2-0.4,0.4c-0.1,0.2-0.1,0.3-0.1,0.5c0,0.2,0.1,0.4,0.2,0.6c0.1,0.2,0.3,0.3,0.5,0.5
				s0.5,0.4,0.8,0.6c0.5,0.3,0.8,0.6,1.1,0.8c0.3,0.2,0.5,0.5,0.6,0.8c0.1,0.3,0.2,0.6,0.2,1c0,0.4-0.1,0.8-0.3,1.1
				c-0.2,0.3-0.5,0.6-0.8,0.8c-0.3,0.2-0.7,0.3-1.2,0.3C317,347.4,316.3,347.1,315.7,346.3z"/>
			<path fill="#C7C7C7" d="M327.5,341.5c0-0.7,0.2-1.3,0.6-1.7c0.4-0.4,0.9-0.6,1.6-0.6c0.4,0,0.8,0.1,1.1,0.2
				c0.3,0.2,0.6,0.4,0.7,0.7c0.2,0.3,0.3,0.6,0.3,1c0,0.4-0.1,0.7-0.3,1s-0.4,0.6-0.6,0.8c-0.2,0.2-0.7,0.7-1.3,1.3
				c-0.3,0.3-0.6,0.6-0.7,0.7c-0.2,0.2-0.3,0.4-0.4,0.6s-0.2,0.5-0.2,0.8h3.4v0.8h-4.3c0-0.2,0-0.4,0-0.5c0-0.4,0.1-0.8,0.2-1.1
				s0.3-0.6,0.5-0.9c0.2-0.3,0.5-0.6,0.9-1c0.4-0.4,0.8-0.7,1-1s0.5-0.5,0.6-0.8s0.2-0.5,0.2-0.8c0-0.2-0.1-0.4-0.2-0.6
				c-0.1-0.2-0.2-0.3-0.4-0.4c-0.2-0.1-0.4-0.1-0.6-0.1c-0.4,0-0.7,0.1-0.9,0.4c-0.2,0.3-0.4,0.6-0.4,1.1H327.5z"/>
		</g>
	</g>
	<g id="TRU-2_1_">
		
			<use xlink:href="#TRUOperat"  width="79.8" height="61" x="-39.9" y="-30.5" transform="matrix(0.8455 0 0 -0.8455 309.2631 296.2881)" overflow="visible"/>
		<g>
			<path fill="#00FE00" d="M296.7,292.5c0-1,0.3-1.7,0.8-2.2c0.5-0.5,1.2-0.8,2.1-0.8c0.6,0,1.1,0.1,1.5,0.3c0.4,0.2,0.7,0.5,1,0.9
				c0.2,0.4,0.3,0.8,0.3,1.3s-0.1,0.9-0.3,1.3c-0.2,0.4-0.5,0.8-0.8,1.1c-0.3,0.3-0.9,0.9-1.7,1.7c-0.4,0.4-0.7,0.7-1,1
				c-0.2,0.2-0.4,0.5-0.5,0.8c-0.1,0.3-0.2,0.7-0.2,1.1h4.5v1h-5.6c0-0.2,0-0.5,0-0.7c0-0.6,0.1-1,0.2-1.5c0.2-0.4,0.4-0.8,0.7-1.2
				c0.3-0.4,0.7-0.8,1.1-1.3c0.5-0.5,1-1,1.3-1.3s0.6-0.7,0.8-1s0.3-0.6,0.3-1c0-0.3-0.1-0.5-0.2-0.8c-0.1-0.2-0.3-0.4-0.5-0.5
				c-0.2-0.1-0.5-0.2-0.8-0.2c-0.5,0-0.9,0.2-1.2,0.5c-0.3,0.3-0.5,0.8-0.5,1.5H296.7z"/>
			<path fill="#00FE00" d="M308.6,294.5c0.4,0.2,0.7,0.4,1,0.7c0.3,0.3,0.5,0.6,0.6,1c0.1,0.4,0.2,0.8,0.2,1.2
				c0,0.6-0.1,1.1-0.4,1.5c-0.3,0.4-0.7,0.8-1.2,1c-0.5,0.2-1.1,0.4-1.7,0.4c-0.6,0-1.2-0.1-1.7-0.4c-0.5-0.2-0.9-0.6-1.2-1
				s-0.4-1-0.4-1.5c0-0.7,0.2-1.2,0.5-1.7c0.3-0.5,0.8-0.9,1.4-1.1c-0.5-0.3-0.8-0.7-1.1-1c-0.2-0.4-0.3-0.8-0.3-1.2
				c0-0.5,0.1-0.9,0.4-1.4s0.6-0.7,1-1c0.4-0.2,0.9-0.4,1.5-0.4c0.4,0,0.8,0.1,1.1,0.2c0.4,0.1,0.7,0.3,0.9,0.6
				c0.3,0.2,0.5,0.5,0.6,0.9c0.1,0.3,0.2,0.7,0.2,1.1C310,293.1,309.6,293.9,308.6,294.5z M309.3,297.2c0-0.4-0.1-0.8-0.3-1.1
				s-0.4-0.6-0.8-0.8c-0.3-0.2-0.7-0.3-1.1-0.3c-0.6,0-1.1,0.2-1.5,0.6s-0.6,0.9-0.6,1.5c0,0.6,0.2,1.1,0.6,1.5s0.9,0.6,1.5,0.6
				c0.4,0,0.8-0.1,1.1-0.3c0.3-0.2,0.6-0.4,0.7-0.7S309.3,297.6,309.3,297.2z M307.2,294.2c0.3,0,0.6-0.1,0.8-0.2
				c0.3-0.2,0.5-0.4,0.6-0.7c0.1-0.3,0.2-0.6,0.2-1c0-0.5-0.1-1-0.4-1.3c-0.3-0.3-0.7-0.5-1.2-0.5c-0.5,0-0.9,0.2-1.2,0.5
				c-0.3,0.3-0.4,0.7-0.4,1.3c0,0.6,0.2,1,0.5,1.4C306.3,294,306.7,294.2,307.2,294.2z"/>
		</g>
		<g>
			<path fill="#C7C7C7" d="M318.1,291.1l1.2,5.5c0.1,0.4,0.1,0.8,0.2,1.2c0-0.1,0-0.3,0.1-0.4c0-0.2,0-0.3,0.1-0.4s0.1-0.3,0.1-0.4
				l1.2-5.5h0.9l-1.8,7.9h-1l-1.7-7.9H318.1z"/>
		</g>
		<g>
			<path fill="#00FE00" d="M296.7,305.1c0.2-0.3,0.4-0.6,0.7-0.8c0.3-0.2,0.6-0.4,0.9-0.5c0.3-0.1,0.7-0.2,1.1-0.2
				c0.5,0,1,0.1,1.4,0.3s0.7,0.5,1,0.9c0.2,0.4,0.3,0.8,0.3,1.3c0,0.5-0.1,0.9-0.4,1.3s-0.6,0.7-1.2,1c1.2,0.5,1.8,1.4,1.8,2.8
				c0,0.6-0.1,1.2-0.4,1.7c-0.3,0.5-0.6,0.9-1.1,1.1c-0.5,0.3-1,0.4-1.5,0.4c-1.3,0-2.3-0.6-2.8-1.8l1-0.5c0.2,0.5,0.5,0.8,0.7,1
				c0.3,0.2,0.6,0.3,1,0.3c0.6,0,1-0.2,1.3-0.6c0.3-0.4,0.5-0.9,0.5-1.6c0-1.4-0.7-2.1-2-2.1c-0.1,0-0.3,0-0.5,0V308h0.1
				c1.5,0,2.3-0.6,2.3-1.8c0-0.5-0.1-0.9-0.4-1.2s-0.7-0.4-1.2-0.4c-0.3,0-0.6,0.1-0.9,0.2c-0.3,0.2-0.5,0.4-0.8,0.8L296.7,305.1z"
				/>
			<path fill="#00FE00" d="M305.8,308.1c0.5-0.4,1.1-0.5,1.6-0.5c0.8,0,1.4,0.3,1.9,0.9s0.7,1.4,0.7,2.4c0,0.5-0.1,1-0.2,1.5
				c-0.1,0.4-0.3,0.8-0.6,1.1c-0.3,0.3-0.6,0.5-0.9,0.7s-0.8,0.2-1.2,0.2c-1.3,0-2.3-0.6-2.8-1.8l1-0.5c0.2,0.5,0.5,0.8,0.7,1
				c0.3,0.2,0.6,0.3,1,0.3c0.6,0,1-0.2,1.3-0.6c0.3-0.4,0.5-1,0.5-1.8c0-0.8-0.1-1.4-0.4-1.8c-0.3-0.4-0.7-0.6-1.2-0.6
				c-0.3,0-0.6,0.1-0.9,0.3s-0.5,0.5-0.8,0.8l-0.9-0.3l0.5-5.6h4.5l-0.1,1h-3.4L305.8,308.1z"/>
		</g>
		<g>
			<path fill="#C7C7C7" d="M317.7,313.6h-0.9l2-7.9h1.3l2,7.9h-0.9l-0.6-2.3h-2.4L317.7,313.6z M318.4,310.5h2
				c-0.3-1.4-0.7-2.9-1-4.4c-0.1,0.3-0.2,0.8-0.3,1.5S318.7,309.2,318.4,310.5z"/>
		</g>
		<g>
			<path fill="#C7C7C7" d="M296.8,285H296v-7H294v-0.8h4.8v0.8h-1.9V285z"/>
			<path fill="#C7C7C7" d="M300.3,285v-7.8h1.7c0.8,0,1.4,0.2,1.8,0.5s0.6,0.9,0.6,1.7c0,0.5-0.1,0.9-0.3,1.3
				c-0.2,0.4-0.6,0.7-1,0.9l1.9,3.4h-1l-1.7-3.2h-1.1v3.2H300.3z M301.2,281.1h0.9c0.5,0,0.8-0.2,1.1-0.5s0.4-0.7,0.4-1.3
				c0-1-0.5-1.5-1.5-1.5h-0.9V281.1z"/>
			<path fill="#C7C7C7" d="M305.9,277.1h0.9v5c0,0.8,0.1,1.4,0.3,1.7c0.2,0.4,0.5,0.6,1,0.6c0.3,0,0.6-0.1,0.8-0.3s0.3-0.4,0.4-0.8
				c0.1-0.3,0.1-0.8,0.1-1.3v-5h0.8v5v0.5c0,0.3,0,0.5,0,0.8c0,0.2-0.1,0.4-0.2,0.6c-0.2,0.4-0.4,0.7-0.8,0.9s-0.7,0.3-1.1,0.3
				c-0.4,0-0.7-0.1-1.1-0.3s-0.6-0.4-0.8-0.7c-0.1-0.2-0.2-0.3-0.2-0.5c0-0.2-0.1-0.4-0.1-0.7s0-0.5,0-0.9V277.1z"/>
		</g>
		<g>
			<path fill="#C7C7C7" d="M318.8,279.2c0-0.7,0.2-1.3,0.6-1.7c0.4-0.4,0.9-0.6,1.6-0.6c0.4,0,0.8,0.1,1.1,0.2
				c0.3,0.2,0.6,0.4,0.7,0.7c0.2,0.3,0.3,0.6,0.3,1c0,0.4-0.1,0.7-0.3,1s-0.4,0.6-0.6,0.8c-0.2,0.2-0.7,0.7-1.3,1.3
				c-0.3,0.3-0.6,0.6-0.7,0.7c-0.2,0.2-0.3,0.4-0.4,0.6s-0.2,0.5-0.2,0.8h3.4v0.8h-4.3c0-0.2,0-0.4,0-0.5c0-0.4,0.1-0.8,0.2-1.1
				s0.3-0.6,0.5-0.9c0.2-0.3,0.5-0.6,0.9-1c0.4-0.4,0.8-0.7,1-1s0.5-0.5,0.6-0.8s0.2-0.5,0.2-0.8c0-0.2-0.1-0.4-0.2-0.6
				c-0.1-0.2-0.2-0.3-0.4-0.4c-0.2-0.1-0.4-0.1-0.6-0.1c-0.4,0-0.7,0.1-0.9,0.4c-0.2,0.3-0.4,0.6-0.4,1.1H318.8z"/>
		</g>
	</g>
	<g id="DC_BUS_2_1_">
		
			<use xlink:href="#BUSPowered"  width="119.3" height="21" x="-59.7" y="-10.5" transform="matrix(0.8455 0 0 -0.8455 309.2631 209.8116)" overflow="visible"/>
		<g>
			<path fill="#C7C7C7" d="M275.1,205.2h1.8c0.5,0,0.9,0.1,1.2,0.2c0.3,0.2,0.6,0.4,0.8,0.7c0.2,0.3,0.4,0.7,0.5,1.2
				c0.1,0.5,0.2,1.1,0.2,1.8c0,0.7-0.1,1.3-0.2,1.8c-0.1,0.5-0.3,0.9-0.5,1.2s-0.5,0.5-0.8,0.7c-0.3,0.2-0.8,0.2-1.2,0.2h-1.8V205.2
				z M276,206v6.3h0.8c0.4,0,0.7-0.1,0.9-0.2c0.2-0.1,0.4-0.3,0.6-0.5s0.2-0.6,0.3-1s0.1-0.9,0.1-1.5c0-0.8-0.1-1.4-0.2-1.8
				c-0.1-0.5-0.3-0.8-0.6-1s-0.6-0.3-1.1-0.3H276z"/>
			<path fill="#C7C7C7" d="M284.4,207c-0.1-0.8-0.5-1.2-1.2-1.2c-1,0-1.6,1.1-1.6,3.3c0,0.8,0.1,1.4,0.2,1.9
				c0.1,0.5,0.3,0.9,0.5,1.1s0.6,0.4,0.9,0.4c0.3,0,0.6-0.1,0.8-0.3s0.3-0.5,0.5-0.9l0.7,0.2c-0.1,0.6-0.3,1-0.7,1.3
				c-0.3,0.3-0.8,0.4-1.3,0.4c-0.8,0-1.5-0.3-1.9-1c-0.4-0.7-0.6-1.7-0.6-3.1c0-0.9,0.1-1.6,0.3-2.3s0.5-1.1,0.8-1.4
				c0.4-0.3,0.8-0.5,1.3-0.5c0.3,0,0.6,0,0.8,0.1c0.3,0.1,0.5,0.2,0.6,0.4s0.3,0.4,0.4,0.6c0.1,0.2,0.2,0.5,0.2,0.8L284.4,207z"/>
			<path fill="#C7C7C7" d="M292.9,213v-7.8h4v0.8h-3.1v2.6h2.3v0.7h-2.3v2.9h3.2v0.8H292.9z"/>
			<path fill="#C7C7C7" d="M298.2,212.1l0.7-0.7c0.2,0.3,0.4,0.6,0.7,0.8c0.3,0.2,0.6,0.3,0.9,0.3c0.4,0,0.7-0.1,0.9-0.3
				c0.2-0.2,0.4-0.5,0.4-0.9c0-0.3-0.1-0.7-0.3-0.9s-0.5-0.6-1-0.9c-0.5-0.3-0.9-0.6-1.2-0.8c-0.3-0.2-0.5-0.4-0.6-0.7
				c-0.2-0.3-0.2-0.6-0.2-0.9c0-0.6,0.2-1,0.6-1.4c0.4-0.4,0.9-0.6,1.5-0.6c0.8,0,1.5,0.4,2.1,1.2l-0.7,0.5c-0.5-0.6-1-0.9-1.5-0.9
				c-0.2,0-0.4,0-0.6,0.1c-0.2,0.1-0.3,0.2-0.4,0.4c-0.1,0.2-0.1,0.3-0.1,0.5c0,0.2,0.1,0.4,0.2,0.6c0.1,0.2,0.3,0.3,0.5,0.5
				s0.5,0.4,0.8,0.6c0.5,0.3,0.8,0.6,1.1,0.8c0.3,0.2,0.5,0.5,0.6,0.8c0.1,0.3,0.2,0.6,0.2,1c0,0.4-0.1,0.8-0.3,1.1
				c-0.2,0.3-0.5,0.6-0.8,0.8c-0.3,0.2-0.7,0.3-1.2,0.3C299.5,213.2,298.8,212.8,298.2,212.1z"/>
			<path fill="#C7C7C7" d="M304,212.1l0.7-0.7c0.2,0.3,0.4,0.6,0.7,0.8c0.3,0.2,0.6,0.3,0.9,0.3c0.4,0,0.7-0.1,0.9-0.3
				c0.2-0.2,0.4-0.5,0.4-0.9c0-0.3-0.1-0.7-0.3-0.9s-0.5-0.6-1-0.9c-0.5-0.3-0.9-0.6-1.2-0.8c-0.3-0.2-0.5-0.4-0.6-0.7
				c-0.2-0.3-0.2-0.6-0.2-0.9c0-0.6,0.2-1,0.6-1.4c0.4-0.4,0.9-0.6,1.5-0.6c0.8,0,1.5,0.4,2.1,1.2l-0.7,0.5c-0.5-0.6-1-0.9-1.5-0.9
				c-0.2,0-0.4,0-0.6,0.1c-0.2,0.1-0.3,0.2-0.4,0.4c-0.1,0.2-0.1,0.3-0.1,0.5c0,0.2,0.1,0.4,0.2,0.6c0.1,0.2,0.3,0.3,0.5,0.5
				s0.5,0.4,0.8,0.6c0.5,0.3,0.8,0.6,1.1,0.8c0.3,0.2,0.5,0.5,0.6,0.8c0.1,0.3,0.2,0.6,0.2,1c0,0.4-0.1,0.8-0.3,1.1
				c-0.2,0.3-0.5,0.6-0.8,0.8c-0.3,0.2-0.7,0.3-1.2,0.3C305.4,213.2,304.6,212.8,304,212.1z"/>
			<path fill="#C7C7C7" d="M316,213v-7.8h1.7c0.8,0,1.4,0.2,1.8,0.5c0.4,0.3,0.6,0.8,0.6,1.4c0,0.4-0.1,0.8-0.3,1.1
				s-0.5,0.5-0.9,0.7c1,0.3,1.5,1,1.5,2c0,0.8-0.2,1.3-0.7,1.7c-0.5,0.4-1.2,0.5-2.2,0.5H316z M316.9,208.6h0.7
				c0.5,0,0.9-0.1,1.2-0.3c0.3-0.2,0.4-0.6,0.4-1.1c0-0.5-0.1-0.8-0.4-1s-0.6-0.3-1.2-0.3h-0.8V208.6z M316.9,212.3h1.1
				c0.5,0,0.9-0.1,1.1-0.4c0.3-0.2,0.4-0.6,0.4-1c0-0.4-0.1-0.7-0.2-0.9c-0.1-0.2-0.3-0.4-0.6-0.5c-0.3-0.1-0.6-0.2-1.1-0.2h-0.7
				V212.3z"/>
			<path fill="#C7C7C7" d="M321.7,205.2h0.9v5c0,0.8,0.1,1.4,0.3,1.7c0.2,0.4,0.5,0.6,1,0.6c0.3,0,0.6-0.1,0.8-0.3s0.3-0.4,0.4-0.8
				c0.1-0.3,0.1-0.8,0.1-1.3v-5h0.8v5v0.5c0,0.3,0,0.5,0,0.8c0,0.2-0.1,0.4-0.2,0.6c-0.2,0.4-0.4,0.7-0.8,0.9s-0.7,0.3-1.1,0.3
				c-0.4,0-0.7-0.1-1.1-0.3s-0.6-0.4-0.8-0.7c-0.1-0.2-0.2-0.3-0.2-0.5c0-0.2-0.1-0.4-0.1-0.7s0-0.5,0-0.9V205.2z"/>
			<path fill="#C7C7C7" d="M327.4,212.1l0.7-0.7c0.2,0.3,0.4,0.6,0.7,0.8c0.3,0.2,0.6,0.3,0.9,0.3c0.4,0,0.7-0.1,0.9-0.3
				c0.2-0.2,0.4-0.5,0.4-0.9c0-0.3-0.1-0.7-0.3-0.9s-0.5-0.6-1-0.9c-0.5-0.3-0.9-0.6-1.2-0.8c-0.3-0.2-0.5-0.4-0.6-0.7
				c-0.2-0.3-0.2-0.6-0.2-0.9c0-0.6,0.2-1,0.6-1.4c0.4-0.4,0.9-0.6,1.5-0.6c0.8,0,1.5,0.4,2.1,1.2l-0.7,0.5c-0.5-0.6-1-0.9-1.5-0.9
				c-0.2,0-0.4,0-0.6,0.1c-0.2,0.1-0.3,0.2-0.4,0.4c-0.1,0.2-0.1,0.3-0.1,0.5c0,0.2,0.1,0.4,0.2,0.6c0.1,0.2,0.3,0.3,0.5,0.5
				s0.5,0.4,0.8,0.6c0.5,0.3,0.8,0.6,1.1,0.8c0.3,0.2,0.5,0.5,0.6,0.8c0.1,0.3,0.2,0.6,0.2,1c0,0.4-0.1,0.8-0.3,1.1
				c-0.2,0.3-0.5,0.6-0.8,0.8c-0.3,0.2-0.7,0.3-1.2,0.3C328.7,213.2,328,212.8,327.4,212.1z"/>
			<path fill="#C7C7C7" d="M339.1,207.3c0-0.7,0.2-1.3,0.6-1.7c0.4-0.4,0.9-0.6,1.6-0.6c0.4,0,0.8,0.1,1.1,0.2
				c0.3,0.2,0.6,0.4,0.7,0.7c0.2,0.3,0.3,0.6,0.3,1c0,0.4-0.1,0.7-0.3,1s-0.4,0.6-0.6,0.8c-0.2,0.2-0.7,0.7-1.3,1.3
				c-0.3,0.3-0.6,0.6-0.7,0.7c-0.2,0.2-0.3,0.4-0.4,0.6s-0.2,0.5-0.2,0.8h3.4v0.8h-4.3c0-0.2,0-0.4,0-0.5c0-0.4,0.1-0.8,0.2-1.1
				s0.3-0.6,0.5-0.9c0.2-0.3,0.5-0.6,0.9-1c0.4-0.4,0.8-0.7,1-1s0.5-0.5,0.6-0.8s0.2-0.5,0.2-0.8c0-0.2-0.1-0.4-0.2-0.6
				c-0.1-0.2-0.2-0.3-0.4-0.4c-0.2-0.1-0.4-0.1-0.6-0.1c-0.4,0-0.7,0.1-0.9,0.4c-0.2,0.3-0.4,0.6-0.4,1.1H339.1z"/>
		</g>
	</g>
	<g id="DC_ESS_BUS_2_1_">
		
			<use xlink:href="#BUSPowered"  width="119.3" height="21" x="-59.7" y="-10.5" transform="matrix(0.8455 0 0 -0.8455 309.2631 244.1387)" overflow="visible"/>
		<g>
			<path fill="#C7C7C7" d="M286.7,239.5h1.8c0.5,0,0.9,0.1,1.2,0.2c0.3,0.2,0.6,0.4,0.8,0.7s0.4,0.7,0.5,1.2
				c0.1,0.5,0.2,1.1,0.2,1.8c0,0.7-0.1,1.3-0.2,1.8c-0.1,0.5-0.3,0.9-0.5,1.2s-0.5,0.5-0.8,0.7c-0.3,0.2-0.8,0.2-1.2,0.2h-1.8V239.5
				z M287.6,240.3v6.3h0.8c0.4,0,0.7-0.1,0.9-0.2c0.2-0.1,0.4-0.3,0.6-0.5c0.1-0.2,0.2-0.6,0.3-1c0.1-0.4,0.1-0.9,0.1-1.5
				c0-0.8-0.1-1.4-0.2-1.8c-0.1-0.5-0.3-0.8-0.6-1s-0.6-0.3-1.1-0.3H287.6z"/>
			<path fill="#C7C7C7" d="M296.1,241.3c-0.1-0.8-0.5-1.2-1.2-1.2c-1,0-1.6,1.1-1.6,3.3c0,0.8,0.1,1.4,0.2,1.9
				c0.1,0.5,0.3,0.9,0.5,1.1s0.6,0.4,0.9,0.4c0.3,0,0.6-0.1,0.8-0.3s0.3-0.5,0.5-0.9l0.7,0.2c-0.1,0.6-0.3,1-0.7,1.3
				c-0.3,0.3-0.8,0.4-1.3,0.4c-0.8,0-1.5-0.3-1.9-1s-0.6-1.7-0.6-3.1c0-0.9,0.1-1.6,0.3-2.3s0.5-1.1,0.8-1.4s0.8-0.5,1.3-0.5
				c0.3,0,0.6,0,0.8,0.1c0.3,0.1,0.5,0.2,0.6,0.4c0.2,0.2,0.3,0.4,0.4,0.6c0.1,0.2,0.2,0.5,0.2,0.8L296.1,241.3z"/>
			<path fill="#C7C7C7" d="M304.3,247.3v-7.8h1.7c0.8,0,1.4,0.2,1.8,0.5c0.4,0.3,0.6,0.8,0.6,1.4c0,0.4-0.1,0.8-0.3,1.1
				c-0.2,0.3-0.5,0.5-0.9,0.7c1,0.3,1.5,1,1.5,2c0,0.8-0.2,1.3-0.7,1.7c-0.5,0.4-1.2,0.5-2.2,0.5H304.3z M305.2,242.9h0.7
				c0.5,0,0.9-0.1,1.2-0.3c0.3-0.2,0.4-0.6,0.4-1.1c0-0.5-0.1-0.8-0.4-1c-0.2-0.2-0.6-0.3-1.2-0.3h-0.8V242.9z M305.2,246.6h1.1
				c0.5,0,0.9-0.1,1.1-0.4c0.3-0.2,0.4-0.6,0.4-1c0-0.4-0.1-0.7-0.2-0.9c-0.1-0.2-0.3-0.4-0.6-0.5c-0.3-0.1-0.6-0.2-1.1-0.2h-0.7
				V246.6z"/>
			<path fill="#C7C7C7" d="M310,239.5h0.9v5c0,0.8,0.1,1.4,0.3,1.7c0.2,0.4,0.5,0.6,1,0.6c0.3,0,0.6-0.1,0.8-0.3
				c0.2-0.2,0.3-0.4,0.4-0.8c0.1-0.3,0.1-0.8,0.1-1.3v-5h0.8v5v0.5c0,0.3,0,0.5,0,0.8c0,0.2-0.1,0.4-0.2,0.6
				c-0.2,0.4-0.4,0.7-0.8,0.9c-0.3,0.2-0.7,0.3-1.1,0.3c-0.4,0-0.7-0.1-1.1-0.3s-0.6-0.4-0.8-0.7c-0.1-0.2-0.2-0.3-0.2-0.5
				c0-0.2-0.1-0.4-0.1-0.7s0-0.5,0-0.9V239.5z"/>
			<path fill="#C7C7C7" d="M315.7,246.4l0.7-0.7c0.2,0.3,0.4,0.6,0.7,0.8c0.3,0.2,0.6,0.3,0.9,0.3c0.4,0,0.7-0.1,0.9-0.3
				c0.2-0.2,0.4-0.5,0.4-0.9c0-0.3-0.1-0.7-0.3-0.9c-0.2-0.3-0.5-0.6-1-0.9c-0.5-0.3-0.9-0.6-1.2-0.8s-0.5-0.4-0.6-0.7
				c-0.2-0.3-0.2-0.6-0.2-0.9c0-0.6,0.2-1,0.6-1.4c0.4-0.4,0.9-0.6,1.5-0.6c0.8,0,1.5,0.4,2.1,1.2l-0.7,0.5c-0.5-0.6-1-0.9-1.5-0.9
				c-0.2,0-0.4,0-0.6,0.1c-0.2,0.1-0.3,0.2-0.4,0.4c-0.1,0.2-0.1,0.3-0.1,0.5c0,0.2,0.1,0.4,0.2,0.6c0.1,0.2,0.3,0.3,0.5,0.5
				s0.5,0.4,0.8,0.6c0.5,0.3,0.8,0.6,1.1,0.8c0.3,0.2,0.5,0.5,0.6,0.8c0.1,0.3,0.2,0.6,0.2,1c0,0.4-0.1,0.8-0.3,1.1
				c-0.2,0.3-0.5,0.6-0.8,0.8c-0.3,0.2-0.7,0.3-1.2,0.3C317,247.5,316.3,247.1,315.7,246.4z"/>
			<path fill="#C7C7C7" d="M327.4,241.6c0-0.7,0.2-1.3,0.6-1.7c0.4-0.4,0.9-0.6,1.6-0.6c0.4,0,0.8,0.1,1.1,0.2s0.6,0.4,0.7,0.7
				c0.2,0.3,0.3,0.6,0.3,1s-0.1,0.7-0.3,1c-0.2,0.3-0.4,0.6-0.6,0.8c-0.2,0.2-0.7,0.7-1.3,1.3c-0.3,0.3-0.6,0.6-0.7,0.7
				c-0.2,0.2-0.3,0.4-0.4,0.6s-0.2,0.5-0.2,0.8h3.4v0.8h-4.3c0-0.2,0-0.4,0-0.5c0-0.4,0.1-0.8,0.2-1.1s0.3-0.6,0.5-0.9
				c0.2-0.3,0.5-0.6,0.9-1c0.4-0.4,0.8-0.7,1-1s0.5-0.5,0.6-0.8c0.1-0.2,0.2-0.5,0.2-0.8c0-0.2-0.1-0.4-0.2-0.6
				c-0.1-0.2-0.2-0.3-0.4-0.4c-0.2-0.1-0.4-0.1-0.6-0.1c-0.4,0-0.7,0.1-0.9,0.4c-0.2,0.3-0.4,0.6-0.4,1.1H327.4z"/>
		</g>
	</g>
	<g id="APU_BATT_BUS_1_">
		
			<use xlink:href="#BUSPowered"  width="119.3" height="21" id="XMLID_4_" x="-59.7" y="-10.5" transform="matrix(0.8455 0 0 -0.8455 309.2631 178.1885)" overflow="visible"/>
		<g>
			<path fill="#C7C7C7" d="M275.4,181.4h-0.9l2-7.9h1.3l2,7.9h-0.9l-0.6-2.3H276L275.4,181.4z M276.2,178.3h2
				c-0.3-1.4-0.7-2.9-1-4.4c-0.1,0.3-0.2,0.8-0.3,1.5C276.7,176.1,276.4,177.1,276.2,178.3z"/>
			<path fill="#C7C7C7" d="M281.2,181.4v-7.8h1.7c0.8,0,1.4,0.2,1.8,0.6s0.6,1,0.6,1.8c0,0.5-0.1,1-0.3,1.3s-0.5,0.6-0.9,0.8
				s-0.9,0.3-1.5,0.3h-0.6v3H281.2z M282.1,177.7h0.9c0.5,0,0.9-0.1,1.1-0.4c0.3-0.3,0.4-0.7,0.4-1.3c0-1.1-0.5-1.6-1.5-1.6h-0.9
				V177.7z"/>
			<path fill="#C7C7C7" d="M286.7,173.6h0.9v5c0,0.8,0.1,1.4,0.3,1.7c0.2,0.4,0.5,0.6,1,0.6c0.3,0,0.6-0.1,0.8-0.3s0.3-0.4,0.4-0.8
				c0.1-0.3,0.1-0.8,0.1-1.3v-5h0.8v5v0.5c0,0.3,0,0.5,0,0.8s-0.1,0.4-0.2,0.6c-0.2,0.4-0.4,0.7-0.8,0.9c-0.3,0.2-0.7,0.3-1.1,0.3
				c-0.4,0-0.7-0.1-1.1-0.3c-0.3-0.2-0.6-0.4-0.8-0.7c-0.1-0.2-0.2-0.3-0.2-0.5c0-0.2-0.1-0.4-0.1-0.7c0-0.2,0-0.5,0-0.9V173.6z"/>
			<path fill="#C7C7C7" d="M298.5,181.4v-7.8h1.7c0.8,0,1.4,0.2,1.8,0.5c0.4,0.3,0.6,0.8,0.6,1.4c0,0.4-0.1,0.8-0.3,1.1
				c-0.2,0.3-0.5,0.5-0.9,0.7c1,0.3,1.5,1,1.5,2c0,0.8-0.2,1.3-0.7,1.7c-0.5,0.4-1.2,0.5-2.2,0.5H298.5z M299.4,177h0.7
				c0.5,0,0.9-0.1,1.2-0.3c0.3-0.2,0.4-0.6,0.4-1.1c0-0.5-0.1-0.8-0.4-1s-0.6-0.3-1.2-0.3h-0.8V177z M299.4,180.6h1.1
				c0.5,0,0.9-0.1,1.1-0.4s0.4-0.6,0.4-1c0-0.4-0.1-0.7-0.2-0.9s-0.3-0.4-0.6-0.5c-0.3-0.1-0.6-0.2-1.1-0.2h-0.7V180.6z"/>
			<path fill="#C7C7C7" d="M304.6,181.4h-0.9l2-7.9h1.3l2,7.9h-0.9l-0.6-2.3h-2.4L304.6,181.4z M305.3,178.3h2
				c-0.3-1.4-0.7-2.9-1-4.4c-0.1,0.3-0.2,0.8-0.3,1.5C305.8,176.1,305.6,177.1,305.3,178.3z"/>
			<path fill="#C7C7C7" d="M312.6,181.4h-0.9v-7h-1.9v-0.8h4.8v0.8h-1.9V181.4z"/>
			<path fill="#C7C7C7" d="M318.5,181.4h-0.9v-7h-1.9v-0.8h4.8v0.8h-1.9V181.4z"/>
			<path fill="#C7C7C7" d="M327.7,181.4v-7.8h1.7c0.8,0,1.4,0.2,1.8,0.5c0.4,0.3,0.6,0.8,0.6,1.4c0,0.4-0.1,0.8-0.3,1.1
				c-0.2,0.3-0.5,0.5-0.9,0.7c1,0.3,1.5,1,1.5,2c0,0.8-0.2,1.3-0.7,1.7c-0.5,0.4-1.2,0.5-2.2,0.5H327.7z M328.5,177h0.7
				c0.5,0,0.9-0.1,1.2-0.3c0.3-0.2,0.4-0.6,0.4-1.1c0-0.5-0.1-0.8-0.4-1s-0.6-0.3-1.2-0.3h-0.8V177z M328.5,180.6h1.1
				c0.5,0,0.9-0.1,1.1-0.4s0.4-0.6,0.4-1c0-0.4-0.1-0.7-0.2-0.9s-0.3-0.4-0.6-0.5c-0.3-0.1-0.6-0.2-1.1-0.2h-0.7V180.6z"/>
			<path fill="#C7C7C7" d="M333.4,173.6h0.9v5c0,0.8,0.1,1.4,0.3,1.7c0.2,0.4,0.5,0.6,1,0.6c0.3,0,0.6-0.1,0.8-0.3s0.3-0.4,0.4-0.8
				c0.1-0.3,0.1-0.8,0.1-1.3v-5h0.8v5v0.5c0,0.3,0,0.5,0,0.8s-0.1,0.4-0.2,0.6c-0.2,0.4-0.4,0.7-0.8,0.9c-0.3,0.2-0.7,0.3-1.1,0.3
				c-0.4,0-0.7-0.1-1.1-0.3c-0.3-0.2-0.6-0.4-0.8-0.7c-0.1-0.2-0.2-0.3-0.2-0.5c0-0.2-0.1-0.4-0.1-0.7c0-0.2,0-0.5,0-0.9V173.6z"/>
			<path fill="#C7C7C7" d="M339,180.4l0.7-0.7c0.2,0.3,0.4,0.6,0.7,0.8c0.3,0.2,0.6,0.3,0.9,0.3c0.4,0,0.7-0.1,0.9-0.4
				c0.2-0.2,0.4-0.5,0.4-0.9c0-0.3-0.1-0.7-0.3-0.9s-0.5-0.6-1-0.9c-0.5-0.3-0.9-0.6-1.2-0.8c-0.3-0.2-0.5-0.4-0.6-0.7
				c-0.2-0.3-0.2-0.6-0.2-0.9c0-0.6,0.2-1,0.6-1.4c0.4-0.4,0.9-0.6,1.5-0.6c0.8,0,1.5,0.4,2.1,1.2l-0.7,0.5c-0.5-0.6-1-0.9-1.5-0.9
				c-0.2,0-0.4,0-0.6,0.1c-0.2,0.1-0.3,0.2-0.4,0.4c-0.1,0.2-0.1,0.3-0.1,0.5c0,0.2,0.1,0.4,0.2,0.6c0.1,0.2,0.3,0.3,0.5,0.5
				s0.5,0.4,0.8,0.6c0.5,0.3,0.8,0.6,1.1,0.8c0.3,0.2,0.5,0.5,0.6,0.8c0.1,0.3,0.2,0.6,0.2,1c0,0.4-0.1,0.8-0.3,1.1
				c-0.2,0.3-0.5,0.6-0.8,0.8c-0.3,0.2-0.7,0.3-1.2,0.3C340.4,181.6,339.6,181.2,339,180.4z"/>
		</g>
	</g>
	<g id="APU_BATT_1_">
		
			<use xlink:href="#BattOperat"  width="93.8" height="81.5" x="-46.9" y="-40.8" transform="matrix(0.8455 0 0 -0.8455 309.2631 93.3616)" overflow="visible"/>
		<g id="BATT2_1_">
			<g>
				<path fill="#C7C7C7" d="M288,72h-0.9l2-7.9h1.3l2,7.9h-0.9l-0.6-2.3h-2.4L288,72z M288.8,68.9h2c-0.3-1.4-0.7-2.9-1-4.4
					c-0.1,0.3-0.2,0.8-0.3,1.5C289.3,66.7,289.1,67.7,288.8,68.9z"/>
				<path fill="#C7C7C7" d="M293.8,72v-7.8h1.7c0.8,0,1.4,0.2,1.8,0.6s0.6,1,0.6,1.8c0,0.5-0.1,1-0.3,1.3s-0.5,0.6-0.9,0.8
					s-0.9,0.3-1.5,0.3h-0.6v3H293.8z M294.7,68.3h0.9c0.5,0,0.9-0.1,1.1-0.4c0.3-0.3,0.4-0.7,0.4-1.3c0-1.1-0.5-1.6-1.5-1.6h-0.9
					V68.3z"/>
				<path fill="#C7C7C7" d="M299.3,64.2h0.9v5c0,0.8,0.1,1.4,0.3,1.7c0.2,0.4,0.5,0.6,1,0.6c0.3,0,0.6-0.1,0.8-0.3s0.3-0.4,0.4-0.8
					c0.1-0.3,0.1-0.8,0.1-1.3v-5h0.8v5v0.5c0,0.3,0,0.5,0,0.8s-0.1,0.4-0.2,0.6c-0.2,0.4-0.4,0.7-0.8,0.9c-0.3,0.2-0.7,0.3-1.1,0.3
					c-0.4,0-0.7-0.1-1.1-0.3c-0.3-0.2-0.6-0.4-0.8-0.7c-0.1-0.2-0.2-0.3-0.2-0.5c0-0.2-0.1-0.4-0.1-0.7c0-0.2,0-0.5,0-0.9V64.2z"/>
				<path fill="#C7C7C7" d="M311.1,72v-7.8h1.7c0.8,0,1.4,0.2,1.8,0.5c0.4,0.3,0.6,0.8,0.6,1.4c0,0.4-0.1,0.8-0.3,1.1
					c-0.2,0.3-0.5,0.5-0.9,0.7c1,0.3,1.5,1,1.5,2c0,0.8-0.2,1.3-0.7,1.7c-0.5,0.4-1.2,0.5-2.2,0.5H311.1z M312,67.6h0.7
					c0.5,0,0.9-0.1,1.2-0.3c0.3-0.2,0.4-0.6,0.4-1.1c0-0.5-0.1-0.8-0.4-1s-0.6-0.3-1.2-0.3H312V67.6z M312,71.3h1.1
					c0.5,0,0.9-0.1,1.1-0.4s0.4-0.6,0.4-1c0-0.4-0.1-0.7-0.2-0.9s-0.3-0.4-0.6-0.5c-0.3-0.1-0.6-0.2-1.1-0.2H312V71.3z"/>
				<path fill="#C7C7C7" d="M317.2,72h-0.9l2-7.9h1.3l2,7.9h-0.9l-0.6-2.3h-2.4L317.2,72z M318,68.9h2c-0.3-1.4-0.7-2.9-1-4.4
					c-0.1,0.3-0.2,0.8-0.3,1.5C318.5,66.7,318.2,67.7,318,68.9z"/>
				<path fill="#C7C7C7" d="M325.3,72h-0.9v-7h-1.9v-0.8h4.8V65h-1.9V72z"/>
				<path fill="#C7C7C7" d="M331.1,72h-0.9v-7h-1.9v-0.8h4.8V65h-1.9V72z"/>
			</g>
			<g>
				<path fill="#00FE00" d="M298.3,110.1c0.2-0.3,0.4-0.6,0.7-0.8c0.3-0.2,0.6-0.4,0.9-0.5c0.3-0.1,0.7-0.2,1.1-0.2
					c0.5,0,1,0.1,1.4,0.3s0.7,0.5,1,0.9c0.2,0.4,0.3,0.8,0.3,1.3c0,0.5-0.1,0.9-0.4,1.3s-0.6,0.7-1.2,1c1.2,0.5,1.8,1.4,1.8,2.8
					c0,0.6-0.1,1.2-0.4,1.7s-0.6,0.9-1.1,1.1c-0.5,0.3-1,0.4-1.5,0.4c-1.3,0-2.3-0.6-2.8-1.8l1-0.5c0.2,0.5,0.5,0.8,0.7,1
					c0.3,0.2,0.6,0.3,1,0.3c0.6,0,1-0.2,1.3-0.6c0.3-0.4,0.5-0.9,0.5-1.6c0-1.4-0.7-2.1-2-2.1c-0.1,0-0.3,0-0.5,0V113h0.1
					c1.5,0,2.3-0.6,2.3-1.8c0-0.5-0.1-0.9-0.4-1.2s-0.7-0.4-1.2-0.4c-0.3,0-0.6,0.1-0.9,0.2c-0.3,0.2-0.5,0.4-0.8,0.8L298.3,110.1z"
					/>
				<path fill="#00FE00" d="M305.9,110.1c0.2-0.3,0.4-0.6,0.7-0.8c0.3-0.2,0.6-0.4,0.9-0.5c0.3-0.1,0.7-0.2,1.1-0.2
					c0.5,0,1,0.1,1.4,0.3s0.7,0.5,1,0.9c0.2,0.4,0.3,0.8,0.3,1.3c0,0.5-0.1,0.9-0.4,1.3s-0.6,0.7-1.2,1c1.2,0.5,1.8,1.4,1.8,2.8
					c0,0.6-0.1,1.2-0.4,1.7s-0.6,0.9-1.1,1.1c-0.5,0.3-1,0.4-1.5,0.4c-1.3,0-2.3-0.6-2.8-1.8l1-0.5c0.2,0.5,0.5,0.8,0.7,1
					c0.3,0.2,0.6,0.3,1,0.3c0.6,0,1-0.2,1.3-0.6c0.3-0.4,0.5-0.9,0.5-1.6c0-1.4-0.7-2.1-2-2.1c-0.1,0-0.3,0-0.5,0V113h0.1
					c1.5,0,2.3-0.6,2.3-1.8c0-0.5-0.1-0.9-0.4-1.2s-0.7-0.4-1.2-0.4c-0.3,0-0.6,0.1-0.9,0.2c-0.3,0.2-0.5,0.4-0.8,0.8L305.9,110.1z"
					/>
			</g>
			<g>
				<path fill="#C7C7C7" d="M318,118h-0.9l2-7.9h1.3l2,7.9h-0.9l-0.6-2.3h-2.4L318,118z M318.8,114.9h2c-0.3-1.4-0.7-2.9-1-4.4
					c-0.1,0.3-0.2,0.8-0.3,1.5C319.3,112.8,319,113.7,318.8,114.9z"/>
			</g>
			<g>
				<path fill="#00FE00" d="M298.2,95.5c0-1,0.3-1.7,0.8-2.2c0.5-0.5,1.2-0.8,2.1-0.8c0.6,0,1.1,0.1,1.5,0.3c0.4,0.2,0.7,0.5,1,0.9
					c0.2,0.4,0.3,0.8,0.3,1.3s-0.1,0.9-0.3,1.3c-0.2,0.4-0.5,0.8-0.8,1.1c-0.3,0.3-0.9,0.9-1.7,1.7c-0.4,0.4-0.7,0.7-1,1
					c-0.2,0.2-0.4,0.5-0.5,0.8s-0.2,0.7-0.2,1.1h4.5v1h-5.6c0-0.2,0-0.5,0-0.7c0-0.5,0.1-1,0.2-1.5c0.2-0.4,0.4-0.8,0.7-1.2
					c0.3-0.4,0.7-0.8,1.1-1.3c0.5-0.5,1-1,1.3-1.3c0.4-0.3,0.6-0.7,0.8-1s0.3-0.6,0.3-1c0-0.3-0.1-0.5-0.2-0.8
					c-0.1-0.2-0.3-0.4-0.5-0.5c-0.2-0.1-0.5-0.2-0.8-0.2c-0.5,0-0.9,0.2-1.2,0.5c-0.3,0.3-0.5,0.8-0.5,1.5H298.2z"/>
				<path fill="#00FE00" d="M310.2,97.5c0.4,0.2,0.7,0.4,1,0.6s0.5,0.6,0.6,1c0.1,0.4,0.2,0.8,0.2,1.2c0,0.6-0.1,1.1-0.4,1.5
					c-0.3,0.4-0.7,0.8-1.2,1c-0.5,0.2-1.1,0.4-1.7,0.4c-0.6,0-1.2-0.1-1.7-0.4c-0.5-0.2-0.9-0.6-1.2-1c-0.3-0.4-0.4-1-0.4-1.5
					c0-0.7,0.2-1.2,0.5-1.7c0.3-0.5,0.8-0.9,1.4-1.1c-0.5-0.3-0.8-0.7-1.1-1s-0.3-0.8-0.3-1.2c0-0.5,0.1-0.9,0.4-1.4s0.6-0.7,1-1
					s0.9-0.4,1.5-0.4c0.4,0,0.8,0.1,1.1,0.2c0.4,0.1,0.7,0.3,0.9,0.6c0.3,0.2,0.5,0.5,0.6,0.9s0.2,0.7,0.2,1.1
					C311.6,96.1,311.1,96.9,310.2,97.5z M310.9,100.2c0-0.4-0.1-0.8-0.3-1.1s-0.4-0.6-0.8-0.8c-0.3-0.2-0.7-0.3-1.1-0.3
					c-0.6,0-1.1,0.2-1.5,0.6c-0.4,0.4-0.6,0.9-0.6,1.5c0,0.6,0.2,1.1,0.6,1.5c0.4,0.4,0.9,0.6,1.5,0.6c0.4,0,0.8-0.1,1.1-0.3
					c0.3-0.2,0.6-0.4,0.7-0.7C310.8,100.9,310.9,100.6,310.9,100.2z M308.8,97.2c0.3,0,0.6-0.1,0.8-0.2c0.3-0.2,0.5-0.4,0.6-0.7
					s0.2-0.6,0.2-1c0-0.5-0.1-1-0.4-1.3c-0.3-0.3-0.7-0.5-1.2-0.5c-0.5,0-0.9,0.2-1.2,0.5c-0.3,0.3-0.4,0.7-0.4,1.3
					c0,0.6,0.2,1,0.5,1.4C307.9,97,308.3,97.2,308.8,97.2z"/>
			</g>
			<g>
				<path fill="#C7C7C7" d="M318.4,94.3l1.2,5.5c0.1,0.4,0.1,0.8,0.2,1.2c0-0.1,0-0.3,0.1-0.4c0-0.2,0-0.3,0.1-0.4s0.1-0.3,0.1-0.4
					l1.2-5.5h0.9l-1.8,7.9h-1l-1.7-7.9H318.4z"/>
			</g>
			<g>
				<g>
					<path fill="#00FE00" d="M299.2,86.7h1.7v-8l-1.7,0.4v-1l2.1-0.8h0.8v9.3h1.6v1h-4.4V86.7z"/>
					<path fill="#00FE00" d="M311.8,82.6c0,1.2-0.1,2.2-0.4,3c-0.2,0.8-0.6,1.4-1,1.8s-1,0.6-1.6,0.6c-0.6,0-1.2-0.2-1.6-0.6
						s-0.8-1-1-1.8c-0.2-0.8-0.4-1.8-0.4-3c0-1.2,0.1-2.2,0.4-3c0.2-0.8,0.6-1.4,1-1.8c0.5-0.4,1-0.6,1.6-0.6c0.6,0,1.2,0.2,1.6,0.6
						c0.5,0.4,0.8,1,1,1.8C311.7,80.5,311.8,81.5,311.8,82.6z M308.7,87c0.3,0,0.6-0.1,0.8-0.3c0.2-0.2,0.4-0.5,0.6-0.8
						c0.2-0.4,0.3-0.8,0.3-1.4s0.1-1.2,0.1-1.9c0-2.9-0.6-4.4-1.8-4.4c-0.6,0-1.1,0.4-1.4,1.1c-0.3,0.7-0.4,1.8-0.4,3.3
						C306.9,85.5,307.5,87,308.7,87z"/>
				</g>
			</g>
			<g>
				<g>
					<path fill="#C7C7C7" d="M318.8,80.2c0-0.3,0.1-0.6,0.3-0.8c0.2-0.2,0.5-0.3,0.8-0.3c0.2,0,0.4,0.1,0.6,0.2
						c0.2,0.1,0.3,0.2,0.4,0.4c0.1,0.2,0.2,0.4,0.2,0.6c0,0.3-0.1,0.6-0.3,0.8s-0.5,0.3-0.8,0.3c-0.3,0-0.6-0.1-0.8-0.3
						S318.8,80.5,318.8,80.2z M319.4,80.2c0,0.2,0.1,0.3,0.2,0.4c0.1,0.1,0.3,0.2,0.4,0.2c0.2,0,0.3-0.1,0.4-0.2
						c0.1-0.1,0.2-0.3,0.2-0.4c0-0.2-0.1-0.3-0.2-0.4c-0.1-0.1-0.2-0.2-0.4-0.2c-0.2,0-0.3,0.1-0.4,0.2
						C319.4,79.9,319.4,80,319.4,80.2z"/>
					<path fill="#C7C7C7" d="M327,81c-0.1-0.8-0.5-1.2-1.2-1.2c-1,0-1.6,1.1-1.6,3.3c0,0.8,0.1,1.4,0.2,1.9c0.1,0.5,0.3,0.9,0.5,1.1
						s0.6,0.4,0.9,0.4c0.3,0,0.6-0.1,0.8-0.3s0.3-0.5,0.5-0.9l0.7,0.2c-0.1,0.6-0.3,1-0.7,1.3s-0.8,0.4-1.3,0.4
						c-0.8,0-1.5-0.3-1.9-1c-0.4-0.7-0.6-1.7-0.6-3.1c0-0.9,0.1-1.6,0.3-2.3s0.5-1.1,0.8-1.4c0.4-0.3,0.8-0.5,1.3-0.5
						c0.3,0,0.6,0,0.8,0.1c0.3,0.1,0.5,0.2,0.6,0.4c0.2,0.2,0.3,0.4,0.4,0.6c0.1,0.2,0.2,0.5,0.2,0.8L327,81z"/>
				</g>
			</g>
		</g>
	</g>
</g>
<g id="R_Engine_1_">
	
		<use xlink:href="#PowerPlantRun"  width="36" height="67.2" id="XMLID_3_" x="-18" y="-33.6" transform="matrix(0.8455 0 0 -0.8455 341.5236 501.9748)" overflow="visible"/>
</g>
<g id="L_Engine_1_">
	
		<use xlink:href="#PowerPlantRun"  width="36" height="67.2" id="XMLID_2_" x="-18" y="-33.6" transform="matrix(0.8455 0 0 -0.8455 28.9512 501.9748)" overflow="visible"/>
</g>
<g id="R_Gen_1_">
	
		<use xlink:href="#GENSTATOperat"  width="45.4" height="45.4" x="-22.7" y="-22.7" transform="matrix(0.7477 0 0 -0.7477 309.9253 496.4941)" overflow="visible"/>
	<g>
		<path fill="#C7C7C7" d="M308,493.9v-7.8h1.7c0.8,0,1.4,0.2,1.8,0.5s0.6,0.9,0.6,1.7c0,0.5-0.1,0.9-0.3,1.3c-0.2,0.4-0.6,0.7-1,0.9
			l1.9,3.4h-1l-1.7-3.2h-1.1v3.2H308z M308.9,490h0.9c0.5,0,0.8-0.2,1.1-0.5s0.4-0.7,0.4-1.3c0-1-0.5-1.5-1.5-1.5h-0.9V490z"/>
		<path fill="#C7C7C7" d="M305.7,504.7c-0.5,0.6-1,0.9-1.6,0.9c-0.5,0-1-0.2-1.3-0.5s-0.6-0.8-0.8-1.4s-0.3-1.4-0.3-2.3
			s0.1-1.6,0.3-2.3s0.5-1.1,0.8-1.4c0.4-0.3,0.8-0.5,1.3-0.5c0.4,0,0.7,0.1,1,0.2c0.3,0.2,0.5,0.4,0.7,0.7c0.2,0.3,0.3,0.6,0.3,1
			l-0.8,0.1c-0.1-0.8-0.5-1.2-1.2-1.2c-1,0-1.5,1.1-1.5,3.3c0,0.8,0.1,1.4,0.2,1.9c0.1,0.5,0.3,0.9,0.5,1.1c0.2,0.2,0.5,0.4,0.9,0.4
			c0.9,0,1.3-0.7,1.3-2.2c0-0.1,0-0.1,0-0.2c0,0,0-0.1,0-0.2h-1.6v-0.8h2.5v4h-0.6V504.7z"/>
		<path fill="#C7C7C7" d="M308.2,505.4v-7.8h4v0.8h-3.1v2.6h2.3v0.7h-2.3v2.9h3.2v0.8H308.2z"/>
		<path fill="#C7C7C7" d="M314.4,498.8c0,2.1,0,4.3,0.1,6.6h-0.9v-7.8h1.2l2,4.9c0.1,0.3,0.3,0.7,0.4,1.4c0-1.1-0.1-2.1-0.1-3.1
			c0-1,0-2-0.1-3.1h0.9v7.9h-0.7L314.4,498.8z"/>
	</g>
</g>
<g id="L_Gen_1_">
	
		<use xlink:href="#GENSTATOperat"  width="45.4" height="45.4" id="XMLID_1_" x="-22.7" y="-22.7" transform="matrix(0.7477 0 0 -0.7477 60.0269 496.4933)" overflow="visible"/>
	<g>
		<path fill="#C7C7C7" d="M58.4,493.9v-7.8h0.9v7h3.3v0.8H58.4z"/>
		<path fill="#C7C7C7" d="M55.8,504.7c-0.5,0.6-1,0.9-1.6,0.9c-0.5,0-1-0.2-1.3-0.5s-0.6-0.8-0.8-1.4s-0.3-1.4-0.3-2.3
			s0.1-1.6,0.3-2.3s0.5-1.1,0.8-1.4c0.4-0.3,0.8-0.5,1.3-0.5c0.4,0,0.7,0.1,1,0.2c0.3,0.2,0.5,0.4,0.7,0.7c0.2,0.3,0.3,0.6,0.3,1
			l-0.8,0.1c-0.1-0.8-0.5-1.2-1.2-1.2c-1,0-1.5,1.1-1.5,3.3c0,0.8,0.1,1.4,0.2,1.9c0.1,0.5,0.3,0.9,0.5,1.1c0.2,0.2,0.5,0.4,0.9,0.4
			c0.9,0,1.3-0.7,1.3-2.2c0-0.1,0-0.1,0-0.2c0,0,0-0.1,0-0.2H54v-0.8h2.5v4h-0.6V504.7z"/>
		<path fill="#C7C7C7" d="M58.3,505.4v-7.8h4v0.8h-3.1v2.6h2.3v0.7h-2.3v2.9h3.2v0.8H58.3z"/>
		<path fill="#C7C7C7" d="M64.5,498.8c0,2.1,0,4.3,0.1,6.6h-0.9v-7.8h1.2l2,4.9c0.1,0.3,0.3,0.7,0.4,1.4c0-1.1-0.1-2.1-0.1-3.1
			c0-1,0-2-0.1-3.1H68v7.9h-0.7L64.5,498.8z"/>
	</g>
</g>
<g id="Menu_1_">
	<g>
		<g>
			<rect x="0" y="0" fill="#000246" width="367.4" height="18.5"/>
			<path fill="#C7C7C7" d="M132.4,16.6c0,1.2-1.1,1.8-2.3,1.8H23.6c-0.9,0-2.1-0.4-2.1-1.7V2.2c0-1.1,1-2.2,2.1-2.2h106.6
				c1.1,0,2.2,1.2,2.2,2.2V16.6z"/>
			<path fill="#4C4C4C" d="M132.4,16.6c0,1.2-1.1,1.8-2.3,1.8H23.6c-0.5,0-1.1-0.1-1.6-0.5l1.6-1.6L129.6,2.5l2.1-1.9
				c0.4,0.4,0.7,1,0.7,1.6V16.6z"/>
			<path fill="#808080" d="M130.3,14.7c0,0.8-1.1,1.7-2.2,1.7H23.6V2H128c1,0,2.2,0.7,2.2,1.7V14.7z"/>
		</g>
		<polygon fill="#FFFFFF" points="123.5,14.2 118.5,5.2 128.6,5.2 		"/>
		<rect x="23.6" y="2" fill="#000246" width="93.3" height="14.3"/>
		<g>
			<g>
				<path fill="#FFFFFF" d="M26.7,14.7V3.8h5.6v1.1H28v3.7h3.2v1H28v4h4.5v1.1H26.7z"/>
				<path fill="#FFFFFF" d="M35,14.7V3.8h1.2v9.8h4.7v1.1H35z"/>
				<path fill="#FFFFFF" d="M43.1,14.7V3.8h5.6v1.1h-4.3v3.7h3.2v1h-3.2v4h4.5v1.1H43.1z"/>
				<path fill="#FFFFFF" d="M55.7,6.3C55.5,5.2,55,4.6,54,4.6c-1.5,0-2.2,1.6-2.2,4.7c0,1.1,0.1,2,0.2,2.6c0.2,0.7,0.4,1.2,0.7,1.5
					c0.3,0.3,0.8,0.5,1.3,0.5c0.5,0,0.8-0.1,1.1-0.4c0.3-0.2,0.5-0.7,0.7-1.2l1,0.3c-0.2,0.8-0.5,1.4-1,1.8S54.8,15,54.1,15
					c-1.2,0-2-0.5-2.6-1.5c-0.6-1-0.9-2.4-0.9-4.3C50.6,8,50.7,7,51,6.1s0.7-1.5,1.2-1.9s1.1-0.7,1.9-0.7c0.4,0,0.8,0.1,1.1,0.2
					C55.5,3.8,55.8,4,56,4.2c0.2,0.2,0.4,0.5,0.6,0.8c0.2,0.3,0.3,0.7,0.3,1.2L55.7,6.3z"/>
			</g>
		</g>
	</g>
	<g>
		<g>
			<g>
				<path fill="#C7C7C7" d="M20,16.1c0,1.2-0.9,2.2-2,2.2H3.6c-1.1,0-2-1-2-2.2V2.2C1.6,1,2.5,0,3.6,0H18c1.1,0,2,1,2,2.2V16.1z"/>
				<path fill="#4C4C4C" d="M19.5,0.8l-2.3,2.4L4.5,15.4l-2.5,2c0.4,0.5,0.9,0.8,1.6,0.8H18c1.1,0,2-1,2-2.2V2.2
					C20,1.7,19.8,1.2,19.5,0.8z"/>
				<path fill="#808080" d="M17.7,13.6c0,1.4-0.8,2.5-1.8,2.5H5.7c-1,0-1.8-1.1-1.8-2.5V4.9C3.9,3.5,5,2.4,6,2.4h9.9
					c1,0,1.8,1.1,1.8,2.5V13.6z"/>
			</g>
		</g>
		<g>
			<path fill="#FFFFFF" d="M8.7,6.7C8.5,6.3,8.4,5.9,8.3,5.5c0,0.1,0,0.4,0,0.7V7v7.7H7.2V3.8h1.6l1.9,5.9l2-5.9h1.5v10.9h-1.1V7
				c0-0.7,0-1.3,0-1.5C13,5.8,13,6,12.9,6.1c0,0.1-0.1,0.2-0.1,0.4c0,0.1-0.1,0.2-0.1,0.3L11,11.6h-0.7L8.7,6.7z"/>
		</g>
	</g>
</g>
</svg>
