<?xml version="1.0" encoding="iso-8859-1"?>
<!-- Generator: Adobe Illustrator 18.0.0, SVG Export Plug-In . SVG Version: 6.00 Build 0)  -->
<!DOCTYPE svg PUBLIC "-//W3C//DTD SVG 1.1//EN" "http://www.w3.org/Graphics/SVG/1.1/DTD/svg11.dtd">
<svg version="1.1" xmlns="http://www.w3.org/2000/svg" xmlns:xlink="http://www.w3.org/1999/xlink" x="0px" y="0px"
	 viewBox="0 0 251 33.73" style="enable-background:new 0 0 251 33.73;" xml:space="preserve">
<g id="EmerBus">
	<polygon style="stroke:#FFFFFF;stroke-miterlimit:3;" points="250.5,29.699 245.5,29.699 245.5,12.888 216.916,12.888 
		216.916,7.888 250.5,7.888 	"/>
	<rect x="113.223" y="7.888" style="stroke:#FFFFFF;stroke-miterlimit:3;" width="24.781" height="5"/>
	<polygon style="stroke:#FFFFFF;stroke-miterlimit:3;" points="5.5,33.23 0.5,33.23 0.5,7.888 34.967,7.888 34.967,12.888 
		5.5,12.888 	"/>
	<path style="stroke:#FFF000;stroke-width:2;stroke-linecap:round;stroke-linejoin:round;stroke-miterlimit:3;" d="M224.653,10.387
		c0,5.186-4.635,9.389-10.352,9.389h-73.07c-5.717,0-10.352-4.203-10.352-9.389l0,0c0-5.184,4.635-9.387,10.352-9.387h73.07
		C220.019,1,224.653,5.203,224.653,10.387L224.653,10.387z"/>
	<g>
		<path style="fill:#C7C7C7;" d="M144.17,14.68V5.314h4.771v0.937h-3.711v3.151h2.707v0.896h-2.707v3.445h3.842v0.937H144.17z"/>
		<path style="fill:#C7C7C7;" d="M151.533,7.837c-0.128-0.396-0.227-0.752-0.295-1.066c0.01,0.123,0.014,0.328,0.014,0.615v0.711
			v6.583h-0.963V5.314h1.367l1.6,5.065l1.723-5.065h1.258v9.365h-0.965V8.097c0-0.634,0.01-1.075,0.027-1.326
			c-0.059,0.237-0.104,0.409-0.133,0.517c-0.029,0.106-0.059,0.207-0.086,0.301c-0.027,0.093-0.052,0.176-0.074,0.249l-1.484,4.156
			h-0.574L151.533,7.837z"/>
		<path style="fill:#C7C7C7;" d="M158.17,14.68V5.314h4.771v0.937h-3.711v3.151h2.707v0.896h-2.707v3.445h3.842v0.937H158.17z"/>
		<path style="fill:#C7C7C7;" d="M164.945,14.68V5.314h2.098c0.989,0,1.72,0.218,2.191,0.652c0.472,0.436,0.707,1.104,0.707,2.007
			c0,0.61-0.135,1.138-0.406,1.583c-0.271,0.443-0.666,0.784-1.186,1.021l2.234,4.102h-1.189l-2.057-3.808h-1.34v3.808H164.945z
			 M165.998,10.031h1.045c0.543,0,0.977-0.186,1.303-0.557c0.326-0.372,0.488-0.881,0.488-1.528c0-1.176-0.597-1.764-1.791-1.764
			h-1.045V10.031z"/>
		<path style="fill:#C7C7C7;" d="M178.836,14.68V5.314h2.07c0.939,0,1.652,0.193,2.141,0.581c0.487,0.388,0.73,0.945,0.73,1.675
			c0,0.479-0.125,0.9-0.375,1.265c-0.251,0.364-0.611,0.643-1.08,0.834c1.193,0.415,1.791,1.212,1.791,2.393
			c0,0.902-0.292,1.564-0.875,1.985c-0.584,0.422-1.477,0.633-2.68,0.633H178.836z M179.881,9.43h0.896
			c0.643,0,1.118-0.137,1.428-0.41c0.311-0.273,0.465-0.697,0.465-1.271c0-0.556-0.146-0.958-0.44-1.207
			c-0.294-0.248-0.758-0.372-1.392-0.372h-0.957V9.43z M179.881,13.784h1.279c0.588,0,1.039-0.147,1.356-0.44
			c0.317-0.295,0.476-0.708,0.476-1.241c0-0.446-0.084-0.805-0.25-1.073s-0.417-0.465-0.752-0.588s-0.762-0.185-1.281-0.185h-0.828
			V13.784z"/>
		<path style="fill:#C7C7C7;" d="M185.678,5.314h1.053v5.961c0,0.943,0.117,1.637,0.353,2.082c0.235,0.443,0.644,0.666,1.228,0.666
			c0.383,0,0.689-0.103,0.919-0.308s0.394-0.507,0.489-0.905c0.096-0.399,0.143-0.911,0.143-1.535V5.314h0.998v5.961v0.547
			c0,0.347-0.02,0.654-0.058,0.923s-0.117,0.526-0.235,0.772c-0.215,0.451-0.523,0.802-0.927,1.053s-0.86,0.376-1.37,0.376
			c-0.465,0-0.892-0.106-1.279-0.317c-0.387-0.213-0.694-0.508-0.922-0.886c-0.109-0.196-0.191-0.411-0.246-0.646
			c-0.055-0.235-0.093-0.498-0.113-0.79s-0.031-0.636-0.031-1.032V5.314z"/>
		<path style="fill:#C7C7C7;" d="M192.494,13.545l0.785-0.786c0.219,0.392,0.498,0.698,0.838,0.919
			c0.34,0.222,0.701,0.332,1.084,0.332c0.455,0,0.823-0.141,1.104-0.42c0.28-0.281,0.42-0.655,0.42-1.125
			c0-0.419-0.125-0.795-0.375-1.128c-0.251-0.333-0.647-0.679-1.189-1.039c-0.629-0.415-1.104-0.745-1.422-0.991
			c-0.319-0.246-0.574-0.525-0.763-0.838c-0.188-0.312-0.284-0.673-0.284-1.083c0-0.67,0.243-1.228,0.729-1.671
			c0.485-0.445,1.098-0.667,1.836-0.667c0.984,0,1.805,0.463,2.461,1.388l-0.793,0.588c-0.565-0.72-1.158-1.08-1.777-1.08
			c-0.251,0-0.477,0.055-0.678,0.164c-0.2,0.109-0.357,0.26-0.471,0.451c-0.114,0.191-0.172,0.396-0.172,0.615
			c0,0.255,0.064,0.486,0.191,0.693c0.128,0.208,0.314,0.414,0.558,0.619s0.563,0.439,0.96,0.704
			c0.557,0.383,0.994,0.716,1.313,0.998c0.319,0.282,0.565,0.593,0.738,0.93c0.174,0.337,0.26,0.736,0.26,1.196
			c0,0.492-0.117,0.941-0.352,1.347s-0.561,0.722-0.978,0.946c-0.417,0.227-0.878,0.339-1.384,0.339
			C194.084,14.946,193.205,14.479,192.494,13.545z"/>
		<path style="fill:#C7C7C7;" d="M206.596,7.803c0.027-0.884,0.268-1.563,0.722-2.033c0.454-0.473,1.086-0.708,1.897-0.708
			c0.52,0,0.971,0.097,1.356,0.29c0.386,0.194,0.683,0.463,0.892,0.807c0.21,0.345,0.314,0.735,0.314,1.173
			s-0.104,0.846-0.314,1.224c-0.209,0.378-0.449,0.704-0.721,0.978s-0.803,0.786-1.596,1.538c-0.383,0.369-0.675,0.666-0.875,0.893
			c-0.201,0.225-0.363,0.481-0.489,0.769s-0.19,0.624-0.194,1.012h4.115v0.937h-5.148c-0.027-0.224-0.041-0.442-0.041-0.656
			c0-0.506,0.074-0.958,0.223-1.357c0.148-0.398,0.356-0.771,0.625-1.117c0.27-0.347,0.62-0.736,1.053-1.169
			c0.497-0.479,0.91-0.877,1.238-1.196s0.582-0.621,0.762-0.906c0.18-0.284,0.27-0.591,0.27-0.919c0-0.265-0.061-0.501-0.181-0.711
			s-0.29-0.372-0.506-0.489c-0.216-0.115-0.473-0.174-0.769-0.174c-0.483,0-0.863,0.152-1.139,0.458s-0.438,0.759-0.488,1.36
			H206.596z"/>
	</g>
	<path style="stroke:#FFF000;stroke-width:2;stroke-linecap:round;stroke-linejoin:round;stroke-miterlimit:3;" d="M119.742,10.387
		c0,5.186-4.635,9.389-10.351,9.389H36.32c-5.717,0-10.351-4.203-10.351-9.389l0,0C25.969,5.203,30.603,1,36.32,1h73.07
		C115.107,1,119.742,5.203,119.742,10.387L119.742,10.387z"/>
	<g>
		<path style="fill:#C7C7C7;" d="M39.258,14.68V5.314h4.771v0.937h-3.712v3.151h2.707v0.896h-2.707v3.445h3.842v0.937H39.258z"/>
		<path style="fill:#C7C7C7;" d="M46.621,7.837c-0.127-0.396-0.226-0.752-0.294-1.066c0.009,0.123,0.014,0.328,0.014,0.615v0.711
			v6.583h-0.964V5.314h1.367l1.6,5.065l1.723-5.065h1.258v9.365H50.36V8.097c0-0.634,0.009-1.075,0.027-1.326
			c-0.059,0.237-0.104,0.409-0.133,0.517c-0.03,0.106-0.058,0.207-0.085,0.301c-0.027,0.093-0.052,0.176-0.075,0.249l-1.483,4.156
			h-0.574L46.621,7.837z"/>
		<path style="fill:#C7C7C7;" d="M53.258,14.68V5.314h4.771v0.937h-3.712v3.151h2.707v0.896h-2.707v3.445h3.842v0.937H53.258z"/>
		<path style="fill:#C7C7C7;" d="M60.033,14.68V5.314h2.099c0.989,0,1.719,0.218,2.191,0.652c0.472,0.436,0.708,1.104,0.708,2.007
			c0,0.61-0.136,1.138-0.407,1.583c-0.271,0.443-0.667,0.784-1.186,1.021l2.235,4.102h-1.189l-2.058-3.808h-1.34v3.808H60.033z
			 M61.085,10.031h1.046c0.542,0,0.977-0.186,1.302-0.557c0.326-0.372,0.489-0.881,0.489-1.528c0-1.176-0.597-1.764-1.791-1.764
			h-1.046V10.031z"/>
		<path style="fill:#C7C7C7;" d="M73.923,14.68V5.314h2.071c0.939,0,1.652,0.193,2.14,0.581s0.731,0.945,0.731,1.675
			c0,0.479-0.125,0.9-0.376,1.265s-0.611,0.643-1.08,0.834c1.194,0.415,1.791,1.212,1.791,2.393c0,0.902-0.292,1.564-0.875,1.985
			c-0.583,0.422-1.477,0.633-2.68,0.633H73.923z M74.969,9.43h0.896c0.643,0,1.119-0.137,1.429-0.41s0.465-0.697,0.465-1.271
			c0-0.556-0.147-0.958-0.441-1.207c-0.294-0.248-0.758-0.372-1.391-0.372h-0.957V9.43z M74.969,13.784h1.278
			c0.588,0,1.04-0.147,1.357-0.44c0.317-0.295,0.475-0.708,0.475-1.241c0-0.446-0.083-0.805-0.25-1.073s-0.417-0.465-0.752-0.588
			s-0.762-0.185-1.282-0.185h-0.827V13.784z"/>
		<path style="fill:#C7C7C7;" d="M80.766,5.314h1.053v5.961c0,0.943,0.117,1.637,0.352,2.082c0.235,0.443,0.644,0.666,1.227,0.666
			c0.383,0,0.689-0.103,0.919-0.308s0.393-0.507,0.489-0.905c0.096-0.399,0.144-0.911,0.144-1.535V5.314h0.998v5.961v0.547
			c0,0.347-0.02,0.654-0.058,0.923s-0.117,0.526-0.236,0.772c-0.214,0.451-0.523,0.802-0.926,1.053s-0.86,0.376-1.371,0.376
			c-0.465,0-0.891-0.106-1.278-0.317c-0.387-0.213-0.695-0.508-0.923-0.886c-0.109-0.196-0.191-0.411-0.246-0.646
			c-0.055-0.235-0.092-0.498-0.113-0.79s-0.031-0.636-0.031-1.032V5.314z"/>
		<path style="fill:#C7C7C7;" d="M87.581,13.545l0.786-0.786c0.219,0.392,0.498,0.698,0.837,0.919
			c0.339,0.222,0.701,0.332,1.083,0.332c0.456,0,0.824-0.141,1.104-0.42c0.28-0.281,0.42-0.655,0.42-1.125
			c0-0.419-0.125-0.795-0.376-1.128s-0.647-0.679-1.189-1.039c-0.629-0.415-1.103-0.745-1.422-0.991s-0.573-0.525-0.762-0.838
			c-0.189-0.312-0.284-0.673-0.284-1.083c0-0.67,0.243-1.228,0.728-1.671c0.485-0.445,1.097-0.667,1.835-0.667
			c0.984,0,1.805,0.463,2.461,1.388l-0.793,0.588c-0.565-0.72-1.158-1.08-1.777-1.08c-0.25,0-0.476,0.055-0.677,0.164
			s-0.358,0.26-0.472,0.451s-0.171,0.396-0.171,0.615c0,0.255,0.064,0.486,0.191,0.693c0.127,0.208,0.313,0.414,0.557,0.619
			s0.564,0.439,0.96,0.704c0.556,0.383,0.994,0.716,1.313,0.998s0.565,0.593,0.738,0.93s0.26,0.736,0.26,1.196
			c0,0.492-0.117,0.941-0.352,1.347s-0.561,0.722-0.978,0.946c-0.417,0.227-0.878,0.339-1.384,0.339
			C89.172,14.946,88.292,14.479,87.581,13.545z"/>
		<path style="fill:#C7C7C7;" d="M102.525,13.771h1.524V6.408l-1.524,0.39V5.875l1.887-0.69h0.69v8.586h1.47v0.909h-4.047V13.771z"
			/>
	</g>
</g>
<g id="Layer_1">
</g>
</svg>
