<?xml version="1.0" encoding="iso-8859-1"?>
<!-- Generator: Adobe Illustrator 18.0.0, SVG Export Plug-In . SVG Version: 6.00 Build 0)  -->
<!DOCTYPE svg PUBLIC "-//W3C//DTD SVG 1.1//EN" "http://www.w3.org/Graphics/SVG/1.1/DTD/svg11.dtd">
<svg version="1.1" xmlns="http://www.w3.org/2000/svg" xmlns:xlink="http://www.w3.org/1999/xlink" x="0px" y="0px"
	 viewBox="0 0 35.993 67.201" style="enable-background:new 0 0 35.993 67.201;" xml:space="preserve">
<g id="engine_x5F_Invalid">
	
		<linearGradient id="SVGID_1_" gradientUnits="userSpaceOnUse" x1="434.5071" y1="33.6006" x2="469.5" y2="33.6006" gradientTransform="matrix(-1 0 0 1 470 0)">
		<stop  offset="0" style="stop-color:#191919"/>
		<stop  offset="1" style="stop-color:#999999"/>
	</linearGradient>
	<path style="fill:url(#SVGID_1_);" d="M28.467,0.5c0,0,7.606,0.103,6.99,5.859c-0.617,5.757-6.08,57.052-6.08,57.052
		c0,1.817-5.097,3.29-11.38,3.29c-6.287,0-11.384-1.473-11.384-3.29c0,0-5.463-51.295-6.078-57.052
		C-0.082,0.603,7.526,0.5,7.526,0.5H28.467z"/>
	<path style="fill:none;stroke:#FF00FF;stroke-width:1;" d="M29.377,63.411c0,1.817-5.097,3.29-11.38,3.29
		c-6.287,0-11.384-1.473-11.384-3.29c0-1.817,5.097-3.29,11.384-3.29C24.281,60.121,29.377,61.594,29.377,63.411z"/>
	<path style="fill:none;stroke:#FF00FF;stroke-width:1;" d="M28.467,0.5c0,0,7.606,0.103,6.99,5.859
		c-0.617,5.757-6.08,57.052-6.08,57.052c0,1.817-5.097,3.29-11.38,3.29c-6.287,0-11.384-1.473-11.384-3.29
		c0,0-5.463-51.295-6.078-57.052C-0.082,0.603,7.526,0.5,7.526,0.5H28.467z"/>
</g>
<g id="Layer_1">
</g>
</svg>
