<?xml version="1.0" encoding="iso-8859-1"?>
<!-- Generator: Adobe Illustrator 18.0.0, SVG Export Plug-In . SVG Version: 6.00 Build 0)  -->
<!DOCTYPE svg PUBLIC "-//W3C//DTD SVG 1.1//EN" "http://www.w3.org/Graphics/SVG/1.1/DTD/svg11.dtd">
<svg version="1.1" xmlns="http://www.w3.org/2000/svg" xmlns:xlink="http://www.w3.org/1999/xlink" x="0px" y="0px"
	 viewBox="0 0 83.099 125.544" style="enable-background:new 0 0 83.099 125.544;" xml:space="preserve">
<g id="externalAC">
	<rect x="40.257" y="0.5" style="fill:#00FE00;stroke:#00FE00;stroke-miterlimit:3;" width="5" height="20.915"/>
	<rect x="40.257" y="71.502" style="fill:#00FE00;stroke:#00FE00;stroke-miterlimit:3;" width="5" height="33.338"/>
	
		<circle style="stroke:#00FF00;stroke-width:2;stroke-linecap:round;stroke-linejoin:round;stroke-miterlimit:3;" cx="43.533" cy="105.34" r="19.205"/>
	<g>
		<path style="fill:#C7C7C7;" d="M34.437,103.231v-9.365h4.771v0.937h-3.713v3.151h2.707v0.896h-2.707v3.445h3.842v0.937H34.437z"/>
		<path style="fill:#C7C7C7;" d="M41.601,103.231h-1.047l2.324-4.997l-2.133-4.368h1.176l1.559,3.22l1.498-3.22h1.053l-2.018,4.3
			l2.461,5.065h-1.148l-1.887-3.862L41.601,103.231z"/>
		<path style="fill:#C7C7C7;" d="M51.067,103.231h-1.066v-8.442h-2.324v-0.923h5.715v0.923h-2.324V103.231z"/>
		<path style="fill:#C7C7C7;" d="M37.923,116.831H36.87l2.365-9.495h1.6l2.365,9.495h-1.094l-0.684-2.816h-2.83L37.923,116.831z
			 M38.804,113.119h2.42c-0.4-1.718-0.807-3.468-1.217-5.25c-0.072,0.392-0.203,0.999-0.393,1.821
			C39.425,110.514,39.155,111.656,38.804,113.119z"/>
		<path style="fill:#C7C7C7;" d="M48.743,109.633c-0.159-0.998-0.635-1.497-1.428-1.497c-1.249,0-1.873,1.335-1.873,4.006
			c0,0.925,0.066,1.682,0.201,2.27s0.346,1.026,0.636,1.316c0.29,0.289,0.667,0.434,1.132,0.434c0.392,0,0.7-0.104,0.926-0.314
			s0.411-0.559,0.557-1.046l0.883,0.239c-0.137,0.67-0.41,1.181-0.82,1.531s-0.939,0.526-1.586,0.526
			c-0.998,0-1.752-0.416-2.26-1.247c-0.508-0.832-0.762-2.063-0.762-3.695c0-1.071,0.113-1.977,0.342-2.717
			c0.228-0.741,0.561-1.297,0.998-1.668c0.438-0.372,0.966-0.558,1.586-0.558c0.351,0,0.676,0.054,0.977,0.161
			c0.301,0.106,0.557,0.257,0.766,0.451c0.21,0.193,0.381,0.436,0.514,0.728c0.132,0.292,0.214,0.624,0.246,0.998L48.743,109.633z"
			/>
	</g>
	<path style="stroke:#FFFFFF;stroke-width:2;stroke-miterlimit:3;" d="M82.099,75.585c0,0.554-0.448,1-1,1H2c-0.553,0-1-0.446-1-1
		V13.223c0-0.553,0.447-1,1-1h79.099c0.552,0,1,0.447,1,1V75.585z"/>
	<g>
		<path style="fill:#C7C7C7;" d="M53.905,23.346l1.415,6.576c0.101,0.492,0.175,0.982,0.226,1.47
			c0.018-0.169,0.041-0.345,0.068-0.53c0.027-0.184,0.059-0.359,0.092-0.525c0.035-0.167,0.065-0.313,0.093-0.441l1.388-6.549h1.032
			l-2.112,9.488h-1.176l-2.099-9.488H53.905z"/>
	</g>
	<g>
		<path style="fill:#C7C7C7;" d="M53.01,67.799v-9.365h1.066v4.102h2.939v-4.102h1.066v9.365h-1.066v-4.382h-2.939v4.382H53.01z"/>
		<path style="fill:#C7C7C7;" d="M59.805,67.799V67.17l3.999-7.772H60.01v-0.964h5.195v0.458l-4.102,7.957h4.102v0.95H59.805z"/>
	</g>
	<g>
		<path style="fill:#C7C7C7;" d="M54.412,49.441h-1.046v-9.365h1.046v4.211l3.35-4.354l0.854,0.492l-3.124,4.061l3.445,4.956h-1.292
			l-3.233-4.689V49.441z"/>
		<path style="fill:#C7C7C7;" d="M60.906,40.076l1.415,6.576c0.1,0.492,0.175,0.982,0.226,1.47c0.018-0.169,0.041-0.345,0.068-0.53
			c0.027-0.184,0.058-0.359,0.092-0.525c0.034-0.167,0.065-0.313,0.093-0.441l1.388-6.549h1.032l-2.112,9.488h-1.176l-2.099-9.488
			H60.906z"/>
		<path style="fill:#C7C7C7;" d="M67.435,49.441h-1.053l2.365-9.495h1.6l2.365,9.495h-1.094l-0.684-2.816h-2.83L67.435,49.441z
			 M68.316,45.729h2.42c-0.401-1.718-0.807-3.468-1.217-5.25c-0.073,0.392-0.204,0.999-0.394,1.821
			C68.937,43.124,68.667,44.267,68.316,45.729z"/>
	</g>
</g>
<g id="Layer_1">
</g>
</svg>
