<?xml version="1.0" encoding="iso-8859-1"?>
<!-- Generator: Adobe Illustrator 18.0.0, SVG Export Plug-In . SVG Version: 6.00 Build 0)  -->
<!DOCTYPE svg PUBLIC "-//W3C//DTD SVG 1.1//EN" "http://www.w3.org/Graphics/SVG/1.1/DTD/svg11.dtd">
<svg version="1.1" xmlns="http://www.w3.org/2000/svg" xmlns:xlink="http://www.w3.org/1999/xlink" x="0px" y="0px"
	 viewBox="0 0 135.75 46.988" style="enable-background:new 0 0 135.75 46.988;" xml:space="preserve">
<g id="RatGenerator">
	<rect x="0.5" y="21.021" style="fill:#00FE00;stroke:#00FE00;stroke-miterlimit:3;" width="20.871" height="5"/>
	<rect x="77.085" y="21.021" style="fill:#00FE00;stroke:#00FE00;stroke-miterlimit:3;" width="23.797" height="5"/>
	
		<circle style="stroke:#00FF00;stroke-width:2;stroke-linecap:round;stroke-linejoin:round;stroke-miterlimit:3;" cx="113.035" cy="22.715" r="21.715"/>
	<g>
		<path style="fill:#C7C7C7;" d="M103.962,19.91v-9.365h2.099c0.988,0,1.719,0.218,2.191,0.652c0.471,0.436,0.707,1.104,0.707,2.007
			c0,0.61-0.136,1.138-0.406,1.583c-0.271,0.443-0.667,0.784-1.187,1.021l2.235,4.102h-1.189l-2.058-3.808h-1.34v3.808H103.962z
			 M105.015,15.262h1.046c0.543,0,0.977-0.186,1.303-0.557c0.325-0.372,0.488-0.881,0.488-1.528c0-1.176-0.598-1.764-1.791-1.764
			h-1.046V15.262z"/>
		<path style="fill:#C7C7C7;" d="M111.174,19.91h-1.053l2.365-9.495h1.6l2.365,9.495h-1.094l-0.684-2.816h-2.83L111.174,19.91z
			 M112.056,16.198h2.42c-0.401-1.718-0.807-3.468-1.217-5.25c-0.073,0.392-0.204,0.999-0.394,1.821
			C112.677,13.593,112.406,14.735,112.056,16.198z"/>
		<path style="fill:#C7C7C7;" d="M120.819,19.91h-1.066v-8.442h-2.324v-0.923h5.715v0.923h-2.324V19.91z"/>
		<path style="fill:#C7C7C7;" d="M108.234,32.655c-0.574,0.747-1.21,1.121-1.907,1.121c-0.624,0-1.155-0.187-1.593-0.561
			s-0.771-0.93-1.002-1.668c-0.229-0.738-0.345-1.643-0.345-2.714s0.115-1.976,0.345-2.714c0.23-0.738,0.564-1.294,1.002-1.668
			s0.969-0.561,1.593-0.561c0.451,0,0.851,0.091,1.2,0.273c0.348,0.183,0.626,0.452,0.834,0.81c0.207,0.358,0.331,0.776,0.372,1.255
			l-0.991,0.082c-0.16-0.998-0.631-1.497-1.415-1.497c-1.222,0-1.832,1.335-1.832,4.006c0,0.907,0.065,1.655,0.194,2.246
			c0.131,0.59,0.333,1.028,0.609,1.315c0.275,0.287,0.632,0.431,1.069,0.431c1.048,0,1.572-0.882,1.572-2.646
			c0-0.091,0-0.166,0-0.226c-0.005-0.055-0.009-0.116-0.014-0.185h-1.907v-0.923h2.953v4.799h-0.738V32.655z"/>
		<path style="fill:#C7C7C7;" d="M111.188,33.51v-9.365h4.771v0.937h-3.712v3.151h2.707v0.896h-2.707v3.445h3.842v0.937H111.188z"/>
		<path style="fill:#C7C7C7;" d="M118.659,25.587c0.014,2.543,0.048,5.184,0.103,7.923h-1.025v-9.365h1.388l2.365,5.824
			c0.132,0.333,0.306,0.877,0.52,1.634c-0.06-1.28-0.104-2.516-0.137-3.705c-0.032-1.185-0.052-2.436-0.062-3.753h1.025v9.536
			h-0.868L118.659,25.587z"/>
	</g>
	<path style="stroke:#FFFFFF;stroke-width:2;stroke-miterlimit:3;" d="M85.621,44.988c0,0.553-0.448,1-1,1h-68.25
		c-0.552,0-1-0.447-1-1V4.125c0-0.553,0.448-1,1-1h68.25c0.552,0,1,0.447,1,1V44.988z"/>
	<g>
		<path style="fill:#C7C7C7;" d="M60.631,38.338v-9.365h1.066v4.102h2.939v-4.102h1.066v9.365h-1.066v-4.382h-2.939v4.382H60.631z"
			/>
		<path style="fill:#C7C7C7;" d="M67.508,38.338V37.47l3.664-5.024h-3.425v-0.984h4.73v0.882l-3.644,5.031h3.712v0.964H67.508z"/>
	</g>
	<g>
		<path style="fill:#C7C7C7;" d="M61.526,11.634l1.415,6.576c0.1,0.492,0.175,0.982,0.226,1.47c0.018-0.169,0.041-0.345,0.068-0.53
			c0.027-0.184,0.058-0.359,0.092-0.525c0.034-0.167,0.065-0.313,0.093-0.441l1.388-6.549h1.032l-2.112,9.488h-1.176l-2.099-9.488
			H61.526z"/>
	</g>
</g>
<g id="Layer_1">
</g>
</svg>
