<!-- Generator: Adobe Illustrator 18.0.0, SVG Export Plug-In  -->
<svg version="1.1"
	 xmlns="http://www.w3.org/2000/svg" xmlns:xlink="http://www.w3.org/1999/xlink" xmlns:a="http://ns.adobe.com/AdobeSVGViewerExtensions/3.0/"
	 x="0px" y="0px" width="842.9px" height="716.7px" viewBox="0 0 842.9 716.7" enable-background="new 0 0 842.9 716.7"
	 xml:space="preserve">
<defs>
</defs>
<g>
	<path fill="none" stroke="#000000" stroke-linecap="round" stroke-linejoin="round" stroke-miterlimit="7.6613" d="M553.1,716.2
		c-6.8-7.5-12.8-15.8-19.2-23.7c-7-8.7-13.9-17.3-20.9-26c-13.2-16.4-26.4-32.9-39.7-49.3c-13.1-16.2-26.1-32.5-39.2-48.7
		c-13.1-16.3-26.3-32.7-39.4-49c-13.5-16.8-26.9-33.5-40.4-50.3c-13.1-16.3-26.1-32.6-39.2-48.8c-3.4-4.2-6.7-8.4-10.1-12.6
		c-3.1-3.9-6.1-8.3-9.6-11.8c-1.1-1.1-3.7-4.3-5.3-4.3c-2.6,0-5.3,0-7.9,0c-5.1,0-10.3,0-15.4,0c-20.8,0-41.5,0-62.3,0
		c-20.4,0-40.7,0-61.1,0c-20.7,0-41.7,0.8-62.3-1.1c-20.3-1.8-40.4-6.8-58.7-16.1c-4.8-2.4-9.4-5.2-13.7-8.3
		c-2.9-2.1-11.6-6.9-6.7-11c15.8-12.6,34.3-21,53.9-25.5c20.6-4.7,41.4-5.1,62.5-5.1c20.4,0,40.8,0,61.2,0c20.3,0,40.6,0,60.9,0
		c10.4,0,20.8,0,31.3,0c4.9,0,9.8,0,14.8,0c0.8,0,3.1,0.4,3.8-0.1c1.2-0.9,2.4-1.8,3.5-2.8c1.9-1.6,3.4-3.6,4.9-5.5
		c13.3-16.5,26.5-33,39.8-49.5c13.1-16.3,26.2-32.6,39.3-48.9c13.3-16.6,26.7-33.2,40-49.7c13.1-16.3,26.2-32.6,39.4-48.9
		c13.5-16.8,27.1-33.7,40.6-50.5c13.3-16.5,26.6-33,39.8-49.5c3.2-4,6.4-8,9.6-12c2-2.4,3.8-4.7,5.8-6.7 M588.8,2.2
		c-1.5,1.9-2.3,4.5-3.3,6.6c-1.1,2.3-2.2,4.6-3.3,6.9c-2.3,4.7-4.5,9.4-6.8,14.1c-9.1,18.8-18.2,37.6-27.2,56.4
		c-2.2,4.7-4.5,9.4-6.7,14c0.6,0,5.3,0.2,5.2,0.6c-0.1,0.5-4.6,1.5-5.3,1.6c-2.1,0.6-2.7,3.6-3.6,5.4c-0.9,1.9-1.8,3.8-2.8,5.7
		c-3.9,8-7.8,16.1-11.6,24.1c0.9,0.1,6.8,0.1,7,1c0.2,0.5-4.5,2-5.1,2.2c-1.2,0.4-2.5,0.8-3.7,1.1c-0.9,0.2-1.3,2.1-1.7,2.9
		c-1.1,2.3-2.3,4.7-3.4,7c-4.3,8.9-8.6,17.9-12.9,26.8c-0.2,0.3-0.3,0.6-0.5,0.9c0.9,0,7.2-0.1,7.3,0.7c0.1,0.7-5.4,1.9-6.1,2.1
		c-0.8,0.2-2.7,0.3-3,1c-0.6,1.2-1.2,2.5-1.8,3.7c-1.1,2.2-2.2,4.4-3.2,6.7c-4.3,8.9-8.6,17.7-12.8,26.6c2.4,0.3,4.7,0.7,7.1,1.2
		c1.6,0.3,0.2,0.6-0.6,0.8c-1.2,0.3-2.4,0.5-3.6,0.8c-1.3,0.2-2.6,0.5-3.9,0.7c-1.1,0.2-1.7,1.6-1.8,2.7c-0.2,1.5,0.4,1.3,1.7,1.4
		c1.2,0.2,2.4,0.3,3.5,0.6c0.5,0.1,2.5,0.4,1.1,0.8c-1.1,0.3-2.1,0.7-3.2,1c-0.6,0.2-2.9,0.3-3.2,0.7c-0.5,0.5-0.1,3-0.1,3.8
		c-0.2,5.3-0.3,10.6-0.5,15.8c-0.1,3.2-0.2,6.3-0.3,9.5c0,0.4-0.3,2.2-0.1,2.5c0.3,0.3,1.7,0.3,2.2,0.4c1.6,0.4,3.1,0.9,4.6,1.6
		c-0.7,0.2-6.9,1.8-6.9,2c-0.1,2.7-0.2,5.3-0.2,8c-0.2,5.1-0.3,10.2-0.5,15.2c-0.2,5.1-0.3,10.2-0.5,15.2c0,1.6,0.8,1.1,2.2,1.4
		c1.3,0.3,2.6,0.7,3.8,1.1c1.6,0.5,0.2,0.8-0.8,1.1c-1.2,0.4-2.4,0.7-3.6,0.9c-0.4,0.1-1.5,0-1.8,0.2c-0.3,0.3-0.1,1.9-0.1,2.3
		c0,1.2-0.1,2.4-0.1,3.7c-0.1,2.9-0.2,5.8-0.3,8.7c10,0.1,20,0,30,0c10.4,0,20.2,1.2,30.4,3.1c7.1,1.3,14.3,2.5,21.5,3.7
		c0-2.5,0-5,0-7.4c0-0.8,0.4-2.8-0.4-2.9c-1.4-0.3-2.8-0.6-4.2-1c-1.6-0.4-5.3-1-6.3-2.6c-1-1.6-0.2-5.8-0.2-7.6
		c0.1-5.3,0.3-10.6,0.5-15.9c0.1-2.6,0.2-5.2,0.4-7.8c0.1-2.5-0.3-4.8,2.4-5.9c9.2-3.6,20-3.7,29.7-3.5c10.2,0.2,20.5,0.8,30.7,1.8
		c19.9,1.9,39.2,6,58.6,10.7c0.9,0.2,6.7,1.2,6.7,2c0,3-0.1,5.9-0.1,8.9c-0.1,5.4-0.4,10.9-0.7,16.3c1.8-0.2,2.6,3.3,3.3,4.6
		c1.1,2.3,2.3,4.5,3.4,6.8c1,2,2,4.1,3.1,6.1c0.9,1.8,1.9,5.5,4,6c5.1,1.2,10.1,2.6,15.1,3.9c2.6,0.7,5.3,1.4,7.9,2.2
		c0.5,0.1,4.4-5.5,5-6.2c12.8-16.3,25.6-32.7,38.5-49.1c12.8-16.3,25.6-32.7,38.5-49c2.9-3.7,5.9-8.9,10.3-10.9
		c4.8-2.1,9.8-2.5,14.9-2.6c5.1-0.1,10.2-0.2,15.3-0.1c1.7,0,5.7-0.8,6.5,1.2c0.9,2.2-1,4.8-1.9,6.9c-8.1,18.4-16.2,36.8-24.2,55.2
		c-8.3,19-16.6,38.1-25,57.1c-1,2.3-2,4.7-3.1,7c2.4,0.3,4.9,0.6,7.3,0.9c1.6,0.2,4.4-0.5,4.2,1.7c-0.1,1.2-0.3,1.2-1.6,1.2
		c-1.1,0-2.1,0.2-3.2,0.3c-2.2,0.3-4.5,0.6-6.7,0.8c8,18.4,16.1,36.7,24.2,55.1c8.1,18.6,16.3,37.3,24.4,55.9c1,2.2,1.9,4.4,2.8,6.5
		c0.9,2.2,2.6,4.8,3,7.1c0.4,3.1-3.4,2.7-5.4,2.7c-2.9,0-5.7,0-8.6,0c-9.4,0-21.1,1.1-27.8-6.7c-6.8-7.9-13-16.5-19.5-24.7
		c-6.3-8.1-12.7-16.2-19.1-24.3c-12.9-16.5-25.8-32.9-38.7-49.3c-3.3-4.3-6.7-8.5-10-12.8c-0.3-0.4-6.3,1.7-7.1,1.9
		c-2.6,0.7-5.3,1.4-7.9,2.1c-2.4,0.6-4.8,1.2-7.2,1.8c-1.8,0.5-1.9,0.5-2.8,2.1c-0.6,1.2-1.2,2.4-1.8,3.6c-2.1,4.2-4.2,8.4-6.3,12.6
		c-0.7,1.4-1.9,5.6-3.6,5.4c0.3,5.3,0.6,10.6,0.7,16c0.1,2.7,0.1,5.3,0.1,8c0,2-0.4,1.7-2.4,2.2c-1.2,0.3-2.5,0.6-3.7,0.9
		c-9.9,2.4-19.9,4.9-29.9,6.9c-19.3,3.8-39.2,5.4-58.8,5.8c-10.1,0.2-20.8,0-30.4-3.3c-2.8-1-2.4-2-2.7-4.8
		c-0.3-2.4-0.4-4.8-0.5-7.3c-0.3-5.1-0.3-10.2-0.4-15.3c-0.1-2.7-0.1-5.5-0.2-8.2c0-2.8,3.1-3.5,5.4-4.2c1.3-0.3,2.5-0.7,3.8-0.9
		c0.3-0.1,1.9-0.2,1.9-0.4c0-0.8,0-1.6,0-2.4c0-2.6,0-5.2,0-7.9c-9.9,1.7-19.8,3.6-29.7,5.2c-9.8,1.5-19.3,1.6-29.2,1.7
		c-7.7,0-15.4,0-23,0c0.1,2.4,0.2,4.9,0.2,7.3c0,1.3,0.1,2.5,0.1,3.8c0,0.8-0.3,3.1,0.1,3.6c0.3,0.4,3,0.5,3.6,0.6
		c0.4,0.1,3.4,0.8,3.4,1.2c0,0.7-4.6,1.5-5.2,1.6c-1.9,0.3-1.6,0.3-1.5,2.2c0,1.3,0.1,2.7,0.1,4c0.1,2.4,0.2,4.8,0.2,7.3
		c0.2,5.1,0.3,10.2,0.5,15.2c0.1,2.7,0.2,5.3,0.3,8c0,0.5-0.1,3.1,0.2,3.2c1.3,0.3,2.6,0.5,3.8,0.9c0.4,0.1,3.1,0.8,3,1.1
		c0,0.4-2,0.8-2.4,0.9c-1.1,0.3-2.1,0.6-3.2,0.8c-0.5,0.1-1.3,0-1.2,0.5c0,0.9,0.1,1.8,0.1,2.7c0.2,5.3,0.4,10.6,0.5,15.8
		c0.1,2.5,0.2,5,0.2,7.5c0,1.4,0.1,2.7,0.1,4.1c0,0.7-0.2,1.1,0.5,1.2c0.7,0.1,1.4,0.3,2.2,0.5c1,0.2,3.7,0.5,4.4,1.3
		c0.2,0.3-2.4,0.7-2.8,0.8c-0.6,0.1-4.1,0.5-4.1,0.8c0,1,0.2,3,1.1,3.6c0.8,0.6,3.7,0.6,4.8,0.9c1.6,0.3,3.2,0.6,4.7,1.1
		c0.7,0.2-0.9,0.5-0.8,0.5c-0.8,0.1-1.5,0.3-2.3,0.4c-1.5,0.3-3.1,0.5-4.6,0.7c4.3,8.9,8.5,17.8,12.8,26.6c1.1,2.2,2.1,4.4,3.2,6.7
		c0.6,1.1,1.1,2.3,1.7,3.4c0.5,1,1.9,0.9,2.9,1.2c0.8,0.2,6.5,2.1,6.4,2.2c-1,0.9-4.8,0.5-6.1,0.6c-0.4,0-0.8,0-1.3,0.1
		c4.3,8.9,8.6,17.9,12.9,26.8c1.1,2.2,2.2,4.5,3.2,6.7c0.6,1.1,1.1,2.3,1.7,3.4c0.5,1.1,1.9,1,3,1.4c1.3,0.4,2.6,0.9,3.9,1.4
		c0.5,0.2,2.9,1.2,2.5,1.4c-1.8,0.9-4.9,0.7-6.8,0.8c-0.1,0-0.1,0-0.2,0c3.3,7,6.7,13.9,10.1,20.9c1.7,3.5,3.3,6.9,5,10.4
		c0.4,0.8,0.7,1.5,1.1,2.3c0.6,1.4,0.7,1.4,2.2,1.8c1.4,0.4,3.9,0.8,4.9,1.7c-1.6,0.5-3.5,0.4-5.2,0.4c8.8,18.4,17.7,36.7,26.5,55.1
		c4.5,9.2,8.9,18.5,13.4,27.7c2.3,4.8,4.6,9.6,7,14.4 M830.6,228l-70.5,126 M760.1,362.6l70.3,125.4 M788.6,355.6
		c-9.8-0.8-19.7-1.7-29.5-2.2c-10.1-0.5-20.3-0.2-30.4,0c-19.8,0.3-39.7-0.3-59.5-0.5c-19.4-0.3-38.8-0.2-58.2,1.4
		c-4.7,0.4-9.9,0.4-14.5,1.7c-1.3,0.4-2.3,0.5-2.2,2c0,0.9-0.3,1.8,0.8,2.1c2.5,0.8,5,1.1,7.6,1.4c9.6,1.3,19.4,1.6,29,2.1
		c19.3,1,38.7-0.1,58-0.6c19.9-0.5,39.8,0.1,59.7-0.1c13.1-0.1,26.1-1.2,39.1-2.2 M705.9,353.4c-2.5,0.6-10.6,1.3-10.3,5
		c0.3,3.4,6.7,3.8,9.2,4.2 M689.2,340c-9.7-1.2-19.5-2.2-29.3-2.1c-9.9,0.1-19.9,0.5-29.8,0.6c-20,0.3-40-1.1-59.8-3.6
		c-2.2-0.3-4.4-0.6-6.6-0.9c-1.4-0.2-5.5-0.1-4.2-2.5 M713.2,346.2l-5.7,7.3 M713.2,370.2l-5.7-7.4 M689.1,376.6
		c-19.2,2.9-38.7,1.8-58.1,1.5c-20.1-0.3-40.3,0.8-60.2,3.4c-2.6,0.3-5.1,0.6-7.7,0.9c-1.6,0.2-4.4,0.2-3.7,2.5 M676.4,400.1
		c-19.4-3.1-38.6-7.1-58.4-7.7c-10-0.3-20,0-30,0.4c-9.5,0.4-19.2,0.8-28.6,2.3c-0.2,0-0.3,0.1-0.5,0.1 M559.3,321.2
		c19.9,2.5,40.4,3.7,60.5,2.7c19.1-0.9,37.9-4.3,56.8-7.3 M551.1,280.4l-1.4,38 M549.4,398.3l1.4,37.5 M477.5,324.7H290.2
		 M477.5,391.7H290.2 M478,406.4l0.2,3.7 M479.4,449.7l0.1,3.9 M480.5,485.3l0.2,3.3 M481.8,492.6v-0.2 M483.5,496.1l-1.7-3.6
		 M527.3,620.8h16.5 M501.5,533.3l1.7,3.5 M521.2,574.3l2.1,4.4 M540.2,613.7l1.5,3 M464.1,476.5c-1.4,0-11.4,0.2-11.4-0.4
		c-0.1-4.1-0.3-8.2-0.4-12.4c-0.3-10-0.6-19.9-0.9-29.9c3.8,0,7.7,0,11.5,0.1 M464.6,490c-3.1,0.8-6.3,1.6-9.4,2.4
		c7.1,12.7,14.2,25.4,21.3,38.1c14.8,26.5,29.7,52.9,44.5,79.4c12.8,22.9,25.6,45.7,38.5,68.6c2.3,4.1,4.6,8.2,6.9,12.4
		c0.3,0.6,0.7,1.3,1.1,1.9c0.2,0.4,4.3,0,4.8,0c2.1,0,4.1,0,6.2,0 M461.5,391.7c0.7,23.6,1.5,47.2,2.2,70.9
		c0.3,8.4,0.5,16.8,0.8,25.2c0.1,2.2-0.4,2.3,2,2.3c4.7,0,9.5,0,14.3,0 M551.2,713.8c0.5-0.4,5.2-4.6,5.1-4.6
		c-0.2-0.2-0.3-0.4-0.5-0.7c-1.1-1.4-2.3-2.9-3.4-4.3c-5-6.2-10-12.5-15-18.7c-17.1-21.4-34.2-42.7-51.3-64.1
		c-19.4-24.3-38.9-48.6-58.3-73c-13.3-16.6-26.6-33.2-39.9-49.9c-7.2-8.9-14.3-17.9-21.5-26.8c-17.4-21.6-34.8-43.3-52.1-64.9
		c-1.2-1.5-2.3-2.9-3.5-4.4 M300.6,402.4c4.9,0,9.9,0,14.8,0c-2.5-3.7-5.6-7.3-8.5-10.8 M464.1,240c-1.3,0-11.4-0.3-11.4,0.3
		c-0.1,4.1-0.3,8.3-0.4,12.4c-0.3,10-0.6,20-0.9,30c3.8-0.1,7.7-0.1,11.5-0.2 M464.6,226.5c-3.1-0.8-6.3-1.6-9.4-2.4
		c7.1-12.7,14.2-25.4,21.3-38.1c14.8-26.5,29.7-52.9,44.5-79.4c12.8-22.9,25.6-45.7,38.5-68.6c2.3-4.1,4.6-8.2,6.9-12.4
		c0.3-0.6,0.7-1.3,1.1-1.9c0.2-0.4,4.3,0,4.8,0c2.1,0,4.1,0,6.2,0 M461.5,324.7c0.7-23.6,1.5-47.2,2.2-70.9
		c0.3-8.4,0.5-16.8,0.8-25.2c0.1-2.2-0.4-2.3,2-2.3c4.7,0,9.5,0,14.3,0 M534.7,95.5l-70.2,131 M498.2,147.3h8.8 M475.9,187.4h9.6
		 M521.1,106.7h7.6 M464.6,490l70.3,130.9 M496.8,566.8h9 M474.5,526.5h9.7 M519.2,606.7h7.9 M542.6,647.7h14 M551.2,2.6
		c0.5,0.4,5.2,4.6,5.1,4.6c-0.2,0.2-0.3,0.4-0.5,0.7c-1.1,1.4-2.3,2.9-3.4,4.3c-5,6.2-10,12.5-15,18.7
		c-17.1,21.4-34.2,42.7-51.3,64.1c-19.4,24.3-38.9,48.6-58.3,73c-13.3,16.6-26.6,33.2-39.9,49.9c-7.2,9-14.3,17.9-21.5,26.8
		c-17.4,21.6-34.8,43.3-52.1,64.9c-1.2,1.5-2.3,2.9-3.5,4.4 M300.6,314c4.9,0,9.9,0,14.8,0c-2.5,3.7-5.6,7.3-8.5,10.8 M63.8,331.6
		c4.3-1.6,8.7-2.8,13.2-3.6c5-0.9,10.2-1.8,15.4-1.3c1.2,0.1,5.1,0.6,2.8,2.4c-1.8,1.4-4,2.3-6.2,3.1c-4.9,1.6-9.8,2.4-14.4,4.8
		c-8.8,4.6-13.7,12-17.6,20.8c-0.6,1.3,1.4,4.3,2,5.5c1.1,2.2,2.4,4.4,3.9,6.3c3.2,4.2,7.2,7.5,11.9,10c3.2,1.7,6.6,2.7,10.1,3.6
		 M85,383.1c1.7,0.4,11.5,2.7,10.9,5.4c-0.6,2.7-10.7,1.2-12.6,1c-9.3-1.1-19.3-3.3-27.3-8.5c-7.6-4.9-14.1-13-16.7-21.7
		c-0.5-1.6,0.3-2.9,1-4.4c1-2.3,2.2-4.5,3.5-6.7c2.4-4.1,5.7-7.8,9.5-10.6c3.3-2.5,6.8-4.2,10.5-5.8 M81.8,327.2l3.4,6 M56.8,358.3
		H39 M85,383.1l-3.4,6.1 M26.1,354.3c3.7,0,5.2,1.9,4.4,5.5c-0.7,3.2-6.7,2.4-9,1.9c-1.3-0.2-2.7-0.1-3.3-1.4
		c-0.4-1-0.4-3.2-0.1-4.2C19,354,24.1,354,26.1,354.3z M19,356.3c1.3,0.4,2.9,0.4,3,1.9c0.1,1.6-1.6,1.5-3,2 M67,374.1l-12,6
		 M67,342l-12-5.8 M527.3,95.4h16.4"/>
	
		<line fill="none" stroke="#000000" stroke-linecap="round" stroke-linejoin="round" stroke-miterlimit="7.6613" x1="543.5" y1="66.4" x2="557.4" y2="66.4"/>
</g>
</svg>
