<!-- Generator: Adobe Illustrator 18.0.0, SVG Export Plug-In  -->
<svg version="1.1"
	 xmlns="http://www.w3.org/2000/svg" xmlns:xlink="http://www.w3.org/1999/xlink" xmlns:a="http://ns.adobe.com/AdobeSVGViewerExtensions/3.0/"
	 x="0px" y="0px" width="374.8px" height="400.5px" viewBox="0 0 374.8 400.5" enable-background="new 0 0 374.8 400.5"
	 xml:space="preserve">
<defs>
</defs>
<g>
	<path fill-rule="evenodd" clip-rule="evenodd" fill="#FFFFFF" d="M374.3,292.5c0.1,0.9-0.1,1.9-0.3,2.8c-0.2,1.1-0.5,0.5-1.2-0.1
		c-1.5-1.6-3.1-3.1-4.7-4.7c-1.9-2-3.8-3.9-5.8-5.9c-0.2-0.2-0.5-0.5-0.8-0.7c-0.4-0.2-0.8,0-1.2-0.2c-0.6-0.2-1.1,0-1.6-0.4
		c-1.1-0.8-1.4-2.4-2.6-3.1c-0.8-0.5-1.8-0.9-2.7-1.3c-5.4-2.6-10.8-5.2-16.2-7.8c-9.2-4.4-18.4-8.9-27.6-13.3
		c-0.2,0.8-0.1,1.7-0.2,2.5c-0.9-0.2-0.5-2.8-1.3-3.2c-1.7-0.8-3.4-1.6-5.1-2.5c-3.7-1.8-7.5-3.6-11.2-5.4c-0.2,1-0.1,2.1-0.4,3.1
		c-0.1,0.5-0.2,0.2-0.3-0.1c-0.2-0.4-0.4-0.9-0.6-1.3c-0.2-0.4-0.5-2.5-0.8-2.7c-0.7-0.3-1.4-0.7-2.1-1c-5.2-2.5-10.4-5-15.6-7.5
		c0,0,0,0,0,0c-0.2,1-0.1,2-0.2,3c-0.1,1.4-0.7-0.8-0.8-1.2c-0.2-0.5-0.3-2.4-0.8-2.7c-0.8-0.4-1.6-0.8-2.5-1.2
		c-5-2.4-10-4.9-15.1-7.3c-0.3,0.9-0.3,2-0.5,3c-0.4,1.6-0.5-0.1-0.7-0.8c-0.2-0.8-0.2-2.8-0.9-3.2c-0.3-0.1-1-0.6-1.4-0.3
		c-0.3,0.2-0.2,1.3-0.3,1.6c-0.1,0.5-0.2,1.1-0.4,1.6c-0.1,0.3-0.4-0.7-0.4-0.8c-0.1-0.2-0.5-2.5-0.6-2.5c-2.6-0.1-5.2-0.2-7.9-0.3
		c-2.3-0.1-4.5-0.1-6.8-0.2c-0.6,0-0.5,0.7-0.6,1.2c-0.2,0.7-0.3,1.4-0.7,2c-0.4-0.8-0.6-1.8-0.8-2.8c-0.1-0.4,0-0.5-0.3-0.5
		c-0.4,0-0.8,0-1.2,0c-3.3-0.1-6.7-0.2-10-0.3c-2.4-0.1-4.9-0.2-7.3-0.2c0,0-0.5,2.2-0.6,2.4c-0.1,0.3-0.1,0.9-0.4,0.7
		c-0.2-0.1-0.4-1.1-0.4-1.3c-0.1-0.6-0.4-1.2-0.4-1.7c0-0.4-1.2-0.2-1.5-0.2c-1.8-0.1-3.6-0.1-5.4-0.2c0,5.5,0,10.9,0,16.4
		c0,4.6-0.9,9-1.7,13.5c-0.5,3-1,6-1.5,9c1.4,0,2.8,0,4.2,0c0.6,0,0.6,0.1,0.8-0.3c0.2-0.4,0.3-1.2,0.4-1.6c0.2-0.9,0.5-2.1,1-2.9
		c0.5-0.7,1.2-0.5,2-0.5c4.9,0,9.8,0.2,14.7,0.6c1.5,0.1,1.7,2.1,1.9,3.4c0.5,2.3,0.8,4.7,0.9,7.1c0.2,4.8-0.1,9.6-0.4,14.4
		c-0.7,9.6-2.1,18.9-4.4,28.3c-0.6,2.5-1.2,5-1.8,7.4c-0.1,0.4-6.3,0-7-0.1c-1.2-0.1-2.3-0.1-3.5-0.2c-0.2,0-1.6-0.2-1.6,0
		c0,0.5-0.1,0.4-0.5,0.6c-2.9,1.5-5.8,2.9-8.7,4.4c-0.7,0.3-1.7,0.6-1.9,1.3c-0.3,1.2-0.6,2.4-0.9,3.7c-0.6,2.5-1.3,4.9-2,7.4
		c0,0.2,1.7,1.3,1.8,1.4c1.7,1.3,3.3,2.6,5,3.9c11,8.7,22.1,17.3,33.1,26c3.8,3,7.5,5.9,11.3,8.9c0.8,0.6,1.6,1.2,2.3,1.9
		c1.4,1.5,2,3.5,2.2,5.6c0.2,2.5,0.2,5,0.2,7.5c0,1,0,2.1,0,3.1c0,0.8,0.3,2.1-0.4,2.7c-0.6,0.6-1.3,0.2-1.9-0.1
		c-1.2-0.5-2.4-1-3.6-1.5c-0.8-0.4-1.6-0.7-2.4-1c-11.9-5.2-23.8-10.4-35.6-15.6c-5.5-2.4-11-4.8-16.5-7.2c-0.3,0.8-0.3,2.1-0.4,3
		c-0.1,0.6-0.1,1.1-0.2,1.7c0,0.6,0,0.6-0.5,0.7c-0.5,0.1-0.7,0.1-0.7-0.4c0-0.6-0.1-1.1-0.2-1.7c-0.1-1-0.1-2.3-0.5-3.3
		c-9.3,4.1-18.6,8.1-27.9,12.2c-9.2,4-18.4,8.1-27.7,12.1c-1.1,0.5-2.3,1.2-3.4,1.5c-0.4,0.1-1,0-1.2-0.4c-0.3-0.7-0.2-1.4-0.2-2.2
		c0-1.2,0-2.4,0-3.6c0-4-0.5-8.9,1.9-12.4c0.6-0.9,1.5-1.5,2.3-2.1c1.3-1,2.6-2.1,4-3.1c4.9-3.8,9.8-7.7,14.7-11.5
		c10.2-8,20.4-16,30.6-24c0.8-0.6,1.6-1.3,2.5-1.9c0.2-0.2-0.6-2.2-0.7-2.5c-0.3-1.1-0.6-2.2-0.9-3.3c-0.3-1.3-0.6-2.5-1-3.8
		c-0.2-0.9-0.2-1.7-1-2.2c-2.9-1.5-5.8-2.9-8.8-4.4c-0.5-0.2-0.9-0.5-1.4-0.7c-0.2-0.1-0.5-0.6-0.5-0.6c-1.2,0.1-2.5,0.2-3.7,0.2
		c-2.4,0.1-4.8,0.2-7.3,0.2c-0.7,0-0.9,0.2-1.1-0.5c-0.2-0.8-0.4-1.7-0.6-2.5c-0.2-0.9-0.4-1.9-0.6-2.9c-0.6-2.4-1.2-4.9-1.7-7.3
		c-2.2-9.5-3-19.2-3.5-29c-0.3-4.8-0.1-9.6,0.6-14.4c0.2-1,0.5-2.1,0.9-3c0.4-1.2,1-1,2.2-1.2c2.2-0.3,4.4-0.3,6.5-0.4
		c2.1-0.1,4.1-0.1,6.2-0.1c1.3,0,2.5-0.4,3.2,0.8c0.8,1.3,0.7,2.8,1.2,4.1c0.1,0.3,0,0.4,0.3,0.4c0.6,0,1.1,0,1.7,0c1,0,2,0,3,0
		c-0.9-4.9-1.7-9.8-2.5-14.7c-0.8-4.6-0.7-9.2-0.7-13.8c0-3.4,0-6.9,0-10.3c-1.3,0-2.6,0.1-3.9,0.1c-0.8,0-1.6,0-2.3,0.1
		c-0.5,0-0.7-0.1-0.7,0.4c-0.1,1-0.4,1.9-0.7,2.9c-0.1,0.3-0.4-0.6-0.4-0.7c-0.2-0.5-0.4-1.1-0.4-1.6c-0.1-1-0.1-0.9-1-0.8
		c-1.3,0-2.6,0.1-3.9,0.1c-3.6,0.1-7.1,0.2-10.7,0.3c-1,0-2,0.1-3.1,0.1c-0.5,0-0.5,1.5-0.7,1.9c-0.1,0.4-0.3,0.8-0.4,1.2
		c-0.1,0.4-0.2,0.1-0.3-0.2c-0.2-0.4-0.3-1-0.4-1.5c-0.1-0.3-0.1-1.3-0.3-1.4c-0.3-0.3-2,0.1-2.4,0.1c-1.7,0.1-3.5,0.1-5.2,0.2
		c-1.7,0.1-3.5,0.1-5.2,0.2c-0.2,0-2.2-0.1-2.2,0.1c-0.3,1-0.4,2.1-0.8,3.1c-0.2,0.5-0.3-0.2-0.3-0.4c-0.1-0.6-0.3-1.2-0.4-1.8
		c-0.1-0.7-0.2-1.2-1-0.8c-0.9,0.4-1,0.6-1.1,1.6c-0.2,1.2-0.5,2.3-0.8,3.5c-0.5-0.2-0.5-2.1-0.6-2.6c-0.1-1,0-1.2-0.9-0.8
		c-2.7,1.3-5.5,2.7-8.2,4c-2.7,1.3-5.4,2.6-8.1,3.9c-0.8,0.4-0.7,0.7-0.9,1.6c-0.1,0.3-0.7,3-1,3c-0.4,0-0.3-3.1-0.4-3.5
		c-5.1,2.5-10.2,4.9-15.3,7.4c-0.8,0.4-1.5,0.7-2.3,1.1c-0.3,0.2-0.6,1.8-0.7,2.2c-0.1,0.5-0.4,1-0.6,1.5c-0.1,0.1-0.3,0.9-0.5,0.7
		c-0.2-0.3-0.2-1-0.2-1.3c0-0.3,0.1-1.6-0.1-1.8c-0.4-0.4-2.9,1.2-3.4,1.5c-2.5,1.2-5,2.4-7.5,3.6c-1.8,0.9-3.6,1.7-5.4,2.6
		c-0.5,0.3-0.5,0.6-0.7,1.2c-0.2,0.7-0.4,1.4-0.7,2c-0.4-0.6-0.1-1.8-0.3-2.5c-9.8,4.7-19.6,9.5-29.4,14.2
		c-5.1,2.4-10.1,4.9-15.2,7.3c-0.8,0.4-1.9,0.7-2.5,1.4c-0.8,0.9-1.2,2.4-2.4,2.9c-0.6,0.2-1.2,0.1-1.8,0.2
		c-0.6,0.1-0.9,0.4-1.3,0.8c-2.2,2.3-4.5,4.6-6.7,6.8c-1,1-1.9,2-2.9,3c-0.4,0.4-1.3,1.7-1.7,1.7c-0.6,0-0.7-3.9-0.4-4.6
		c0.6-1.6,1.8-3.2,2.7-4.7c1.8-3,3.5-6.1,5.3-9.1c2.3-4,4.5-7.9,7-11.8c0.9-1.4,1.8-2.5,3.1-3.5c0.4-0.3,0.8-0.6,1.2-1
		c2.1-1.7,4.3-3.5,6.4-5.2c8.4-6.8,16.8-13.5,25.2-20.3c11.4-9.1,22.7-18.3,34.1-27.4c11.3-9.1,22.7-18.2,34-27.4
		c8.3-6.7,16.6-13.4,24.9-20c3.5-2.8,7.1-5.7,10.6-8.5c4.4-3.5,8.7-7.1,13.2-10.5c0.9-0.7,1.7-1.5,2.4-2.4c0.3-0.4,0.7-0.8,0.7-1.2
		c0-1,0-1.9,0-2.9c0-11.8,0-23.6,0-35.4c0-13.5,0-27.1,0-40.6c0-6.8-0.2-13.7,0.6-20.4c0.5-4.5,1.1-9,2.2-13.4
		c1.1-4.5,2.8-8.8,4.7-13c0.9-2,2.1-4.1,3.4-5.9c1.2-1.7,2.2-3.7,3.7-5.1c0.7-0.7,1.8-0.8,2.5-0.1c1.5,1.3,2.7,3.4,3.7,5.1
		c4.9,7.7,8.1,16.6,9.5,25.6c1.1,7.1,1.5,14.1,1.5,21.3c0,11.6,0,23.3,0,34.9c0,13.6,0,27.3,0,40.9c0,3,0,6,0,9c0,0.4,0.4,0.7,0.6,1
		c0.6,0.9,1.4,1.6,2.2,2.3c0.8,0.7,1.7,1.4,2.5,2c4.3,3.5,8.6,6.9,12.9,10.4c9.1,7.4,18.3,14.7,27.4,22.1
		c11.5,9.3,23,18.5,34.5,27.8c11.4,9.1,22.7,18.3,34.1,27.4c8.8,7,17.5,14.1,26.3,21.1c3.6,2.9,7.3,5.9,10.9,8.8
		c1.5,1.2,3,2.4,4,4.1c1.1,1.8,2.3,3.5,3.3,5.3c2.9,5,5.8,10,8.7,15c0.6,1.1,1.2,2.2,1.9,3.2C373.4,290,374.2,291.1,374.3,292.5z"/>
</g>
<path fill="none" stroke="#000000" stroke-linecap="round" stroke-linejoin="round" stroke-miterlimit="7.6613" d="M188.8,1.2
	c6,7.5,10,16.3,12.1,25.6c2.2,9.8,2.4,19.7,2.4,29.6c0,9.7,0,19.4,0,29.1c0,9.6,0,19.3,0,28.9c0,4.9,0,9.9,0,14.8c0,2.3,0,4.7,0,7
	c0,0.4-0.2,1.5,0,1.8c0.4,0.6,0.8,1.1,1.3,1.7c0.8,0.9,1.7,1.6,2.6,2.3c7.8,6.3,15.7,12.6,23.5,18.9c7.7,6.2,15.5,12.4,23.2,18.6
	c7.9,6.3,15.7,12.7,23.6,19c7.7,6.2,15.5,12.5,23.2,18.7c8,6.4,16,12.9,24,19.3c7.8,6.3,15.7,12.6,23.5,18.9c1.9,1.5,3.8,3,5.7,4.6
	c2.1,1.7,3.8,3.1,5.3,5.3c2.7,4,5,8.4,7.4,12.5c1.3,2.2,2.5,4.3,3.8,6.5c1.3,2.2,2.8,4.3,3.7,6.7c0.4,1.1,0.1,2.5-0.1,3.6
	c-0.1,0.6,0,0.9-0.6,0.6c-0.4-0.2-0.8-0.8-1.2-1.2c-1.7-1.8-3.4-3.5-5.1-5.3c-0.9-0.9-1.8-1.8-2.7-2.7c-0.8-0.8-1.6-1.9-2.5-2.5
	c-1.1-0.7-2.4-0.1-3.3-1.1c-0.9-0.9-1.3-2-2.3-2.8c-0.9-0.7-2.1-1.1-3.2-1.6c-1.1-0.5-2.2-1.1-3.3-1.6c-2.2-1.1-4.5-2.2-6.7-3.2
	c-8.9-4.3-17.8-8.6-26.8-12.9c-2.2-1.1-4.4-2.1-6.7-3.2c0,0.3-0.1,2.5-0.3,2.5c-0.3-0.1-0.7-2.2-0.8-2.5c-0.3-1-1.7-1.3-2.6-1.7
	c-0.9-0.4-1.8-0.9-2.7-1.3c-3.8-1.8-7.6-3.7-11.4-5.5c0,0.4-0.1,3.2-0.5,3.3c-0.2,0.1-1-2.1-1.1-2.4c-0.2-0.6-0.4-1.2-0.5-1.8
	c-0.1-0.4-1-0.6-1.4-0.8c-1.1-0.5-2.2-1.1-3.3-1.6c-4.2-2-8.5-4.1-12.7-6.1c-0.1-0.1-0.3-0.1-0.4-0.2c0,0.4,0,3.4-0.3,3.5
	c-0.3,0.1-0.9-2.5-1-2.9c-0.1-0.4-0.1-1.3-0.5-1.4c-0.6-0.3-1.2-0.6-1.8-0.9c-1.1-0.5-2.1-1-3.2-1.5c-4.2-2-8.4-4.1-12.6-6.1
	c-0.2,1.1-0.3,2.3-0.6,3.4c-0.2,0.8-0.3,0.1-0.4-0.3c-0.1-0.6-0.3-1.1-0.4-1.7c-0.1-0.6-0.2-1.2-0.3-1.8c-0.1-0.5-0.8-0.8-1.3-0.9
	c-0.7-0.1-0.6,0.2-0.7,0.8c-0.1,0.6-0.1,1.1-0.3,1.7c-0.1,0.2-0.2,1.2-0.4,0.5c-0.1-0.5-0.3-1-0.5-1.5c-0.1-0.3-0.1-1.4-0.3-1.5
	c-0.2-0.2-1.4,0-1.8-0.1c-2.5-0.1-5-0.2-7.5-0.2c-1.5,0-3-0.1-4.5-0.2c-0.2,0-1-0.2-1.2,0c-0.2,0.1-0.1,0.8-0.2,1.1
	c-0.2,0.8-0.4,1.5-0.8,2.2c-0.1-0.3-0.9-3.3-0.9-3.3c-1.3,0-2.5-0.1-3.8-0.1c-2.4-0.1-4.8-0.2-7.2-0.2c-2.4-0.1-4.8-0.2-7.2-0.2
	c-0.8,0-0.5,0.4-0.7,1c-0.1,0.6-0.3,1.2-0.5,1.8c-0.3,0.8-0.4,0.1-0.5-0.4c-0.2-0.6-0.3-1.1-0.4-1.7c0-0.2,0-0.7-0.1-0.9
	c-0.1-0.1-0.9,0-1.1,0c-0.6,0-1.2,0-1.7-0.1c-1.4,0-2.8-0.1-4.1-0.1c0,4.7,0,9.5,0,14.2c0,4.9-0.6,9.6-1.5,14.4
	c-0.6,3.4-1.2,6.8-1.8,10.2c1.2,0,2.3,0,3.5,0c0.4,0,1.3,0.2,1.4-0.2c0.1-0.7,0.3-1.3,0.5-2c0.2-0.8,0.5-2.5,1.2-3
	c0.8-0.5,2.7-0.1,3.6-0.1c2.5,0,5,0.1,7.6,0.3c1.2,0.1,2.5,0.1,3.7,0.2c1.2,0.1,2.3-0.1,2.8,1.1c1.7,4.4,1.7,9.5,1.6,14.1
	c-0.1,4.9-0.4,9.7-0.8,14.6c-0.9,9.4-2.8,18.6-5.1,27.8c-0.1,0.4-0.6,3.2-0.9,3.2c-1.4,0-2.8,0-4.2-0.1c-2.6-0.1-5.2-0.2-7.7-0.4
	c0.1,0.8-1.6,1.2-2.2,1.6c-1.1,0.5-2.2,1.1-3.2,1.6c-1,0.5-1.9,1-2.9,1.5c-0.9,0.4-2.6,0.9-2.8,1.9c-0.6,2.4-1.2,4.8-1.9,7.2
	c-0.3,1.2-0.7,2.5-1,3.7c-0.1,0.2,2.6,2.1,2.9,2.4c7.8,6.1,15.5,12.2,23.3,18.2c7.8,6.1,15.5,12.2,23.3,18.2
	c1.7,1.4,4.2,2.8,5.2,4.9c1,2.3,1.2,4.6,1.2,7.1c0.1,2.4,0.1,4.8,0.1,7.2c0,0.8,0.4,2.7-0.6,3.1c-1,0.4-2.3-0.5-3.3-0.9
	c-8.7-3.8-17.5-7.7-26.2-11.5c-9-3.9-18.1-7.9-27.1-11.8c-1.1-0.5-2.2-1-3.3-1.5c-0.2,1.2-0.3,2.3-0.4,3.5c-0.1,0.8,0.2,2.1-0.8,2
	c-0.6-0.1-0.6-0.1-0.6-0.7c0-0.5-0.1-1-0.1-1.5c-0.1-1.1-0.3-2.1-0.4-3.2c-8.7,3.8-17.4,7.6-26.2,11.5c-8.8,3.9-17.7,7.7-26.5,11.6
	c-1,0.5-2.1,0.9-3.1,1.3c-1,0.4-2.3,1.3-3.4,1.4c-1.5,0.2-1.3-1.6-1.3-2.6c0-1.4,0-2.7,0-4.1c0-4.5-0.5-10,3.2-13.2
	c3.8-3.2,7.8-6.2,11.7-9.2c3.8-3,7.7-6,11.5-9c7.8-6.1,15.6-12.2,23.4-18.4c2-1.6,4-3.2,6.1-4.8c0.2-0.2-0.8-3-0.9-3.4
	c-0.3-1.3-0.7-2.5-1-3.8c-0.3-1.1-0.6-2.3-0.9-3.4c-0.2-0.9-0.2-0.9-1-1.3c-0.6-0.3-1.1-0.6-1.7-0.9c-2-1-4-2-6-3
	c-0.7-0.3-2.7-0.9-2.5-1.7c-2.5,0.2-5,0.3-7.6,0.3c-1.3,0-2.5,0-3.8,0.1c-1,0-0.8-0.2-1-1.1c-0.1-0.6-0.3-1.2-0.4-1.8
	c-1.1-4.7-2.3-9.4-3.3-14.2c-1.8-9.2-2.6-18.6-2.8-27.9c-0.1-4.8,0-9.9,1.6-14.4c0.5-1.3,1-1.1,2.3-1.3c1.1-0.1,2.3-0.2,3.4-0.3
	c2.4-0.1,4.8-0.2,7.3-0.2c1.3,0,2.6-0.1,3.9-0.1c1.3,0,1.7,1.5,2,2.6c0.2,0.6,0.3,1.2,0.4,1.8c0,0.1,0.1,0.9,0.2,0.9
	c0.4,0,0.8,0,1.1,0c1.2,0,2.5,0,3.7,0c-0.8-4.7-1.7-9.4-2.5-14.1c-0.7-4.6-0.8-9.2-0.8-13.9c0-3.6,0-7.3,0-10.9
	c-1.2,0-2.3,0.1-3.5,0.1c-0.6,0-1.2,0-1.8,0.1c-0.4,0-1.5-0.2-1.7,0.1c-0.2,0.2-0.2,1.4-0.3,1.7c0,0.2-0.4,1.6-0.6,1.6
	c-0.4,0-0.7-2.2-0.8-2.5c-0.2-0.9-0.1-0.8-1-0.7c-0.6,0-1.3,0-1.9,0.1c-1.1,0-2.3,0.1-3.4,0.1c-2.4,0.1-4.8,0.2-7.2,0.2
	c-1.3,0-2.5,0.1-3.8,0.1c-0.2,0-1.5-0.1-1.5,0.1c-0.1,0.6-0.3,1.2-0.4,1.8c-0.1,0.2-0.4,1.5-0.5,1.4c-0.2,0-0.4-1-0.4-1.2
	c-0.1-0.5-0.3-1-0.4-1.5c0-0.2,0-0.6-0.3-0.6c-0.4,0-0.9,0-1.3,0c-2.5,0.1-5,0.2-7.5,0.2c-1.2,0-2.4,0.1-3.6,0.1
	c-0.6,0-1.3,0-1.9,0.1c-0.3,0-0.5-0.1-0.6,0.2c-0.1,0.3-0.1,0.7-0.2,1c-0.1,0.5-0.3,1.8-0.6,2.1c-0.1,0.1-0.4-1.1-0.4-1.3
	c-0.1-0.3-0.2-1.9-0.4-1.9c-0.5,0-1.4,0.1-1.7,0.5c-0.3,0.4-0.3,1.8-0.4,2.3c-0.2,0.7-0.3,1.5-0.5,2.3c-0.1,0.3-0.2-0.4-0.2-0.4
	c-0.1-0.4-0.1-0.7-0.2-1.1c-0.1-0.7-0.2-1.5-0.3-2.2c-4.2,2-8.4,4.1-12.6,6.1c-1.1,0.5-2.1,1-3.2,1.5c-0.5,0.3-1.1,0.5-1.6,0.8
	c-0.5,0.2-0.4,0.9-0.6,1.4c-0.1,0.4-1,3.1-1,3c-0.4-0.5-0.2-2.3-0.3-2.9c0-0.2,0-0.4,0-0.6c-4.2,2-8.5,4.1-12.7,6.1
	c-1.1,0.5-2.1,1-3.2,1.5c-0.5,0.3-1.1,0.5-1.6,0.8c-0.5,0.2-0.5,0.9-0.7,1.4c-0.2,0.6-0.4,1.2-0.7,1.9c-0.1,0.2-0.6,1.4-0.7,1.2
	c-0.4-0.8-0.3-2.3-0.4-3.2c0,0,0-0.1,0-0.1c-3.3,1.6-6.6,3.2-9.9,4.8c-1.6,0.8-3.3,1.6-4.9,2.4c-0.4,0.2-0.7,0.3-1.1,0.5
	c-0.6,0.3-0.6,0.3-0.8,1c-0.2,0.7-0.4,1.9-0.8,2.3c-0.2-0.8-0.2-1.7-0.2-2.5c-8.7,4.2-17.4,8.4-26.1,12.6c-4.4,2.1-8.8,4.2-13.1,6.3
	c-2.3,1.1-4.6,2.2-6.8,3.3c-1.1,0.5-1.6,1.6-2.2,2.5c-0.7,1.1-1.6,1.2-2.8,1.3c-1.2,0.1-2,1.3-2.8,2.1c-0.8,0.8-1.5,1.5-2.3,2.3
	c-1.6,1.7-3.3,3.3-4.9,5c-0.9,0.9-1.8,1.8-2.7,2.7c-0.5,0.5-0.7-2-0.7-2.3c-0.1-1.1-0.1-2,0.5-2.9c0.6-1.1,1.2-2.1,1.8-3.2
	c2.3-4.1,4.7-8.1,7.1-12.1c1.2-2,2.4-4,3.6-6.1c0.6-1,1.2-2,1.8-3c0.7-1,1.3-2.2,2.2-3c3.6-3.2,7.5-6.1,11.2-9.1
	c4.1-3.3,8.2-6.6,12.3-9.9c7.8-6.3,15.6-12.5,23.4-18.8c7.7-6.2,15.4-12.4,23.1-18.6c7.8-6.2,15.5-12.5,23.3-18.7
	c8-6.4,15.9-12.8,23.9-19.2c7.7-6.2,15.5-12.4,23.2-18.6c2-1.6,4-3.2,6-4.8c1.8-1.5,3.9-2.9,5.6-4.6c0.5-0.5,2.1-1.8,2.1-2.5
	c0-1.3,0-2.5,0-3.8c0-2.4,0-4.9,0-7.3c0-9.8,0-19.7,0-29.5c0-9.7,0-19.3,0-29c0-9.8-0.4-19.8,0.5-29.6c0.9-9.6,3.2-19.2,7.6-27.8
	c1.2-2.3,2.5-4.4,3.9-6.5C184.5,3,186.8-1.1,188.8,1.2z M249.2,394.3l-59.8-33.4 M185.3,360.9l-59.5,33.3 M188.6,374.4
	c0.4-4.7,0.8-9.3,1-14c0.2-4.8,0.1-9.6,0-14.4c-0.1-9.4,0.1-18.8,0.3-28.2c0.1-9.2,0.1-18.4-0.7-27.6c-0.2-2.2-0.2-4.7-0.8-6.9
	c-0.2-0.6-0.2-1.1-0.9-1.1c-0.4,0-0.9-0.1-1,0.4c-0.4,1.2-0.5,2.4-0.7,3.6c-0.6,4.5-0.8,9.2-1,13.8c-0.5,9.2,0,18.4,0.3,27.5
	c0.3,9.4,0,18.9,0,28.3c0.1,6.2,0.6,12.4,1,18.6 M189.7,335.2c-0.3-1.2-0.6-5-2.4-4.9c-1.6,0.1-1.8,3.2-2,4.4 M196,327.3
	c0.6-4.6,1-9.2,1-13.9c0-4.7-0.2-9.4-0.3-14.2c-0.1-9.5,0.5-19,1.7-28.4c0.1-1,0.3-2.1,0.4-3.1c0.1-0.7,0-2.6,1.2-2 M193.1,338.7
	l-3.5-2.7 M181.7,338.7l3.5-2.7 M178.7,327.2c-1.4-9.1-0.8-18.4-0.7-27.6c0.1-9.5-0.4-19.1-1.6-28.6c-0.2-1.2-0.3-2.4-0.4-3.6
	c-0.1-0.8-0.1-2.1-1.2-1.8 M167.5,321.2c1.5-9.2,3.4-18.3,3.6-27.7c0.1-4.7,0-9.5-0.2-14.2c-0.2-4.5-0.4-9.1-1.1-13.6
	c0-0.1,0-0.2,0-0.2 M205,265.6c-1.2,9.4-1.7,19.2-1.3,28.7c0.4,9.1,2,18,3.4,26.9 M224.3,261.7l-18-0.7 M168.4,261l-17.8,0.7
	 M203.3,226.8V138 M171.5,226.8V138 M164.5,227.1l-1.8,0.1 M144,227.7l-1.9,0 M127.1,228.3l-1.6,0.1 M123.6,228.9L123.6,228.9
	 M122,229.7l1.7-0.8 M62.8,250.4v7.8 M104.3,238.2l-1.6,0.8 M84.9,247.6l-2.1,1 M66.2,256.6l-1.4,0.7 M12.8,283.6
	c0.8-4.8,1.6-10.2,0.8-15.1 M18.6,279.5c-0.1-5.8-0.3-11.5-0.6-17.3 M131.2,220.5c0-0.6-0.1-5.4,0.2-5.4c2-0.1,3.9-0.1,5.9-0.2
	c4.7-0.1,9.5-0.3,14.2-0.4c0,1.8,0,3.6,0,5.4 M124.9,220.7c-0.4-1.5-0.8-3-1.2-4.5c-6,3.4-12,6.7-18.1,10.1
	c-12.6,7-25.1,14.1-37.7,21.1c-10.9,6.1-21.7,12.2-32.5,18.2c-2,1.1-3.9,2.2-5.9,3.3c-0.3,0.2-0.6,0.3-0.9,0.5c-0.2,0.1,0,2,0,2.3
	c0,1,0,1.9,0,2.9 M171.5,219.2c-11.2,0.4-22.4,0.7-33.6,1c-4,0.1-8,0.2-12,0.4c-1.1,0-1.1-0.2-1.1,1c0,2.3,0,4.5,0,6.8 M18.7,261.8
	c0.2,0.2,2.2,2.4,2.2,2.4c0.1-0.1,0.2-0.2,0.3-0.2c0.7-0.5,1.4-1.1,2-1.6c3-2.4,5.9-4.7,8.9-7.1c10.1-8.1,20.3-16.2,30.4-24.3
	c11.5-9.2,23.1-18.5,34.6-27.7c7.9-6.3,15.8-12.6,23.7-18.9c4.2-3.4,8.5-6.8,12.7-10.2c10.3-8.2,20.5-16.5,30.8-24.7
	c0.7-0.6,1.4-1.1,2.1-1.7 M166.4,142.9c0,2.3,0,4.7,0,7c1.8-1.2,3.5-2.7,5.1-4 M362,283.6c-0.8-4.8-1.6-10.2-0.8-15.1 M356.1,279.5
	c0.1-5.8,0.3-11.5,0.6-17.3 M243.5,220.5c0-0.6,0.1-5.4-0.2-5.4c-2-0.1-3.9-0.1-5.9-0.2c-4.7-0.1-9.5-0.3-14.2-0.4
	c0,1.8,0.1,3.6,0.1,5.4 M249.9,220.7c0.4-1.5,0.8-3,1.2-4.5c6,3.4,12,6.7,18.1,10.1c12.6,7,25.1,14.1,37.7,21.1
	c10.8,6.1,21.7,12.2,32.5,18.2c2,1.1,3.9,2.2,5.9,3.3c0.3,0.2,0.6,0.3,0.9,0.5c0.2,0.1,0,2,0,2.3c0,1,0,1.9,0,2.9 M203.3,219.2
	c11.2,0.4,22.4,0.7,33.6,1c4,0.1,8,0.2,12,0.4c1.1,0,1.1-0.2,1.1,1c0,2.3,0,4.5,0,6.8 M312,254l-62.1-33.3 M287.5,236.6v4.2
	 M268.4,226.1v4.5 M306.7,247.5v3.6 M124.9,220.7l-62.1,33.4 M88.4,236v4.3 M107.6,225.4v4.6 M69.5,246.6v3.7 M50,257.7v6.7
	 M356.1,261.8c-0.2,0.2-2.2,2.4-2.2,2.4c-0.1-0.1-0.2-0.2-0.3-0.2c-0.7-0.5-1.4-1.1-2-1.6c-3-2.4-5.9-4.7-8.9-7.1
	c-10.1-8.1-20.3-16.2-30.4-24.3c-11.5-9.2-23.1-18.5-34.6-27.7c-7.9-6.3-15.8-12.6-23.7-18.9c-4.2-3.4-8.5-6.8-12.7-10.2
	c-10.3-8.2-20.5-16.5-30.8-24.7c-0.7-0.6-1.4-1.1-2.1-1.7 M208.4,142.9c0,2.3,0,4.7,0,7c-1.8-1.2-3.5-2.7-5.1-4 M200,30.5
	c0.8,2,1.3,4.1,1.7,6.3c0.4,2.4,0.9,4.9,0.6,7.3c-0.1,0.6-0.3,2.4-1.2,1.3c-0.7-0.9-1.1-1.9-1.5-2.9c-0.8-2.3-1.1-4.6-2.3-6.8
	c-2.2-4.2-5.7-6.5-9.9-8.3c-0.6-0.3-2,0.7-2.6,0.9c-1.1,0.5-2.1,1.1-3,1.9c-2,1.5-3.6,3.4-4.7,5.6c-0.8,1.5-1.3,3.1-1.7,4.8
	 M175.6,40.6c-0.2,0.8-1.3,5.5-2.5,5.2c-1.3-0.3-0.6-5.1-0.5-6c0.5-4.4,1.6-9.1,4-12.9c2.3-3.6,6.2-6.7,10.3-7.9
	c0.8-0.2,1.4,0.2,2.1,0.5c1.1,0.5,2.1,1,3.2,1.6c1.9,1.1,3.7,2.7,5,4.5c1.2,1.6,2,3.2,2.8,5 M202.1,39.1l-2.9,1.6 M187.4,27.2v-8.5
	 M175.6,40.6l-2.9-1.6 M189.2,12.6c0,1.7-0.9,2.5-2.6,2.1c-1.5-0.3-1.1-3.2-0.9-4.3c0.1-0.6,0.1-1.3,0.7-1.5c0.5-0.2,1.5-0.2,2,0
	C189.4,9.3,189.4,11.7,189.2,12.6z M188.3,9.3c-0.2,0.6-0.2,1.4-0.9,1.4c-0.8,0-0.7-0.8-0.9-1.4 M179.8,32l-2.8-5.7 M195.1,32
	l2.8-5.7 M312.1,250.4v7.8"/>
<line fill="none" stroke="#000000" stroke-linecap="round" stroke-linejoin="round" stroke-miterlimit="7.6613" x1="325.8" y1="258.1" x2="325.8" y2="264.7"/>
<path fill="#0099CC" d="M205,265.9c-1.2,9.4-1.7,19.2-1.3,28.7c0.4,9.1,2,18,3.4,26.9v0c2.6,0.2,5.2,0.3,7.7,0.4
	c1.4,0,2.8,0,4.2,0.1c0.4,0,0.8-2.7,0.9-3.2c2.3-9.2,4.2-18.4,5.1-27.8c0.5-4.8,0.7-9.7,0.8-14.6c0.1-4.6,0.1-9.7-1.6-14.1
	c-0.5-1.3-1.6-1.1-2.8-1.1c-1.2-0.1-2.5-0.1-3.7-0.2c-2.5-0.1-5-0.2-7.6-0.3c-0.9,0-2.9-0.4-3.6,0.1c-0.8,0.5-1,2.2-1.2,3
	c-0.2,0.7-0.3,1.3-0.5,2"/>
<path fill="#0099CC" d="M169.9,265.8c-0.1-0.7-0.3-1.3-0.5-2c-0.2-0.8-0.5-2.5-1.2-3c-0.8-0.5-2.7-0.1-3.6-0.1c-2.5,0-5,0.1-7.6,0.3
	c-1.2,0.1-2.5,0.1-3.7,0.2c-1.2,0.1-2.3-0.1-2.8,1.1c-1.7,4.4-1.7,9.5-1.6,14.1c0.1,4.9,0.4,9.7,0.8,14.6c0.9,9.4,2.8,18.6,5.1,27.8
	c0.1,0.4,0.6,3.2,0.9,3.2c1.4,0,2.8,0,4.2-0.1c2.6-0.1,5.2-0.2,7.7-0.4v0c1.4-9,3-17.9,3.4-26.9c0.5-9.5-0.1-19.3-1.3-28.7"/>
</svg>
