<!-- Generator: Adobe Illustrator 18.0.0, SVG Export Plug-In  -->
<svg version="1.1"
	 xmlns="http://www.w3.org/2000/svg" xmlns:xlink="http://www.w3.org/1999/xlink" xmlns:a="http://ns.adobe.com/AdobeSVGViewerExtensions/3.0/"
	 x="0px" y="0px" width="42.5px" height="34.2px" viewBox="0 0 42.5 34.2" enable-background="new 0 0 42.5 34.2"
	 xml:space="preserve">
<defs>
</defs>
<g id="APU_3_">
	<g id="XMLID_1_">
		<g id="GV_ref_x5F_AC_Elec_2_">
			<g id="APU_4_">
				<path fill="#E5E5E5" stroke="#000000" stroke-width="1.5" d="M21.2,33.4c-6.2,0-7.6-1.7-7.6-1.7C10.3,28.4,2.1,12.3,1.2,7
					C0.6,3.5,0.8,0.8,0.8,0.8h40.9c0,0,0.2,2.8-0.4,6.3c-0.9,5.2-9.1,21.3-12.4,24.7C28.9,31.7,27.5,33.4,21.2,33.4z"/>
				<path fill="#E5E5E5" stroke="#000000" stroke-width="1.5" d="M21.2,33.4c-6.2,0-7.6-1.7-7.6-1.7C10.3,28.4,2.1,12.3,1.2,7
					C0.6,3.5,0.8,0.8,0.8,0.8h40.9c0,0,0.2,2.8-0.4,6.3c-0.9,5.2-9.1,21.3-12.4,24.7C28.9,31.7,27.5,33.4,21.2,33.4z"/>
				<ellipse fill="#E5E5E5" stroke="#000000" stroke-width="1.5" cx="21.2" cy="31.1" rx="7.9" ry="2.3"/>
			</g>
		</g>
	</g>
</g>
</svg>
