<?xml version="1.0" encoding="iso-8859-1"?>
<!-- Generator: Adobe Illustrator 18.0.0, SVG Export Plug-In . SVG Version: 6.00 Build 0)  -->
<!DOCTYPE svg PUBLIC "-//W3C//DTD SVG 1.1//EN" "http://www.w3.org/Graphics/SVG/1.1/DTD/svg11.dtd">
<svg version="1.1" xmlns="http://www.w3.org/2000/svg" xmlns:xlink="http://www.w3.org/1999/xlink" x="0px" y="0px"
	 viewBox="0 0 36.234 28.875" style="enable-background:new 0 0 36.234 28.875;" xml:space="preserve">
<g id="APU_x5F_notRunning">
	<linearGradient id="SVGID_1_" gradientUnits="userSpaceOnUse" x1="0" y1="14.4375" x2="36.2338" y2="14.4375">
		<stop  offset="0" style="stop-color:#999999"/>
		<stop  offset="1" style="stop-color:#191919"/>
	</linearGradient>
	<path style="fill:url(#SVGID_1_);" d="M18.117,28.875c-5.523,0-6.746-1.49-6.746-1.49C8.404,24.418,1.185,10.201,0.39,5.568
		C-0.143,2.473,0.025,0,0.025,0h36.184c0,0,0.168,2.473-0.365,5.568c-0.795,4.633-8.014,18.85-10.981,21.816
		C24.863,27.385,23.64,28.875,18.117,28.875z"/>
	<path style="fill:none;" d="M18.117,28.875c-5.523,0-6.746-1.49-6.746-1.49C8.404,24.418,1.185,10.201,0.39,5.568
		C-0.143,2.473,0.025,0,0.025,0h36.184c0,0,0.168,2.473-0.365,5.568c-0.795,4.633-8.014,18.85-10.981,21.816
		C24.863,27.385,23.64,28.875,18.117,28.875z"/>
	<linearGradient id="SVGID_2_" gradientUnits="userSpaceOnUse" x1="11.0974" y1="26.8486" x2="25.1364" y2="26.8486">
		<stop  offset="0" style="stop-color:#999999"/>
		<stop  offset="0.4322" style="stop-color:#5B5B5B"/>
		<stop  offset="0.8118" style="stop-color:#2B2B2B"/>
		<stop  offset="1" style="stop-color:#191919"/>
	</linearGradient>
	<ellipse style="fill:url(#SVGID_2_);" cx="18.117" cy="26.848" rx="7.02" ry="2.027"/>
</g>
<g id="Layer_1">
</g>
</svg>
