<!-- Generator: Adobe Illustrator 18.0.0, SVG Export Plug-In  -->
<svg version="1.1"
	 xmlns="http://www.w3.org/2000/svg" xmlns:xlink="http://www.w3.org/1999/xlink" xmlns:a="http://ns.adobe.com/AdobeSVGViewerExtensions/3.0/"
	 x="0px" y="0px" width="41.1px" height="76.4px" viewBox="0 0 41.1 76.4" enable-background="new 0 0 41.1 76.4"
	 xml:space="preserve">
<defs>
</defs>
<g id="R_Engine_1_">
	<g id="XMLID_1_">
		<g id="GV_ref_x5F_AC_Elec_1_">
			<g>
				<path fill="#E5E5E5" stroke="#000000" stroke-width="1.5" d="M32.4,0.8c0,0,8.6,0.1,7.9,6.6c-0.7,6.5-6.9,64.5-6.9,64.5
					c0,2.1-5.8,3.7-12.9,3.7c-7.1,0-12.9-1.7-12.9-3.7c0,0-6.2-58-6.9-64.5C0.1,0.9,8.7,0.8,8.7,0.8H32.4z"/>
				<path fill="#E5E5E5" stroke="#000000" stroke-width="1.5" d="M32.4,0.8c0,0,8.6,0.1,7.9,6.6c-0.7,6.5-6.9,64.5-6.9,64.5
					c0,2.1-5.8,3.7-12.9,3.7c-7.1,0-12.9-1.7-12.9-3.7c0,0-6.2-58-6.9-64.5C0.1,0.9,8.7,0.8,8.7,0.8H32.4z"/>
				<path fill="#E5E5E5" stroke="#000000" stroke-width="1.5" d="M33.4,71.9c0,2.1-5.8,3.7-12.9,3.7c-7.1,0-12.9-1.7-12.9-3.7
					c0-2.1,5.8-3.7,12.9-3.7C27.7,68.2,33.4,69.9,33.4,71.9z"/>
			</g>
		</g>
	</g>
</g>
</svg>
