<?xml version="1.0" encoding="iso-8859-1"?>
<!-- Generator: Adobe Illustrator 18.0.0, SVG Export Plug-In . SVG Version: 6.00 Build 0)  -->
<!DOCTYPE svg PUBLIC "-//W3C//DTD SVG 1.1//EN" "http://www.w3.org/Graphics/SVG/1.1/DTD/svg11.dtd">
<svg version="1.1" xmlns="http://www.w3.org/2000/svg" xmlns:xlink="http://www.w3.org/1999/xlink" x="0px" y="0px"
	 viewBox="0 0 434.546 21.874" style="enable-background:new 0 0 434.546 21.874;" xml:space="preserve">
<g id="synopticMenu">
	<g>
		<g>
			<rect y="0" style="fill:#000246;" width="434.546" height="21.874"/>
			<path style="fill:#C7C7C7;" d="M156.608,19.663c0,1.375-1.324,2.141-2.7,2.141h-126c-1.006,0-2.447-0.44-2.447-1.962V2.661
				c0-1.34,1.205-2.651,2.447-2.651h126.109c1.343,0,2.591,1.409,2.591,2.651V19.663z"/>
			<path style="fill:#4C4C4C;" d="M156.608,19.663c0,1.375-1.324,2.141-2.7,2.141h-126c-0.598,0-1.342-0.154-1.853-0.594
				l1.887-1.841L153.236,3.005l2.493-2.224c0.527,0.517,0.879,1.222,0.879,1.88V19.663z"/>
			<path style="fill:#808080;" d="M154.076,17.401c0,1-1.244,1.968-2.629,1.968H27.941V2.42h123.506
				c1.209,0,2.629,0.862,2.629,1.968V17.401z"/>
		</g>
		<polygon style="fill:#FFFFFF;" points="146.113,16.84 140.117,6.128 152.109,6.128 		"/>
		<rect x="27.941" y="2.42" style="fill:#000246;" width="110.295" height="16.949"/>
		<path style="fill:#C7C7C7;" d="M23.637,19.036c0,1.453-1.06,2.627-2.373,2.627H4.215c-1.313,0-2.375-1.174-2.375-2.627v-16.4
			c0-1.453,1.062-2.626,2.375-2.626h17.049c1.313,0,2.373,1.173,2.373,2.626V19.036z"/>
		<path style="fill:#4C4C4C;" d="M23.066,0.939l-2.705,2.796L5.297,18.269l-2.922,2.41c0.438,0.597,1.094,0.984,1.84,0.984h17.049
			c1.313,0,2.373-1.174,2.373-2.627v-16.4C23.637,1.983,23.418,1.397,23.066,0.939z"/>
		<path style="fill:#808080;" d="M20.931,16.138c0,1.617-0.93,2.924-2.083,2.924H6.727c-1.153,0-2.084-1.307-2.084-2.924V5.741
			c0-1.615,1.286-2.923,2.438-2.923h11.768c1.153,0,2.083,1.308,2.083,2.923V16.138z"/>
	</g>
</g>
<g id="Layer_1">
</g>
</svg>
