<?xml version="1.0" encoding="iso-8859-1"?>
<!-- Generator: Adobe Illustrator 18.0.0, SVG Export Plug-In . SVG Version: 6.00 Build 0)  -->
<!DOCTYPE svg PUBLIC "-//W3C//DTD SVG 1.1//EN" "http://www.w3.org/Graphics/SVG/1.1/DTD/svg11.dtd">
<svg version="1.1" xmlns="http://www.w3.org/2000/svg" xmlns:xlink="http://www.w3.org/1999/xlink" x="0px" y="0px"
	 viewBox="0 0 300.793 481.911" style="enable-background:new 0 0 300.793 481.911;" xml:space="preserve">
<g id="whiteFlowLines_x5F_Main">
	<rect x="0.5" y="0.725" style="stroke:#FFFFFF;stroke-miterlimit:3;" width="5" height="64.021"/>
	<rect x="97.854" y="403.733" style="stroke:#FFFFFF;stroke-miterlimit:3;" width="5" height="29.334"/>
	<rect x="97.854" y="459.733" style="stroke:#FFFFFF;stroke-miterlimit:3;" width="5" height="21.678"/>
	<rect x="295.293" y="384.067" style="stroke:#FFFFFF;stroke-miterlimit:3;" width="5" height="62.062"/>
	<polygon style="stroke:#FFFFFF;stroke-miterlimit:3;" points="140.042,98.158 135.042,98.158 135.042,72.643 51.022,72.643 
		51.022,67.643 140.042,67.643 	"/>
	<rect x="0.5" y="388.669" style="stroke:#FFFFFF;stroke-miterlimit:3;" width="5" height="48.648"/>
	<rect x="0.5" y="232.462" style="stroke:#FFFFFF;stroke-miterlimit:3;" width="5" height="27.051"/>
	<rect x="0.5" y="152.314" style="stroke:#FFFFFF;stroke-miterlimit:3;" width="5" height="33.305"/>
	<rect x="295.293" y="235.233" style="stroke:#FFFFFF;stroke-miterlimit:3;" width="5" height="24.546"/>
	<rect x="295.293" y="155.067" style="stroke:#FFFFFF;stroke-miterlimit:3;" width="5" height="31"/>
	<rect x="295.293" y="115.662" style="stroke:#FFFFFF;stroke-miterlimit:3;" width="5" height="23.098"/>
	<rect x="295.293" y="0.5" style="stroke:#FFFFFF;stroke-miterlimit:3;" width="5" height="62.695"/>
	<rect x="149.741" y="115.734" style="stroke:#FFFFFF;stroke-miterlimit:3;" width="5" height="73.491"/>
	<rect x="149.741" y="230.835" style="stroke:#FFFFFF;stroke-miterlimit:3;" width="5" height="28.944"/>
	<polygon style="stroke:#FFFFFF;stroke-miterlimit:3;" points="167.576,99.64 162.576,99.64 162.576,67.744 251.918,67.744 
		251.918,72.744 167.576,72.744 	"/>
	<rect x="295.293" y="268.366" style="stroke:#FFFFFF;stroke-miterlimit:3;" width="5" height="92.189"/>
	<polygon style="stroke:#FFFFFF;stroke-miterlimit:3;" points="97.854,344.29 5.5,344.29 5.5,361.733 0.5,361.733 0.5,270.075 
		5.5,270.075 5.5,339.29 149.741,339.29 149.741,270.075 154.741,270.075 154.741,344.29 102.854,344.29 102.854,360.066 
		97.854,360.066 	"/>
</g>
<g id="Layer_1">
</g>
</svg>
