<?xml version="1.0" encoding="iso-8859-1"?>
<!-- Generator: Adobe Illustrator 18.0.0, SVG Export Plug-In . SVG Version: 6.00 Build 0)  -->
<!DOCTYPE svg PUBLIC "-//W3C//DTD SVG 1.1//EN" "http://www.w3.org/Graphics/SVG/1.1/DTD/svg11.dtd">
<svg version="1.1" xmlns="http://www.w3.org/2000/svg" xmlns:xlink="http://www.w3.org/1999/xlink" x="0px" y="0px"
	 viewBox="0 0 104.243 104.48" style="enable-background:new 0 0 104.243 104.48;" xml:space="preserve">
<g id="Baro_x5F_rotatingKnob_x5F_topText">
	<ellipse style="fill:#2E2E2E;stroke:#000000;" cx="41.541" cy="41.532" rx="21.5" ry="21"/>
	<g>
		<path style="fill:#FFFFFF;" d="M33.881,34.501l-4.871-6.054l1.018-0.783c0.377-0.288,0.691-0.488,0.943-0.595
			c0.252-0.108,0.504-0.162,0.758-0.159c0.296,0.005,0.59,0.087,0.882,0.248s0.556,0.387,0.788,0.675
			c0.444,0.553,0.618,1.102,0.52,1.641c-0.098,0.541-0.464,1.055-1.098,1.542c-0.068,0.052-0.12,0.089-0.155,0.115
			c-0.035,0.024-0.066,0.045-0.095,0.061l2.145,2.667L33.881,34.501z M31.985,30.463l0.311-0.237
			c0.372-0.288,0.578-0.567,0.614-0.841c0.036-0.274-0.089-0.588-0.374-0.942c-0.274-0.34-0.554-0.52-0.842-0.539
			c-0.288-0.021-0.629,0.122-1.022,0.422l-0.251,0.192L31.985,30.463z"/>
		<path style="fill:#FFFFFF;" d="M36.857,30.001l-1.231-5.517l1.025-0.218l1.248,5.602c0.08,0.361,0.223,0.609,0.426,0.745
			c0.204,0.136,0.476,0.169,0.817,0.096c0.341-0.073,0.575-0.211,0.701-0.42c0.125-0.206,0.146-0.49,0.067-0.851l-1.25-5.599
			l1.029-0.22l1.231,5.52c0.162,0.729,0.118,1.294-0.133,1.699c-0.251,0.403-0.728,0.68-1.431,0.83
			c-0.703,0.15-1.255,0.091-1.655-0.173C37.301,31.227,37.019,30.73,36.857,30.001z"/>
		<path style="fill:#FFFFFF;" d="M42.406,29.919c0.212,0.199,0.416,0.356,0.608,0.471c0.191,0.115,0.379,0.192,0.561,0.23
			c0.317,0.068,0.588,0.03,0.815-0.11c0.227-0.141,0.373-0.361,0.44-0.663c0.098-0.443-0.144-1.026-0.732-1.748
			c-0.07-0.087-0.12-0.152-0.156-0.195c-0.374-0.464-0.619-0.874-0.732-1.228c-0.113-0.352-0.125-0.724-0.038-1.116
			c0.127-0.567,0.417-1.001,0.871-1.301c0.453-0.298,0.953-0.389,1.497-0.274c0.24,0.051,0.463,0.126,0.672,0.23
			c0.21,0.103,0.41,0.234,0.602,0.398l-0.224,1.01c-0.17-0.18-0.343-0.326-0.519-0.434c-0.178-0.108-0.359-0.18-0.545-0.22
			c-0.328-0.07-0.611-0.03-0.849,0.115c-0.239,0.145-0.394,0.373-0.463,0.687c-0.096,0.431,0.168,1.024,0.792,1.777
			c0.059,0.07,0.104,0.122,0.137,0.157c0.362,0.441,0.6,0.841,0.71,1.2c0.113,0.356,0.122,0.743,0.031,1.155
			c-0.129,0.576-0.423,1.012-0.883,1.303c-0.459,0.293-0.983,0.377-1.569,0.253c-0.216-0.047-0.427-0.124-0.633-0.232
			c-0.209-0.11-0.416-0.253-0.624-0.429L42.406,29.919z"/>
		<path style="fill:#FFFFFF;" d="M46.021,32.155l4.74-6.152l0.849,0.626l-1.801,2.339l1.518,1.116l1.802-2.339l0.851,0.626
			l-4.74,6.152l-0.851-0.626l2.342-3.037l-1.519-1.116l-2.341,3.037L46.021,32.155z"/>
	</g>
	<g>
		<path style="fill:#FFFFFF;" d="M32.881,55.979c0.161,0.241,0.323,0.438,0.484,0.593c0.161,0.152,0.325,0.267,0.495,0.347
			c0.293,0.134,0.566,0.157,0.818,0.07c0.254-0.089,0.448-0.272,0.583-0.551c0.197-0.413,0.092-1.034-0.314-1.866
			c-0.048-0.098-0.083-0.173-0.107-0.223c-0.259-0.534-0.404-0.987-0.433-1.357c-0.029-0.368,0.044-0.734,0.218-1.097
			c0.254-0.525,0.636-0.884,1.146-1.076c0.51-0.192,1.019-0.173,1.522,0.059c0.222,0.103,0.422,0.225,0.603,0.37
			c0.181,0.145,0.347,0.319,0.496,0.52l-0.45,0.935c-0.125-0.213-0.26-0.391-0.408-0.534c-0.148-0.143-0.308-0.255-0.481-0.335
			c-0.302-0.138-0.587-0.164-0.852-0.075c-0.266,0.091-0.469,0.279-0.609,0.57c-0.192,0.401-0.071,1.036,0.366,1.905
			c0.04,0.08,0.073,0.141,0.096,0.183c0.253,0.509,0.392,0.949,0.419,1.324c0.026,0.373-0.052,0.75-0.235,1.132
			c-0.258,0.534-0.644,0.895-1.159,1.08c-0.515,0.183-1.044,0.152-1.589-0.099c-0.198-0.091-0.386-0.213-0.564-0.366
			c-0.178-0.15-0.348-0.335-0.509-0.553L32.881,55.979z"/>
		<path style="fill:#FFFFFF;" d="M40.341,59.544l0.262-6.736l-1.461-0.054l0.036-0.959l3.993,0.148l-0.037,0.959l-1.463-0.054
			l-0.262,6.736L40.341,59.544z"/>
		<path style="fill:#FFFFFF;" d="M46.929,58.921l-3.092-7.083l1.291-0.539c0.986-0.41,1.796-0.436,2.428-0.073
			c0.633,0.361,1.234,1.191,1.802,2.491c0.569,1.303,0.768,2.304,0.598,3c-0.17,0.698-0.749,1.254-1.735,1.664L46.929,58.921z
			 M47.519,57.596l0.506-0.211c0.55-0.23,0.852-0.584,0.906-1.066c0.054-0.48-0.134-1.214-0.565-2.201
			c-0.43-0.982-0.839-1.622-1.23-1.915c-0.391-0.295-0.863-0.326-1.416-0.096l-0.506,0.211L47.519,57.596z"/>
	</g>
	<g id="Cross_36_">
		<line style="fill:none;" x1="6.198" y1="3.1" x2="0" y2="3.1"/>
		<line style="fill:none;" x1="3.097" y1="0" x2="3.097" y2="6.197"/>
	</g>
	<g id="Cross_35_">
		<line style="fill:none;" x1="104.243" y1="101.382" x2="98.045" y2="101.382"/>
		<line style="fill:none;" x1="101.143" y1="98.282" x2="101.143" y2="104.48"/>
	</g>
</g>
<g id="Layer_1">
</g>
</svg>
