<?xml version="1.0" encoding="iso-8859-1"?>
<!-- Generator: Adobe Illustrator 18.0.0, SVG Export Plug-In . SVG Version: 6.00 Build 0)  -->
<!DOCTYPE svg PUBLIC "-//W3C//DTD SVG 1.1//EN" "http://www.w3.org/Graphics/SVG/1.1/DTD/svg11.dtd">
<svg version="1.1" xmlns="http://www.w3.org/2000/svg" xmlns:xlink="http://www.w3.org/1999/xlink" x="0px" y="0px"
	 viewBox="0 0 41.25 47.7" style="enable-background:new 0 0 41.25 47.7;" xml:space="preserve">
<g id="BRT_x5F_rotatingKnob_x5F_wShadow">
	<path style="opacity:0.3;" d="M37.148,17.247c-0.723-4.216-2.983-7.902-6.177-10.478l-1.176-1.177l-0.188,0.186
		c-1.83-1.202-3.895-2.078-6.122-2.511L21.08,5.671l-0.422,0.278L20.166,6.05L19.662,5.95l-0.417-0.281L16.847,3.27
		C8.925,4.819,2.946,11.791,2.946,20.168c0,3.49,1.045,6.731,2.827,9.444l-0.34,0.34l2.442,2.443l0.084-0.083
		c2.461,2.476,5.676,4.19,9.265,4.811c4.976,4.879,8.736,8.317,8.736,8.317c1.205,0.778,2.544,1.391,4.005,1.781
		c1.453,0.39,2.913,0.532,4.339,0.462l6.945-25.917C41.25,21.765,40.853,21.058,37.148,17.247z"/>
	<path style="fill:#2E2E2E;stroke:#000000;stroke-linecap:round;stroke-linejoin:round;" d="M25.303,2.255l-2.944,1.7L21.88,4.114
		l-0.502-0.029l-0.461-0.226l-0.33-0.381L18.892,0.54C10.839-0.013,3.259,5.174,1.091,13.264
		c-2.462,9.192,2.992,18.635,12.18,21.098c9.19,2.461,18.634-2.992,21.096-12.18C36.539,14.087,32.562,5.8,25.303,2.255z"/>
	
		<radialGradient id="SVGID_1_" cx="99.8903" cy="-72.2159" r="9.8263" gradientTransform="matrix(0.9659 0.2588 -0.2588 0.9659 -111.0572 57.9772)" gradientUnits="userSpaceOnUse">
		<stop  offset="0" style="stop-color:#3B3B3B"/>
		<stop  offset="1" style="stop-color:#212121"/>
	</radialGradient>
	<path style="fill:url(#SVGID_1_);" d="M4.117,14.075c-1.624,6.059,0.963,12.248,5.96,15.478l6.942-25.902
		C11.075,3.95,5.741,8.017,4.117,14.075z"/>
	
		<radialGradient id="SVGID_2_" cx="128.0786" cy="-72.2168" r="9.809" fx="127.6356" fy="-82.0157" gradientTransform="matrix(0.9659 0.2588 -0.2588 0.9659 -111.0572 57.9772)" gradientUnits="userSpaceOnUse">
		<stop  offset="0" style="stop-color:#2B2B2B"/>
		<stop  offset="0.9" style="stop-color:#121212"/>
		<stop  offset="1" style="stop-color:#121212"/>
	</radialGradient>
	<path style="fill:url(#SVGID_2_);" d="M31.343,21.372c1.627-6.066-0.968-12.265-5.977-15.492l-6.945,25.917
		C24.375,31.508,29.718,27.435,31.343,21.372z"/>
	<path style="fill:#2E2E2E;stroke:#000000;stroke-linecap:round;stroke-linejoin:round;" d="M21.379,4.11
		c-1.46-0.391-2.927-0.532-4.359-0.458l-6.942,25.902c1.206,0.78,2.545,1.392,4.007,1.782c1.453,0.39,2.913,0.532,4.338,0.461
		l6.945-25.917C24.165,5.106,22.832,4.499,21.379,4.11z"/>
	<path style="fill:#FFFFFF;" d="M19.399,18.17l3.618-13.499c-0.53-0.217-1.072-0.409-1.638-0.561
		c-0.566-0.152-1.134-0.255-1.702-0.333L16.06,17.275L19.399,18.17z"/>
	<circle style="fill:none;stroke:#000000;stroke-linecap:round;stroke-linejoin:round;" cx="17.728" cy="17.724" r="14.094"/>
</g>
<g id="Layer_1">
</g>
</svg>
