<?xml version="1.0" encoding="iso-8859-1"?>
<!-- Generator: Adobe Illustrator 18.0.0, SVG Export Plug-In . SVG Version: 6.00 Build 0)  -->
<!DOCTYPE svg PUBLIC "-//W3C//DTD SVG 1.1//EN" "http://www.w3.org/Graphics/SVG/1.1/DTD/svg11.dtd">
<svg version="1.1" xmlns="http://www.w3.org/2000/svg" xmlns:xlink="http://www.w3.org/1999/xlink" x="0px" y="0px"
	 viewBox="0 0 237.045 237.045" style="enable-background:new 0 0 237.045 237.045;" xml:space="preserve">
<g id="controlTuning_x5F_blackScreen">
	<path d="M236.545,228.145c0,4.622-3.778,8.4-8.4,8.4H8.9c-4.622,0-8.4-3.778-8.4-8.4V8.9c0-4.617,3.778-8.4,8.4-8.4h219.245
		c4.622,0,8.4,3.783,8.4,8.4V228.145z"/>
	<path style="fill:none;stroke:#E0E0E1;stroke-miterlimit:2.6131;" d="M234.454,3.369c1.303,1.481,2.091,3.422,2.091,5.531v219.245
		c0,4.622-3.778,8.4-8.4,8.4H8.9c-2.222,0-4.256-0.872-5.766-2.301"/>
	<path style="fill:none;stroke:#636467;stroke-miterlimit:2.6131;" d="M2.591,233.676c-1.303-1.481-2.091-3.417-2.091-5.531V8.9
		c0-4.622,3.778-8.4,8.4-8.4h219.245c2.222,0,4.256,0.872,5.766,2.302"/>
</g>
<g id="Layer_1">
</g>
</svg>
