<?xml version="1.0" encoding="iso-8859-1"?>
<!-- Generator: Adobe Illustrator 18.0.0, SVG Export Plug-In . SVG Version: 6.00 Build 0)  -->
<!DOCTYPE svg PUBLIC "-//W3C//DTD SVG 1.1//EN" "http://www.w3.org/Graphics/SVG/1.1/DTD/svg11.dtd">
<svg version="1.1" xmlns="http://www.w3.org/2000/svg" xmlns:xlink="http://www.w3.org/1999/xlink" x="0px" y="0px"
	 viewBox="0 0 627.073 294.469" style="enable-background:new 0 0 627.073 294.469;" xml:space="preserve">
<g id="controlTuningPanel">
	<rect x="0.5" y="0.5" style="fill:#636467;stroke:#000000;stroke-linecap:round;" width="626.073" height="293.469"/>
	<rect x="2.224" y="2.327" style="fill:#828385;stroke:#000000;stroke-miterlimit:2.4142;" width="622.622" height="289.929"/>
	<g>
		<path style="fill-rule:evenodd;clip-rule:evenodd;fill:#666666;" d="M500.797,62.742h19.974c1.915,0,3.487,1.568,3.487,3.487
			v9.266c0,1.917-1.573,3.488-3.487,3.488h-19.974c-1.917,0-3.483-1.57-3.483-3.488V66.23
			C497.314,64.31,498.88,62.742,500.797,62.742L500.797,62.742z"/>
		<path style="fill-rule:evenodd;clip-rule:evenodd;" d="M518.854,77.78h-19.972c-2.159,0-3.916-1.758-3.916-3.92v-9.266
			c0-2.161,1.757-3.92,3.916-3.92h19.972c2.161,0,3.918,1.759,3.918,3.92v9.266C522.771,76.022,521.015,77.78,518.854,77.78
			L518.854,77.78z"/>
		<path style="fill-rule:evenodd;clip-rule:evenodd;fill:#2E2E2E;stroke:#000000;stroke-miterlimit:2.4142;" d="M498.881,61.106
			h19.973c1.914,0,3.487,1.568,3.487,3.487v9.267c0,1.916-1.573,3.487-3.487,3.487h-19.973c-1.917,0-3.483-1.571-3.483-3.487v-9.267
			C495.398,62.674,496.963,61.106,498.881,61.106L498.881,61.106z"/>
		<path style="fill-rule:evenodd;clip-rule:evenodd;fill:none;stroke:#121212;stroke-miterlimit:2.4142;" d="M496.959,75.64
			c0.484,0.52,1.165,0.844,1.92,0.844l0,0h19.976c1.433-0.002,2.62-1.188,2.623-2.623l0,0v-9.267c0-0.722-0.295-1.373-0.773-1.852
			l0,0h0.002"/>
		<path style="fill-rule:evenodd;clip-rule:evenodd;fill:none;stroke:#666666;stroke-miterlimit:2.4142;" d="M520.702,62.742
			c-0.478-0.478-1.13-0.773-1.849-0.773l0,0h-19.972c-1.438,0.005-2.618,1.184-2.62,2.625l0,0v9.267
			c0,0.684,0.265,1.305,0.698,1.779l0,0"/>
		<path style="fill:#FFFFFF;" d="M509.397,74.631c-2.985,0-5.404-2.428-5.404-5.4c0-2.973,2.419-5.4,5.404-5.4
			c2.972,0,5.396,2.427,5.396,5.4C514.793,72.203,512.369,74.631,509.397,74.631L509.397,74.631z"/>
	</g>
	<g>
		<path style="fill-rule:evenodd;clip-rule:evenodd;fill:#666666;" d="M500.797,114.696h19.974c1.915,0,3.487,1.568,3.487,3.487
			v9.266c0,1.917-1.573,3.488-3.487,3.488h-19.974c-1.917,0-3.483-1.57-3.483-3.488v-9.266
			C497.314,116.264,498.88,114.696,500.797,114.696L500.797,114.696z"/>
		<path style="fill-rule:evenodd;clip-rule:evenodd;" d="M518.854,129.733h-19.972c-2.159,0-3.916-1.758-3.916-3.92v-9.266
			c0-2.161,1.757-3.92,3.916-3.92h19.972c2.161,0,3.918,1.759,3.918,3.92v9.266C522.771,127.975,521.015,129.733,518.854,129.733
			L518.854,129.733z"/>
		<path style="fill-rule:evenodd;clip-rule:evenodd;fill:#2E2E2E;stroke:#000000;stroke-miterlimit:2.4142;" d="M498.881,113.06
			h19.973c1.914,0,3.487,1.568,3.487,3.488v9.267c0,1.916-1.573,3.487-3.487,3.487h-19.973c-1.917,0-3.483-1.571-3.483-3.487v-9.267
			C495.398,114.628,496.963,113.06,498.881,113.06L498.881,113.06z"/>
		<path style="fill-rule:evenodd;clip-rule:evenodd;fill:none;stroke:#121212;stroke-miterlimit:2.4142;" d="M496.959,127.593
			c0.484,0.52,1.165,0.844,1.92,0.844l0,0h19.976c1.433-0.002,2.62-1.188,2.623-2.623l0,0v-9.267c0-0.722-0.295-1.373-0.773-1.852
			l0,0h0.002"/>
		<path style="fill-rule:evenodd;clip-rule:evenodd;fill:none;stroke:#666666;stroke-miterlimit:2.4142;" d="M520.702,114.696
			c-0.478-0.478-1.13-0.773-1.849-0.773l0,0h-19.972c-1.438,0.005-2.618,1.184-2.62,2.625l0,0v9.267
			c0,0.684,0.265,1.305,0.698,1.779l0,0"/>
		<path style="fill:#FFFFFF;" d="M509.397,126.584c-2.985,0-5.404-2.428-5.404-5.4c0-2.973,2.419-5.4,5.404-5.4
			c2.972,0,5.396,2.427,5.396,5.4C514.793,124.156,512.369,126.584,509.397,126.584L509.397,126.584z"/>
	</g>
	<g>
		<path style="fill-rule:evenodd;clip-rule:evenodd;fill:#666666;" d="M500.797,166.536h19.974c1.915,0,3.487,1.568,3.487,3.487
			v9.266c0,1.917-1.573,3.488-3.487,3.488h-19.974c-1.917,0-3.483-1.57-3.483-3.488v-9.266
			C497.314,168.104,498.88,166.536,500.797,166.536L500.797,166.536z"/>
		<path style="fill-rule:evenodd;clip-rule:evenodd;" d="M518.854,181.573h-19.972c-2.159,0-3.916-1.758-3.916-3.92v-9.266
			c0-2.161,1.757-3.92,3.916-3.92h19.972c2.161,0,3.918,1.759,3.918,3.92v9.266C522.771,179.816,521.015,181.573,518.854,181.573
			L518.854,181.573z"/>
		<path style="fill-rule:evenodd;clip-rule:evenodd;fill:#2E2E2E;stroke:#000000;stroke-miterlimit:2.4142;" d="M498.881,164.9
			h19.973c1.914,0,3.487,1.568,3.487,3.488v9.267c0,1.916-1.573,3.487-3.487,3.487h-19.973c-1.917,0-3.483-1.571-3.483-3.487v-9.267
			C495.398,166.468,496.963,164.9,498.881,164.9L498.881,164.9z"/>
		<path style="fill-rule:evenodd;clip-rule:evenodd;fill:none;stroke:#121212;stroke-miterlimit:2.4142;" d="M496.959,179.433
			c0.484,0.52,1.165,0.844,1.92,0.844l0,0h19.976c1.433-0.002,2.62-1.188,2.623-2.623l0,0v-9.267c0-0.722-0.295-1.373-0.773-1.852
			l0,0h0.002"/>
		<path style="fill-rule:evenodd;clip-rule:evenodd;fill:none;stroke:#666666;stroke-miterlimit:2.4142;" d="M520.702,166.536
			c-0.478-0.478-1.13-0.773-1.849-0.773l0,0h-19.972c-1.438,0.005-2.618,1.184-2.62,2.625l0,0v9.267
			c0,0.684,0.265,1.305,0.698,1.779l0,0"/>
		<path style="fill:#FFFFFF;" d="M509.397,178.424c-2.985,0-5.404-2.428-5.404-5.4c0-2.973,2.419-5.4,5.404-5.4
			c2.972,0,5.396,2.427,5.396,5.4C514.793,175.996,512.369,178.424,509.397,178.424L509.397,178.424z"/>
	</g>
	<g>
		<path style="fill-rule:evenodd;clip-rule:evenodd;fill:#666666;" d="M181.086,62.742h19.974c1.915,0,3.487,1.568,3.487,3.487
			v9.266c0,1.917-1.573,3.488-3.487,3.488h-19.974c-1.917,0-3.483-1.57-3.483-3.488V66.23
			C177.603,64.31,179.169,62.742,181.086,62.742L181.086,62.742z"/>
		<path style="fill-rule:evenodd;clip-rule:evenodd;" d="M199.143,77.78h-19.972c-2.159,0-3.916-1.758-3.916-3.92v-9.266
			c0-2.161,1.757-3.92,3.916-3.92h19.972c2.161,0,3.918,1.759,3.918,3.92v9.266C203.061,76.022,201.304,77.78,199.143,77.78
			L199.143,77.78z"/>
		<path style="fill-rule:evenodd;clip-rule:evenodd;fill:#2E2E2E;stroke:#000000;stroke-miterlimit:2.4142;" d="M179.17,61.106
			h19.973c1.914,0,3.487,1.568,3.487,3.487v9.267c0,1.916-1.573,3.487-3.487,3.487H179.17c-1.917,0-3.483-1.571-3.483-3.487v-9.267
			C175.687,62.674,177.252,61.106,179.17,61.106L179.17,61.106z"/>
		<path style="fill-rule:evenodd;clip-rule:evenodd;fill:none;stroke:#121212;stroke-miterlimit:2.4142;" d="M177.248,75.64
			c0.484,0.52,1.165,0.844,1.92,0.844l0,0h19.976c1.433-0.002,2.62-1.188,2.623-2.623l0,0v-9.267c0-0.722-0.295-1.373-0.773-1.852
			l0,0h0.002"/>
		<path style="fill-rule:evenodd;clip-rule:evenodd;fill:none;stroke:#666666;stroke-miterlimit:2.4142;" d="M200.991,62.742
			c-0.478-0.478-1.13-0.773-1.849-0.773l0,0H179.17c-1.438,0.005-2.618,1.184-2.62,2.625l0,0v9.267c0,0.684,0.265,1.305,0.698,1.779
			l0,0"/>
		<path style="fill:#FFFFFF;" d="M189.686,74.631c-2.985,0-5.404-2.428-5.404-5.4c0-2.973,2.419-5.4,5.404-5.4
			c2.972,0,5.396,2.427,5.396,5.4C195.082,72.203,192.658,74.631,189.686,74.631L189.686,74.631z"/>
	</g>
	<g>
		<path style="fill-rule:evenodd;clip-rule:evenodd;fill:#666666;" d="M181.086,114.696h19.974c1.915,0,3.487,1.568,3.487,3.487
			v9.266c0,1.917-1.573,3.488-3.487,3.488h-19.974c-1.917,0-3.483-1.57-3.483-3.488v-9.266
			C177.603,116.264,179.169,114.696,181.086,114.696L181.086,114.696z"/>
		<path style="fill-rule:evenodd;clip-rule:evenodd;" d="M199.143,129.733h-19.972c-2.159,0-3.916-1.758-3.916-3.92v-9.266
			c0-2.161,1.757-3.92,3.916-3.92h19.972c2.161,0,3.918,1.759,3.918,3.92v9.266C203.061,127.975,201.304,129.733,199.143,129.733
			L199.143,129.733z"/>
		<path style="fill-rule:evenodd;clip-rule:evenodd;fill:#2E2E2E;stroke:#000000;stroke-miterlimit:2.4142;" d="M179.17,113.06
			h19.973c1.914,0,3.487,1.568,3.487,3.488v9.267c0,1.916-1.573,3.487-3.487,3.487H179.17c-1.917,0-3.483-1.571-3.483-3.487v-9.267
			C175.687,114.628,177.252,113.06,179.17,113.06L179.17,113.06z"/>
		<path style="fill-rule:evenodd;clip-rule:evenodd;fill:none;stroke:#121212;stroke-miterlimit:2.4142;" d="M177.248,127.593
			c0.484,0.52,1.165,0.844,1.92,0.844l0,0h19.976c1.433-0.002,2.62-1.188,2.623-2.623l0,0v-9.267c0-0.722-0.295-1.373-0.773-1.852
			l0,0h0.002"/>
		<path style="fill-rule:evenodd;clip-rule:evenodd;fill:none;stroke:#666666;stroke-miterlimit:2.4142;" d="M200.991,114.696
			c-0.478-0.478-1.13-0.773-1.849-0.773l0,0H179.17c-1.438,0.005-2.618,1.184-2.62,2.625l0,0v9.267c0,0.684,0.265,1.305,0.698,1.779
			l0,0"/>
		<path style="fill:#FFFFFF;" d="M189.686,126.584c-2.985,0-5.404-2.428-5.404-5.4c0-2.973,2.419-5.4,5.404-5.4
			c2.972,0,5.396,2.427,5.396,5.4C195.082,124.156,192.658,126.584,189.686,126.584L189.686,126.584z"/>
	</g>
	<g>
		<path style="fill-rule:evenodd;clip-rule:evenodd;fill:#666666;" d="M181.086,166.536h19.974c1.915,0,3.487,1.568,3.487,3.487
			v9.266c0,1.917-1.573,3.488-3.487,3.488h-19.974c-1.917,0-3.483-1.57-3.483-3.488v-9.266
			C177.603,168.104,179.169,166.536,181.086,166.536L181.086,166.536z"/>
		<path style="fill-rule:evenodd;clip-rule:evenodd;" d="M199.143,181.573h-19.972c-2.159,0-3.916-1.758-3.916-3.92v-9.266
			c0-2.161,1.757-3.92,3.916-3.92h19.972c2.161,0,3.918,1.759,3.918,3.92v9.266C203.061,179.816,201.304,181.573,199.143,181.573
			L199.143,181.573z"/>
		<path style="fill-rule:evenodd;clip-rule:evenodd;fill:#2E2E2E;stroke:#000000;stroke-miterlimit:2.4142;" d="M179.17,164.9
			h19.973c1.914,0,3.487,1.568,3.487,3.488v9.267c0,1.916-1.573,3.487-3.487,3.487H179.17c-1.917,0-3.483-1.571-3.483-3.487v-9.267
			C175.687,166.468,177.252,164.9,179.17,164.9L179.17,164.9z"/>
		<path style="fill-rule:evenodd;clip-rule:evenodd;fill:none;stroke:#121212;stroke-miterlimit:2.4142;" d="M177.248,179.433
			c0.484,0.52,1.165,0.844,1.92,0.844l0,0h19.976c1.433-0.002,2.62-1.188,2.623-2.623l0,0v-9.267c0-0.722-0.295-1.373-0.773-1.852
			l0,0h0.002"/>
		<path style="fill-rule:evenodd;clip-rule:evenodd;fill:none;stroke:#666666;stroke-miterlimit:2.4142;" d="M200.991,166.536
			c-0.478-0.478-1.13-0.773-1.849-0.773l0,0H179.17c-1.438,0.005-2.618,1.184-2.62,2.625l0,0v9.267c0,0.684,0.265,1.305,0.698,1.779
			l0,0"/>
		<path style="fill:#FFFFFF;" d="M189.686,178.424c-2.985,0-5.404-2.428-5.404-5.4c0-2.973,2.419-5.4,5.404-5.4
			c2.972,0,5.396,2.427,5.396,5.4C195.082,175.996,192.658,178.424,189.686,178.424L189.686,178.424z"/>
	</g>
	<g>
		<path style="fill-rule:evenodd;clip-rule:evenodd;fill:#666666;" d="M181.086,218.588h19.974c1.915,0,3.487,1.568,3.487,3.487
			v9.266c0,1.917-1.573,3.488-3.487,3.488h-19.974c-1.917,0-3.483-1.57-3.483-3.488v-9.266
			C177.603,220.156,179.169,218.588,181.086,218.588L181.086,218.588z"/>
		<path style="fill-rule:evenodd;clip-rule:evenodd;" d="M199.143,233.626h-19.972c-2.159,0-3.916-1.758-3.916-3.92v-9.266
			c0-2.161,1.757-3.92,3.916-3.92h19.972c2.161,0,3.918,1.759,3.918,3.92v9.266C203.061,231.868,201.304,233.626,199.143,233.626
			L199.143,233.626z"/>
		<path style="fill-rule:evenodd;clip-rule:evenodd;fill:#2E2E2E;stroke:#000000;stroke-miterlimit:2.4142;" d="M179.17,216.952
			h19.973c1.914,0,3.487,1.568,3.487,3.488v9.267c0,1.916-1.573,3.487-3.487,3.487H179.17c-1.917,0-3.483-1.571-3.483-3.487v-9.267
			C175.687,218.52,177.252,216.952,179.17,216.952L179.17,216.952z"/>
		<path style="fill-rule:evenodd;clip-rule:evenodd;fill:none;stroke:#121212;stroke-miterlimit:2.4142;" d="M177.248,231.486
			c0.484,0.52,1.165,0.844,1.92,0.844l0,0h19.976c1.433-0.002,2.62-1.188,2.623-2.623l0,0v-9.267c0-0.722-0.295-1.373-0.773-1.852
			l0,0h0.002"/>
		<path style="fill-rule:evenodd;clip-rule:evenodd;fill:none;stroke:#666666;stroke-miterlimit:2.4142;" d="M200.991,218.588
			c-0.478-0.478-1.13-0.773-1.849-0.773l0,0H179.17c-1.438,0.005-2.618,1.184-2.62,2.625l0,0v9.267c0,0.684,0.265,1.305,0.698,1.779
			l0,0"/>
		<path style="fill:#FFFFFF;" d="M189.686,230.477c-2.985,0-5.404-2.428-5.404-5.4c0-2.973,2.419-5.4,5.404-5.4
			c2.972,0,5.396,2.427,5.396,5.4C195.082,228.049,192.658,230.477,189.686,230.477L189.686,230.477z"/>
	</g>
	<g id="Tune_Menu_4_">
		<path style="fill-rule:evenodd;clip-rule:evenodd;fill:#666666;" d="M546.364,54.499h38.268c1.365,0,2.462,1.03,2.462,2.291
			v25.657c0,1.25-1.11,2.279-2.462,2.279h-38.268c-1.354,0-2.454-1.029-2.454-2.279V56.79
			C543.91,55.529,545.01,54.499,546.364,54.499L546.364,54.499z"/>
		<path style="fill-rule:evenodd;clip-rule:evenodd;fill:#333333;stroke:#000000;" d="M544.011,52.366h38.269
			c1.352,0,2.463,1.03,2.463,2.291v25.657c0,1.26-1.111,2.29-2.463,2.29h-38.269c-1.354,0-2.463-1.03-2.463-2.29V54.657
			C541.548,53.396,542.657,52.366,544.011,52.366L544.011,52.366z"/>
		
			<radialGradient id="SVGID_1_" cx="702.2393" cy="617.9026" r="91.4319" gradientTransform="matrix(0.296 0 0 0.2735 361.4406 -96.1686)" gradientUnits="userSpaceOnUse">
			<stop  offset="0.2" style="stop-color:#404040"/>
			<stop  offset="0.8" style="stop-color:#191919"/>
		</radialGradient>
		<path style="fill-rule:evenodd;clip-rule:evenodd;fill:url(#SVGID_1_);" d="M550.257,53.442h25.765
			c4.233,0,7.679,3.191,7.679,7.09v13.905c0,3.899-3.447,7.092-7.679,7.092h-25.765c-4.222,0-7.669-3.193-7.669-7.092V60.532
			C542.588,56.633,546.035,53.442,550.257,53.442L550.257,53.442z"/>
		<g>
			<path style="fill:#FFFFFF;" d="M550.169,58.603v6.778h-1.279v-6.778h-2.089v-1.085h5.446v1.085H550.169z"/>
			<path style="fill:#FFFFFF;" d="M553.192,57.518h1.263v4.775c0,0.709,0.163,1.241,0.491,1.598
				c0.327,0.356,0.817,0.534,1.469,0.534c0.648,0,1.136-0.178,1.464-0.534c0.327-0.356,0.491-0.889,0.491-1.598v-4.775h1.278v4.893
				c0,1.064-0.269,1.859-0.806,2.388s-1.347,0.792-2.428,0.792s-1.889-0.263-2.423-0.789c-0.533-0.526-0.8-1.323-0.8-2.391V57.518z"
				/>
			<path style="fill:#FFFFFF;" d="M561.41,65.381v-8.175l4.995,4.808c0.136,0.136,0.274,0.28,0.413,0.435
				c0.141,0.154,0.287,0.327,0.441,0.521v-5.451h1.182v8.17l-5.098-4.894c-0.136-0.133-0.268-0.272-0.395-0.419
				s-0.248-0.301-0.363-0.462v5.468H561.41z"/>
			<path style="fill:#FFFFFF;" d="M570.246,65.381v-7.863h4.389v1.085h-3.11v1.972h3.11v1.122h-3.11v2.54h3.11v1.145H570.246z"/>
			<path style="fill:#FFFFFF;" d="M579.049,57.34h0.912l-3.851,9.062h-0.913L579.049,57.34z"/>
			<path style="fill:#FFFFFF;" d="M554.475,72.298c-0.015-0.062-0.038-0.229-0.069-0.506c-0.029-0.229-0.055-0.418-0.076-0.568
				c-0.031,0.179-0.077,0.357-0.137,0.537c-0.059,0.179-0.133,0.361-0.223,0.547l-2.057,4.189l-2.058-4.275
				c-0.086-0.175-0.16-0.345-0.223-0.51s-0.117-0.328-0.164-0.488c-0.004,0.164-0.017,0.337-0.04,0.518s-0.059,0.37-0.105,0.566
				l-0.843,3.873h-1.177l1.859-8.196l2.32,4.963c0.035,0.079,0.09,0.21,0.163,0.392c0.073,0.184,0.162,0.408,0.267,0.678
				c0.074-0.227,0.193-0.513,0.354-0.859c0.043-0.094,0.076-0.165,0.098-0.215l2.266-4.958l1.902,8.196h-1.188L554.475,72.298z"/>
			<path style="fill:#FFFFFF;" d="M557.553,76.181v-7.863h4.389v1.085h-3.11v1.972h3.11v1.122h-3.11v2.54h3.11v1.145H557.553z"/>
			<path style="fill:#FFFFFF;" d="M563.408,76.181v-8.175l4.995,4.808c0.136,0.136,0.274,0.28,0.413,0.435
				c0.141,0.154,0.287,0.327,0.441,0.521v-5.451h1.182v8.17l-5.098-4.894c-0.136-0.133-0.268-0.272-0.395-0.419
				s-0.248-0.301-0.363-0.462v5.468H563.408z"/>
			<path style="fill:#FFFFFF;" d="M572.211,68.318h1.263v4.775c0,0.709,0.163,1.241,0.491,1.598
				c0.327,0.356,0.817,0.534,1.469,0.534c0.648,0,1.136-0.178,1.464-0.534c0.327-0.356,0.491-0.889,0.491-1.598v-4.775h1.278v4.893
				c0,1.064-0.269,1.859-0.806,2.388s-1.347,0.792-2.428,0.792s-1.889-0.263-2.423-0.789c-0.533-0.526-0.8-1.323-0.8-2.391V68.318z"
				/>
		</g>
	</g>
	<g id="Ident_4_">
		<path style="fill-rule:evenodd;clip-rule:evenodd;fill:#666666;" d="M546.458,106.453h38.268c1.365,0,2.462,1.03,2.462,2.291
			v25.657c0,1.25-1.11,2.279-2.462,2.279h-38.268c-1.354,0-2.454-1.029-2.454-2.279v-25.657
			C544.004,107.483,545.104,106.453,546.458,106.453L546.458,106.453z"/>
		<path style="fill-rule:evenodd;clip-rule:evenodd;fill:#333333;stroke:#000000;" d="M544.011,104.205h38.269
			c1.352,0,2.463,1.03,2.463,2.291v25.657c0,1.26-1.111,2.29-2.463,2.29h-38.269c-1.354,0-2.463-1.03-2.463-2.29v-25.657
			C541.548,105.235,542.657,104.205,544.011,104.205L544.011,104.205z"/>
		
			<radialGradient id="SVGID_2_" cx="702.2393" cy="807.4426" r="91.4319" gradientTransform="matrix(0.296 0 0 0.2735 361.4406 -96.1686)" gradientUnits="userSpaceOnUse">
			<stop  offset="0.2" style="stop-color:#404040"/>
			<stop  offset="0.8" style="stop-color:#191919"/>
		</radialGradient>
		<path style="fill-rule:evenodd;clip-rule:evenodd;fill:url(#SVGID_2_);" d="M550.257,105.281h25.765
			c4.233,0,7.679,3.191,7.679,7.09v13.905c0,3.899-3.447,7.092-7.679,7.092h-25.765c-4.222,0-7.669-3.193-7.669-7.092v-13.905
			C542.588,108.472,546.035,105.281,550.257,105.281L550.257,105.281z"/>
		<g>
			<path style="fill:#FFFFFF;" d="M548.484,123.265v-7.863h1.278v7.863H548.484z"/>
			<path style="fill:#FFFFFF;" d="M551.599,123.265v-7.863h1.725c1.12,0,1.909,0.057,2.365,0.169
				c0.457,0.113,0.857,0.302,1.201,0.567c0.454,0.347,0.799,0.793,1.033,1.337s0.352,1.165,0.352,1.864
				c0,0.697-0.117,1.316-0.352,1.855s-0.579,0.983-1.033,1.334c-0.344,0.266-0.735,0.454-1.174,0.567
				c-0.438,0.112-1.122,0.169-2.049,0.169h-0.344H551.599z M552.878,122.111h1.074c0.591,0,1.034-0.04,1.329-0.119
				c0.296-0.078,0.553-0.211,0.771-0.396c0.297-0.255,0.52-0.57,0.668-0.948s0.223-0.817,0.223-1.319
				c0-0.501-0.074-0.94-0.223-1.318s-0.371-0.693-0.668-0.947c-0.223-0.187-0.488-0.319-0.798-0.398
				c-0.31-0.078-0.794-0.117-1.453-0.117h-0.462h-0.462V122.111z"/>
			<path style="fill:#FFFFFF;" d="M559.742,123.265v-7.863h4.389v1.085h-3.11v1.972h3.11v1.122h-3.11v2.54h3.11v1.145H559.742z"/>
			<path style="fill:#FFFFFF;" d="M565.596,123.265v-8.175l4.995,4.808c0.136,0.136,0.274,0.28,0.413,0.435
				c0.141,0.154,0.287,0.327,0.441,0.521v-5.451h1.182v8.17l-5.098-4.894c-0.136-0.133-0.268-0.272-0.395-0.419
				s-0.248-0.301-0.363-0.462v5.468H565.596z"/>
			<path style="fill:#FFFFFF;" d="M576.972,116.487v6.778h-1.279v-6.778h-2.089v-1.085h5.446v1.085H576.972z"/>
		</g>
	</g>
	<g id="_x31__2_4_">
		<path style="fill-rule:evenodd;clip-rule:evenodd;fill:#666666;" d="M546.28,158.249h38.268c1.365,0,2.462,1.03,2.462,2.291
			v25.657c0,1.25-1.11,2.279-2.462,2.279H546.28c-1.354,0-2.454-1.029-2.454-2.279V160.54
			C543.826,159.279,544.926,158.249,546.28,158.249L546.28,158.249z"/>
		<path style="fill-rule:evenodd;clip-rule:evenodd;fill:#333333;stroke:#000000;" d="M544.011,156.045h38.269
			c1.352,0,2.463,1.03,2.463,2.291v25.657c0,1.26-1.111,2.29-2.463,2.29h-38.269c-1.354,0-2.463-1.03-2.463-2.29v-25.657
			C541.548,157.075,542.657,156.045,544.011,156.045L544.011,156.045z"/>
		
			<radialGradient id="SVGID_3_" cx="702.2393" cy="996.9864" r="91.4319" gradientTransform="matrix(0.296 0 0 0.2735 361.4406 -96.1686)" gradientUnits="userSpaceOnUse">
			<stop  offset="0.2" style="stop-color:#404040"/>
			<stop  offset="0.8" style="stop-color:#191919"/>
		</radialGradient>
		<path style="fill-rule:evenodd;clip-rule:evenodd;fill:url(#SVGID_3_);" d="M550.257,157.121h25.765
			c4.233,0,7.679,3.191,7.679,7.09v13.905c0,3.899-3.447,7.092-7.679,7.092h-25.765c-4.222,0-7.669-3.193-7.669-7.092v-13.905
			C542.588,160.312,546.035,157.121,550.257,157.121L550.257,157.121z"/>
		<g>
			<path style="fill:#FFFFFF;" d="M557.223,174.951v-6.778h-1.628l0.494-1.01h2.299v7.788H557.223z"/>
			<path style="fill:#FFFFFF;" d="M564.812,166.91h0.912l-3.851,9.062h-0.913L564.812,166.91z"/>
			<path style="fill:#FFFFFF;" d="M571.225,173.93v1.021h-5.27l2.938-3.518c0.365-0.441,0.632-0.828,0.8-1.16
				c0.169-0.334,0.253-0.636,0.253-0.908c0-0.391-0.115-0.697-0.347-0.921c-0.23-0.224-0.547-0.336-0.947-0.336
				c-0.358,0-0.654,0.112-0.887,0.336s-0.363,0.519-0.393,0.884h-1.229c0-0.706,0.236-1.269,0.709-1.689s1.108-0.631,1.907-0.631
				c0.759,0,1.357,0.194,1.796,0.585s0.658,0.922,0.658,1.595c0,0.48-0.126,0.965-0.379,1.453c-0.252,0.489-0.786,1.199-1.603,2.13
				l-1,1.16H571.225z"/>
		</g>
	</g>
	<g id="Nav_4_">
		<path style="fill-rule:evenodd;clip-rule:evenodd;fill:#666666;" d="M47.405,26.634h38.268c1.365,0,2.462,1.03,2.462,2.291v25.657
			c0,1.25-1.11,2.279-2.462,2.279H47.405c-1.354,0-2.454-1.029-2.454-2.279V28.925C44.951,27.664,46.051,26.634,47.405,26.634
			L47.405,26.634z"/>
		<path style="fill-rule:evenodd;clip-rule:evenodd;fill:#333333;stroke:#000000;" d="M45.185,24.447h38.269
			c1.352,0,2.463,1.03,2.463,2.291v25.657c0,1.26-1.111,2.29-2.463,2.29H45.185c-1.354,0-2.463-1.03-2.463-2.29V26.738
			C42.721,25.477,43.831,24.447,45.185,24.447L45.185,24.447z"/>
		
			<radialGradient id="SVGID_4_" cx="-982.9843" cy="515.8232" r="91.4319" gradientTransform="matrix(0.296 0 0 0.2735 361.4406 -96.1686)" gradientUnits="userSpaceOnUse">
			<stop  offset="0.2" style="stop-color:#404040"/>
			<stop  offset="0.8" style="stop-color:#191919"/>
		</radialGradient>
		<path style="fill-rule:evenodd;clip-rule:evenodd;fill:url(#SVGID_4_);" d="M51.431,25.523h25.765c4.233,0,7.679,3.191,7.679,7.09
			v13.905c0,3.899-3.447,7.092-7.679,7.092H51.431c-4.222,0-7.669-3.193-7.669-7.092V32.613
			C43.762,28.714,47.209,25.523,51.431,25.523L51.431,25.523z"/>
		<g>
			<path style="fill:#FFFFFF;" d="M54.057,43.28v-8.175l4.995,4.808c0.136,0.136,0.274,0.28,0.413,0.435
				c0.141,0.154,0.287,0.327,0.441,0.521v-5.451h1.182v8.17l-5.098-4.894c-0.136-0.133-0.268-0.272-0.395-0.419
				s-0.248-0.301-0.363-0.462v5.468H54.057z"/>
			<path style="fill:#FFFFFF;" d="M68.086,43.28l-0.891-2.025H64.08l-0.914,2.025h-1.342l3.808-8.175l3.803,8.175H68.086z
				 M64.553,40.192h2.191l-0.807-1.795c-0.046-0.114-0.095-0.246-0.145-0.395s-0.101-0.314-0.15-0.496
				c-0.043,0.172-0.089,0.332-0.137,0.48c-0.049,0.148-0.098,0.285-0.148,0.41L64.553,40.192z"/>
			<path style="fill:#FFFFFF;" d="M72.48,43.587l-3.508-8.17h1.326l1.762,4.189c0.104,0.243,0.19,0.468,0.258,0.674
				c0.068,0.206,0.122,0.402,0.162,0.588c0.046-0.196,0.105-0.4,0.177-0.611c0.071-0.212,0.155-0.429,0.253-0.65l1.756-4.189h1.321
				L72.48,43.587z"/>
		</g>
	</g>
	<g id="Fms_4_">
		<path style="fill-rule:evenodd;clip-rule:evenodd;fill:#666666;" d="M107.947,26.559h38.268c1.365,0,2.462,1.03,2.462,2.291
			v25.657c0,1.25-1.11,2.279-2.462,2.279h-38.268c-1.354,0-2.454-1.029-2.454-2.279V28.85
			C105.493,27.589,106.593,26.559,107.947,26.559L107.947,26.559z"/>
		<path style="fill-rule:evenodd;clip-rule:evenodd;fill:#333333;stroke:#000000;" d="M105.677,24.447h38.269
			c1.352,0,2.463,1.03,2.463,2.291v25.657c0,1.26-1.111,2.29-2.463,2.29h-38.269c-1.354,0-2.463-1.03-2.463-2.29V26.738
			C103.214,25.477,104.323,24.447,105.677,24.447L105.677,24.447z"/>
		
			<radialGradient id="SVGID_5_" cx="-778.6187" cy="515.8232" r="91.4319" gradientTransform="matrix(0.296 0 0 0.2735 361.4406 -96.1686)" gradientUnits="userSpaceOnUse">
			<stop  offset="0.2" style="stop-color:#404040"/>
			<stop  offset="0.8" style="stop-color:#191919"/>
		</radialGradient>
		<path style="fill-rule:evenodd;clip-rule:evenodd;fill:url(#SVGID_5_);" d="M111.923,25.523h25.765
			c4.233,0,7.679,3.191,7.679,7.09v13.905c0,3.899-3.447,7.092-7.679,7.092h-25.765c-4.222,0-7.669-3.193-7.669-7.092V32.613
			C104.254,28.714,107.701,25.523,111.923,25.523L111.923,25.523z"/>
		<g>
			<path style="fill:#FFFFFF;" d="M115.262,43.28v-7.863h4.389v1.085h-3.11v1.96h3.11v1.123h-3.11v3.695H115.262z"/>
			<path style="fill:#FFFFFF;" d="M127.448,39.397c-0.015-0.062-0.038-0.229-0.069-0.506c-0.029-0.229-0.055-0.418-0.076-0.568
				c-0.031,0.179-0.077,0.357-0.137,0.537c-0.059,0.179-0.133,0.361-0.223,0.547l-2.057,4.189l-2.058-4.275
				c-0.086-0.175-0.16-0.345-0.223-0.51s-0.117-0.328-0.164-0.488c-0.004,0.164-0.017,0.337-0.04,0.518s-0.059,0.37-0.105,0.566
				l-0.843,3.873h-1.177l1.859-8.196l2.32,4.963c0.035,0.079,0.09,0.21,0.163,0.392c0.073,0.184,0.162,0.408,0.267,0.678
				c0.074-0.227,0.193-0.513,0.354-0.859c0.043-0.094,0.076-0.165,0.098-0.215l2.266-4.958l1.902,8.196h-1.188L127.448,39.397z"/>
			<path style="fill:#FFFFFF;" d="M130.075,41.706l1.021-0.473c0.097,0.352,0.274,0.619,0.532,0.804s0.587,0.276,0.988,0.276
				c0.379,0,0.681-0.105,0.904-0.316c0.224-0.212,0.336-0.494,0.336-0.85c0-0.461-0.383-0.873-1.149-1.234
				c-0.107-0.055-0.189-0.094-0.247-0.119c-0.866-0.422-1.444-0.805-1.732-1.146s-0.432-0.76-0.432-1.254
				c0-0.641,0.217-1.16,0.652-1.558c0.435-0.397,1.005-0.597,1.711-0.597c0.58,0,1.064,0.112,1.455,0.336s0.66,0.545,0.811,0.965
				l-0.998,0.516c-0.158-0.248-0.331-0.429-0.519-0.543c-0.188-0.114-0.404-0.172-0.647-0.172c-0.344,0-0.617,0.09-0.819,0.269
				s-0.304,0.419-0.304,0.72c0,0.473,0.444,0.913,1.332,1.321c0.068,0.032,0.122,0.058,0.162,0.075
				c0.776,0.358,1.311,0.708,1.6,1.05c0.291,0.342,0.436,0.77,0.436,1.281c0,0.745-0.234,1.337-0.703,1.775
				c-0.47,0.438-1.104,0.657-1.902,0.657c-0.669,0-1.218-0.153-1.646-0.461C130.488,42.719,130.208,42.279,130.075,41.706z"/>
		</g>
	</g>
	<g id="Full_Half_4_">
		<path style="fill-rule:evenodd;clip-rule:evenodd;fill:#666666;" d="M47.468,80.6h38.268c1.365,0,2.462,1.03,2.462,2.291v25.657
			c0,1.25-1.11,2.279-2.462,2.279H47.468c-1.354,0-2.454-1.029-2.454-2.279V82.891C45.014,81.63,46.114,80.6,47.468,80.6
			L47.468,80.6z"/>
		<path style="fill-rule:evenodd;clip-rule:evenodd;fill:#333333;stroke:#000000;" d="M45.185,78.221h38.269
			c1.352,0,2.463,1.03,2.463,2.291v25.657c0,1.26-1.111,2.29-2.463,2.29H45.185c-1.354,0-2.463-1.03-2.463-2.29V80.512
			C42.721,79.251,43.831,78.221,45.185,78.221L45.185,78.221z"/>
		
			<radialGradient id="SVGID_6_" cx="-982.9843" cy="712.4368" r="91.4319" gradientTransform="matrix(0.296 0 0 0.2735 361.4406 -96.1686)" gradientUnits="userSpaceOnUse">
			<stop  offset="0.2" style="stop-color:#404040"/>
			<stop  offset="0.8" style="stop-color:#191919"/>
		</radialGradient>
		<path style="fill-rule:evenodd;clip-rule:evenodd;fill:url(#SVGID_6_);" d="M51.431,79.297h25.765c4.233,0,7.679,3.191,7.679,7.09
			v13.905c0,3.899-3.447,7.092-7.679,7.092H51.431c-4.222,0-7.669-3.193-7.669-7.092V86.387
			C43.762,82.488,47.209,79.297,51.431,79.297L51.431,79.297z"/>
		<g>
			<path style="fill:#FFFFFF;" d="M50.886,92.086v-7.863h4.389v1.085h-3.11v1.96h3.11v1.123h-3.11v3.695H50.886z"/>
			<path style="fill:#FFFFFF;" d="M56.628,84.222h1.263v4.775c0,0.709,0.163,1.241,0.491,1.598c0.327,0.356,0.817,0.534,1.469,0.534
				c0.648,0,1.136-0.178,1.464-0.534c0.327-0.356,0.491-0.889,0.491-1.598v-4.775h1.278v4.893c0,1.064-0.269,1.859-0.806,2.388
				s-1.347,0.792-2.428,0.792s-1.889-0.263-2.423-0.789c-0.533-0.526-0.8-1.323-0.8-2.391V84.222z"/>
			<path style="fill:#FFFFFF;" d="M64.846,92.086v-7.863h1.278v6.719h2.857v1.145H64.846z"/>
			<path style="fill:#FFFFFF;" d="M70.017,92.086v-7.863h1.278v6.719h2.857v1.145H70.017z"/>
			<path style="fill:#FFFFFF;" d="M78.138,84.045h0.912L75.2,93.106h-0.913L78.138,84.045z"/>
			<path style="fill:#FFFFFF;" d="M52.191,102.885v-7.863h1.278v2.9h3.867v-2.9h1.278v7.863h-1.278v-3.818H53.47v3.818H52.191z"/>
			<path style="fill:#FFFFFF;" d="M65.613,102.885l-0.891-2.025h-3.115l-0.914,2.025h-1.342l3.808-8.175l3.803,8.175H65.613z
				 M62.08,99.797h2.191l-0.807-1.795c-0.046-0.114-0.095-0.246-0.145-0.395s-0.101-0.314-0.15-0.496
				c-0.043,0.172-0.089,0.332-0.137,0.48c-0.049,0.148-0.098,0.285-0.148,0.41L62.08,99.797z"/>
			<path style="fill:#FFFFFF;" d="M67.703,102.885v-7.863h1.278v6.719h2.857v1.145H67.703z"/>
			<path style="fill:#FFFFFF;" d="M72.875,102.885v-7.863h4.389v1.085h-3.11v1.96h3.11v1.123h-3.11v3.695H72.875z"/>
		</g>
	</g>
	<g id="FRMT_4_">
		<path style="fill-rule:evenodd;clip-rule:evenodd;fill:#666666;" d="M107.947,80.6h38.268c1.365,0,2.462,1.03,2.462,2.291v25.657
			c0,1.25-1.11,2.279-2.462,2.279h-38.268c-1.354,0-2.454-1.029-2.454-2.279V82.891C105.493,81.63,106.593,80.6,107.947,80.6
			L107.947,80.6z"/>
		<path style="fill-rule:evenodd;clip-rule:evenodd;fill:#333333;stroke:#000000;stroke-width:0.6912;" d="M105.677,78.221h38.269
			c1.352,0,2.463,1.03,2.463,2.291v25.657c0,1.26-1.111,2.29-2.463,2.29h-38.269c-1.354,0-2.463-1.03-2.463-2.29V80.512
			C103.214,79.251,104.323,78.221,105.677,78.221L105.677,78.221z"/>
		
			<radialGradient id="SVGID_7_" cx="-778.6187" cy="712.4368" r="91.4319" gradientTransform="matrix(0.296 0 0 0.2735 361.4406 -96.1686)" gradientUnits="userSpaceOnUse">
			<stop  offset="0.2" style="stop-color:#404040"/>
			<stop  offset="0.8" style="stop-color:#191919"/>
		</radialGradient>
		<path style="fill-rule:evenodd;clip-rule:evenodd;fill:url(#SVGID_7_);" d="M111.923,79.297h25.765
			c4.233,0,7.679,3.191,7.679,7.09v13.905c0,3.899-3.447,7.092-7.679,7.092h-25.765c-4.222,0-7.669-3.193-7.669-7.092V86.387
			C104.254,82.488,107.701,79.297,111.923,79.297L111.923,79.297z"/>
		<g>
			<path style="fill:#FFFFFF;" d="M112.401,97.053V89.19h4.389v1.085h-3.11v1.96h3.11v1.123h-3.11v3.695H112.401z"/>
			<path style="fill:#FFFFFF;" d="M119.373,93.536v3.518h-1.197V89.19h1.783c0.522,0,0.929,0.034,1.217,0.102
				c0.288,0.068,0.534,0.182,0.738,0.339c0.243,0.189,0.432,0.435,0.564,0.735c0.132,0.301,0.198,0.631,0.198,0.988
				c0,0.631-0.152,1.124-0.456,1.48c-0.305,0.356-0.754,0.57-1.349,0.642l2.707,3.577h-1.444l-2.616-3.518H119.373z M119.454,92.542
				h0.231c0.676,0,1.126-0.079,1.348-0.236s0.333-0.437,0.333-0.838c0-0.434-0.119-0.738-0.357-0.916
				c-0.238-0.177-0.679-0.266-1.323-0.266h-0.231V92.542z"/>
			<path style="fill:#FFFFFF;" d="M130.749,93.17c-0.015-0.062-0.038-0.229-0.069-0.506c-0.029-0.229-0.055-0.418-0.076-0.568
				c-0.031,0.179-0.077,0.357-0.137,0.537c-0.059,0.179-0.133,0.361-0.223,0.547l-2.057,4.189l-2.058-4.275
				c-0.086-0.175-0.16-0.345-0.223-0.51s-0.117-0.328-0.164-0.488c-0.004,0.164-0.017,0.337-0.04,0.518s-0.059,0.37-0.105,0.566
				l-0.843,3.873h-1.177l1.859-8.196l2.32,4.963c0.035,0.079,0.09,0.21,0.163,0.392c0.073,0.184,0.162,0.408,0.267,0.678
				c0.074-0.227,0.193-0.513,0.354-0.859c0.043-0.094,0.076-0.165,0.098-0.215l2.266-4.958l1.902,8.196h-1.188L130.749,93.17z"/>
			<path style="fill:#FFFFFF;" d="M136.367,90.275v6.778h-1.279v-6.778h-2.089V89.19h5.446v1.085H136.367z"/>
		</g>
	</g>
	<g id="Range_-_4_">
		<path style="fill-rule:evenodd;clip-rule:evenodd;fill:#666666;" d="M47.468,133.966h38.268c1.365,0,2.462,1.03,2.462,2.291
			v25.657c0,1.25-1.11,2.279-2.462,2.279H47.468c-1.354,0-2.454-1.029-2.454-2.279v-25.657
			C45.014,134.996,46.114,133.966,47.468,133.966L47.468,133.966z"/>
		<path style="fill-rule:evenodd;clip-rule:evenodd;fill:#333333;stroke:#000000;" d="M45.185,131.731h38.269
			c1.352,0,2.463,1.03,2.463,2.291v25.657c0,1.26-1.111,2.29-2.463,2.29H45.185c-1.354,0-2.463-1.03-2.463-2.29v-25.657
			C42.721,132.761,43.831,131.731,45.185,131.731L45.185,131.731z"/>
		
			<radialGradient id="SVGID_8_" cx="-982.9843" cy="908.0864" r="91.4319" gradientTransform="matrix(0.296 0 0 0.2735 361.4406 -96.1686)" gradientUnits="userSpaceOnUse">
			<stop  offset="0.2" style="stop-color:#404040"/>
			<stop  offset="0.8" style="stop-color:#191919"/>
		</radialGradient>
		<path style="fill-rule:evenodd;clip-rule:evenodd;fill:url(#SVGID_8_);" d="M51.431,132.807h25.765
			c4.233,0,7.679,3.191,7.679,7.09v13.905c0,3.899-3.447,7.092-7.679,7.092H51.431c-4.222,0-7.669-3.193-7.669-7.092v-13.905
			C43.762,135.998,47.209,132.807,51.431,132.807L51.431,132.807z"/>
		<g>
			<path style="fill:#FFFFFF;" d="M61.3,146.824h6.435v0.913H61.3V146.824z"/>
		</g>
	</g>
	<g id="Range__x2B__4_">
		<path style="fill-rule:evenodd;clip-rule:evenodd;fill:#666666;" d="M107.947,133.966h38.268c1.365,0,2.462,1.03,2.462,2.291
			v25.657c0,1.25-1.11,2.279-2.462,2.279h-38.268c-1.354,0-2.454-1.029-2.454-2.279v-25.657
			C105.493,134.996,106.593,133.966,107.947,133.966L107.947,133.966z"/>
		<path style="fill-rule:evenodd;clip-rule:evenodd;fill:#333333;stroke:#000000;" d="M105.677,131.996h38.269
			c1.352,0,2.463,1.03,2.463,2.291v25.657c0,1.26-1.111,2.29-2.463,2.29h-38.269c-1.354,0-2.463-1.03-2.463-2.29v-25.657
			C103.214,133.026,104.323,131.996,105.677,131.996L105.677,131.996z"/>
		
			<radialGradient id="SVGID_9_" cx="-778.6187" cy="909.0547" r="91.4319" gradientTransform="matrix(0.296 0 0 0.2735 361.4406 -96.1686)" gradientUnits="userSpaceOnUse">
			<stop  offset="0.2" style="stop-color:#404040"/>
			<stop  offset="0.8" style="stop-color:#191919"/>
		</radialGradient>
		<path style="fill-rule:evenodd;clip-rule:evenodd;fill:url(#SVGID_9_);" d="M111.923,133.072h25.765
			c4.233,0,7.679,3.191,7.679,7.09v13.905c0,3.899-3.447,7.092-7.679,7.092h-25.765c-4.222,0-7.669-3.193-7.669-7.092v-13.905
			C104.254,136.263,107.701,133.072,111.923,133.072L111.923,133.072z"/>
		<g>
			<path style="fill:#FFFFFF;" d="M124.553,144.27h0.913v2.831h2.761v0.892h-2.761v2.836h-0.913v-2.836h-2.761v-0.892h2.761V144.27z
				"/>
		</g>
	</g>
	<g>
		
			<line style="fill-rule:evenodd;clip-rule:evenodd;fill:none;stroke:#FFFFFF;stroke-width:2;stroke-miterlimit:2.4142;" x1="160.931" y1="17.694" x2="160.931" y2="276.895"/>
		<g>
			<path style="fill:#FFFFFF;" d="M535.409,19.022V9.014h2.522c0.72,0,1.252,0.039,1.597,0.116c0.344,0.077,0.637,0.205,0.878,0.383
				c0.31,0.228,0.55,0.526,0.722,0.896c0.17,0.369,0.256,0.777,0.256,1.224c0,0.533-0.123,0.979-0.369,1.337
				c-0.246,0.357-0.604,0.606-1.073,0.748c0.583,0.091,1.042,0.356,1.378,0.797c0.334,0.439,0.502,0.994,0.502,1.664
				c0,0.405-0.07,0.791-0.212,1.155s-0.342,0.675-0.602,0.93c-0.273,0.278-0.613,0.474-1.019,0.588s-1.087,0.171-2.044,0.171
				H535.409z M537.002,13.239h0.622c0.774,0,1.322-0.105,1.645-0.318c0.32-0.211,0.481-0.568,0.481-1.069
				c0-0.547-0.148-0.931-0.444-1.151c-0.296-0.222-0.856-0.332-1.682-0.332h-0.622V13.239z M537.002,17.662h0.561
				c0.569,0,0.996-0.022,1.278-0.068s0.506-0.125,0.67-0.239c0.2-0.132,0.355-0.31,0.465-0.533s0.164-0.47,0.164-0.738
				c0-0.319-0.066-0.597-0.198-0.834s-0.321-0.422-0.567-0.554c-0.155-0.077-0.332-0.135-0.529-0.171
				c-0.199-0.036-0.462-0.055-0.79-0.055h-0.492h-0.561V17.662z"/>
			<path style="fill:#FFFFFF;" d="M545.7,14.545v4.478h-1.524V9.014h2.27c0.665,0,1.182,0.043,1.549,0.13
				c0.366,0.087,0.68,0.23,0.939,0.431c0.31,0.241,0.549,0.554,0.718,0.937s0.253,0.802,0.253,1.258c0,0.802-0.193,1.43-0.581,1.884
				c-0.388,0.453-0.959,0.726-1.716,0.816l3.445,4.553h-1.839l-3.329-4.478H545.7z M545.803,13.28h0.294
				c0.861,0,1.434-0.101,1.716-0.301s0.424-0.556,0.424-1.066c0-0.552-0.151-0.939-0.455-1.166
				c-0.303-0.225-0.864-0.338-1.685-0.338h-0.294V13.28z"/>
			<path style="fill:#FFFFFF;" d="M555.95,10.395v8.627h-1.627v-8.627h-2.659V9.014h6.932v1.381H555.95z"/>
		</g>
		<g>
			<path style="fill:#FFFFFF;" d="M489.641,195.563v8.627h-1.627v-8.627h-2.659v-1.381h6.932v1.381H489.641z"/>
			<path style="fill:#FFFFFF;" d="M494.19,194.182h1.606v6.077c0,0.902,0.208,1.58,0.626,2.034c0.416,0.453,1.04,0.68,1.869,0.68
				c0.825,0,1.445-0.227,1.863-0.68c0.416-0.454,0.625-1.132,0.625-2.034v-6.077h1.627v6.228c0,1.354-0.342,2.366-1.025,3.038
				c-0.684,0.673-1.714,1.009-3.09,1.009s-2.404-0.335-3.083-1.005s-1.019-1.684-1.019-3.042V194.182z"/>
			<path style="fill:#FFFFFF;" d="M505.349,204.19v-10.404l6.357,6.118c0.173,0.173,0.349,0.357,0.526,0.554
				s0.364,0.417,0.561,0.663v-6.938h1.504v10.397l-6.487-6.228c-0.173-0.169-0.341-0.347-0.502-0.533
				c-0.162-0.187-0.316-0.383-0.462-0.588v6.959H505.349z"/>
			<path style="fill:#FFFFFF;" d="M517.294,204.19v-10.008h5.585v1.381h-3.958v2.509h3.958v1.429h-3.958v3.233h3.958v1.456H517.294z
				"/>
			<path style="fill:#FFFFFF;" d="M529.198,193.957h1.162l-4.901,11.532h-1.162L529.198,193.957z"/>
			<path style="fill:#FFFFFF;" d="M532.209,204.19v-10.008h2.194c1.427,0,2.431,0.072,3.011,0.215
				c0.582,0.145,1.091,0.385,1.528,0.722c0.579,0.442,1.018,1.01,1.315,1.702c0.299,0.692,0.448,1.483,0.448,2.372
				s-0.149,1.676-0.448,2.362c-0.298,0.686-0.736,1.252-1.315,1.698c-0.438,0.337-0.936,0.577-1.493,0.722
				c-0.559,0.143-1.428,0.215-2.608,0.215h-0.438H532.209z M533.836,202.72h1.367c0.752,0,1.316-0.05,1.691-0.15
				c0.377-0.101,0.703-0.269,0.981-0.506c0.378-0.323,0.662-0.726,0.851-1.206c0.189-0.481,0.284-1.041,0.284-1.679
				s-0.095-1.197-0.284-1.679c-0.188-0.48-0.473-0.883-0.851-1.206c-0.282-0.237-0.621-0.405-1.015-0.506
				c-0.395-0.101-1.011-0.15-1.85-0.15h-0.588h-0.588V202.72z"/>
			<path style="fill:#FFFFFF;" d="M549.637,204.19l-1.135-2.577h-3.965l-1.162,2.577h-1.709l4.847-10.404l4.84,10.404H549.637z
				 M545.138,200.259h2.789l-1.025-2.283c-0.06-0.146-0.121-0.313-0.185-0.503c-0.063-0.188-0.128-0.399-0.191-0.632
				c-0.055,0.219-0.113,0.423-0.174,0.612c-0.063,0.188-0.125,0.363-0.188,0.522L545.138,200.259z"/>
			<path style="fill:#FFFFFF;" d="M555.464,195.563v8.627h-1.627v-8.627h-2.659v-1.381h6.932v1.381H555.464z"/>
			<path style="fill:#FFFFFF;" d="M565.644,204.19l-1.135-2.577h-3.965l-1.162,2.577h-1.709l4.847-10.404l4.84,10.404H565.644z
				 M561.146,200.259h2.789l-1.025-2.283c-0.06-0.146-0.121-0.313-0.185-0.503c-0.063-0.188-0.128-0.399-0.191-0.632
				c-0.055,0.219-0.113,0.423-0.174,0.612c-0.063,0.188-0.125,0.363-0.188,0.522L561.146,200.259z"/>
		</g>
		<g>
			<path style="fill:#FFFFFF;" d="M63.555,16.468V6.064l6.357,6.118c0.173,0.173,0.349,0.357,0.526,0.554s0.364,0.417,0.561,0.663
				V6.461h1.504v10.397l-6.487-6.228c-0.173-0.169-0.341-0.347-0.502-0.533c-0.162-0.187-0.316-0.383-0.462-0.588v6.959H63.555z"/>
			<path style="fill:#FFFFFF;" d="M82.111,16.468l-1.135-2.577h-3.965l-1.162,2.577H74.14l4.847-10.404l4.84,10.404H82.111z
				 M77.613,12.538h2.789l-1.025-2.283c-0.06-0.146-0.121-0.313-0.185-0.503c-0.063-0.188-0.128-0.399-0.191-0.632
				c-0.055,0.219-0.113,0.423-0.174,0.612c-0.063,0.188-0.125,0.363-0.188,0.522L77.613,12.538z"/>
			<path style="fill:#FFFFFF;" d="M88.403,16.858L83.939,6.461h1.688l2.242,5.332c0.132,0.31,0.241,0.596,0.328,0.857
				c0.087,0.263,0.155,0.512,0.205,0.749c0.06-0.251,0.135-0.511,0.226-0.779s0.198-0.545,0.321-0.827l2.235-5.332h1.682
				L88.403,16.858z"/>
			<path style="fill:#FFFFFF;" d="M98.929,14.465l1.299-0.602c0.123,0.446,0.349,0.787,0.677,1.022
				c0.328,0.234,0.747,0.352,1.258,0.352c0.483,0,0.867-0.135,1.151-0.403c0.285-0.269,0.428-0.629,0.428-1.08
				c0-0.588-0.487-1.112-1.463-1.572c-0.137-0.068-0.241-0.118-0.314-0.15c-1.103-0.538-1.838-1.024-2.205-1.46
				c-0.366-0.435-0.55-0.967-0.55-1.596c0-0.815,0.276-1.477,0.831-1.982c0.553-0.506,1.279-0.759,2.177-0.759
				c0.738,0,1.355,0.143,1.853,0.427c0.497,0.285,0.841,0.694,1.032,1.228l-1.271,0.656c-0.2-0.314-0.421-0.545-0.659-0.69
				c-0.24-0.146-0.515-0.219-0.824-0.219c-0.438,0-0.785,0.114-1.043,0.342c-0.257,0.228-0.386,0.533-0.386,0.916
				c0,0.602,0.565,1.162,1.695,1.682c0.087,0.041,0.155,0.073,0.205,0.096c0.989,0.456,1.668,0.901,2.037,1.336
				c0.369,0.436,0.554,0.979,0.554,1.631c0,0.948-0.299,1.701-0.896,2.26c-0.597,0.558-1.403,0.837-2.42,0.837
				c-0.853,0-1.551-0.196-2.095-0.588C99.454,15.755,99.097,15.195,98.929,14.465z"/>
			<path style="fill:#FFFFFF;" d="M109.411,11.991v4.478h-1.524V6.461h2.27c0.665,0,1.182,0.043,1.549,0.13
				c0.366,0.087,0.68,0.23,0.939,0.431c0.31,0.241,0.549,0.554,0.718,0.937c0.169,0.383,0.253,0.802,0.253,1.258
				c0,0.802-0.193,1.43-0.581,1.884c-0.388,0.453-0.959,0.726-1.716,0.816l3.445,4.553h-1.839l-3.329-4.478H109.411z
				 M109.513,10.726h0.294c0.861,0,1.434-0.101,1.716-0.301s0.424-0.556,0.424-1.066c0-0.552-0.151-0.939-0.455-1.166
				c-0.303-0.225-0.864-0.338-1.685-0.338h-0.294V10.726z"/>
			<path style="fill:#FFFFFF;" d="M124.46,8.894C124,8.503,123.513,8.209,123,8.012c-0.512-0.196-1.051-0.294-1.616-0.294
				c-1.094,0-1.983,0.351-2.669,1.053c-0.687,0.702-1.029,1.611-1.029,2.728c0,1.08,0.334,1.971,1.002,2.673
				c0.667,0.702,1.509,1.053,2.525,1.053c0.593,0,1.156-0.104,1.691-0.314c0.536-0.21,1.05-0.526,1.542-0.95v1.839
				c-0.438,0.314-0.914,0.549-1.429,0.704s-1.073,0.232-1.675,0.232c-0.766,0-1.474-0.125-2.122-0.376
				c-0.65-0.251-1.221-0.62-1.713-1.107c-0.487-0.479-0.862-1.043-1.125-1.691c-0.262-0.65-0.393-1.342-0.393-2.075
				s0.131-1.423,0.393-2.067c0.263-0.646,0.642-1.212,1.139-1.699c0.497-0.492,1.066-0.865,1.709-1.117
				c0.643-0.254,1.338-0.38,2.085-0.38c0.588,0,1.148,0.085,1.682,0.257c0.533,0.17,1.051,0.429,1.552,0.775L124.46,8.894z"/>
		</g>
		<g>
			<path style="fill:#FFFFFF;" d="M488.457,45.698c0,0.711-0.134,1.383-0.399,2.017c-0.268,0.634-0.655,1.198-1.166,1.695
				c-0.515,0.497-1.096,0.877-1.743,1.142s-1.326,0.396-2.037,0.396c-0.72,0-1.407-0.134-2.062-0.399
				c-0.653-0.268-1.231-0.646-1.732-1.139c-0.511-0.497-0.897-1.06-1.162-1.688s-0.396-1.304-0.396-2.023
				c0-0.716,0.132-1.39,0.396-2.023s0.651-1.201,1.162-1.702c0.511-0.497,1.089-0.875,1.736-1.135s1.333-0.39,2.058-0.39
				c0.72,0,1.402,0.13,2.048,0.39c0.645,0.26,1.222,0.638,1.732,1.135c0.511,0.506,0.898,1.076,1.166,1.713
				C488.323,44.32,488.457,44.992,488.457,45.698z M486.762,45.698c0-0.506-0.093-0.986-0.276-1.442
				c-0.186-0.456-0.45-0.861-0.797-1.217c-0.337-0.351-0.729-0.621-1.172-0.811c-0.445-0.188-0.913-0.283-1.405-0.283
				s-0.96,0.094-1.405,0.28c-0.443,0.187-0.839,0.458-1.186,0.813c-0.347,0.351-0.61,0.754-0.793,1.21s-0.273,0.938-0.273,1.449
				c0,0.506,0.091,0.984,0.273,1.436s0.446,0.854,0.793,1.21s0.74,0.627,1.183,0.813s0.911,0.28,1.408,0.28
				c0.487,0,0.951-0.094,1.392-0.28c0.439-0.187,0.835-0.458,1.186-0.813c0.347-0.355,0.611-0.76,0.797-1.213
				C486.669,46.676,486.762,46.199,486.762,45.698z"/>
			<path style="fill:#FFFFFF;" d="M491.023,50.681V40.673h5.585v1.381h-3.958v2.495h3.958v1.429h-3.958v4.703H491.023z"/>
			<path style="fill:#FFFFFF;" d="M499.072,50.681V40.673h5.585v1.381h-3.958v2.495h3.958v1.429h-3.958v4.703H499.072z"/>
		</g>
		<path style="fill-rule:evenodd;clip-rule:evenodd;fill:none;stroke:#FFFFFF;stroke-width:2;stroke-miterlimit:2.4142;" d="
			M553.205,266.693c5.825-6.384,9.377-14.876,9.377-24.199c0-9.487-3.677-18.115-9.686-24.534"/>
		<path style="fill-rule:evenodd;clip-rule:evenodd;fill:none;stroke:#FFFFFF;stroke-width:2;stroke-miterlimit:2.4142;" d="
			M501.273,217.099c-6.499,6.499-10.519,15.476-10.519,25.395c0,9.323,3.553,17.817,9.38,24.202"/>
		<path style="fill-rule:evenodd;clip-rule:evenodd;fill:none;stroke:#FFFFFF;stroke-width:2;stroke-miterlimit:2.4142;" d="
			M531.727,16.707c-2.872-1.65-6.203-2.595-9.753-2.595c-10.829,0-19.609,8.78-19.609,19.609c0,1.163,0.101,2.302,0.295,3.409"/>
		
			<polyline style="fill-rule:evenodd;clip-rule:evenodd;fill:none;stroke:#FFFFFF;stroke-width:2;stroke-miterlimit:2.4142;" points="
			48.754,18.87 48.754,11.935 59.067,11.935 		"/>
		
			<polyline style="fill-rule:evenodd;clip-rule:evenodd;fill:none;stroke:#FFFFFF;stroke-width:2;stroke-miterlimit:2.4142;" points="
			139.701,18.87 139.701,11.935 129.389,11.935 		"/>
		<g>
			<path style="fill:#FFFFFF;" d="M54.058,69.351v4.491h-1.524V63.835h2.461c0.729,0,1.266,0.04,1.609,0.119
				c0.345,0.08,0.645,0.211,0.899,0.394c0.314,0.232,0.561,0.546,0.738,0.94c0.178,0.394,0.267,0.828,0.267,1.302
				s-0.089,0.911-0.267,1.313s-0.424,0.716-0.738,0.943c-0.255,0.183-0.555,0.313-0.899,0.39c-0.344,0.077-0.88,0.116-1.609,0.116
				h-0.321H54.058z M54.161,68.018h0.417c0.902,0,1.504-0.098,1.805-0.294s0.451-0.542,0.451-1.039c0-0.533-0.161-0.909-0.481-1.128
				c-0.322-0.219-0.913-0.328-1.774-0.328h-0.417V68.018z"/>
			<path style="fill:#FFFFFF;" d="M60.685,73.842V63.835h5.585v1.381h-3.958v2.495h3.958v1.429h-3.958v4.703H60.685z"/>
			<path style="fill:#FFFFFF;" d="M68.734,73.842V63.835h2.194c1.427,0,2.431,0.072,3.011,0.215
				c0.582,0.145,1.091,0.385,1.528,0.722c0.579,0.442,1.018,1.01,1.315,1.702c0.299,0.692,0.448,1.483,0.448,2.372
				s-0.149,1.676-0.448,2.362c-0.298,0.686-0.736,1.252-1.315,1.698c-0.438,0.337-0.936,0.577-1.493,0.722
				c-0.559,0.143-1.428,0.215-2.608,0.215h-0.438H68.734z M70.361,72.373h1.367c0.752,0,1.316-0.05,1.691-0.15
				c0.377-0.101,0.703-0.269,0.981-0.506c0.378-0.323,0.662-0.726,0.851-1.206c0.189-0.481,0.284-1.041,0.284-1.679
				s-0.095-1.197-0.284-1.679c-0.188-0.48-0.473-0.883-0.851-1.206c-0.282-0.237-0.621-0.405-1.015-0.506
				c-0.395-0.101-1.011-0.15-1.85-0.15h-0.588h-0.588V72.373z"/>
		</g>
		<g>
			<path style="fill:#FFFFFF;" d="M117.791,68.9c-0.019-0.077-0.048-0.292-0.089-0.643c-0.036-0.292-0.068-0.533-0.096-0.725
				c-0.041,0.228-0.099,0.456-0.175,0.684c-0.074,0.228-0.169,0.46-0.283,0.697l-2.618,5.332l-2.618-5.441
				c-0.109-0.224-0.204-0.439-0.283-0.649c-0.08-0.21-0.149-0.417-0.209-0.622c-0.005,0.21-0.021,0.43-0.051,0.659
				c-0.03,0.23-0.074,0.471-0.134,0.722l-1.073,4.929h-1.497l2.365-10.432l2.953,6.316c0.046,0.101,0.115,0.267,0.208,0.499
				c0.094,0.232,0.207,0.52,0.339,0.861c0.096-0.287,0.246-0.651,0.451-1.094c0.055-0.118,0.096-0.21,0.123-0.273l2.885-6.31
				l2.42,10.432h-1.511L117.791,68.9z"/>
			<path style="fill:#FFFFFF;" d="M122.408,73.842V63.835h5.585v1.381h-3.958v2.495h3.958v1.429h-3.958v4.703H122.408z"/>
			<path style="fill:#FFFFFF;" d="M129.267,63.835h1.606l1.894,5.052c0.123,0.333,0.227,0.624,0.311,0.875
				c0.085,0.251,0.159,0.485,0.223,0.704c0.159-0.528,0.326-1.046,0.499-1.552c0.022-0.063,0.039-0.107,0.048-0.13l2.01-5.346
				l2.119,5.448c0.101,0.265,0.195,0.528,0.283,0.793c0.09,0.265,0.173,0.531,0.25,0.8c0.046-0.205,0.107-0.431,0.185-0.677
				s0.178-0.538,0.301-0.875l1.88-5.093h1.62l-3.876,10.397l-2.283-5.708c-0.101-0.255-0.191-0.5-0.273-0.734
				c-0.082-0.235-0.155-0.457-0.219-0.667c-0.077,0.269-0.155,0.521-0.232,0.755c-0.077,0.235-0.157,0.46-0.239,0.674l-2.242,5.681
				L129.267,63.835z"/>
		</g>
		<g>
			<path style="fill:#FFFFFF;" d="M75.313,189.527v-10.008h2.522c0.72,0,1.252,0.039,1.597,0.116
				c0.344,0.077,0.637,0.205,0.878,0.383c0.31,0.228,0.55,0.526,0.722,0.896c0.17,0.369,0.256,0.777,0.256,1.224
				c0,0.533-0.123,0.979-0.369,1.337c-0.246,0.357-0.604,0.606-1.073,0.748c0.583,0.091,1.042,0.356,1.378,0.797
				c0.334,0.439,0.502,0.994,0.502,1.664c0,0.405-0.07,0.791-0.212,1.155s-0.342,0.675-0.602,0.93
				c-0.273,0.278-0.613,0.474-1.019,0.588s-1.087,0.171-2.044,0.171H75.313z M76.906,183.744h0.622c0.774,0,1.322-0.105,1.645-0.318
				c0.32-0.211,0.481-0.568,0.481-1.069c0-0.547-0.148-0.931-0.444-1.151c-0.296-0.222-0.856-0.332-1.682-0.332h-0.622V183.744z
				 M76.906,188.167h0.561c0.569,0,0.996-0.022,1.278-0.068s0.506-0.125,0.67-0.239c0.2-0.132,0.355-0.31,0.465-0.533
				s0.164-0.47,0.164-0.738c0-0.319-0.066-0.597-0.198-0.834s-0.321-0.422-0.567-0.554c-0.155-0.077-0.332-0.135-0.529-0.171
				c-0.199-0.036-0.462-0.055-0.79-0.055h-0.492h-0.561V188.167z"/>
			<path style="fill:#FFFFFF;" d="M90.69,189.527l-1.135-2.577h-3.965l-1.162,2.577H82.72l4.847-10.404l4.84,10.404H90.69z
				 M86.192,185.596h2.789l-1.025-2.283c-0.06-0.146-0.121-0.313-0.185-0.503c-0.063-0.188-0.128-0.399-0.191-0.632
				c-0.055,0.219-0.113,0.423-0.174,0.612c-0.063,0.188-0.125,0.363-0.188,0.522L86.192,185.596z"/>
			<path style="fill:#FFFFFF;" d="M95.574,185.049v4.478H94.05v-10.008h2.27c0.665,0,1.182,0.043,1.549,0.13
				c0.366,0.087,0.68,0.23,0.939,0.431c0.31,0.241,0.549,0.554,0.718,0.937s0.253,0.802,0.253,1.258c0,0.802-0.193,1.43-0.581,1.884
				c-0.388,0.453-0.959,0.726-1.716,0.816l3.445,4.553h-1.839l-3.329-4.478H95.574z M95.677,183.785h0.294
				c0.861,0,1.434-0.101,1.716-0.301s0.424-0.556,0.424-1.066c0-0.552-0.151-0.939-0.455-1.166
				c-0.303-0.225-0.864-0.338-1.685-0.338h-0.294V183.785z"/>
			<path style="fill:#FFFFFF;" d="M112.85,184.544c0,0.711-0.134,1.383-0.399,2.017c-0.268,0.634-0.655,1.198-1.166,1.695
				c-0.515,0.497-1.096,0.877-1.743,1.142s-1.326,0.396-2.037,0.396c-0.72,0-1.407-0.134-2.062-0.399
				c-0.653-0.268-1.231-0.646-1.732-1.139c-0.511-0.497-0.897-1.06-1.162-1.688s-0.396-1.304-0.396-2.023
				c0-0.716,0.132-1.39,0.396-2.023s0.651-1.201,1.162-1.702c0.511-0.497,1.089-0.875,1.736-1.135s1.333-0.39,2.058-0.39
				c0.72,0,1.402,0.13,2.048,0.39c0.645,0.26,1.222,0.638,1.732,1.135c0.511,0.506,0.898,1.076,1.166,1.713
				C112.717,183.166,112.85,183.837,112.85,184.544z M111.155,184.544c0-0.506-0.093-0.986-0.276-1.442
				c-0.186-0.456-0.45-0.861-0.797-1.217c-0.337-0.351-0.729-0.621-1.172-0.811c-0.445-0.188-0.913-0.283-1.405-0.283
				s-0.96,0.094-1.405,0.28c-0.443,0.187-0.839,0.458-1.186,0.813c-0.347,0.351-0.61,0.754-0.793,1.21s-0.273,0.938-0.273,1.449
				c0,0.506,0.091,0.984,0.273,1.436s0.446,0.854,0.793,1.21s0.74,0.627,1.183,0.813s0.911,0.28,1.408,0.28
				c0.487,0,0.951-0.094,1.392-0.28c0.439-0.187,0.835-0.458,1.186-0.813c0.347-0.355,0.611-0.76,0.797-1.213
				C111.062,185.522,111.155,185.045,111.155,184.544z"/>
		</g>
		<g>
			<path style="fill:#FFFFFF;" d="M120.66,201.255v-10.008h1.627v3.691h4.922v-3.691h1.627v10.008h-1.627v-4.86h-4.922v4.86H120.66z
				"/>
			<path style="fill:#FFFFFF;" d="M133.357,196.764v4.491h-1.524v-10.008h2.461c0.729,0,1.266,0.04,1.609,0.119
				c0.345,0.08,0.645,0.211,0.899,0.394c0.314,0.232,0.561,0.546,0.738,0.94c0.178,0.394,0.267,0.828,0.267,1.302
				s-0.089,0.911-0.267,1.313s-0.424,0.716-0.738,0.943c-0.255,0.183-0.555,0.313-0.899,0.39c-0.344,0.077-0.88,0.116-1.609,0.116
				h-0.321H133.357z M133.46,195.431h0.417c0.902,0,1.504-0.098,1.805-0.294s0.451-0.542,0.451-1.039
				c0-0.533-0.161-0.909-0.481-1.128c-0.322-0.219-0.913-0.328-1.774-0.328h-0.417V195.431z"/>
			<path style="fill:#FFFFFF;" d="M145.829,201.255l-1.135-2.577h-3.965l-1.162,2.577h-1.709l4.847-10.404l4.84,10.404H145.829z
				 M141.331,197.325h2.789l-1.025-2.283c-0.06-0.146-0.121-0.313-0.185-0.503c-0.063-0.188-0.128-0.399-0.191-0.632
				c-0.055,0.219-0.113,0.423-0.174,0.612c-0.063,0.188-0.125,0.363-0.188,0.522L141.331,197.325z"/>
		</g>
		<g>
			<path style="fill:#FFFFFF;" d="M53.91,201.255v-10.008h1.627v10.008H53.91z"/>
			<path style="fill:#FFFFFF;" d="M58.575,201.255v-10.404l6.357,6.118c0.173,0.173,0.349,0.357,0.526,0.554
				s0.364,0.417,0.561,0.663v-6.938h1.504v10.397l-6.487-6.228c-0.173-0.169-0.341-0.347-0.502-0.533
				c-0.162-0.187-0.316-0.383-0.462-0.588v6.959H58.575z"/>
		</g>
		<g>
			<path style="fill:#FFFFFF;" d="M71.614,119.54v4.478H70.09v-10.008h2.27c0.665,0,1.182,0.043,1.549,0.13
				c0.366,0.087,0.68,0.23,0.939,0.431c0.31,0.241,0.549,0.554,0.718,0.937s0.253,0.802,0.253,1.258c0,0.802-0.193,1.43-0.581,1.884
				c-0.388,0.453-0.959,0.726-1.716,0.816l3.445,4.553h-1.839l-3.329-4.478H71.614z M71.717,118.275h0.294
				c0.861,0,1.434-0.101,1.716-0.301s0.424-0.556,0.424-1.066c0-0.552-0.151-0.939-0.455-1.166
				c-0.303-0.225-0.864-0.338-1.685-0.338h-0.294V118.275z"/>
			<path style="fill:#FFFFFF;" d="M85.241,124.017l-1.135-2.577h-3.965l-1.162,2.577H77.27l4.847-10.404l4.84,10.404H85.241z
				 M80.743,120.087h2.789l-1.025-2.283c-0.06-0.146-0.121-0.313-0.185-0.503c-0.063-0.188-0.128-0.399-0.191-0.632
				c-0.055,0.219-0.113,0.423-0.174,0.612c-0.063,0.188-0.125,0.363-0.188,0.522L80.743,120.087z"/>
			<path style="fill:#FFFFFF;" d="M88.6,124.017v-10.404l6.357,6.118c0.173,0.173,0.349,0.357,0.526,0.554s0.364,0.417,0.561,0.663
				v-6.938h1.504v10.397l-6.487-6.228c-0.173-0.169-0.341-0.347-0.502-0.533c-0.162-0.187-0.316-0.383-0.462-0.588v6.959H88.6z"/>
			<path style="fill:#FFFFFF;" d="M106.089,118.89h3.965c0,0.068,0.002,0.164,0.007,0.287c0.014,0.323,0.021,0.542,0.021,0.656
				c0,1.408-0.403,2.502-1.21,3.281s-1.943,1.169-3.411,1.169c-0.82,0-1.552-0.121-2.194-0.362s-1.205-0.606-1.688-1.094
				c-0.474-0.483-0.837-1.051-1.091-1.702c-0.252-0.651-0.379-1.349-0.379-2.092c0-0.757,0.129-1.454,0.387-2.092
				c0.257-0.638,0.639-1.201,1.145-1.688c0.487-0.479,1.06-0.843,1.716-1.094c0.656-0.251,1.358-0.376,2.105-0.376
				c0.788,0,1.493,0.144,2.116,0.431c0.621,0.287,1.177,0.727,1.664,1.319l-1.189,0.896c-0.337-0.392-0.718-0.684-1.142-0.875
				s-0.897-0.287-1.422-0.287c-1.085,0-1.97,0.348-2.655,1.043c-0.687,0.694-1.029,1.598-1.029,2.71c0,1.13,0.343,2.048,1.029,2.751
				c0.686,0.705,1.575,1.057,2.669,1.057c0.93,0,1.661-0.217,2.194-0.649s0.8-1.023,0.8-1.771v-0.144h-2.406V118.89z"/>
			<path style="fill:#FFFFFF;" d="M112.49,124.017v-10.008h5.585v1.381h-3.958v2.509h3.958v1.429h-3.958v3.233h3.958v1.456H112.49z"
				/>
		</g>
		
			<polyline style="fill-rule:evenodd;clip-rule:evenodd;fill:none;stroke:#FFFFFF;stroke-width:2;stroke-miterlimit:2.4142;" points="
			48.754,126.418 48.754,119.483 65.618,119.483 		"/>
		
			<polyline style="fill-rule:evenodd;clip-rule:evenodd;fill:none;stroke:#FFFFFF;stroke-width:2;stroke-miterlimit:2.4142;" points="
			139.701,126.418 139.701,119.483 122.837,119.483 		"/>
		
			<line style="fill-rule:evenodd;clip-rule:evenodd;fill:none;stroke:#FFFFFF;stroke-width:2;stroke-miterlimit:2.4142;" x1="33.747" y1="172.725" x2="154.707" y2="172.725"/>
		<path style="fill-rule:evenodd;clip-rule:evenodd;fill:none;stroke:#FFFFFF;stroke-width:2;stroke-miterlimit:2.4142;" d="
			M57.302,266.693c-4.522-6.923-7.151-15.195-7.151-24.08c0-8.988,2.688-17.346,7.305-24.314"/>
		<path style="fill-rule:evenodd;clip-rule:evenodd;fill:none;stroke:#FFFFFF;stroke-width:2;stroke-miterlimit:2.4142;" d="
			M130.781,217.968c4.753,7.034,7.528,15.516,7.528,24.645c0,8.883-2.628,17.154-7.15,24.075"/>
		<circle style="fill-rule:evenodd;clip-rule:evenodd;fill:#FFFFFF;" cx="84.526" cy="206.277" r="3.888"/>
		<polyline style="fill:none;stroke:#FFFFFF;stroke-width:2;stroke-miterlimit:2.4142;" points="70.891,196.178 80.941,196.178 
			84.525,206.275 		"/>
		<circle style="fill-rule:evenodd;clip-rule:evenodd;fill:#FFFFFF;" cx="103.934" cy="206.277" r="3.888"/>
		<polyline style="fill:none;stroke:#FFFFFF;stroke-width:2;stroke-miterlimit:2.4142;" points="117.455,196.178 107.519,196.178 
			103.936,206.275 		"/>
		<line style="fill:none;stroke:#FFFFFF;stroke-width:2;" x1="207.646" y1="69.269" x2="228.382" y2="69.269"/>
		<line style="fill:none;stroke:#FFFFFF;stroke-width:2;" x1="492.268" y1="69.303" x2="472.368" y2="69.303"/>
		<line style="fill:none;stroke:#FFFFFF;stroke-width:2;" x1="492.564" y1="121.142" x2="472.177" y2="121.142"/>
		<line style="fill:none;stroke:#FFFFFF;stroke-width:2;" x1="492.337" y1="172.992" x2="471.829" y2="172.992"/>
		<line style="fill:none;stroke:#FFFFFF;stroke-width:2;" x1="207.621" y1="121.119" x2="228.211" y2="121.119"/>
		<line style="fill:none;stroke:#FFFFFF;stroke-width:2;" x1="207.918" y1="172.95" x2="228.294" y2="172.95"/>
		<line style="fill:none;stroke:#FFFFFF;stroke-width:2;" x1="207.557" y1="224.791" x2="228.171" y2="224.791"/>
		<polyline style="fill:none;stroke:#FFFFFF;stroke-width:2;" points="521.974,33.721 505.453,53.059 477.739,53.059 		"/>
	</g>
</g>
<g id="Layer_1">
</g>
</svg>
