<?xml version="1.0" encoding="iso-8859-1"?>
<!-- Generator: Adobe Illustrator 18.0.0, SVG Export Plug-In . SVG Version: 6.00 Build 0)  -->
<!DOCTYPE svg PUBLIC "-//W3C//DTD SVG 1.1//EN" "http://www.w3.org/Graphics/SVG/1.1/DTD/svg11.dtd">
<svg version="1.1" xmlns="http://www.w3.org/2000/svg" xmlns:xlink="http://www.w3.org/1999/xlink" x="0px" y="0px"
	 viewBox="0 0 519 204.689" style="enable-background:new 0 0 519 204.689;" xml:space="preserve">
<g id="ELT_x5F_panel">
	<g>
		<defs>
			<polygon id="SVGID_1_" points="8,186.101 162.337,186.101 168.248,176.778 174.158,186.101 180.069,195.425 185.979,186.101 
				342.051,186.101 347.962,176.778 353.873,186.101 359.783,195.425 365.693,186.101 511,186.101 511,17.506 365.693,17.506 
				359.783,26.829 353.873,17.506 347.962,8.183 342.051,17.506 185.979,17.506 180.069,26.829 174.158,17.506 168.248,8.183 
				162.337,17.506 8,17.506 			"/>
		</defs>
		<clipPath id="SVGID_2_">
			<use xlink:href="#SVGID_1_"  style="overflow:visible;"/>
		</clipPath>
		<rect x="11.198" y="2.222" style="clip-path:url(#SVGID_2_);fill:#636467;stroke:#000000;" width="496.8" height="199.611"/>
		<path style="clip-path:url(#SVGID_2_);fill:#828385;stroke:#000000;stroke-miterlimit:2.4142;" d="M506.128,0.5v168.003h-14.783
			c-9.854,0-17.843,7.988-17.843,17.843c0,9.855,7.989,17.843,17.843,17.843h14.632H12.784h15.042
			c9.855,0,17.843-7.987,17.843-17.843c0-9.855-7.988-17.843-17.843-17.843H12.783L12.779,42.182V0.5H506.128z"/>
		<g style="clip-path:url(#SVGID_2_);">
			<path style="fill-rule:evenodd;clip-rule:evenodd;fill:#828385;stroke:#000000;stroke-miterlimit:2.4142;" d="M11.763,186.18
				c0-8.946,7.256-16.2,16.2-16.2c8.949,0,16.2,7.254,16.2,16.2c0,8.946-7.251,16.2-16.2,16.2
				C19.02,202.38,11.763,195.126,11.763,186.18z"/>
			
				<circle style="fill-rule:evenodd;clip-rule:evenodd;fill:#77787B;stroke:#000000;stroke-miterlimit:2.4142;" cx="27.965" cy="186.18" r="12.09"/>
			<path style="fill-rule:evenodd;clip-rule:evenodd;fill:#828385;stroke:#000000;stroke-miterlimit:2.4142;" d="M30.05,175.645
				v21.068c4.968-1.008,8.654-5.341,8.654-10.533c-0.026-5.07-3.561-9.527-8.655-10.535H30.05z"/>
			<path style="fill-rule:evenodd;clip-rule:evenodd;fill:#828385;stroke:#000000;stroke-miterlimit:2.4142;" d="M25.88,196.713
				c-5.095-1.005-8.63-5.463-8.653-10.533c0-5.194,3.687-9.525,8.653-10.535l-0.002,21.068H25.88z"/>
		</g>
		<g id="XMLID_35_" style="clip-path:url(#SVGID_2_);">
			<path style="fill-rule:evenodd;clip-rule:evenodd;fill:#828385;stroke:#000000;stroke-miterlimit:2.4142;" d="M475.295,186.19
				c0-8.946,7.256-16.2,16.2-16.2c8.949,0,16.2,7.254,16.2,16.2c0,8.946-7.251,16.2-16.2,16.2
				C482.551,202.39,475.295,195.136,475.295,186.19z"/>
			
				<circle style="fill-rule:evenodd;clip-rule:evenodd;fill:#77787B;stroke:#000000;stroke-miterlimit:2.4142;" cx="491.496" cy="186.19" r="12.09"/>
			<path style="fill-rule:evenodd;clip-rule:evenodd;fill:#828385;stroke:#000000;stroke-miterlimit:2.4142;" d="M493.582,175.655
				v21.068c4.968-1.008,8.654-5.341,8.654-10.533c-0.026-5.07-3.561-9.527-8.655-10.535H493.582z"/>
			<path style="fill-rule:evenodd;clip-rule:evenodd;fill:#828385;stroke:#000000;stroke-miterlimit:2.4142;" d="M489.411,196.723
				c-5.095-1.005-8.63-5.463-8.653-10.533c0-5.194,3.687-9.525,8.653-10.535l-0.002,21.068H489.411z"/>
		</g>
	</g>
	<g id="ELT_2_">
		<path style="fill:none;stroke:#FFFFFF;stroke-width:2;stroke-miterlimit:2.4142;" d="M459.616,152.606
			c-11.947,20.692-38.406,27.78-59.101,15.836c-20.691-11.945-27.783-38.405-15.836-59.099
			c11.95-20.693,38.408-27.782,59.101-15.837C464.474,105.455,471.562,131.914,459.616,152.606z"/>
		<g>
			<path style="fill:#FFFFFF;" d="M227.462,117.978V107.97h5.585v1.381h-3.958v2.495h3.958v1.429h-3.958v4.703H227.462z"/>
			<path style="fill:#FFFFFF;" d="M245.771,112.994c0,0.711-0.134,1.383-0.399,2.017c-0.268,0.633-0.655,1.199-1.166,1.695
				c-0.515,0.497-1.096,0.877-1.743,1.142s-1.326,0.396-2.037,0.396c-0.72,0-1.407-0.133-2.062-0.4
				c-0.653-0.267-1.231-0.646-1.732-1.138c-0.511-0.497-0.897-1.06-1.162-1.688s-0.396-1.303-0.396-2.023
				c0-0.715,0.132-1.39,0.396-2.023s0.651-1.201,1.162-1.702c0.511-0.497,1.089-0.875,1.736-1.135s1.333-0.39,2.058-0.39
				c0.72,0,1.402,0.13,2.048,0.39c0.645,0.26,1.222,0.638,1.732,1.135c0.511,0.506,0.898,1.077,1.166,1.712
				C245.638,111.617,245.771,112.288,245.771,112.994z M244.076,112.994c0-0.506-0.093-0.987-0.276-1.442
				c-0.186-0.456-0.45-0.861-0.797-1.217c-0.337-0.351-0.729-0.621-1.172-0.81c-0.445-0.189-0.913-0.284-1.405-0.284
				s-0.96,0.093-1.405,0.28c-0.443,0.187-0.839,0.458-1.186,0.813c-0.347,0.351-0.61,0.754-0.793,1.21s-0.273,0.939-0.273,1.449
				c0,0.506,0.091,0.984,0.273,1.436s0.446,0.854,0.793,1.21s0.74,0.626,1.183,0.813s0.911,0.28,1.408,0.28
				c0.487,0,0.951-0.093,1.392-0.28c0.439-0.187,0.835-0.458,1.186-0.813c0.347-0.355,0.611-0.76,0.797-1.213
				C243.983,113.973,244.076,113.496,244.076,112.994z"/>
			<path style="fill:#FFFFFF;" d="M249.862,113.5v4.478h-1.524V107.97h2.27c0.665,0,1.182,0.043,1.549,0.13
				c0.366,0.086,0.68,0.23,0.939,0.431c0.31,0.242,0.549,0.554,0.718,0.937s0.253,0.802,0.253,1.258c0,0.802-0.193,1.43-0.581,1.883
				s-0.959,0.726-1.716,0.817l3.445,4.553h-1.839l-3.329-4.478H249.862z M249.965,112.235h0.294c0.861,0,1.434-0.1,1.716-0.301
				s0.424-0.556,0.424-1.066c0-0.551-0.151-0.94-0.455-1.166c-0.303-0.226-0.864-0.338-1.685-0.338h-0.294V112.235z"/>
			<path style="fill:#FFFFFF;" d="M268.413,117.978l-1.135-2.577h-3.965l-1.162,2.577h-1.709l4.847-10.404l4.84,10.404H268.413z
				 M263.915,114.047h2.789l-1.025-2.283c-0.06-0.146-0.121-0.313-0.185-0.502s-0.128-0.4-0.191-0.632
				c-0.055,0.219-0.113,0.423-0.174,0.612c-0.063,0.189-0.125,0.363-0.188,0.523L263.915,114.047z"/>
			<path style="fill:#FFFFFF;" d="M274.705,118.367l-4.464-10.397h1.688l2.242,5.332c0.132,0.31,0.241,0.596,0.328,0.858
				s0.155,0.512,0.205,0.749c0.06-0.25,0.135-0.51,0.226-0.779s0.198-0.544,0.321-0.827l2.235-5.332h1.682L274.705,118.367z"/>
			<path style="fill:#FFFFFF;" d="M280.908,117.978V107.97h1.627v10.008H280.908z"/>
			<path style="fill:#FFFFFF;" d="M292.184,117.978l-1.135-2.577h-3.965l-1.162,2.577h-1.709l4.847-10.404l4.84,10.404H292.184z
				 M287.686,114.047h2.789l-1.025-2.283c-0.06-0.146-0.121-0.313-0.185-0.502s-0.128-0.4-0.191-0.632
				c-0.055,0.219-0.113,0.423-0.174,0.612c-0.063,0.189-0.125,0.363-0.188,0.523L287.686,114.047z"/>
			<path style="fill:#FFFFFF;" d="M298.01,109.351v8.627h-1.627v-8.627h-2.659v-1.381h6.932v1.381H298.01z"/>
			<path style="fill:#FFFFFF;" d="M302.627,117.978V107.97h1.627v10.008H302.627z"/>
			<path style="fill:#FFFFFF;" d="M317.553,112.994c0,0.711-0.134,1.383-0.399,2.017c-0.268,0.633-0.655,1.199-1.166,1.695
				c-0.515,0.497-1.096,0.877-1.743,1.142s-1.326,0.396-2.037,0.396c-0.72,0-1.407-0.133-2.062-0.4
				c-0.653-0.267-1.231-0.646-1.732-1.138c-0.511-0.497-0.897-1.06-1.162-1.688s-0.396-1.303-0.396-2.023
				c0-0.715,0.132-1.39,0.396-2.023s0.651-1.201,1.162-1.702c0.511-0.497,1.089-0.875,1.736-1.135s1.333-0.39,2.058-0.39
				c0.72,0,1.402,0.13,2.048,0.39c0.645,0.26,1.222,0.638,1.732,1.135c0.511,0.506,0.898,1.077,1.166,1.712
				C317.419,111.617,317.553,112.288,317.553,112.994z M315.857,112.994c0-0.506-0.093-0.987-0.276-1.442
				c-0.186-0.456-0.45-0.861-0.797-1.217c-0.337-0.351-0.729-0.621-1.172-0.81c-0.445-0.189-0.913-0.284-1.405-0.284
				s-0.96,0.093-1.405,0.28c-0.443,0.187-0.839,0.458-1.186,0.813c-0.347,0.351-0.61,0.754-0.793,1.21s-0.273,0.939-0.273,1.449
				c0,0.506,0.091,0.984,0.273,1.436s0.446,0.854,0.793,1.21s0.74,0.626,1.183,0.813s0.911,0.28,1.408,0.28
				c0.487,0,0.951-0.093,1.392-0.28c0.439-0.187,0.835-0.458,1.186-0.813c0.347-0.355,0.611-0.76,0.797-1.213
				C315.765,113.973,315.857,113.496,315.857,112.994z"/>
			<path style="fill:#FFFFFF;" d="M320.119,117.978v-10.404l6.357,6.118c0.173,0.173,0.349,0.358,0.526,0.554
				s0.364,0.417,0.561,0.663v-6.938h1.504v10.397l-6.487-6.228c-0.173-0.168-0.341-0.346-0.502-0.533
				c-0.162-0.187-0.316-0.383-0.462-0.588v6.959H320.119z"/>
			<path style="fill:#FFFFFF;" d="M222.184,131.978V121.97h5.585v1.381h-3.958v2.509h3.958v1.429h-3.958v3.233h3.958v1.456H222.184z
				"/>
			<path style="fill:#FFFFFF;" d="M238.497,127.035c-0.019-0.078-0.048-0.292-0.089-0.643c-0.036-0.292-0.068-0.533-0.096-0.725
				c-0.041,0.228-0.099,0.456-0.175,0.684c-0.074,0.228-0.169,0.46-0.283,0.697l-2.618,5.332l-2.618-5.441
				c-0.109-0.223-0.204-0.44-0.283-0.649c-0.08-0.209-0.149-0.417-0.209-0.622c-0.005,0.209-0.021,0.43-0.051,0.66
				c-0.03,0.23-0.074,0.471-0.134,0.721l-1.073,4.929h-1.497l2.365-10.432l2.953,6.316c0.046,0.1,0.115,0.267,0.208,0.499
				c0.094,0.232,0.207,0.52,0.339,0.861c0.096-0.287,0.246-0.652,0.451-1.094c0.055-0.119,0.096-0.209,0.123-0.273l2.885-6.31
				l2.42,10.432h-1.511L238.497,127.035z"/>
			<path style="fill:#FFFFFF;" d="M243.114,131.978V121.97h5.585v1.381h-3.958v2.509h3.958v1.429h-3.958v3.233h3.958v1.456H243.114z
				"/>
			<path style="fill:#FFFFFF;" d="M252.789,127.5v4.478h-1.524V121.97h2.27c0.665,0,1.182,0.043,1.549,0.13
				c0.366,0.086,0.68,0.23,0.939,0.431c0.31,0.242,0.549,0.554,0.718,0.937s0.253,0.802,0.253,1.258c0,0.802-0.193,1.43-0.581,1.883
				s-0.959,0.726-1.716,0.817l3.445,4.553h-1.839l-3.329-4.478H252.789z M252.892,126.235h0.294c0.861,0,1.434-0.1,1.716-0.301
				s0.424-0.556,0.424-1.066c0-0.551-0.151-0.94-0.455-1.166c-0.303-0.226-0.864-0.338-1.685-0.338h-0.294V126.235z"/>
			<path style="fill:#FFFFFF;" d="M264.689,121.97h1.606v6.077c0,0.902,0.208,1.58,0.626,2.034c0.416,0.454,1.04,0.68,1.869,0.68
				c0.825,0,1.445-0.227,1.863-0.68c0.416-0.454,0.625-1.131,0.625-2.034v-6.077h1.627v6.228c0,1.354-0.342,2.366-1.025,3.039
				s-1.714,1.008-3.09,1.008s-2.404-0.335-3.083-1.005s-1.019-1.684-1.019-3.042V121.97z"/>
			<path style="fill:#FFFFFF;" d="M275.274,129.975l1.299-0.602c0.123,0.447,0.349,0.787,0.677,1.022s0.747,0.352,1.258,0.352
				c0.483,0,0.867-0.134,1.151-0.403c0.285-0.269,0.428-0.629,0.428-1.08c0-0.588-0.487-1.112-1.463-1.572
				c-0.137-0.068-0.241-0.119-0.314-0.15c-1.103-0.538-1.838-1.024-2.205-1.459c-0.366-0.435-0.55-0.967-0.55-1.596
				c0-0.816,0.276-1.477,0.831-1.982c0.553-0.506,1.279-0.759,2.177-0.759c0.738,0,1.355,0.143,1.853,0.427s0.841,0.694,1.032,1.227
				l-1.271,0.656c-0.2-0.314-0.421-0.544-0.659-0.69c-0.24-0.146-0.515-0.219-0.824-0.219c-0.438,0-0.785,0.114-1.043,0.342
				c-0.257,0.228-0.386,0.533-0.386,0.916c0,0.602,0.565,1.162,1.695,1.682c0.087,0.041,0.155,0.073,0.205,0.096
				c0.989,0.456,1.668,0.901,2.037,1.336s0.554,0.979,0.554,1.63c0,0.948-0.299,1.701-0.896,2.259s-1.403,0.837-2.42,0.837
				c-0.853,0-1.551-0.196-2.095-0.588C275.8,131.264,275.443,130.704,275.274,129.975z"/>
			<path style="fill:#FFFFFF;" d="M284.232,131.978V121.97h5.585v1.381h-3.958v2.509h3.958v1.429h-3.958v3.233h3.958v1.456H284.232z
				"/>
			<path style="fill:#FFFFFF;" d="M307.568,126.994c0,0.711-0.134,1.383-0.399,2.017c-0.268,0.633-0.655,1.199-1.166,1.695
				c-0.515,0.497-1.096,0.877-1.743,1.142s-1.326,0.396-2.037,0.396c-0.72,0-1.407-0.133-2.062-0.4
				c-0.653-0.267-1.231-0.646-1.732-1.138c-0.511-0.497-0.897-1.06-1.162-1.688s-0.396-1.303-0.396-2.023
				c0-0.715,0.132-1.39,0.396-2.023s0.651-1.201,1.162-1.702c0.511-0.497,1.089-0.875,1.736-1.135s1.333-0.39,2.058-0.39
				c0.72,0,1.402,0.13,2.048,0.39c0.645,0.26,1.222,0.638,1.732,1.135c0.511,0.506,0.898,1.077,1.166,1.712
				C307.435,125.617,307.568,126.288,307.568,126.994z M305.873,126.994c0-0.506-0.093-0.987-0.276-1.442
				c-0.186-0.456-0.45-0.861-0.797-1.217c-0.337-0.351-0.729-0.621-1.172-0.81c-0.445-0.189-0.913-0.284-1.405-0.284
				s-0.96,0.093-1.405,0.28c-0.443,0.187-0.839,0.458-1.186,0.813c-0.347,0.351-0.61,0.754-0.793,1.21s-0.273,0.939-0.273,1.449
				c0,0.506,0.091,0.984,0.273,1.436s0.446,0.854,0.793,1.21s0.74,0.626,1.183,0.813s0.911,0.28,1.408,0.28
				c0.487,0,0.951-0.093,1.392-0.28c0.439-0.187,0.835-0.458,1.186-0.813c0.347-0.355,0.611-0.76,0.797-1.213
				C305.78,127.973,305.873,127.496,305.873,126.994z"/>
			<path style="fill:#FFFFFF;" d="M310.135,131.978v-10.404l6.357,6.118c0.173,0.173,0.349,0.358,0.526,0.554
				s0.364,0.417,0.561,0.663v-6.938h1.504v10.397l-6.487-6.228c-0.173-0.168-0.341-0.346-0.502-0.533
				c-0.162-0.187-0.316-0.383-0.462-0.588v6.959H310.135z"/>
			<path style="fill:#FFFFFF;" d="M322.08,131.978V121.97h1.627v8.552h3.637v1.456H322.08z"/>
			<path style="fill:#FFFFFF;" d="M330.498,131.978v-4.58l-3.37-5.428h1.709l2.099,3.397c0.05,0.086,0.112,0.201,0.188,0.342
				c0.074,0.141,0.151,0.294,0.229,0.458c0.063-0.16,0.131-0.31,0.201-0.451c0.071-0.141,0.146-0.271,0.223-0.39l2.153-3.356h1.627
				l-3.445,5.428v4.58H330.498z"/>
		</g>
		<g>
			<path style="fill:#FFFFFF;" d="M237.661,144.896h1.147v4.341c0,0.645,0.149,1.129,0.446,1.452
				c0.299,0.324,0.743,0.486,1.336,0.486c0.589,0,1.033-0.162,1.33-0.486c0.299-0.323,0.447-0.808,0.447-1.452v-4.341h1.162v4.448
				c0,0.967-0.244,1.69-0.732,2.171c-0.488,0.479-1.224,0.72-2.207,0.72s-1.717-0.239-2.202-0.718s-0.728-1.203-0.728-2.173V144.896
				z"/>
			<path style="fill:#FFFFFF;" d="M245.632,152.044v-7.432l4.541,4.37c0.124,0.124,0.249,0.256,0.376,0.396s0.261,0.298,0.4,0.474
				v-4.956h1.074v7.427l-4.634-4.448c-0.124-0.12-0.243-0.247-0.359-0.381c-0.115-0.134-0.225-0.273-0.329-0.42v4.971H245.632z"/>
			<path style="fill:#FFFFFF;" d="M258.886,152.044l-0.811-1.841h-2.832l-0.83,1.841h-1.221l3.462-7.432l3.457,7.432H258.886z
				 M255.673,149.236h1.992l-0.732-1.631c-0.042-0.104-0.086-0.224-0.132-0.358c-0.046-0.136-0.091-0.286-0.137-0.452
				c-0.039,0.156-0.08,0.302-0.125,0.437c-0.043,0.136-0.088,0.26-0.134,0.374L255.673,149.236z"/>
			<path style="fill:#FFFFFF;" d="M261.08,144.896h1.147v4.341c0,0.645,0.149,1.129,0.446,1.452
				c0.299,0.324,0.743,0.486,1.336,0.486c0.589,0,1.033-0.162,1.33-0.486c0.299-0.323,0.447-0.808,0.447-1.452v-4.341h1.162v4.448
				c0,0.967-0.244,1.69-0.732,2.171c-0.488,0.479-1.224,0.72-2.207,0.72s-1.717-0.239-2.202-0.718s-0.728-1.203-0.728-2.173V144.896
				z"/>
			<path style="fill:#FFFFFF;" d="M271.36,145.882v6.162h-1.162v-6.162h-1.899v-0.986h4.951v0.986H271.36z"/>
			<path style="fill:#FFFFFF;" d="M274.639,152.044v-7.148h1.162v2.637h3.516v-2.637h1.162v7.148h-1.162v-3.472h-3.516v3.472
				H274.639z"/>
			<path style="fill:#FFFFFF;" d="M289.948,148.484c0,0.508-0.095,0.988-0.286,1.44c-0.189,0.452-0.468,0.856-0.832,1.211
				c-0.368,0.354-0.783,0.627-1.245,0.815s-0.947,0.283-1.455,0.283c-0.515,0-1.005-0.095-1.472-0.286
				c-0.468-0.189-0.88-0.461-1.238-0.813c-0.364-0.354-0.642-0.757-0.83-1.206s-0.283-0.931-0.283-1.445
				c0-0.511,0.095-0.993,0.283-1.445s0.466-0.857,0.83-1.216c0.364-0.354,0.778-0.625,1.24-0.811s0.952-0.278,1.47-0.278
				c0.515,0,1.002,0.093,1.462,0.278c0.461,0.186,0.874,0.456,1.238,0.811c0.364,0.361,0.643,0.77,0.832,1.223
				C289.854,147.501,289.948,147.98,289.948,148.484z M288.737,148.484c0-0.361-0.065-0.705-0.198-1.03
				c-0.131-0.325-0.321-0.615-0.568-0.869c-0.241-0.251-0.52-0.443-0.838-0.578c-0.316-0.136-0.651-0.203-1.003-0.203
				s-0.687,0.066-1.003,0.2c-0.318,0.134-0.601,0.327-0.848,0.581c-0.247,0.251-0.437,0.539-0.566,0.864s-0.195,0.671-0.195,1.035
				c0,0.361,0.065,0.703,0.195,1.025s0.319,0.61,0.566,0.864s0.529,0.447,0.845,0.581s0.651,0.2,1.006,0.2
				c0.349,0,0.68-0.066,0.993-0.2c0.314-0.134,0.597-0.327,0.848-0.581c0.247-0.254,0.438-0.543,0.568-0.867
				C288.672,149.184,288.737,148.843,288.737,148.484z"/>
			<path style="fill:#FFFFFF;" d="M292.87,148.846v3.198h-1.089v-7.148h1.621c0.476,0,0.844,0.031,1.105,0.093
				c0.263,0.062,0.486,0.164,0.672,0.308c0.222,0.173,0.393,0.396,0.513,0.669s0.181,0.573,0.181,0.898
				c0,0.573-0.139,1.021-0.415,1.345c-0.276,0.324-0.686,0.519-1.226,0.584l2.461,3.252h-1.313l-2.378-3.198H292.87z
				 M292.943,147.942h0.21c0.615,0,1.023-0.071,1.226-0.215s0.303-0.397,0.303-0.762c0-0.394-0.108-0.672-0.324-0.832
				c-0.217-0.162-0.618-0.242-1.204-0.242h-0.21V147.942z"/>
			<path style="fill:#FFFFFF;" d="M297.901,152.044v-7.148h1.162v7.148H297.901z"/>
			<path style="fill:#FFFFFF;" d="M300.501,152.044l3.643-6.162h-3.032v-0.986h4.819l-3.608,6.108h3.652v1.04H300.501z"/>
			<path style="fill:#FFFFFF;" d="M307.495,152.044v-7.148h3.989v0.986h-2.827v1.792h2.827v1.021h-2.827v2.31h2.827v1.04H307.495z"
				/>
			<path style="fill:#FFFFFF;" d="M313.317,152.044v-7.148h1.567c1.019,0,1.735,0.051,2.151,0.154
				c0.414,0.102,0.778,0.273,1.091,0.515c0.413,0.315,0.727,0.721,0.94,1.216c0.213,0.495,0.319,1.06,0.319,1.694
				s-0.106,1.197-0.319,1.687c-0.214,0.49-0.527,0.895-0.94,1.214c-0.313,0.241-0.668,0.413-1.067,0.515
				c-0.398,0.104-1.02,0.154-1.862,0.154h-0.313H313.317z M314.479,150.994h0.977c0.537,0,0.939-0.036,1.209-0.107
				c0.268-0.071,0.502-0.192,0.7-0.361c0.271-0.231,0.473-0.519,0.608-0.862c0.135-0.343,0.202-0.742,0.202-1.198
				s-0.067-0.855-0.202-1.198c-0.136-0.344-0.338-0.631-0.608-0.862c-0.202-0.169-0.443-0.29-0.726-0.361
				c-0.281-0.071-0.722-0.107-1.32-0.107h-0.42h-0.42V150.994z"/>
			<path style="fill:#FFFFFF;" d="M224.296,158.484c0,0.508-0.095,0.988-0.286,1.44c-0.189,0.452-0.468,0.856-0.832,1.211
				c-0.368,0.354-0.783,0.627-1.245,0.815s-0.947,0.283-1.455,0.283c-0.515,0-1.005-0.095-1.472-0.286
				c-0.468-0.189-0.88-0.461-1.238-0.813c-0.364-0.354-0.642-0.757-0.83-1.206s-0.283-0.931-0.283-1.445
				c0-0.511,0.095-0.993,0.283-1.445s0.466-0.857,0.83-1.216c0.364-0.354,0.778-0.625,1.24-0.811s0.952-0.278,1.47-0.278
				c0.515,0,1.002,0.093,1.462,0.278c0.461,0.186,0.874,0.456,1.238,0.811c0.364,0.361,0.643,0.77,0.832,1.223
				C224.201,157.501,224.296,157.98,224.296,158.484z M223.085,158.484c0-0.361-0.065-0.705-0.198-1.03
				c-0.131-0.325-0.321-0.615-0.568-0.869c-0.241-0.251-0.52-0.443-0.838-0.578c-0.316-0.136-0.651-0.203-1.003-0.203
				s-0.687,0.066-1.003,0.2c-0.318,0.134-0.601,0.327-0.848,0.581c-0.247,0.251-0.437,0.539-0.566,0.864s-0.195,0.671-0.195,1.035
				c0,0.361,0.065,0.703,0.195,1.025s0.319,0.61,0.566,0.864s0.529,0.447,0.845,0.581s0.651,0.2,1.006,0.2
				c0.349,0,0.68-0.066,0.993-0.2c0.314-0.134,0.597-0.327,0.848-0.581c0.247-0.254,0.438-0.543,0.568-0.867
				C223.02,159.184,223.085,158.843,223.085,158.484z"/>
			<path style="fill:#FFFFFF;" d="M227.218,158.836v3.208h-1.089v-7.148h1.758c0.521,0,0.904,0.028,1.15,0.086
				c0.245,0.057,0.459,0.15,0.642,0.28c0.225,0.166,0.4,0.39,0.527,0.671c0.127,0.282,0.19,0.592,0.19,0.931
				s-0.063,0.651-0.19,0.938s-0.303,0.511-0.527,0.674c-0.183,0.13-0.396,0.223-0.642,0.278c-0.246,0.056-0.63,0.083-1.15,0.083
				h-0.229H227.218z M227.291,157.884h0.298c0.645,0,1.074-0.07,1.289-0.21s0.322-0.388,0.322-0.742
				c0-0.381-0.114-0.649-0.345-0.806c-0.229-0.156-0.651-0.234-1.267-0.234h-0.298V157.884z"/>
			<path style="fill:#FFFFFF;" d="M231.951,162.044v-7.148h3.989v0.986h-2.827v1.792h2.827v1.021h-2.827v2.31h2.827v1.04H231.951z"
				/>
			<path style="fill:#FFFFFF;" d="M238.862,158.846v3.198h-1.089v-7.148h1.621c0.476,0,0.844,0.031,1.105,0.093
				c0.263,0.062,0.486,0.164,0.672,0.308c0.222,0.173,0.393,0.396,0.513,0.669s0.181,0.573,0.181,0.898
				c0,0.573-0.139,1.021-0.415,1.345c-0.276,0.324-0.686,0.519-1.226,0.584l2.461,3.252h-1.313l-2.378-3.198H238.862z
				 M238.936,157.942h0.21c0.615,0,1.023-0.071,1.226-0.215s0.303-0.397,0.303-0.762c0-0.394-0.108-0.672-0.324-0.832
				c-0.217-0.162-0.618-0.242-1.204-0.242h-0.21V157.942z"/>
			<path style="fill:#FFFFFF;" d="M248.596,162.044l-0.811-1.841h-2.832l-0.83,1.841h-1.221l3.462-7.432l3.457,7.432H248.596z
				 M245.383,159.236h1.992l-0.732-1.631c-0.042-0.104-0.086-0.224-0.132-0.358c-0.046-0.136-0.091-0.286-0.137-0.452
				c-0.039,0.156-0.08,0.302-0.125,0.437c-0.043,0.136-0.088,0.26-0.134,0.374L245.383,159.236z"/>
			<path style="fill:#FFFFFF;" d="M252.758,155.882v6.162h-1.162v-6.162h-1.899v-0.986h4.951v0.986H252.758z"/>
			<path style="fill:#FFFFFF;" d="M256.056,162.044v-7.148h1.162v7.148H256.056z"/>
			<path style="fill:#FFFFFF;" d="M266.717,158.484c0,0.508-0.095,0.988-0.286,1.44c-0.189,0.452-0.468,0.856-0.832,1.211
				c-0.368,0.354-0.783,0.627-1.245,0.815s-0.947,0.283-1.455,0.283c-0.515,0-1.005-0.095-1.472-0.286
				c-0.468-0.189-0.88-0.461-1.238-0.813c-0.364-0.354-0.642-0.757-0.83-1.206s-0.283-0.931-0.283-1.445
				c0-0.511,0.095-0.993,0.283-1.445s0.466-0.857,0.83-1.216c0.364-0.354,0.778-0.625,1.24-0.811s0.952-0.278,1.47-0.278
				c0.515,0,1.002,0.093,1.462,0.278c0.461,0.186,0.874,0.456,1.238,0.811c0.364,0.361,0.643,0.77,0.832,1.223
				C266.622,157.501,266.717,157.98,266.717,158.484z M265.506,158.484c0-0.361-0.065-0.705-0.198-1.03
				c-0.131-0.325-0.321-0.615-0.568-0.869c-0.241-0.251-0.52-0.443-0.838-0.578c-0.316-0.136-0.651-0.203-1.003-0.203
				s-0.687,0.066-1.003,0.2c-0.318,0.134-0.601,0.327-0.848,0.581c-0.247,0.251-0.437,0.539-0.566,0.864s-0.195,0.671-0.195,1.035
				c0,0.361,0.065,0.703,0.195,1.025s0.319,0.61,0.566,0.864s0.529,0.447,0.845,0.581s0.651,0.2,1.006,0.2
				c0.349,0,0.68-0.066,0.993-0.2c0.314-0.134,0.597-0.327,0.848-0.581c0.247-0.254,0.438-0.543,0.568-0.867
				C265.44,159.184,265.506,158.843,265.506,158.484z"/>
			<path style="fill:#FFFFFF;" d="M268.55,162.044v-7.432l4.541,4.37c0.124,0.124,0.249,0.256,0.376,0.396s0.261,0.298,0.4,0.474
				v-4.956h1.074v7.427l-4.634-4.448c-0.124-0.12-0.243-0.247-0.359-0.381c-0.115-0.134-0.225-0.273-0.329-0.42v4.971H268.55z"/>
			<path style="fill:#FFFFFF;" d="M281.688,158.836v3.208H280.6v-7.148h1.758c0.521,0,0.904,0.028,1.15,0.086
				c0.245,0.057,0.459,0.15,0.642,0.28c0.225,0.166,0.4,0.39,0.527,0.671c0.127,0.282,0.19,0.592,0.19,0.931
				s-0.063,0.651-0.19,0.938s-0.303,0.511-0.527,0.674c-0.183,0.13-0.396,0.223-0.642,0.278c-0.246,0.056-0.63,0.083-1.15,0.083
				h-0.229H281.688z M281.762,157.884h0.298c0.645,0,1.074-0.07,1.289-0.21s0.322-0.388,0.322-0.742
				c0-0.381-0.114-0.649-0.345-0.806c-0.229-0.156-0.651-0.234-1.267-0.234h-0.298V157.884z"/>
			<path style="fill:#FFFFFF;" d="M287.511,158.846v3.198h-1.089v-7.148h1.621c0.476,0,0.844,0.031,1.105,0.093
				c0.263,0.062,0.486,0.164,0.672,0.308c0.222,0.173,0.393,0.396,0.513,0.669s0.181,0.573,0.181,0.898
				c0,0.573-0.139,1.021-0.415,1.345c-0.276,0.324-0.686,0.519-1.226,0.584l2.461,3.252h-1.313l-2.378-3.198H287.511z
				 M287.584,157.942h0.21c0.615,0,1.023-0.071,1.226-0.215s0.303-0.397,0.303-0.762c0-0.394-0.108-0.672-0.324-0.832
				c-0.217-0.162-0.618-0.242-1.204-0.242h-0.21V157.942z"/>
			<path style="fill:#FFFFFF;" d="M299.852,158.484c0,0.508-0.095,0.988-0.286,1.44c-0.189,0.452-0.468,0.856-0.832,1.211
				c-0.368,0.354-0.783,0.627-1.245,0.815s-0.947,0.283-1.455,0.283c-0.515,0-1.005-0.095-1.472-0.286
				c-0.468-0.189-0.88-0.461-1.238-0.813c-0.364-0.354-0.642-0.757-0.83-1.206s-0.283-0.931-0.283-1.445
				c0-0.511,0.095-0.993,0.283-1.445s0.466-0.857,0.83-1.216c0.364-0.354,0.778-0.625,1.24-0.811s0.952-0.278,1.47-0.278
				c0.515,0,1.002,0.093,1.462,0.278c0.461,0.186,0.874,0.456,1.238,0.811c0.364,0.361,0.643,0.77,0.832,1.223
				C299.757,157.501,299.852,157.98,299.852,158.484z M298.641,158.484c0-0.361-0.065-0.705-0.198-1.03
				c-0.131-0.325-0.321-0.615-0.568-0.869c-0.241-0.251-0.52-0.443-0.838-0.578c-0.316-0.136-0.651-0.203-1.003-0.203
				s-0.687,0.066-1.003,0.2c-0.318,0.134-0.601,0.327-0.848,0.581c-0.247,0.251-0.437,0.539-0.566,0.864s-0.195,0.671-0.195,1.035
				c0,0.361,0.065,0.703,0.195,1.025s0.319,0.61,0.566,0.864s0.529,0.447,0.845,0.581s0.651,0.2,1.006,0.2
				c0.349,0,0.68-0.066,0.993-0.2c0.314-0.134,0.597-0.327,0.848-0.581c0.247-0.254,0.438-0.543,0.568-0.867
				C298.575,159.184,298.641,158.843,298.641,158.484z"/>
			<path style="fill:#FFFFFF;" d="M301.685,162.044v-7.148h1.162v2.637h3.516v-2.637h1.162v7.148h-1.162v-3.472h-3.516v3.472
				H301.685z"/>
			<path style="fill:#FFFFFF;" d="M309.685,162.044v-7.148h1.162v7.148H309.685z"/>
			<path style="fill:#FFFFFF;" d="M313.017,162.044v-7.148h1.802c0.515,0,0.895,0.027,1.14,0.083
				c0.246,0.056,0.455,0.146,0.628,0.273c0.222,0.163,0.394,0.376,0.515,0.64c0.123,0.264,0.184,0.555,0.184,0.874
				c0,0.381-0.088,0.699-0.264,0.954c-0.176,0.256-0.432,0.435-0.767,0.535c0.417,0.065,0.745,0.255,0.983,0.568
				c0.24,0.314,0.359,0.711,0.359,1.189c0,0.29-0.051,0.564-0.151,0.825s-0.244,0.481-0.43,0.664
				c-0.195,0.198-0.438,0.339-0.728,0.42s-0.776,0.122-1.46,0.122H313.017z M314.154,157.913h0.444c0.554,0,0.945-0.076,1.174-0.227
				c0.23-0.152,0.345-0.406,0.345-0.765c0-0.391-0.105-0.665-0.317-0.823c-0.212-0.157-0.612-0.236-1.201-0.236h-0.444V157.913z
				 M314.154,161.072h0.4c0.407,0,0.711-0.017,0.913-0.049s0.361-0.09,0.479-0.171c0.144-0.095,0.254-0.222,0.332-0.381
				s0.117-0.335,0.117-0.527c0-0.228-0.047-0.427-0.142-0.596s-0.229-0.301-0.405-0.396c-0.11-0.056-0.236-0.096-0.379-0.122
				c-0.141-0.026-0.329-0.039-0.563-0.039h-0.352h-0.4V161.072z"/>
			<path style="fill:#FFFFFF;" d="M319.298,162.044v-7.148h1.162v7.148H319.298z"/>
			<path style="fill:#FFFFFF;" d="M324.939,155.882v6.162h-1.162v-6.162h-1.899v-0.986h4.951v0.986H324.939z"/>
			<path style="fill:#FFFFFF;" d="M328.218,162.044v-7.148h3.989v0.986h-2.827v1.792h2.827v1.021h-2.827v2.31h2.827v1.04H328.218z"
				/>
			<path style="fill:#FFFFFF;" d="M334.04,162.044v-7.148h1.567c1.019,0,1.735,0.051,2.151,0.154
				c0.414,0.102,0.778,0.273,1.091,0.515c0.413,0.315,0.727,0.721,0.94,1.216c0.213,0.495,0.319,1.06,0.319,1.694
				s-0.106,1.197-0.319,1.687c-0.214,0.49-0.527,0.895-0.94,1.214c-0.313,0.241-0.668,0.413-1.067,0.515
				c-0.398,0.104-1.02,0.154-1.862,0.154h-0.313H334.04z M335.202,160.994h0.977c0.537,0,0.939-0.036,1.209-0.107
				c0.268-0.071,0.502-0.192,0.7-0.361c0.271-0.231,0.473-0.519,0.608-0.862c0.135-0.343,0.202-0.742,0.202-1.198
				s-0.067-0.855-0.202-1.198c-0.136-0.344-0.338-0.631-0.608-0.862c-0.202-0.169-0.443-0.29-0.726-0.361
				c-0.281-0.071-0.722-0.107-1.32-0.107h-0.42h-0.42V160.994z"/>
		</g>
		<g>
			<path style="fill:#FFFFFF;" d="M407.952,40.137V26.555h7.58v1.874h-5.372v3.405h5.372v1.939h-5.372v4.388h5.372v1.976H407.952z"
				/>
			<path style="fill:#FFFFFF;" d="M419.015,40.137V26.555h2.208v11.606h4.936v1.976H419.015z"/>
			<path style="fill:#FFFFFF;" d="M432.248,28.429v11.708h-2.209V28.429h-3.608v-1.874h9.407v1.874H432.248z"/>
		</g>
		
			<line style="fill-rule:evenodd;clip-rule:evenodd;fill:none;stroke:#FFFFFF;stroke-width:3;stroke-miterlimit:2.4142;" x1="450.578" y1="32.492" x2="488.98" y2="32.492"/>
		
			<line style="fill-rule:evenodd;clip-rule:evenodd;fill:none;stroke:#FFFFFF;stroke-width:3;stroke-miterlimit:2.4142;" x1="30.581" y1="32.492" x2="395.378" y2="32.492"/>
		<g>
			<path style="fill:#FFFFFF;" d="M410.49,59.82l-1.135-2.577h-3.965l-1.162,2.577h-1.709l4.847-10.404l4.84,10.404H410.49z
				 M405.992,55.889h2.789l-1.025-2.283c-0.06-0.146-0.121-0.313-0.185-0.502s-0.128-0.4-0.191-0.632
				c-0.055,0.219-0.113,0.423-0.174,0.612c-0.063,0.189-0.125,0.363-0.188,0.523L405.992,55.889z"/>
			<path style="fill:#FFFFFF;" d="M415.374,55.342v4.478h-1.524V49.812h2.27c0.665,0,1.182,0.043,1.549,0.13
				c0.366,0.086,0.68,0.23,0.939,0.431c0.31,0.242,0.549,0.554,0.718,0.937s0.253,0.802,0.253,1.258c0,0.802-0.193,1.43-0.581,1.883
				s-0.959,0.726-1.716,0.817l3.445,4.553h-1.839l-3.329-4.478H415.374z M415.477,54.078h0.294c0.861,0,1.434-0.1,1.716-0.301
				s0.424-0.556,0.424-1.066c0-0.551-0.151-0.94-0.455-1.166c-0.303-0.226-0.864-0.338-1.685-0.338h-0.294V54.078z"/>
			<path style="fill:#FFFFFF;" d="M430.553,54.878c-0.019-0.078-0.048-0.292-0.089-0.643c-0.036-0.292-0.068-0.533-0.096-0.725
				c-0.041,0.228-0.099,0.456-0.175,0.684c-0.074,0.228-0.169,0.46-0.283,0.697l-2.618,5.332l-2.618-5.441
				c-0.109-0.223-0.204-0.44-0.283-0.649c-0.08-0.209-0.149-0.417-0.209-0.622c-0.005,0.209-0.021,0.43-0.051,0.66
				c-0.03,0.23-0.074,0.471-0.134,0.721l-1.073,4.929h-1.497l2.365-10.432l2.953,6.316c0.046,0.1,0.115,0.267,0.208,0.499
				c0.094,0.232,0.207,0.52,0.339,0.861c0.096-0.287,0.246-0.652,0.451-1.094c0.055-0.119,0.096-0.209,0.123-0.273l2.885-6.31
				l2.42,10.432h-1.511L430.553,54.878z"/>
			<path style="fill:#FFFFFF;" d="M438.922,49.587h1.162l-4.901,11.532h-1.162L438.922,49.587z"/>
			<path style="fill:#FFFFFF;" d="M407.981,69.818v4.478h-1.524V64.288h2.27c0.665,0,1.182,0.043,1.549,0.13
				c0.366,0.086,0.68,0.23,0.939,0.431c0.31,0.242,0.549,0.554,0.718,0.937s0.253,0.802,0.253,1.258c0,0.802-0.193,1.43-0.581,1.883
				s-0.959,0.726-1.716,0.817l3.445,4.553h-1.839l-3.329-4.478H407.981z M408.084,68.554h0.294c0.861,0,1.434-0.1,1.716-0.301
				s0.424-0.556,0.424-1.066c0-0.551-0.151-0.94-0.455-1.166c-0.303-0.226-0.864-0.338-1.685-0.338h-0.294V68.554z"/>
			<path style="fill:#FFFFFF;" d="M414.998,74.296V64.288h5.585v1.381h-3.958v2.509h3.958v1.429h-3.958v3.233h3.958v1.456H414.998z"
				/>
			<path style="fill:#FFFFFF;" d="M422.575,72.293l1.299-0.602c0.123,0.447,0.349,0.787,0.677,1.022s0.747,0.352,1.258,0.352
				c0.483,0,0.867-0.134,1.151-0.403c0.285-0.269,0.428-0.629,0.428-1.08c0-0.588-0.487-1.112-1.463-1.572
				c-0.137-0.068-0.241-0.119-0.314-0.15c-1.103-0.538-1.838-1.024-2.205-1.459c-0.366-0.435-0.55-0.967-0.55-1.596
				c0-0.816,0.276-1.477,0.831-1.982c0.553-0.506,1.279-0.759,2.177-0.759c0.738,0,1.355,0.143,1.853,0.427s0.841,0.694,1.032,1.227
				l-1.271,0.656c-0.2-0.314-0.421-0.544-0.659-0.69c-0.24-0.146-0.515-0.219-0.824-0.219c-0.438,0-0.785,0.114-1.043,0.342
				c-0.257,0.228-0.386,0.533-0.386,0.916c0,0.602,0.565,1.162,1.695,1.682c0.087,0.041,0.155,0.073,0.205,0.096
				c0.989,0.456,1.668,0.901,2.037,1.336s0.554,0.979,0.554,1.63c0,0.948-0.299,1.701-0.896,2.259s-1.403,0.837-2.42,0.837
				c-0.853,0-1.551-0.196-2.095-0.588C423.101,73.583,422.744,73.022,422.575,72.293z"/>
			<path style="fill:#FFFFFF;" d="M434.766,65.669v8.627h-1.627v-8.627h-2.659v-1.381h6.932v1.381H434.766z"/>
		</g>
		<g>
			<path style="fill:#FFFFFF;" d="M469.581,88.037c0,0.711-0.134,1.383-0.399,2.017c-0.268,0.633-0.655,1.199-1.166,1.695
				c-0.515,0.497-1.096,0.877-1.743,1.142s-1.326,0.396-2.037,0.396c-0.72,0-1.407-0.133-2.062-0.4
				c-0.653-0.267-1.231-0.646-1.732-1.138c-0.511-0.497-0.897-1.06-1.162-1.688s-0.396-1.303-0.396-2.023
				c0-0.715,0.132-1.39,0.396-2.023s0.651-1.201,1.162-1.702c0.511-0.497,1.089-0.875,1.736-1.135s1.333-0.39,2.058-0.39
				c0.72,0,1.402,0.13,2.048,0.39c0.645,0.26,1.222,0.638,1.732,1.135c0.511,0.506,0.898,1.077,1.166,1.712
				C469.447,86.659,469.581,87.33,469.581,88.037z M467.886,88.037c0-0.506-0.093-0.987-0.276-1.442
				c-0.186-0.456-0.45-0.861-0.797-1.217c-0.337-0.351-0.729-0.621-1.172-0.81c-0.445-0.189-0.913-0.284-1.405-0.284
				s-0.96,0.093-1.405,0.28c-0.443,0.187-0.839,0.458-1.186,0.813c-0.347,0.351-0.61,0.754-0.793,1.21s-0.273,0.939-0.273,1.449
				c0,0.506,0.091,0.984,0.273,1.436s0.446,0.854,0.793,1.21s0.74,0.626,1.183,0.813s0.911,0.28,1.408,0.28
				c0.487,0,0.951-0.093,1.392-0.28c0.439-0.187,0.835-0.458,1.186-0.813c0.347-0.355,0.611-0.76,0.797-1.213
				C467.793,89.015,467.886,88.538,467.886,88.037z"/>
			<path style="fill:#FFFFFF;" d="M472.147,93.02V82.616l6.357,6.118c0.173,0.173,0.349,0.358,0.526,0.554s0.364,0.417,0.561,0.663
				v-6.938h1.504V93.41l-6.487-6.228c-0.173-0.168-0.341-0.346-0.502-0.533c-0.162-0.187-0.316-0.383-0.462-0.588v6.959H472.147z"/>
		</g>
		
			<line style="fill-rule:evenodd;clip-rule:evenodd;fill:none;stroke:#FFFFFF;stroke-width:2;stroke-miterlimit:2.4142;" x1="422.157" y1="87.789" x2="422.157" y2="82.605"/>
		
			<polyline style="fill-rule:evenodd;clip-rule:evenodd;fill:none;stroke:#FFFFFF;stroke-width:2;stroke-miterlimit:2.4142;" points="
			443.764,93.504 446.356,89.016 453.584,89.016 		"/>
	</g>
	<polyline style="fill:none;stroke:#000000;" points="0,17.506 162.337,17.506 168.248,8.183 174.158,17.506 180.069,26.829 
		185.979,17.506 342.051,17.506 347.962,8.183 353.873,17.506 359.783,26.829 365.693,17.506 519,17.506 	"/>
	<polyline style="fill:none;stroke:#000000;" points="0,186.101 162.337,186.101 168.248,176.778 174.158,186.101 180.069,195.425 
		185.979,186.101 342.051,186.101 347.962,176.778 353.873,186.101 359.783,195.425 365.693,186.101 519,186.101 	"/>
</g>
<g id="Layer_1">
</g>
</svg>
