<?xml version="1.0" encoding="iso-8859-1"?>
<!-- Generator: Adobe Illustrator 18.0.0, SVG Export Plug-In . SVG Version: 6.00 Build 0)  -->
<!DOCTYPE svg PUBLIC "-//W3C//DTD SVG 1.1//EN" "http://www.w3.org/Graphics/SVG/1.1/DTD/svg11.dtd">
<svg version="1.1" xmlns="http://www.w3.org/2000/svg" xmlns:xlink="http://www.w3.org/1999/xlink" x="0px" y="0px"
	 viewBox="0 0 125.22 108.596" style="enable-background:new 0 0 125.22 108.596;" xml:space="preserve">
<g id="hexShapeKnob_x5F_wText_x5F_top_copy">
	<g>
		<path style="opacity:0.3;" d="M103.187,36.551l13.845,11.548h-0.004l0.663,0.554c0,0,2.209,1.562,2.209,3.461v31.884
			c0,1.105-0.738,2.091-1.356,2.722l0.109-0.026c-6.729,10.685-18.63,17.786-32.191,17.786c-13.665,0-26.687-6.704-33.388-17.528
			l-0.182-0.2c-5.67-5.63-13.5-13.403-13.5-13.403l-4.277-4.277h0.002c-6.881-6.879-11.135-16.383-11.135-26.883
			c0-20.993,17.02-38.016,38.016-38.013c10.498,0,20.002,4.254,26.88,11.135v-0.002l4.277,4.277
			c4.828,4.829,8.08,10.635,9.764,16.78"/>
		<linearGradient id="SVGID_1_" gradientUnits="userSpaceOnUse" x1="35.3544" y1="15.3576" x2="89.1165" y2="69.1197">
			<stop  offset="0" style="stop-color:#404040"/>
			<stop  offset="1" style="stop-color:#191919"/>
		</linearGradient>
		
			<circle style="fill:url(#SVGID_1_);stroke:#000000;stroke-linecap:round;stroke-linejoin:round;" cx="62.235" cy="42.239" r="38.016"/>
		<linearGradient id="SVGID_2_" gradientUnits="userSpaceOnUse" x1="62.2343" y1="79.9745" x2="62.2343" y2="26.2564">
			<stop  offset="0.1706" style="stop-color:#2E2E2E"/>
			<stop  offset="0.8" style="stop-color:#2E2E2E"/>
			<stop  offset="1" style="stop-color:#404040"/>
		</linearGradient>
		<path style="fill:url(#SVGID_2_);" d="M29.874,62.194c6.697,10.837,18.686,18.06,32.361,18.06
			c13.615,0,25.559-7.158,32.272-17.917l-0.12,0.086c0.602-0.634,1.286-1.587,1.286-2.651v-29.77c0-1.898-2.209-3.461-2.209-3.461
			l-0.663-0.554l-61.125,0.03l-0.666,0.555c0,0-2.216,1.567-2.216,3.47v29.824c0,1.003,0.608,1.905,1.184,2.536"/>
		<path style="fill:#404040;" d="M71.917,4.92c-3.117-0.457-6.344-0.697-9.654-0.697c-3.306,0-6.537,0.241-9.656,0.698
			c1.479,0.002,0.109,1.439,0.109,1.439l-21.04,19.657l61.129-0.03L71.808,6.359C71.808,6.359,70.439,4.923,71.917,4.92z"/>
		<path style="fill:none;stroke:#454545;stroke-width:3;stroke-linecap:round;stroke-linejoin:round;" d="M94.427,60.369
			c-6.729,11.166-18.63,18.586-32.191,18.586c-13.557,0-25.458-7.418-32.188-18.579"/>
		<path style="fill:none;stroke:#454545;stroke-width:3;stroke-linecap:round;stroke-linejoin:round;" d="M94.116,61.259"/>
		<path style="fill:none;stroke:#595959;stroke-width:3;stroke-linecap:round;stroke-linejoin:round;" d="M31.134,27.9L53.912,6.737
			c0,0,1.15-0.749,0.927-1.334"/>
		<path style="fill:none;stroke:#595959;stroke-width:3;stroke-linecap:round;stroke-linejoin:round;" d="M30.067,30.042
			c0,0-0.115-1.153,1.066-2.142"/>
		
			<line style="fill:none;stroke:#595959;stroke-width:3;stroke-linecap:round;stroke-linejoin:round;" x1="30.067" y1="59.901" x2="30.067" y2="30.042"/>
		<path style="fill:none;stroke:#525252;stroke-width:3;stroke-linecap:round;stroke-linejoin:round;" d="M93.342,27.866
			L70.611,6.736c0,0-1.15-0.696-0.927-1.282"/>
		<path style="fill:none;stroke:#474747;stroke-width:3;stroke-linecap:round;stroke-linejoin:round;" d="M94.406,30.003
			c0,0,0.115-1.152-1.064-2.137"/>
		
			<line style="fill:none;stroke:#454545;stroke-width:3;stroke-linecap:round;stroke-linejoin:round;" x1="94.406" y1="59.81" x2="94.406" y2="30.003"/>
		<path style="fill:none;stroke:#595959;stroke-width:3;stroke-linecap:round;stroke-linejoin:round;" d="M55.53,5.253
			c0,0,3.354-0.38,6.734-0.38"/>
		<path style="fill:none;stroke:#525252;stroke-width:3;stroke-linecap:round;stroke-linejoin:round;" d="M68.994,5.254
			c0,0-3.35-0.382-6.732-0.381"/>
		<path d="M65.505,41.425V4.371c-1.078-0.091-2.168-0.148-3.27-0.148c-1.104,0-2.191,0.056-3.272,0.148v37.055H65.505z"/>
		<linearGradient id="SVGID_3_" gradientUnits="userSpaceOnUse" x1="62.2345" y1="41.4254" x2="62.2345" y2="4.223">
			<stop  offset="0" style="stop-color:#E5E5E5"/>
			<stop  offset="0.2" style="stop-color:#E5E5E5"/>
			<stop  offset="0.3916" style="stop-color:#F2F2F2"/>
			<stop  offset="0.6623" style="stop-color:#FCFCFC"/>
			<stop  offset="1" style="stop-color:#FFFFFF"/>
		</linearGradient>
		<path style="fill:url(#SVGID_3_);" d="M64.181,41.425V4.371c0.216-0.091-0.858-0.148-1.945-0.148
			c-1.088,0-2.161,0.056-1.948,0.148v37.055H64.181z"/>
		<circle style="fill:none;stroke:#000000;stroke-linecap:round;stroke-linejoin:round;" cx="62.235" cy="42.239" r="38.016"/>
		<path style="fill:none;stroke:#000000;stroke-linecap:round;stroke-linejoin:round;" d="M29.888,62.22
			c6.701,10.823,18.682,18.034,32.347,18.034c13.561,0,25.462-7.1,32.191-17.786l-0.109,0.026c0.618-0.632,1.356-1.617,1.356-2.722
			v-29.77c0-1.898-2.209-3.461-2.209-3.461l-0.663-0.554h0.004L71.808,6.359c0,0-1.37-1.437,0.109-1.439
			c-3.117-0.457-6.344-0.697-9.654-0.697c-3.306,0-6.537,0.241-9.656,0.698c1.479,0.002,0.109,1.439,0.109,1.439l-21.04,19.657l0,0
			l-0.666,0.555c0,0-2.216,1.567-2.216,3.47v29.824c0,1.017,0.625,1.931,1.207,2.562"/>
		<g>
			<path style="fill:#FFFFFF;" d="M48.318,49.637v4.62H46.75V43.963h2.531c0.75,0,1.302,0.041,1.656,0.123
				c0.354,0.082,0.662,0.217,0.925,0.404c0.324,0.239,0.577,0.562,0.759,0.967c0.183,0.406,0.275,0.852,0.275,1.34
				c0,0.487-0.092,0.937-0.275,1.349c-0.182,0.413-0.436,0.737-0.759,0.971c-0.262,0.188-0.571,0.321-0.925,0.4
				c-0.354,0.08-0.906,0.12-1.656,0.12h-0.33H48.318z M48.424,48.266h0.429c0.928,0,1.547-0.1,1.856-0.302
				c0.309-0.202,0.464-0.557,0.464-1.069c0-0.548-0.165-0.935-0.496-1.16c-0.33-0.225-0.939-0.337-1.824-0.337h-0.429V48.266z"/>
			<path style="fill:#FFFFFF;" d="M55.092,43.963h1.652v6.251c0,0.928,0.214,1.626,0.643,2.092c0.429,0.466,1.07,0.7,1.923,0.7
				c0.848,0,1.487-0.234,1.916-0.7c0.429-0.466,0.643-1.164,0.643-2.092v-6.251h1.673v6.406c0,1.392-0.352,2.434-1.055,3.126
				s-1.762,1.037-3.178,1.037c-1.416,0-2.473-0.345-3.171-1.034c-0.699-0.689-1.048-1.732-1.048-3.129V43.963z"/>
			<path style="fill:#FFFFFF;" d="M66.57,54.257V43.963h1.674v8.797h3.74v1.497H66.57z"/>
			<path style="fill:#FFFFFF;" d="M74.061,54.257V43.963h1.674v8.797h3.74v1.497H74.061z"/>
			<path style="fill:#FFFFFF;" d="M47.2,59.859v8.874h-1.674v-8.874h-2.735v-1.42h7.13v1.42H47.2z"/>
			<path style="fill:#FFFFFF;" d="M51.879,58.439h1.652v6.251c0,0.928,0.214,1.626,0.643,2.092s1.07,0.7,1.923,0.7
				c0.848,0,1.487-0.234,1.916-0.7c0.429-0.466,0.643-1.164,0.643-2.092v-6.251h1.673v6.406c0,1.392-0.352,2.434-1.055,3.126
				s-1.762,1.037-3.178,1.037c-1.416,0-2.473-0.345-3.171-1.034s-1.048-1.732-1.048-3.129V58.439z"/>
			<path style="fill:#FFFFFF;" d="M64.924,64.128v4.605h-1.568V58.439h2.335c0.684,0,1.215,0.045,1.592,0.134
				c0.378,0.089,0.7,0.237,0.967,0.443c0.319,0.249,0.565,0.57,0.738,0.963s0.26,0.825,0.26,1.294c0,0.824-0.199,1.471-0.598,1.937
				c-0.398,0.466-0.987,0.747-1.765,0.84l3.544,4.682h-1.891l-3.424-4.605H64.924z M65.03,62.827h0.302
				c0.886,0,1.474-0.103,1.765-0.31c0.29-0.206,0.436-0.572,0.436-1.097c0-0.568-0.156-0.967-0.468-1.199
				c-0.312-0.232-0.889-0.348-1.733-0.348H65.03V62.827z"/>
			<path style="fill:#FFFFFF;" d="M72.141,68.733V58.031l6.539,6.293c0.178,0.178,0.359,0.368,0.542,0.57
				c0.183,0.201,0.375,0.429,0.577,0.681v-7.137h1.547v10.695l-6.673-6.406c-0.178-0.173-0.35-0.356-0.516-0.548
				c-0.167-0.192-0.325-0.393-0.475-0.604v7.158H72.141z"/>
		</g>
	</g>
	<g id="Cross_112_">
		<line style="fill:none;" x1="125.22" y1="105.498" x2="119.021" y2="105.498"/>
		<line style="fill:none;" x1="122.119" y1="102.398" x2="122.119" y2="108.596"/>
	</g>
	<g id="Cross_111_">
		<line style="fill:none;" x1="6.198" y1="3.1" x2="0" y2="3.1"/>
		<line style="fill:none;" x1="3.097" y1="0" x2="3.097" y2="6.197"/>
	</g>
</g>
<g id="Layer_1">
</g>
</svg>
