<?xml version="1.0" encoding="iso-8859-1"?>
<!-- Generator: Adobe Illustrator 18.0.0, SVG Export Plug-In . SVG Version: 6.00 Build 0)  -->
<!DOCTYPE svg PUBLIC "-//W3C//DTD SVG 1.1//EN" "http://www.w3.org/Graphics/SVG/1.1/DTD/svg11.dtd">
<svg version="1.1" xmlns="http://www.w3.org/2000/svg" xmlns:xlink="http://www.w3.org/1999/xlink" x="0px" y="0px"
	 viewBox="0 0 125.22 108.596" style="enable-background:new 0 0 125.22 108.596;" xml:space="preserve">
<g id="hexShapeKnob_x5F_wText_x5F_right30deg">
	<g>
		<path style="opacity:0.3;" d="M122.821,70.664l-0.298-0.811l0.003,0.002l-8.37-27.497c0,0-0.424-1.748,0.642-1.28
			c0.054,0.023-19.932-21.325-34.264-31.757C62.352-1.176,39.102,5.054,28.604,23.236c-9.325,16.152-5.442,36.294,8.285,47.952
			c2.759,3.265,6.115,6.118,10.03,8.379c1.789,1.034,3.629,1.899,5.5,2.612c3.001,7.889,8.62,14.838,16.5,19.387
			c11.745,6.78,25.601,6.584,36.771,0.694l-0.108-0.033c0.851-0.238,1.983-0.722,2.536-1.679l14.885-25.782
			C123.953,73.122,122.821,70.664,122.821,70.664z"/>
		
			<linearGradient id="SVGID_1_" gradientUnits="userSpaceOnUse" x1="39.2184" y1="14.5631" x2="92.9771" y2="68.3217" gradientTransform="matrix(1 -0.01 0.01 1 -4.9855 1.4622)">
			<stop  offset="0" style="stop-color:#404040"/>
			<stop  offset="1" style="stop-color:#191919"/>
		</linearGradient>
		
			<circle style="fill:url(#SVGID_1_);stroke:#000000;stroke-linecap:round;stroke-linejoin:round;" cx="61.526" cy="42.243" r="38.016"/>
		
			<linearGradient id="SVGID_2_" gradientUnits="userSpaceOnUse" x1="-179.4832" y1="171.4058" x2="-179.4832" y2="117.6869" gradientTransform="matrix(0.866 0.5 -0.5 0.866 283.7928 16.227)">
			<stop  offset="0.1706" style="stop-color:#2E2E2E"/>
			<stop  offset="0.8" style="stop-color:#2E2E2E"/>
			<stop  offset="1" style="stop-color:#404040"/>
		</linearGradient>
		<path style="fill:url(#SVGID_2_);" d="M23.523,43.345c0.382,12.735,7.153,24.984,18.996,31.821
			c11.791,6.809,25.713,6.581,36.907,0.621l-0.147,0.014c0.838-0.248,1.907-0.731,2.439-1.653l14.885-25.782
			c0.949-1.643-0.183-4.102-0.183-4.102l-0.298-0.811l-52.95-30.537l-0.855,0.149c0,0-2.702,0.25-3.654,1.897L23.753,40.79
			c-0.502,0.87-0.427,1.955-0.244,2.789"/>
		<path style="fill:#404040;" d="M88.571,14.766c-2.472-1.953-5.147-3.776-8.013-5.43c-2.862-1.653-5.781-3.06-8.712-4.223
			c1.28,0.742-0.625,1.301-0.625,1.301l-28.049,6.503l52.953,30.539l-8.37-27.497C87.757,15.958,87.289,14.029,88.571,14.766z"/>
		<path style="fill:none;stroke:#454545;stroke-width:3;stroke-linecap:round;stroke-linejoin:round;" d="M80.34,74.041
			c-11.409,6.305-25.427,6.78-37.172,0c-11.741-6.778-18.338-19.153-18.586-32.184"/>
		<path style="fill:none;stroke:#454545;stroke-width:3;stroke-linecap:round;stroke-linejoin:round;" d="M79.625,74.657"/>
		<path style="fill:none;stroke:#595959;stroke-width:3;stroke-linecap:round;stroke-linejoin:round;" d="M41.762,14.275
			l30.307-6.939c0,0,1.37-0.074,1.47-0.691"/>
		<path style="fill:none;stroke:#595959;stroke-width:3;stroke-linecap:round;stroke-linejoin:round;" d="M39.768,15.597
			c0,0,0.476-1.056,1.995-1.322"/>
		
			<line style="fill:none;stroke:#595959;stroke-width:3;stroke-linecap:round;stroke-linejoin:round;" x1="24.838" y1="41.456" x2="39.768" y2="15.597"/>
		<path style="fill:none;stroke:#525252;stroke-width:3;stroke-linecap:round;stroke-linejoin:round;" d="M95.652,45.35
			l-9.12-29.665c0,0-0.649-1.178-0.163-1.574"/>
		<path style="fill:none;stroke:#474747;stroke-width:3;stroke-linecap:round;stroke-linejoin:round;" d="M95.504,47.732
			c0,0,0.676-0.94,0.148-2.382"/>
		
			<line style="fill:none;stroke:#454545;stroke-width:3;stroke-linecap:round;stroke-linejoin:round;" x1="80.601" y1="73.546" x2="95.504" y2="47.732"/>
		<path style="fill:none;stroke:#595959;stroke-width:3;stroke-linecap:round;stroke-linejoin:round;" d="M74.212,6.861
			c0,0,3.095,1.349,6.021,3.039"/>
		<path style="fill:none;stroke:#525252;stroke-width:3;stroke-linecap:round;stroke-linejoin:round;" d="M85.871,13.593
			c0,0-2.711-2.006-5.639-3.696"/>
		<path d="M64.765,43.174l18.527-32.089c-0.887-0.618-1.804-1.212-2.757-1.763c-0.956-0.552-1.926-1.046-2.907-1.508L59.1,39.904
			L64.765,43.174z"/>
		
			<linearGradient id="SVGID_3_" gradientUnits="userSpaceOnUse" x1="-179.4833" y1="132.857" x2="-179.4833" y2="95.6534" gradientTransform="matrix(0.866 0.5 -0.5 0.866 283.7928 16.227)">
			<stop  offset="0" style="stop-color:#E5E5E5"/>
			<stop  offset="0.2" style="stop-color:#E5E5E5"/>
			<stop  offset="0.3916" style="stop-color:#F2F2F2"/>
			<stop  offset="0.6623" style="stop-color:#FCFCFC"/>
			<stop  offset="1" style="stop-color:#FFFFFF"/>
		</linearGradient>
		<path style="fill:url(#SVGID_3_);" d="M63.618,42.513l18.527-32.091c0.232,0.028-0.668-0.557-1.61-1.1
			c-0.942-0.544-1.9-1.032-1.76-0.846l-18.527,32.09L63.618,42.513z"/>
		<path style="fill:none;stroke:#000000;stroke-linecap:round;stroke-linejoin:round;" d="M23.523,43.375
			c0.391,12.724,7.161,24.959,18.996,31.791c11.745,6.78,25.601,6.584,36.771,0.694l-0.108-0.033
			c0.851-0.238,1.983-0.722,2.536-1.679l14.885-25.782c0.949-1.643-0.183-4.102-0.183-4.102l-0.298-0.811l0.003,0.002l-8.37-27.497
			c0,0-0.468-1.929,0.814-1.192c-2.472-1.953-5.147-3.776-8.013-5.43c-2.862-1.653-5.781-3.06-8.712-4.223
			c1.28,0.742-0.625,1.301-0.625,1.301l-28.049,6.503l0,0l-0.855,0.149c0,0-2.702,0.25-3.654,1.897L23.753,40.79
			c-0.509,0.881-0.425,1.985-0.237,2.822"/>
		<g>
			<path style="fill:#FFFFFF;" d="M45.815,41.737l-2.309,4l-1.358-0.784l5.147-8.915l2.192,1.266
				c0.65,0.375,1.107,0.687,1.372,0.934c0.265,0.249,0.465,0.519,0.599,0.813c0.16,0.369,0.218,0.775,0.174,1.217
				c-0.044,0.443-0.188,0.876-0.432,1.297c-0.244,0.422-0.547,0.766-0.913,1.032c-0.365,0.266-0.745,0.419-1.142,0.46
				c-0.321,0.031-0.655-0.007-1.002-0.116c-0.346-0.107-0.844-0.349-1.494-0.724l-0.286-0.165L45.815,41.737z M46.591,40.602
				l0.372,0.214c0.804,0.465,1.391,0.686,1.759,0.666c0.369-0.02,0.681-0.251,0.937-0.693c0.275-0.475,0.324-0.893,0.151-1.252
				c-0.174-0.361-0.644-0.763-1.411-1.205l-0.372-0.214L46.591,40.602z"/>
			<path style="fill:#FFFFFF;" d="M54.519,40.21l1.431,0.826l-3.125,5.414c-0.464,0.804-0.627,1.514-0.49,2.133
				c0.139,0.619,0.578,1.141,1.316,1.567c0.735,0.424,1.405,0.542,2.009,0.352c0.604-0.19,1.139-0.686,1.603-1.49l3.125-5.413
				l1.45,0.837l-3.203,5.547c-0.696,1.206-1.522,1.932-2.476,2.179c-0.955,0.248-2.045,0.017-3.272-0.691
				c-1.225-0.707-1.969-1.534-2.229-2.481c-0.26-0.946-0.041-2.023,0.658-3.234L54.519,40.21z"/>
			<path style="fill:#FFFFFF;" d="M59.312,54.863l5.147-8.915l1.449,0.837l-4.398,7.617l3.239,1.871L64,57.57L59.312,54.863z"/>
			<path style="fill:#FFFFFF;" d="M65.799,58.609l5.147-8.915l1.449,0.836l-4.398,7.618l3.239,1.87l-0.749,1.297L65.799,58.609z"/>
			<path style="fill:#FFFFFF;" d="M39.735,50.031l-4.436,7.684l-1.449-0.837l4.436-7.684l-2.369-1.368l0.71-1.23l6.174,3.564
				l-0.71,1.23L39.735,50.031z"/>
			<path style="fill:#FFFFFF;" d="M44.497,51.14l1.431,0.826l-3.125,5.413c-0.464,0.804-0.628,1.515-0.49,2.133
				c0.139,0.619,0.577,1.141,1.316,1.568c0.734,0.424,1.404,0.542,2.009,0.352c0.605-0.19,1.139-0.686,1.603-1.491l3.125-5.413
				l1.45,0.837l-3.203,5.547c-0.696,1.206-1.521,1.933-2.476,2.18c-0.954,0.248-2.045,0.017-3.271-0.691
				c-1.226-0.707-1.969-1.534-2.23-2.48c-0.26-0.946-0.041-2.023,0.658-3.234L44.497,51.14z"/>
			<path style="fill:#FFFFFF;" d="M52.951,62.588l-2.303,3.989l-1.358-0.784l5.147-8.915l2.021,1.167
				c0.593,0.342,1.031,0.647,1.313,0.912c0.282,0.265,0.487,0.555,0.616,0.867c0.152,0.374,0.203,0.775,0.157,1.203
				c-0.046,0.428-0.188,0.845-0.422,1.251c-0.413,0.715-0.908,1.174-1.486,1.379c-0.579,0.205-1.228,0.153-1.949-0.155l0.728,5.828
				l-1.638-0.946l-0.663-5.7L52.951,62.588z M53.693,61.515l0.263,0.152c0.767,0.443,1.328,0.647,1.682,0.614
				c0.355-0.033,0.663-0.276,0.926-0.732c0.283-0.491,0.348-0.915,0.194-1.272c-0.154-0.357-0.595-0.745-1.326-1.167l-0.263-0.152
				L53.693,61.515z"/>
			<path style="fill:#FFFFFF;" d="M56.899,70.185l5.35-9.268l2.516,8.72c0.066,0.244,0.128,0.498,0.185,0.764
				c0.057,0.266,0.11,0.559,0.158,0.879l3.568-6.181l1.34,0.773l-5.347,9.262l-2.576-8.884c-0.068-0.239-0.125-0.484-0.174-0.733
				c-0.048-0.249-0.084-0.504-0.108-0.761l-3.579,6.198L56.899,70.185z"/>
		</g>
	</g>
	<g id="Cross_58_">
		<line style="fill:none;" x1="125.22" y1="105.498" x2="119.021" y2="105.498"/>
		<line style="fill:none;" x1="122.119" y1="102.398" x2="122.119" y2="108.596"/>
	</g>
	<g id="Cross_57_">
		<line style="fill:none;" x1="6.198" y1="3.1" x2="0" y2="3.1"/>
		<line style="fill:none;" x1="3.097" y1="0" x2="3.097" y2="6.197"/>
	</g>
</g>
<g id="Layer_1">
</g>
</svg>
