<?xml version="1.0" encoding="utf-8"?>
<!-- Generator: Adobe Illustrator 18.0.0, SVG Export Plug-In . SVG Version: 6.00 Build 0)  -->
<!DOCTYPE svg PUBLIC "-//W3C//DTD SVG 1.1//EN" "http://www.w3.org/Graphics/SVG/1.1/DTD/svg11.dtd">
<svg version="1.1" id="Layer_1" xmlns="http://www.w3.org/2000/svg" xmlns:xlink="http://www.w3.org/1999/xlink" x="0px" y="0px"
	 viewBox="577.5 337.5 45 45" enable-background="new 577.5 337.5 45 45" xml:space="preserve">
<path fill="#102A3E" d="M585.5,375.9c-8.4-8.4-8.4-22,0-30.4c8.4-8.4,21.9-8.4,30.4,0c8.5,8.4,8.4,22,0,30.4
	C607.4,384.3,593.9,384.2,585.5,375.9z"/>
<path fill="#00A2D3" d="M584.5,374.9c-8.4-8.4-8.4-22,0-30.4c8.4-8.4,21.9-8.4,30.4,0c8.5,8.4,8.4,22,0,30.4
	C606.4,383.3,593,383.3,584.5,374.9z"/>
<path fill="#FFFFFF" d="M589.8,369.4c0,0,3.2-4.7,3.4-9.6s-3.4-10.1-3.4-10.1c0-0.9,0.8-1.2,1.5-1l21.7,9.9c0.8,0.3,0.8,1.5,0,2
	l-21.8,9.9C590.5,370.7,589.7,370.2,589.8,369.4z"/>
</svg>
