<?xml version="1.0" encoding="iso-8859-1"?>
<!-- Generator: Adobe Illustrator 18.0.0, SVG Export Plug-In . SVG Version: 6.00 Build 0)  -->
<!DOCTYPE svg PUBLIC "-//W3C//DTD SVG 1.1//EN" "http://www.w3.org/Graphics/SVG/1.1/DTD/svg11.dtd">
<svg version="1.1" xmlns="http://www.w3.org/2000/svg" xmlns:xlink="http://www.w3.org/1999/xlink" x="0px" y="0px"
	 viewBox="0 0 104.899 104.89" style="enable-background:new 0 0 104.899 104.89;" xml:space="preserve">
<g id="right_x5F_BaroSpeedAlt_x5F_rotatingKnob_x5F_wShadow">
	<path style="opacity:0.3;" d="M97.813,63.592c-0.547-0.548-1.077-1.078-1.597-1.596c-0.24-8.18-3.472-16.287-9.714-22.528
		c-0.22-0.22-0.453-0.453-0.686-0.686C83.795,25.089,74.954,12.98,61.97,7.094l-4.506,4.669c0,0-1.468,1.615-4.041,0.926
		c-2.573-0.689-3.039-2.823-3.039-2.823l-1.567-6.297c-19.814-1.945-38.7,10.65-44.023,30.513
		c-5.923,22.104,7.194,44.824,29.298,50.747c1.56,0.418,3.123,0.731,4.684,0.963c0.232,0.232,0.46,0.46,0.701,0.701
		c6.241,6.241,14.346,9.473,22.525,9.715c0.503,0.504,1.032,1.031,1.597,1.596c9.447,9.448,24.766,9.448,34.213,0
		C107.261,88.359,107.26,73.037,97.813,63.592z"/>
	
		<linearGradient id="SVGID_1_" gradientUnits="userSpaceOnUse" x1="-46.9654" y1="-115.1214" x2="33.0904" y2="-93.6706" gradientTransform="matrix(0.866 0.5 -0.5 0.866 -4.2495 135.8135)">
		<stop  offset="0" style="stop-color:#404040"/>
		<stop  offset="1" style="stop-color:#191919"/>
	</linearGradient>
	<path style="fill:url(#SVGID_1_);stroke:#000000;" d="M59.096,4.221l-4.505,4.668c0,0-1.47,1.616-4.042,0.927
		c-2.572-0.69-3.039-2.823-3.039-2.823l-1.567-6.295C26.131-1.249,7.244,11.348,1.922,31.21C-4,53.315,9.115,76.033,31.219,81.958
		c22.104,5.92,44.822-7.195,50.745-29.302C87.286,32.795,77.228,12.442,59.096,4.221z"/>
	<path style="opacity:0.3;" d="M52.667,81.956c20.531-5.501,33.298-25.495,30.265-46.029c-0.191-0.199-0.375-0.403-0.57-0.598
		L65.455,18.421c-12.986-12.984-34.039-12.984-47.025,0C5.446,31.406,5.447,52.462,18.432,65.446l16.905,16.905
		c0.201,0.202,0.41,0.391,0.616,0.586C41.372,83.732,47.039,83.465,52.667,81.956z"/>
	<linearGradient id="SVGID_2_" gradientUnits="userSpaceOnUse" x1="18.43" y1="18.4215" x2="65.4535" y2="65.4451">
		<stop  offset="0" style="stop-color:#404040"/>
		<stop  offset="1" style="stop-color:#191919"/>
	</linearGradient>
	<circle style="fill:url(#SVGID_2_);stroke:#000000;" cx="41.942" cy="41.934" r="33.251"/>
	<path style="opacity:0.3;" d="M75.193,41.934c0-0.258-0.013-0.511-0.019-0.766c-0.548-0.684-1.133-1.35-1.767-1.983L59.049,24.827
		c-9.448-9.446-24.766-9.446-34.214,0c-9.447,9.448-9.447,24.766,0.001,34.214l14.357,14.355c0.635,0.635,1.301,1.221,1.985,1.77
		c0.255,0.005,0.509,0.019,0.764,0.019C60.305,75.184,75.193,60.297,75.193,41.934z"/>
	<circle style="fill:#2E2E2E;stroke:#000000;stroke-width:0.5;" cx="41.942" cy="41.934" r="24.192"/>
	<circle style="fill:#191919;stroke:#000000;stroke-width:0.5;" cx="41.942" cy="41.934" r="22.976"/>
	<path style="opacity:0.3;" d="M43.775,20.791c5.878,0,11.224,2.226,15.286,5.857c-4.207-4.709-10.308-7.69-17.119-7.69
		c-12.689,0-22.976,10.287-22.976,22.976c0,6.811,2.981,12.912,7.69,17.119c-3.63-4.064-5.857-9.408-5.857-15.286
		C20.799,31.077,31.085,20.791,43.775,20.791z"/>
	<circle style="fill:#2E2E2E;stroke:#000000;" cx="41.942" cy="41.934" r="21"/>
</g>
<g id="Layer_1">
</g>
</svg>
