<?xml version="1.0" encoding="iso-8859-1"?>
<!-- Generator: Adobe Illustrator 18.0.0, SVG Export Plug-In . SVG Version: 6.00 Build 0)  -->
<!DOCTYPE svg PUBLIC "-//W3C//DTD SVG 1.1//EN" "http://www.w3.org/Graphics/SVG/1.1/DTD/svg11.dtd">
<svg version="1.1" xmlns="http://www.w3.org/2000/svg" xmlns:xlink="http://www.w3.org/1999/xlink" x="0px" y="0px"
	 viewBox="0 0 96.707 85.228" style="enable-background:new 0 0 96.707 85.228;" xml:space="preserve">
<g id="TuneData_x5F_rotatingKnob_x5F_wShadow">
	<path style="opacity:0.3;" d="M89.622,55.409c-0.549-0.548-4.635-4.634-5.154-5.154c-0.24-8.177-3.472-16.284-9.714-22.526
		c-2.771-2.77-5.474-5.473-7.258-7.258l-0.908-0.909c-0.75-0.75-1.192-1.192-1.192-1.192l0,0l-8.132-8.133
		c-12.986-12.984-34.041-12.984-47.025,0c-12.984,12.984-12.984,34.041,0,47.025l7.765,7.764c-0.452-0.452,0.298,0.298,0.298,0.298
		l0,0l8.844,8.843c0.195,0.195,0.381,0.381,0.584,0.584c6.241,6.241,14.347,9.473,22.526,9.715c0.109,0.109,0.387,0.387,0.759,0.761
		l42.091-0.001C98.875,75.9,97.712,63.499,89.622,55.409z"/>
	<linearGradient id="SVGID_1_" gradientUnits="userSpaceOnUse" x1="10.2392" y1="10.2392" x2="57.2624" y2="57.2624">
		<stop  offset="0" style="stop-color:#404040"/>
		<stop  offset="1" style="stop-color:#191919"/>
	</linearGradient>
	<circle style="fill:url(#SVGID_1_);stroke:#000000;" cx="33.751" cy="33.751" r="33.251"/>
	<path style="opacity:0.3;" d="M67.002,33.751c0-0.258-0.013-0.511-0.02-0.766c-0.548-0.684-1.132-1.35-1.767-1.983L50.857,16.644
		c-9.448-9.445-24.765-9.445-34.213,0c-9.446,9.448-9.446,24.766,0.001,34.214l14.357,14.355c0.635,0.635,1.3,1.221,1.984,1.77
		c0.255,0.005,0.509,0.019,0.765,0.019C52.114,67.002,67.002,52.114,67.002,33.751z"/>
	<circle style="fill:#2E2E2E;stroke:#000000;" cx="33.751" cy="33.751" r="24.192"/>
	<circle style="fill:#191919;stroke:#000000;" cx="33.751" cy="33.751" r="22.976"/>
	<path style="opacity:0.3;" d="M35.584,12.608c5.878,0,11.223,2.226,15.286,5.857c-4.207-4.709-10.308-7.69-17.119-7.69
		c-12.689,0-22.976,10.287-22.976,22.976c0,6.811,2.981,12.912,7.69,17.119c-3.632-4.064-5.857-9.408-5.857-15.286
		C12.608,22.895,22.895,12.608,35.584,12.608z"/>
	<circle style="fill:#2E2E2E;stroke:#000000;" cx="33.751" cy="33.751" r="21"/>
</g>
<g id="Layer_1">
</g>
</svg>
