<?xml version="1.0" encoding="iso-8859-1"?>
<!-- Generator: Adobe Illustrator 18.0.0, SVG Export Plug-In . SVG Version: 6.00 Build 0)  -->
<!DOCTYPE svg PUBLIC "-//W3C//DTD SVG 1.1//EN" "http://www.w3.org/Graphics/SVG/1.1/DTD/svg11.dtd">
<svg version="1.1" xmlns="http://www.w3.org/2000/svg" xmlns:xlink="http://www.w3.org/1999/xlink" x="0px" y="0px"
	 viewBox="0 0 81.657 20.344" style="enable-background:new 0 0 81.657 20.344;" xml:space="preserve">
<g id="ACTive_x5F_ToggleButton_x5F_Selected">
	<g>
		<rect x="0.499" y="0.499" style="fill:#808080;stroke:#C7C7C7;stroke-width:0.9971;" width="80.66" height="19.347"/>
		<rect x="1.018" y="1.003" style="fill:#00355E;" width="39" height="18.185"/>
		<g>
			<path style="fill-rule:evenodd;clip-rule:evenodd;" d="M5.527,2.636c-0.867,0-1.66,0.725-1.66,1.668v11.171
				c0,0.943,0.793,1.669,1.66,1.669h30.572c0.938,0,1.659-0.726,1.659-1.669V4.305c0-0.943-0.721-1.668-1.659-1.668H5.527z"/>
		</g>
		
			<line style="fill:none;stroke:#C7C7C7;stroke-width:1.507;stroke-linecap:round;stroke-linejoin:round;stroke-miterlimit:10;" x1="40.757" y1="19.188" x2="40.757" y2="0.855"/>
	</g>
	<g>
		<g>
			<path style="fill:none;stroke:#00FE00;stroke-width:0.2493;stroke-linecap:round;stroke-linejoin:round;" d="M9.202,15.91H7.856
				L10.88,3.702h2.045l3.023,12.208H14.55l-0.874-3.621h-3.618L9.202,15.91z M10.329,11.138h3.094
				c-0.513-2.209-1.031-4.459-1.556-6.75c-0.093,0.504-0.261,1.285-0.502,2.342S10.778,9.257,10.329,11.138z"/>
			<path style="fill:none;stroke:#00FE00;stroke-width:0.2493;stroke-linecap:round;stroke-linejoin:round;" d="M23.036,6.655
				c-0.204-1.283-0.813-1.925-1.827-1.925c-1.596,0-2.395,1.717-2.395,5.15c0,1.189,0.086,2.162,0.258,2.918s0.443,1.32,0.813,1.692
				c0.37,0.372,0.852,0.558,1.446,0.558c0.501,0,0.896-0.135,1.184-0.404s0.526-0.718,0.712-1.345l1.127,0.308
				c-0.174,0.861-0.524,1.518-1.048,1.969s-1.2,0.677-2.027,0.677c-1.276,0-2.239-0.535-2.889-1.604
				c-0.649-1.069-0.974-2.653-0.974-4.75c0-1.377,0.146-2.542,0.437-3.494c0.291-0.952,0.716-1.667,1.276-2.145
				c0.559-0.478,1.235-0.716,2.027-0.716c0.449,0,0.865,0.069,1.25,0.207c0.385,0.138,0.711,0.331,0.979,0.58
				s0.486,0.561,0.655,0.936s0.274,0.803,0.314,1.283L23.036,6.655z"/>
			<path style="fill:none;stroke:#00FE00;stroke-width:0.2493;stroke-linecap:round;stroke-linejoin:round;" d="M30.481,15.91
				h-1.363V5.056h-2.972V3.869h7.306v1.187h-2.971V15.91z"/>
		</g>
		<g>
			<path style="fill:#00FE00;" d="M9.202,15.91H7.856L10.88,3.702h2.045l3.023,12.208H14.55l-0.874-3.621h-3.618L9.202,15.91z
				 M10.329,11.138h3.094c-0.513-2.209-1.031-4.459-1.556-6.75c-0.093,0.504-0.261,1.285-0.502,2.342S10.778,9.257,10.329,11.138z"
				/>
			<path style="fill:#00FE00;" d="M23.036,6.655c-0.204-1.283-0.813-1.925-1.827-1.925c-1.596,0-2.395,1.717-2.395,5.15
				c0,1.189,0.086,2.162,0.258,2.918s0.443,1.32,0.813,1.692c0.37,0.372,0.852,0.558,1.446,0.558c0.501,0,0.896-0.135,1.184-0.404
				s0.526-0.718,0.712-1.345l1.127,0.308c-0.174,0.861-0.524,1.518-1.048,1.969s-1.2,0.677-2.027,0.677
				c-1.276,0-2.239-0.535-2.889-1.604c-0.649-1.069-0.974-2.653-0.974-4.75c0-1.377,0.146-2.542,0.437-3.494
				c0.291-0.952,0.716-1.667,1.276-2.145c0.559-0.478,1.235-0.716,2.027-0.716c0.449,0,0.865,0.069,1.25,0.207
				c0.385,0.138,0.711,0.331,0.979,0.58s0.486,0.561,0.655,0.936s0.274,0.803,0.314,1.283L23.036,6.655z"/>
			<path style="fill:#00FE00;" d="M30.481,15.91h-1.363V5.056h-2.972V3.869h7.306v1.187h-2.971V15.91z"/>
		</g>
	</g>
	<g>
		<g>
			<path style="fill:none;stroke:#000000;stroke-width:2.2436;stroke-linecap:round;stroke-linejoin:round;" d="M50.366,13.937
				l0.771-0.775c0.215,0.387,0.488,0.688,0.821,0.906c0.333,0.218,0.687,0.327,1.062,0.327c0.447,0,0.808-0.138,1.082-0.415
				c0.275-0.276,0.412-0.646,0.412-1.108c0-0.414-0.123-0.784-0.369-1.112c-0.246-0.328-0.634-0.669-1.166-1.024
				c-0.617-0.409-1.081-0.734-1.394-0.977c-0.313-0.243-0.562-0.518-0.747-0.825C50.653,8.626,50.56,8.27,50.56,7.865
				c0-0.66,0.238-1.209,0.714-1.647s1.075-0.657,1.799-0.657c0.965,0,1.769,0.456,2.412,1.368l-0.777,0.58
				c-0.554-0.71-1.135-1.064-1.742-1.064c-0.246,0-0.467,0.054-0.663,0.162c-0.197,0.108-0.351,0.256-0.462,0.445
				c-0.112,0.188-0.167,0.391-0.167,0.606c0,0.251,0.063,0.479,0.188,0.684c0.125,0.205,0.307,0.408,0.546,0.61
				c0.239,0.202,0.553,0.434,0.941,0.694c0.544,0.377,0.974,0.705,1.286,0.983c0.313,0.279,0.554,0.584,0.724,0.917
				s0.254,0.726,0.254,1.179c0,0.485-0.115,0.928-0.345,1.328c-0.23,0.4-0.549,0.711-0.958,0.933s-0.861,0.333-1.357,0.333
				C51.925,15.318,51.063,14.858,50.366,13.937z"/>
			<path style="fill:none;stroke:#000000;stroke-width:2.2436;stroke-linecap:round;stroke-linejoin:round;" d="M57.89,15.055V5.824
				h4.676v0.923h-3.638v3.106h2.653v0.883h-2.653v3.396h3.765v0.923H57.89z"/>
			<path style="fill:none;stroke:#000000;stroke-width:2.2436;stroke-linecap:round;stroke-linejoin:round;" d="M68.483,7.96
				c-0.157-0.984-0.623-1.476-1.4-1.476c-1.224,0-1.836,1.316-1.836,3.949c0,0.912,0.066,1.658,0.198,2.237s0.339,1.012,0.623,1.297
				c0.284,0.286,0.653,0.428,1.109,0.428c0.384,0,0.687-0.104,0.908-0.31c0.221-0.207,0.403-0.55,0.546-1.031l0.864,0.236
				c-0.134,0.661-0.402,1.164-0.804,1.51c-0.402,0.346-0.92,0.519-1.554,0.519c-0.979,0-1.716-0.41-2.214-1.229
				s-0.747-2.034-0.747-3.642c0-1.056,0.111-1.949,0.335-2.679c0.223-0.73,0.549-1.278,0.978-1.644s0.947-0.549,1.555-0.549
				c0.344,0,0.663,0.053,0.958,0.159s0.545,0.254,0.75,0.444c0.205,0.191,0.373,0.431,0.502,0.718
				c0.129,0.288,0.21,0.616,0.241,0.984L68.483,7.96z"/>
		</g>
		<g>
			<path style="fill:none;stroke:#FFFFFF;stroke-width:0.2493;stroke-linecap:round;stroke-linejoin:round;" d="M50.366,13.937
				l0.771-0.775c0.215,0.387,0.488,0.688,0.821,0.906c0.333,0.218,0.687,0.327,1.062,0.327c0.447,0,0.808-0.138,1.082-0.415
				c0.275-0.276,0.412-0.646,0.412-1.108c0-0.414-0.123-0.784-0.369-1.112c-0.246-0.328-0.634-0.669-1.166-1.024
				c-0.617-0.409-1.081-0.734-1.394-0.977c-0.313-0.243-0.562-0.518-0.747-0.825C50.653,8.626,50.56,8.27,50.56,7.865
				c0-0.66,0.238-1.209,0.714-1.647s1.075-0.657,1.799-0.657c0.965,0,1.769,0.456,2.412,1.368l-0.777,0.58
				c-0.554-0.71-1.135-1.064-1.742-1.064c-0.246,0-0.467,0.054-0.663,0.162c-0.197,0.108-0.351,0.256-0.462,0.445
				c-0.112,0.188-0.167,0.391-0.167,0.606c0,0.251,0.063,0.479,0.188,0.684c0.125,0.205,0.307,0.408,0.546,0.61
				c0.239,0.202,0.553,0.434,0.941,0.694c0.544,0.377,0.974,0.705,1.286,0.983c0.313,0.279,0.554,0.584,0.724,0.917
				s0.254,0.726,0.254,1.179c0,0.485-0.115,0.928-0.345,1.328c-0.23,0.4-0.549,0.711-0.958,0.933s-0.861,0.333-1.357,0.333
				C51.925,15.318,51.063,14.858,50.366,13.937z"/>
			<path style="fill:none;stroke:#FFFFFF;stroke-width:0.2493;stroke-linecap:round;stroke-linejoin:round;" d="M57.89,15.055V5.824
				h4.676v0.923h-3.638v3.106h2.653v0.883h-2.653v3.396h3.765v0.923H57.89z"/>
			<path style="fill:none;stroke:#FFFFFF;stroke-width:0.2493;stroke-linecap:round;stroke-linejoin:round;" d="M68.483,7.96
				c-0.157-0.984-0.623-1.476-1.4-1.476c-1.224,0-1.836,1.316-1.836,3.949c0,0.912,0.066,1.658,0.198,2.237s0.339,1.012,0.623,1.297
				c0.284,0.286,0.653,0.428,1.109,0.428c0.384,0,0.687-0.104,0.908-0.31c0.221-0.207,0.403-0.55,0.546-1.031l0.864,0.236
				c-0.134,0.661-0.402,1.164-0.804,1.51c-0.402,0.346-0.92,0.519-1.554,0.519c-0.979,0-1.716-0.41-2.214-1.229
				s-0.747-2.034-0.747-3.642c0-1.056,0.111-1.949,0.335-2.679c0.223-0.73,0.549-1.278,0.978-1.644s0.947-0.549,1.555-0.549
				c0.344,0,0.663,0.053,0.958,0.159s0.545,0.254,0.75,0.444c0.205,0.191,0.373,0.431,0.502,0.718
				c0.129,0.288,0.21,0.616,0.241,0.984L68.483,7.96z"/>
		</g>
		<g>
			<path style="fill:#FFFFFF;" d="M50.366,13.937l0.771-0.775c0.215,0.387,0.488,0.688,0.821,0.906
				c0.333,0.218,0.687,0.327,1.062,0.327c0.447,0,0.808-0.138,1.082-0.415c0.275-0.276,0.412-0.646,0.412-1.108
				c0-0.414-0.123-0.784-0.369-1.112c-0.246-0.328-0.634-0.669-1.166-1.024c-0.617-0.409-1.081-0.734-1.394-0.977
				c-0.313-0.243-0.562-0.518-0.747-0.825C50.653,8.626,50.56,8.27,50.56,7.865c0-0.66,0.238-1.209,0.714-1.647
				s1.075-0.657,1.799-0.657c0.965,0,1.769,0.456,2.412,1.368l-0.777,0.58c-0.554-0.71-1.135-1.064-1.742-1.064
				c-0.246,0-0.467,0.054-0.663,0.162c-0.197,0.108-0.351,0.256-0.462,0.445c-0.112,0.188-0.167,0.391-0.167,0.606
				c0,0.251,0.063,0.479,0.188,0.684c0.125,0.205,0.307,0.408,0.546,0.61c0.239,0.202,0.553,0.434,0.941,0.694
				c0.544,0.377,0.974,0.705,1.286,0.983c0.313,0.279,0.554,0.584,0.724,0.917s0.254,0.726,0.254,1.179
				c0,0.485-0.115,0.928-0.345,1.328c-0.23,0.4-0.549,0.711-0.958,0.933s-0.861,0.333-1.357,0.333
				C51.925,15.318,51.063,14.858,50.366,13.937z"/>
			<path style="fill:#FFFFFF;" d="M57.89,15.055V5.824h4.676v0.923h-3.638v3.106h2.653v0.883h-2.653v3.396h3.765v0.923H57.89z"/>
			<path style="fill:#FFFFFF;" d="M68.483,7.96c-0.157-0.984-0.623-1.476-1.4-1.476c-1.224,0-1.836,1.316-1.836,3.949
				c0,0.912,0.066,1.658,0.198,2.237s0.339,1.012,0.623,1.297c0.284,0.286,0.653,0.428,1.109,0.428c0.384,0,0.687-0.104,0.908-0.31
				c0.221-0.207,0.403-0.55,0.546-1.031l0.864,0.236c-0.134,0.661-0.402,1.164-0.804,1.51c-0.402,0.346-0.92,0.519-1.554,0.519
				c-0.979,0-1.716-0.41-2.214-1.229s-0.747-2.034-0.747-3.642c0-1.056,0.111-1.949,0.335-2.679c0.223-0.73,0.549-1.278,0.978-1.644
				s0.947-0.549,1.555-0.549c0.344,0,0.663,0.053,0.958,0.159s0.545,0.254,0.75,0.444c0.205,0.191,0.373,0.431,0.502,0.718
				c0.129,0.288,0.21,0.616,0.241,0.984L68.483,7.96z"/>
		</g>
	</g>
</g>
<g id="Layer_1">
</g>
</svg>
