<?xml version="1.0" encoding="iso-8859-1"?>
<!-- Generator: Adobe Illustrator 18.0.0, SVG Export Plug-In . SVG Version: 6.00 Build 0)  -->
<!DOCTYPE svg PUBLIC "-//W3C//DTD SVG 1.1//EN" "http://www.w3.org/Graphics/SVG/1.1/DTD/svg11.dtd">
<svg version="1.1" xmlns="http://www.w3.org/2000/svg" xmlns:xlink="http://www.w3.org/1999/xlink" x="0px" y="0px"
	 viewBox="0 0 30 33.225" style="enable-background:new 0 0 30 33.225;" xml:space="preserve">
<g id="AircraftSymbol">
	<g>
		<path style="fill:none;stroke:#000000;stroke-width:2;" d="M29,22.384v-2.978L16.62,11.83c0-1.334,0-6.834,0-7.962
			c-0.025-1.606-1.292-2.423-1.328-2.459L15,1.211l-0.291,0.199c-0.039,0.035-1.305,0.853-1.331,2.459c0,1.128,0,6.628,0,7.962
			L1,19.406v2.978l12.378-5.411v2.496l-1.149,0.002v4.668h1.149v1.874l-4.666,3.854v1.797L15,28.791l6.288,2.877v-1.799
			l-4.668-3.856V24.14h1.149v-4.668H16.62v-2.498L29,22.384z"/>
		<path style="fill:#FFFFFF;" d="M29,22.384v-2.978L16.62,11.83c0-1.334,0-6.834,0-7.962c-0.025-1.606-1.292-2.423-1.328-2.459
			L15,1.211l-0.291,0.199c-0.039,0.035-1.305,0.853-1.331,2.459c0,1.128,0,6.628,0,7.962L1,19.406v2.978l12.378-5.411v2.496
			l-1.149,0.002v4.668h1.149v1.874l-4.666,3.854v1.797L15,28.791l6.288,2.877v-1.799l-4.668-3.856V24.14h1.149v-4.668H16.62v-2.498
			L29,22.384z"/>
	</g>
</g>
<g id="Layer_1">
</g>
</svg>
