<?xml version="1.0" encoding="iso-8859-1"?>
<!-- Generator: Adobe Illustrator 18.0.0, SVG Export Plug-In . SVG Version: 6.00 Build 0)  -->
<!DOCTYPE svg PUBLIC "-//W3C//DTD SVG 1.1//EN" "http://www.w3.org/Graphics/SVG/1.1/DTD/svg11.dtd">
<svg version="1.1" xmlns="http://www.w3.org/2000/svg" xmlns:xlink="http://www.w3.org/1999/xlink" x="0px" y="0px"
	 viewBox="0 0 73.685 20.844" style="enable-background:new 0 0 73.685 20.844;" xml:space="preserve">
<g id="Button_x5F_Symbol_x5F_Selected">
	<g>
		<g>
			<g>
				<path style="fill:#C7C7C7;" d="M73.685,18.317c0,1.396-0.961,2.526-2.148,2.526H2.148C0.961,20.844,0,19.713,0,18.317V2.526
					C0,1.132,0.961,0,2.148,0h69.389c1.187,0,2.148,1.132,2.148,2.526V18.317z"/>
				<path style="fill:#4C4C4C;" d="M73.166,0.897L71.636,1.9L2.256,19.185l-1.772,0.712c0.394,0.573,0.988,0.947,1.664,0.947h69.389
					c1.187,0,2.148-1.131,2.148-2.526V2.526C73.685,1.902,73.484,1.338,73.166,0.897z"/>
				<path style="fill:#00355E;" d="M72.427,16.378c0,1.85-0.985,3.349-2.201,3.349H3.455c-1.216,0-2.201-1.499-2.201-3.349V4.471
					c0-1.851,0.985-3.349,2.201-3.349h66.771c1.216,0,2.201,1.498,2.201,3.349V16.378z"/>
			</g>
			<polygon style="fill:#FFFFFF;" points="64.538,17.3 70.321,5.515 58.755,5.516 64.538,17.3 			"/>
		</g>
	</g>
	<g>
		<g>
			<path style="fill:#FFFFFF;stroke:#000000;stroke-width:3;stroke-linejoin:round;" d="M4.429,15.111l1.011-1.011
				c0.281,0.504,0.64,0.898,1.077,1.183s0.901,0.426,1.393,0.426c0.586,0,1.059-0.18,1.419-0.541
				c0.36-0.359,0.541-0.842,0.541-1.445c0-0.539-0.161-1.022-0.483-1.45S8.554,11.4,7.857,10.937
				c-0.809-0.533-1.418-0.958-1.828-1.274s-0.737-0.675-0.98-1.076S4.684,7.72,4.684,7.193c0-0.861,0.312-1.577,0.936-2.149
				c0.624-0.57,1.411-0.856,2.36-0.856c1.266,0,2.32,0.595,3.164,1.784l-1.02,0.756C9.398,5.801,8.636,5.338,7.839,5.338
				c-0.322,0-0.612,0.07-0.87,0.211s-0.46,0.334-0.606,0.58s-0.22,0.51-0.22,0.791c0,0.328,0.082,0.626,0.246,0.893
				s0.403,0.531,0.716,0.795S7.831,9.173,8.34,9.513c0.715,0.492,1.277,0.92,1.688,1.283s0.727,0.762,0.949,1.195
				s0.334,0.946,0.334,1.538c0,0.633-0.151,1.21-0.453,1.731s-0.721,0.927-1.257,1.218c-0.536,0.289-1.129,0.435-1.78,0.435
				C6.474,16.913,5.343,16.313,4.429,15.111z"/>
			<path style="fill:#FFFFFF;stroke:#000000;stroke-width:3;stroke-linejoin:round;" d="M13.456,4.529h1.512l2.171,5.326
				l2.074-5.326h1.31l-2.716,6.732v5.309h-1.362v-5.054L13.456,4.529z"/>
			<path style="fill:#FFFFFF;stroke:#000000;stroke-width:3;stroke-linejoin:round;" d="M23.765,7.773
				c-0.164-0.51-0.29-0.967-0.378-1.371c0.012,0.158,0.018,0.422,0.018,0.791v0.914v8.464h-1.239V4.529h1.758l2.057,6.513
				l2.215-6.513h1.617V16.57h-1.239V8.107c0-0.814,0.012-1.383,0.035-1.705c-0.076,0.305-0.133,0.526-0.171,0.663
				c-0.038,0.139-0.075,0.268-0.11,0.387c-0.035,0.121-0.067,0.228-0.097,0.321l-1.907,5.344h-0.738L23.765,7.773z"/>
			<path style="fill:#FFFFFF;stroke:#000000;stroke-width:3;stroke-linejoin:round;" d="M31.869,16.57V4.529h2.663
				c1.207,0,2.124,0.249,2.751,0.747s0.94,1.216,0.94,2.153c0,0.615-0.161,1.157-0.483,1.626s-0.785,0.826-1.389,1.072
				c1.535,0.533,2.303,1.559,2.303,3.076c0,1.16-0.375,2.012-1.125,2.554c-0.75,0.542-1.898,0.813-3.445,0.813H31.869z M33.213,9.82
				h1.151c0.826,0,1.438-0.176,1.837-0.527s0.598-0.896,0.598-1.635c0-0.715-0.189-1.231-0.567-1.551s-0.974-0.479-1.789-0.479
				h-1.23V9.82z M33.213,15.419h1.644c0.756,0,1.337-0.188,1.745-0.567c0.407-0.377,0.611-0.909,0.611-1.595
				c0-0.574-0.107-1.034-0.321-1.38s-0.536-0.598-0.967-0.756s-0.98-0.237-1.648-0.237h-1.063V15.419z"/>
			<path style="fill:#FFFFFF;stroke:#000000;stroke-width:3;stroke-linejoin:round;" d="M47.759,10.559
				c0,2.074-0.324,3.652-0.971,4.732c-0.647,1.082-1.578,1.622-2.791,1.622c-0.803,0-1.485-0.24-2.048-0.721
				c-0.563-0.48-0.989-1.195-1.279-2.145s-0.435-2.112-0.435-3.489c0-1.02,0.082-1.93,0.246-2.729
				c0.164-0.801,0.407-1.469,0.729-2.004c0.322-0.537,0.716-0.941,1.182-1.213c0.466-0.273,1-0.409,1.604-0.409
				c0.609,0,1.148,0.136,1.617,0.409c0.469,0.271,0.86,0.671,1.173,1.195s0.554,1.182,0.721,1.973S47.759,9.498,47.759,10.559z
				 M43.998,5.391c-0.369,0-0.7,0.103-0.993,0.308s-0.542,0.519-0.747,0.94s-0.359,0.928-0.461,1.516
				c-0.103,0.59-0.154,1.282-0.154,2.079c0,1.846,0.19,3.22,0.571,4.122s0.976,1.354,1.784,1.354c1.57,0,2.355-1.723,2.355-5.168
				C46.353,7.108,45.568,5.391,43.998,5.391z"/>
			<path style="fill:#FFFFFF;stroke:#000000;stroke-width:3;stroke-linejoin:round;" d="M50.44,16.57V4.529h1.354v10.837h5.124
				v1.204H50.44z"/>
		</g>
	</g>
	<g>
		<g>
			<path style="fill:#FFFFFF;stroke:#FFFFFF;stroke-width:0.5;stroke-linejoin:round;" d="M4.429,15.111l1.011-1.011
				c0.281,0.504,0.64,0.898,1.077,1.183s0.901,0.426,1.393,0.426c0.586,0,1.059-0.18,1.419-0.541
				c0.36-0.359,0.541-0.842,0.541-1.445c0-0.539-0.161-1.022-0.483-1.45S8.554,11.4,7.857,10.937
				c-0.809-0.533-1.418-0.958-1.828-1.274s-0.737-0.675-0.98-1.076S4.684,7.72,4.684,7.193c0-0.861,0.312-1.577,0.936-2.149
				c0.624-0.57,1.411-0.856,2.36-0.856c1.266,0,2.32,0.595,3.164,1.784l-1.02,0.756C9.398,5.801,8.636,5.338,7.839,5.338
				c-0.322,0-0.612,0.07-0.87,0.211s-0.46,0.334-0.606,0.58s-0.22,0.51-0.22,0.791c0,0.328,0.082,0.626,0.246,0.893
				s0.403,0.531,0.716,0.795S7.831,9.173,8.34,9.513c0.715,0.492,1.277,0.92,1.688,1.283s0.727,0.762,0.949,1.195
				s0.334,0.946,0.334,1.538c0,0.633-0.151,1.21-0.453,1.731s-0.721,0.927-1.257,1.218c-0.536,0.289-1.129,0.435-1.78,0.435
				C6.474,16.913,5.343,16.313,4.429,15.111z"/>
			<path style="fill:#FFFFFF;stroke:#FFFFFF;stroke-width:0.5;stroke-linejoin:round;" d="M13.456,4.529h1.512l2.171,5.326
				l2.074-5.326h1.31l-2.716,6.732v5.309h-1.362v-5.054L13.456,4.529z"/>
			<path style="fill:#FFFFFF;stroke:#FFFFFF;stroke-width:0.5;stroke-linejoin:round;" d="M23.765,7.773
				c-0.164-0.51-0.29-0.967-0.378-1.371c0.012,0.158,0.018,0.422,0.018,0.791v0.914v8.464h-1.239V4.529h1.758l2.057,6.513
				l2.215-6.513h1.617V16.57h-1.239V8.107c0-0.814,0.012-1.383,0.035-1.705c-0.076,0.305-0.133,0.526-0.171,0.663
				c-0.038,0.139-0.075,0.268-0.11,0.387c-0.035,0.121-0.067,0.228-0.097,0.321l-1.907,5.344h-0.738L23.765,7.773z"/>
			<path style="fill:#FFFFFF;stroke:#FFFFFF;stroke-width:0.5;stroke-linejoin:round;" d="M31.869,16.57V4.529h2.663
				c1.207,0,2.124,0.249,2.751,0.747s0.94,1.216,0.94,2.153c0,0.615-0.161,1.157-0.483,1.626s-0.785,0.826-1.389,1.072
				c1.535,0.533,2.303,1.559,2.303,3.076c0,1.16-0.375,2.012-1.125,2.554c-0.75,0.542-1.898,0.813-3.445,0.813H31.869z M33.213,9.82
				h1.151c0.826,0,1.438-0.176,1.837-0.527s0.598-0.896,0.598-1.635c0-0.715-0.189-1.231-0.567-1.551s-0.974-0.479-1.789-0.479
				h-1.23V9.82z M33.213,15.419h1.644c0.756,0,1.337-0.188,1.745-0.567c0.407-0.377,0.611-0.909,0.611-1.595
				c0-0.574-0.107-1.034-0.321-1.38s-0.536-0.598-0.967-0.756s-0.98-0.237-1.648-0.237h-1.063V15.419z"/>
			<path style="fill:#FFFFFF;stroke:#FFFFFF;stroke-width:0.5;stroke-linejoin:round;" d="M47.759,10.559
				c0,2.074-0.324,3.652-0.971,4.732c-0.647,1.082-1.578,1.622-2.791,1.622c-0.803,0-1.485-0.24-2.048-0.721
				c-0.563-0.48-0.989-1.195-1.279-2.145s-0.435-2.112-0.435-3.489c0-1.02,0.082-1.93,0.246-2.729
				c0.164-0.801,0.407-1.469,0.729-2.004c0.322-0.537,0.716-0.941,1.182-1.213c0.466-0.273,1-0.409,1.604-0.409
				c0.609,0,1.148,0.136,1.617,0.409c0.469,0.271,0.86,0.671,1.173,1.195s0.554,1.182,0.721,1.973S47.759,9.498,47.759,10.559z
				 M43.998,5.391c-0.369,0-0.7,0.103-0.993,0.308s-0.542,0.519-0.747,0.94s-0.359,0.928-0.461,1.516
				c-0.103,0.59-0.154,1.282-0.154,2.079c0,1.846,0.19,3.22,0.571,4.122s0.976,1.354,1.784,1.354c1.57,0,2.355-1.723,2.355-5.168
				C46.353,7.108,45.568,5.391,43.998,5.391z"/>
			<path style="fill:#FFFFFF;stroke:#FFFFFF;stroke-width:0.5;stroke-linejoin:round;" d="M50.44,16.57V4.529h1.354v10.837h5.124
				v1.204H50.44z"/>
		</g>
	</g>
</g>
<g id="Layer_1">
</g>
</svg>
