<?xml version="1.0" encoding="iso-8859-1"?>
<!-- Generator: Adobe Illustrator 18.0.0, SVG Export Plug-In . SVG Version: 6.00 Build 0)  -->
<!DOCTYPE svg PUBLIC "-//W3C//DTD SVG 1.1//EN" "http://www.w3.org/Graphics/SVG/1.1/DTD/svg11.dtd">
<svg version="1.1" xmlns="http://www.w3.org/2000/svg" xmlns:xlink="http://www.w3.org/1999/xlink" x="0px" y="0px"
	 viewBox="0 0 59.764 20.844" style="enable-background:new 0 0 59.764 20.844;" xml:space="preserve">
<g id="Button_x5F_OVLY">
	<g>
		<g>
			<g>
				<path style="fill:#C7C7C7;" d="M59.764,18.317c0,1.396-0.961,2.526-2.148,2.526H2.148C0.961,20.844,0,19.713,0,18.317V2.526
					C0,1.132,0.961,0,2.148,0h55.468c1.187,0,2.148,1.132,2.148,2.526V18.317z"/>
				<path style="fill:#4C4C4C;" d="M59.246,0.897L57.715,1.9L2.256,19.185l-1.772,0.712c0.394,0.573,0.988,0.947,1.664,0.947h55.468
					c1.187,0,2.148-1.131,2.148-2.526V2.526C59.764,1.902,59.564,1.338,59.246,0.897z"/>
				<path style="fill:#808080;" d="M58.507,16.378c0,1.85-0.985,3.349-2.201,3.349H3.455c-1.216,0-2.201-1.499-2.201-3.349V4.471
					c0-1.851,0.985-3.349,2.201-3.349h52.851c1.216,0,2.201,1.498,2.201,3.349V16.378z"/>
			</g>
			<polygon style="fill:#FFFFFF;" points="50.618,17.3 56.401,5.515 44.835,5.516 50.618,17.3 			"/>
		</g>
	</g>
	<g>
		<g>
			<path style="fill:#FFFFFF;stroke:#000000;stroke-width:3;stroke-linejoin:round;" d="M12.615,10.559
				c0,2.074-0.324,3.652-0.971,4.732c-0.647,1.082-1.578,1.622-2.791,1.622c-0.803,0-1.485-0.24-2.048-0.721
				c-0.563-0.48-0.989-1.195-1.279-2.145s-0.435-2.112-0.435-3.489c0-1.02,0.082-1.93,0.246-2.729
				c0.164-0.801,0.407-1.469,0.729-2.004c0.322-0.537,0.716-0.941,1.182-1.213c0.466-0.273,1-0.409,1.604-0.409
				c0.609,0,1.148,0.136,1.617,0.409c0.469,0.271,0.86,0.671,1.173,1.195s0.554,1.182,0.721,1.973S12.615,9.498,12.615,10.559z
				 M8.853,5.391c-0.369,0-0.7,0.103-0.993,0.308s-0.542,0.519-0.747,0.94S6.754,7.567,6.651,8.154
				c-0.103,0.59-0.154,1.282-0.154,2.079c0,1.846,0.19,3.22,0.571,4.122s0.976,1.354,1.784,1.354c1.57,0,2.355-1.723,2.355-5.168
				C11.208,7.108,10.423,5.391,8.853,5.391z"/>
			<path style="fill:#FFFFFF;stroke:#000000;stroke-width:3;stroke-linejoin:round;" d="M15.743,4.529l1.819,8.455
				c0.129,0.633,0.226,1.263,0.29,1.89c0.023-0.217,0.053-0.444,0.088-0.681c0.035-0.238,0.075-0.463,0.119-0.678
				c0.044-0.213,0.083-0.402,0.119-0.566l1.784-8.42h1.327l-2.716,12.199h-1.512L14.364,4.529H15.743z"/>
			<path style="fill:#FFFFFF;stroke:#000000;stroke-width:3;stroke-linejoin:round;" d="M24.295,16.57V4.529h1.354v10.837h5.124
				v1.204H24.295z"/>
			<path style="fill:#FFFFFF;stroke:#000000;stroke-width:3;stroke-linejoin:round;" d="M32.311,4.529h1.512l2.171,5.326
				l2.074-5.326h1.31l-2.716,6.732v5.309h-1.362v-5.054L32.311,4.529z"/>
		</g>
	</g>
	<g>
		<g>
			<path style="fill:#FFFFFF;stroke:#FFFFFF;stroke-width:0.5;stroke-linejoin:round;" d="M12.615,10.559
				c0,2.074-0.324,3.652-0.971,4.732c-0.647,1.082-1.578,1.622-2.791,1.622c-0.803,0-1.485-0.24-2.048-0.721
				c-0.563-0.48-0.989-1.195-1.279-2.145s-0.435-2.112-0.435-3.489c0-1.02,0.082-1.93,0.246-2.729
				c0.164-0.801,0.407-1.469,0.729-2.004c0.322-0.537,0.716-0.941,1.182-1.213c0.466-0.273,1-0.409,1.604-0.409
				c0.609,0,1.148,0.136,1.617,0.409c0.469,0.271,0.86,0.671,1.173,1.195s0.554,1.182,0.721,1.973S12.615,9.498,12.615,10.559z
				 M8.853,5.391c-0.369,0-0.7,0.103-0.993,0.308s-0.542,0.519-0.747,0.94S6.754,7.567,6.651,8.154
				c-0.103,0.59-0.154,1.282-0.154,2.079c0,1.846,0.19,3.22,0.571,4.122s0.976,1.354,1.784,1.354c1.57,0,2.355-1.723,2.355-5.168
				C11.208,7.108,10.423,5.391,8.853,5.391z"/>
			<path style="fill:#FFFFFF;stroke:#FFFFFF;stroke-width:0.5;stroke-linejoin:round;" d="M15.743,4.529l1.819,8.455
				c0.129,0.633,0.226,1.263,0.29,1.89c0.023-0.217,0.053-0.444,0.088-0.681c0.035-0.238,0.075-0.463,0.119-0.678
				c0.044-0.213,0.083-0.402,0.119-0.566l1.784-8.42h1.327l-2.716,12.199h-1.512L14.364,4.529H15.743z"/>
			<path style="fill:#FFFFFF;stroke:#FFFFFF;stroke-width:0.5;stroke-linejoin:round;" d="M24.295,16.57V4.529h1.354v10.837h5.124
				v1.204H24.295z"/>
			<path style="fill:#FFFFFF;stroke:#FFFFFF;stroke-width:0.5;stroke-linejoin:round;" d="M32.311,4.529h1.512l2.171,5.326
				l2.074-5.326h1.31l-2.716,6.732v5.309h-1.362v-5.054L32.311,4.529z"/>
		</g>
	</g>
</g>
<g id="Layer_1">
</g>
</svg>
