<?xml version="1.0" encoding="iso-8859-1"?>
<!-- Generator: Adobe Illustrator 18.0.0, SVG Export Plug-In . SVG Version: 6.00 Build 0)  -->
<!DOCTYPE svg PUBLIC "-//W3C//DTD SVG 1.1//EN" "http://www.w3.org/Graphics/SVG/1.1/DTD/svg11.dtd">
<svg version="1.1" xmlns="http://www.w3.org/2000/svg" xmlns:xlink="http://www.w3.org/1999/xlink" x="0px" y="0px"
	 viewBox="0 0 15.803 17.14" style="enable-background:new 0 0 15.803 17.14;" xml:space="preserve">
<g id="ElevatorSymbol">
	<g>
		<path style="fill-rule:evenodd;clip-rule:evenodd;fill:#808080;" d="M7.92,5.42c-4.131,0-7.42,1.131-7.42,2.504v6.213
			c0,1.373,3.289,2.503,7.42,2.503c4.054,0,7.343-1.13,7.343-2.503V7.924C15.263,6.551,11.974,5.42,7.92,5.42z"/>
		
			<ellipse style="fill-rule:evenodd;clip-rule:evenodd;fill:none;stroke:#000000;stroke-miterlimit:8;" cx="7.883" cy="7.924" rx="7.383" ry="2.503"/>
		<path style="fill-rule:evenodd;clip-rule:evenodd;fill:#FFFFFF;" d="M7.996,0.498c-2.524,0-4.512,0.888-4.512,1.855v4.601
			c0,0.969,1.988,1.856,4.512,1.856c2.449,0,4.437-0.887,4.437-1.856V2.354C12.433,1.386,10.445,0.498,7.996,0.498z"/>
		
			<ellipse style="fill-rule:evenodd;clip-rule:evenodd;fill:none;stroke:#000000;stroke-miterlimit:8;" cx="7.958" cy="2.354" rx="4.475" ry="1.854"/>
		<path style="fill-rule:evenodd;clip-rule:evenodd;fill:none;stroke:#000000;stroke-miterlimit:8;" d="M12.433,6.955
			c0,1.023-2.004,1.854-4.475,1.854c-2.472,0-4.476-0.83-4.476-1.854"/>
		<line style="fill:none;stroke:#000000;stroke-miterlimit:8;" x1="12.433" y1="6.955" x2="12.433" y2="2.354"/>
		<line style="fill:none;stroke:#000000;stroke-miterlimit:8;" x1="3.482" y1="6.955" x2="3.482" y2="2.354"/>
		<path style="fill-rule:evenodd;clip-rule:evenodd;fill:none;stroke:#000000;stroke-miterlimit:8;" d="M15.303,14.137
			c0,1.383-3.306,2.503-7.383,2.503s-7.383-1.12-7.383-2.503"/>
		<line style="fill:none;stroke:#000000;stroke-miterlimit:8;" x1="0.537" y1="14.137" x2="0.537" y2="7.924"/>
		<line style="fill:none;stroke:#000000;stroke-miterlimit:8;" x1="15.303" y1="14.137" x2="15.303" y2="7.89"/>
	</g>
</g>
<g id="Layer_1">
</g>
</svg>
