<?xml version="1.0" encoding="iso-8859-1"?>
<!-- Generator: Adobe Illustrator 18.0.0, SVG Export Plug-In . SVG Version: 6.00 Build 0)  -->
<!DOCTYPE svg PUBLIC "-//W3C//DTD SVG 1.1//EN" "http://www.w3.org/Graphics/SVG/1.1/DTD/svg11.dtd">
<svg version="1.1" xmlns="http://www.w3.org/2000/svg" xmlns:xlink="http://www.w3.org/1999/xlink" x="0px" y="0px"
	 viewBox="0 0 419.194 419.194" style="enable-background:new 0 0 419.194 419.194;" xml:space="preserve">
<g id="HSI_x5F_FullScale">
	<rect y="0" style="opacity:0;" width="419.194" height="419.194"/>
	<g>
		
			<line style="fill:none;stroke:#FFFFFF;stroke-width:2;stroke-linejoin:round;" x1="31.283" y1="240.805" x2="26.768" y2="241.602"/>
		
			<line style="fill:none;stroke:#FFFFFF;stroke-width:2;stroke-linejoin:round;" x1="39.458" y1="271.313" x2="35.131" y2="272.888"/>
		
			<line style="fill:none;stroke:#FFFFFF;stroke-width:2;stroke-linejoin:round;" x1="52.806" y1="299.938" x2="48.834" y2="302.229"/>
		<line style="fill:none;stroke:#FFFFFF;stroke-width:2;stroke-linejoin:round;" x1="70.922" y1="325.81" x2="67.43" y2="328.739"/>
		
			<line style="fill:none;stroke:#FFFFFF;stroke-width:2;stroke-linejoin:round;" x1="93.255" y1="348.146" x2="90.325" y2="351.635"/>
		
			<line style="fill:none;stroke:#FFFFFF;stroke-width:2;stroke-linejoin:round;" x1="119.128" y1="366.261" x2="116.834" y2="370.229"/>
		
			<line style="fill:none;stroke:#FFFFFF;stroke-width:2;stroke-linejoin:round;" x1="147.753" y1="379.607" x2="146.178" y2="383.934"/>
		
			<line style="fill:none;stroke:#FFFFFF;stroke-width:2;stroke-linejoin:round;" x1="178.262" y1="387.783" x2="177.465" y2="392.297"/>
		
			<line style="fill:none;stroke:#FFFFFF;stroke-width:2;stroke-linejoin:round;" x1="209.726" y1="390.535" x2="209.725" y2="395.088"/>
		
			<line style="fill:none;stroke:#FFFFFF;stroke-width:2;stroke-linejoin:round;" x1="241.191" y1="387.782" x2="241.986" y2="392.296"/>
		
			<line style="fill:none;stroke:#FFFFFF;stroke-width:2;stroke-linejoin:round;" x1="271.699" y1="379.608" x2="273.273" y2="383.934"/>
		
			<line style="fill:none;stroke:#FFFFFF;stroke-width:2;stroke-linejoin:round;" x1="300.325" y1="366.26" x2="302.616" y2="370.23"/>
		
			<line style="fill:none;stroke:#FFFFFF;stroke-width:2;stroke-linejoin:round;" x1="326.197" y1="348.145" x2="329.126" y2="351.634"/>
		
			<line style="fill:none;stroke:#FFFFFF;stroke-width:2;stroke-linejoin:round;" x1="348.531" y1="325.812" x2="352.021" y2="328.739"/>
		
			<line style="fill:none;stroke:#FFFFFF;stroke-width:2;stroke-linejoin:round;" x1="366.647" y1="299.937" x2="370.615" y2="302.23"/>
		
			<line style="fill:none;stroke:#FFFFFF;stroke-width:2;stroke-linejoin:round;" x1="379.995" y1="271.312" x2="384.32" y2="272.886"/>
		
			<line style="fill:none;stroke:#FFFFFF;stroke-width:2;stroke-linejoin:round;" x1="388.169" y1="240.803" x2="392.683" y2="241.601"/>
		
			<line style="fill:none;stroke:#FFFFFF;stroke-width:2;stroke-linejoin:round;" x1="390.921" y1="209.339" x2="395.474" y2="209.34"/>
		
			<line style="fill:none;stroke:#FFFFFF;stroke-width:2;stroke-linejoin:round;" x1="388.169" y1="177.874" x2="392.682" y2="177.08"/>
		
			<line style="fill:none;stroke:#FFFFFF;stroke-width:2;stroke-linejoin:round;" x1="379.993" y1="147.365" x2="384.319" y2="145.793"/>
		
			<line style="fill:none;stroke:#FFFFFF;stroke-width:2;stroke-linejoin:round;" x1="366.645" y1="118.741" x2="370.615" y2="116.451"/>
		
			<line style="fill:none;stroke:#FFFFFF;stroke-width:2;stroke-linejoin:round;" x1="348.529" y1="92.868" x2="352.02" y2="89.941"/>
		
			<line style="fill:none;stroke:#FFFFFF;stroke-width:2;stroke-linejoin:round;" x1="326.195" y1="70.534" x2="329.125" y2="67.047"/>
		
			<line style="fill:none;stroke:#FFFFFF;stroke-width:2;stroke-linejoin:round;" x1="300.322" y1="52.418" x2="302.616" y2="48.452"/>
		
			<line style="fill:none;stroke:#FFFFFF;stroke-width:2;stroke-linejoin:round;" x1="271.696" y1="39.07" x2="273.272" y2="34.748"/>
		
			<line style="fill:none;stroke:#FFFFFF;stroke-width:2;stroke-linejoin:round;" x1="241.188" y1="30.895" x2="241.985" y2="26.385"/>
		
			<line style="fill:none;stroke:#FFFFFF;stroke-width:2;stroke-linejoin:round;" x1="209.726" y1="23.593" x2="209.723" y2="28.144"/>
		
			<line style="fill:none;stroke:#FFFFFF;stroke-width:2;stroke-linejoin:round;" x1="178.259" y1="30.897" x2="177.465" y2="26.385"/>
		
			<line style="fill:none;stroke:#FFFFFF;stroke-width:2;stroke-linejoin:round;" x1="147.751" y1="39.071" x2="146.179" y2="34.748"/>
		
			<line style="fill:none;stroke:#FFFFFF;stroke-width:2;stroke-linejoin:round;" x1="119.125" y1="52.42" x2="116.836" y2="48.451"/>
		<line style="fill:none;stroke:#FFFFFF;stroke-width:2;stroke-linejoin:round;" x1="93.252" y1="70.536" x2="90.326" y2="67.046"/>
		<line style="fill:none;stroke:#FFFFFF;stroke-width:2;stroke-linejoin:round;" x1="70.919" y1="92.869" x2="67.35" y2="90.037"/>
		
			<line style="fill:none;stroke:#FFFFFF;stroke-width:2;stroke-linejoin:round;" x1="52.803" y1="118.742" x2="48.836" y2="116.449"/>
		
			<line style="fill:none;stroke:#FFFFFF;stroke-width:2;stroke-linejoin:round;" x1="39.455" y1="147.368" x2="35.131" y2="145.793"/>
		
			<line style="fill:none;stroke:#FFFFFF;stroke-width:2;stroke-linejoin:round;" x1="31.28" y1="177.877" x2="26.768" y2="177.078"/>
		
			<line style="fill:none;stroke:#FFFFFF;stroke-width:2;stroke-linejoin:round;" x1="28.527" y1="209.342" x2="23.976" y2="209.338"/>
		
			<line style="fill:none;stroke:#FFFFFF;stroke-width:2;stroke-linejoin:round;" x1="29.22" y1="225.132" x2="21.434" y2="225.814"/>
		
			<line style="fill:none;stroke:#FFFFFF;stroke-width:2;stroke-linejoin:round;" x1="34.705" y1="256.237" x2="27.121" y2="258.269"/>
		
			<line style="fill:none;stroke:#FFFFFF;stroke-width:2;stroke-linejoin:round;" x1="45.506" y1="285.914" x2="38.393" y2="289.232"/>
		
			<line style="fill:none;stroke:#FFFFFF;stroke-width:2;stroke-linejoin:round;" x1="61.299" y1="313.27" x2="54.893" y2="317.754"/>
		
			<line style="fill:none;stroke:#FFFFFF;stroke-width:2;stroke-linejoin:round;" x1="81.601" y1="337.465" x2="76.084" y2="342.982"/>
		
			<line style="fill:none;stroke:#FFFFFF;stroke-width:2;stroke-linejoin:round;" x1="105.796" y1="357.768" x2="101.311" y2="364.172"/>
		
			<line style="fill:none;stroke:#FFFFFF;stroke-width:2;stroke-linejoin:round;" x1="133.148" y1="373.561" x2="129.832" y2="380.671"/>
		
			<line style="fill:none;stroke:#FFFFFF;stroke-width:2;stroke-linejoin:round;" x1="162.828" y1="384.36" x2="160.797" y2="391.943"/>
		
			<line style="fill:none;stroke:#FFFFFF;stroke-width:2;stroke-linejoin:round;" x1="193.933" y1="389.846" x2="193.253" y2="397.63"/>
		
			<line style="fill:none;stroke:#FFFFFF;stroke-width:2;stroke-linejoin:round;" x1="225.518" y1="389.848" x2="226.199" y2="397.63"/>
		
			<line style="fill:none;stroke:#FFFFFF;stroke-width:2;stroke-linejoin:round;" x1="256.622" y1="384.361" x2="258.654" y2="391.943"/>
		
			<line style="fill:none;stroke:#FFFFFF;stroke-width:2;stroke-linejoin:round;" x1="286.302" y1="373.559" x2="289.619" y2="380.671"/>
		
			<line style="fill:none;stroke:#FFFFFF;stroke-width:2;stroke-linejoin:round;" x1="313.656" y1="357.769" x2="318.14" y2="364.171"/>
		
			<line style="fill:none;stroke:#FFFFFF;stroke-width:2;stroke-linejoin:round;" x1="337.851" y1="337.465" x2="343.368" y2="342.982"/>
		
			<line style="fill:none;stroke:#FFFFFF;stroke-width:2;stroke-linejoin:round;" x1="358.153" y1="313.27" x2="364.557" y2="317.754"/>
		
			<line style="fill:none;stroke:#FFFFFF;stroke-width:2;stroke-linejoin:round;" x1="373.945" y1="285.916" x2="381.058" y2="289.232"/>
		
			<line style="fill:none;stroke:#FFFFFF;stroke-width:2;stroke-linejoin:round;" x1="384.748" y1="256.234" x2="392.33" y2="258.268"/>
		
			<line style="fill:none;stroke:#FFFFFF;stroke-width:2;stroke-linejoin:round;" x1="390.232" y1="225.133" x2="398.016" y2="225.814"/>
		
			<line style="fill:none;stroke:#FFFFFF;stroke-width:2;stroke-linejoin:round;" x1="390.232" y1="193.548" x2="398.016" y2="192.866"/>
		
			<line style="fill:none;stroke:#FFFFFF;stroke-width:2;stroke-linejoin:round;" x1="384.748" y1="162.443" x2="392.329" y2="160.412"/>
		
			<line style="fill:none;stroke:#FFFFFF;stroke-width:2;stroke-linejoin:round;" x1="373.945" y1="132.764" x2="381.057" y2="129.447"/>
		
			<line style="fill:none;stroke:#FFFFFF;stroke-width:2;stroke-linejoin:round;" x1="358.153" y1="105.41" x2="364.557" y2="100.926"/>
		
			<line style="fill:none;stroke:#FFFFFF;stroke-width:2;stroke-linejoin:round;" x1="337.851" y1="81.215" x2="343.367" y2="75.698"/>
		
			<line style="fill:none;stroke:#FFFFFF;stroke-width:2;stroke-linejoin:round;" x1="313.655" y1="60.912" x2="318.139" y2="54.51"/>
		
			<line style="fill:none;stroke:#FFFFFF;stroke-width:2;stroke-linejoin:round;" x1="286.302" y1="45.12" x2="289.516" y2="38.228"/>
		
			<line style="fill:none;stroke:#FFFFFF;stroke-width:2;stroke-linejoin:round;" x1="256.622" y1="34.318" x2="258.653" y2="26.738"/>
		
			<line style="fill:none;stroke:#FFFFFF;stroke-width:2;stroke-linejoin:round;" x1="225.517" y1="28.833" x2="226.198" y2="21.051"/>
		
			<line style="fill:none;stroke:#FFFFFF;stroke-width:2;stroke-linejoin:round;" x1="193.933" y1="28.833" x2="193.252" y2="21.051"/>
		
			<line style="fill:none;stroke:#FFFFFF;stroke-width:2;stroke-linejoin:round;" x1="162.828" y1="34.317" x2="160.797" y2="26.738"/>
		
			<line style="fill:none;stroke:#FFFFFF;stroke-width:2;stroke-linejoin:round;" x1="133.148" y1="45.121" x2="129.832" y2="38.01"/>
		
			<line style="fill:none;stroke:#FFFFFF;stroke-width:2;stroke-linejoin:round;" x1="105.794" y1="60.912" x2="101.312" y2="54.51"/>
		<line style="fill:none;stroke:#FFFFFF;stroke-width:2;stroke-linejoin:round;" x1="81.599" y1="81.215" x2="76.083" y2="75.699"/>
		
			<line style="fill:none;stroke:#FFFFFF;stroke-width:2;stroke-linejoin:round;" x1="61.296" y1="105.41" x2="54.894" y2="100.926"/>
		
			<line style="fill:none;stroke:#FFFFFF;stroke-width:2;stroke-linejoin:round;" x1="45.504" y1="132.764" x2="38.394" y2="129.447"/>
		
			<line style="fill:none;stroke:#FFFFFF;stroke-width:2;stroke-linejoin:round;" x1="34.702" y1="162.444" x2="27.121" y2="160.411"/>
		
			<line style="fill:none;stroke:#FFFFFF;stroke-width:2;stroke-linejoin:round;" x1="29.217" y1="193.55" x2="21.434" y2="192.868"/>
	</g>
	<circle style="fill:none;stroke:#FFFFFF;stroke-width:2;" cx="209.725" cy="209.341" r="181.285"/>
</g>
<g id="Layer_1">
</g>
</svg>
