<?xml version="1.0" encoding="iso-8859-1"?>
<!-- Generator: Adobe Illustrator 18.0.0, SVG Export Plug-In . SVG Version: 6.00 Build 0)  -->
<!DOCTYPE svg PUBLIC "-//W3C//DTD SVG 1.1//EN" "http://www.w3.org/Graphics/SVG/1.1/DTD/svg11.dtd">
<svg version="1.1" xmlns="http://www.w3.org/2000/svg" xmlns:xlink="http://www.w3.org/1999/xlink" x="0px" y="0px"
	 viewBox="0 0 21.055 20.916" style="enable-background:new 0 0 21.055 20.916;" xml:space="preserve">
<g id="Menu_x5F_Mbutton">
	<g>
		<g>
			<g>
				<path style="fill:#C7C7C7;" d="M21.055,18.379c0,1.404-1.024,2.538-2.292,2.538H2.294C1.026,20.916,0,19.783,0,18.379V2.537
					C0,1.133,1.026,0,2.294,0h16.469c1.269,0,2.292,1.133,2.292,2.537V18.379z"/>
				<path style="fill:#4C4C4C;" d="M20.504,0.897l-2.613,2.701L3.339,17.637l-2.822,2.328c0.423,0.576,1.056,0.951,1.777,0.951
					h16.469c1.269,0,2.292-1.134,2.292-2.538V2.537C21.055,1.906,20.844,1.34,20.504,0.897z"/>
				<path style="fill:#808080;" d="M19.373,16.174c0,1.747-1.004,3.159-2.251,3.159H4.027c-1.246,0-2.252-1.412-2.252-3.159V4.941
					c0-1.745,1.39-3.158,2.634-3.158h12.714c1.246,0,2.251,1.413,2.251,3.158V16.174z"/>
			</g>
		</g>
	</g>
	<g>
		<g>
			<path style="fill:#FFFFFF;stroke:#000000;stroke-width:3;stroke-linejoin:round;" d="M8.351,8.129
				c-0.164-0.51-0.29-0.967-0.378-1.371C7.984,6.917,7.99,7.18,7.99,7.549v0.914v8.464H6.751V4.886h1.758l2.057,6.513l2.215-6.513
				h1.617v12.041h-1.239V8.463c0-0.814,0.012-1.383,0.035-1.705c-0.076,0.305-0.133,0.526-0.171,0.663
				c-0.038,0.139-0.075,0.268-0.11,0.387c-0.035,0.121-0.067,0.228-0.097,0.321l-1.907,5.344H10.17L8.351,8.129z"/>
		</g>
	</g>
	<g>
		<g>
			<path style="fill:#FFFFFF;stroke:#FFFFFF;stroke-width:0.5;stroke-linejoin:round;" d="M8.351,8.129
				c-0.164-0.51-0.29-0.967-0.378-1.371C7.984,6.917,7.99,7.18,7.99,7.549v0.914v8.464H6.751V4.886h1.758l2.057,6.513l2.215-6.513
				h1.617v12.041h-1.239V8.463c0-0.814,0.012-1.383,0.035-1.705c-0.076,0.305-0.133,0.526-0.171,0.663
				c-0.038,0.139-0.075,0.268-0.11,0.387c-0.035,0.121-0.067,0.228-0.097,0.321l-1.907,5.344H10.17L8.351,8.129z"/>
		</g>
	</g>
</g>
<g id="Layer_1">
</g>
</svg>
