<?xml version="1.0" encoding="iso-8859-1"?>
<!-- Generator: Adobe Illustrator 18.0.0, SVG Export Plug-In . SVG Version: 6.00 Build 0)  -->
<!DOCTYPE svg PUBLIC "-//W3C//DTD SVG 1.1//EN" "http://www.w3.org/Graphics/SVG/1.1/DTD/svg11.dtd">
<svg version="1.1" xmlns="http://www.w3.org/2000/svg" xmlns:xlink="http://www.w3.org/1999/xlink" x="0px" y="0px"
	 viewBox="0 0 82.302 20.844" style="enable-background:new 0 0 82.302 20.844;" xml:space="preserve">
<g id="Menu_x5F_dropdown">
	<g>
		<g>
			<g>
				<path style="fill:#C7C7C7;" d="M82.302,18.317c0,1.396-0.961,2.526-2.148,2.526H2.148C0.961,20.844,0,19.713,0,18.317V2.526
					C0,1.132,0.961,0,2.148,0h78.006c1.187,0,2.148,1.132,2.148,2.526V18.317z"/>
				<path style="fill:#4C4C4C;" d="M81.784,0.897L80.253,1.9L2.256,19.185l-1.772,0.712c0.394,0.573,0.988,0.947,1.664,0.947h78.006
					c1.187,0,2.148-1.131,2.148-2.526V2.526C82.302,1.902,82.102,1.338,81.784,0.897z"/>
				<path style="fill:#808080;" d="M81.045,16.378c0,1.85-0.985,3.349-2.201,3.349H3.455c-1.216,0-2.201-1.499-2.201-3.349V4.471
					c0-1.851,0.985-3.349,2.201-3.349h75.389c1.216,0,2.201,1.498,2.201,3.349V16.378z"/>
			</g>
			<polygon style="fill:#FFFFFF;" points="73.156,17.3 78.939,5.515 67.372,5.516 73.156,17.3 			"/>
		</g>
		<g>
			<path style="fill:#000246;" d="M4.62,18.905c-1.771-0.004-3.117-1.454-3.119-3.209l0,0V4.814C1.503,3.051,2.869,1.679,4.62,1.677
				l0,0l0,0h57.824c1.751,0.002,3.117,1.374,3.121,3.137l0,0v10.882c-0.004,1.755-1.351,3.205-3.121,3.209l0,0H4.62L4.62,18.905z"/>
		</g>
	</g>
</g>
<g id="Layer_1">
</g>
</svg>
